%TF.GenerationSoftware,KiCad,Pcbnew,7.0.1*%
%TF.CreationDate,2023-05-30T08:19:09+02:00*%
%TF.ProjectId,test_SGTL5000,74657374-5f53-4475-944c-353030302e6b,rev?*%
%TF.SameCoordinates,Original*%
%TF.FileFunction,Copper,L4,Bot*%
%TF.FilePolarity,Positive*%
%FSLAX46Y46*%
G04 Gerber Fmt 4.6, Leading zero omitted, Abs format (unit mm)*
G04 Created by KiCad (PCBNEW 7.0.1) date 2023-05-30 08:19:09*
%MOMM*%
%LPD*%
G01*
G04 APERTURE LIST*
%TA.AperFunction,ComponentPad*%
%ADD10C,0.800000*%
%TD*%
%TA.AperFunction,ComponentPad*%
%ADD11C,6.400000*%
%TD*%
%TA.AperFunction,ComponentPad*%
%ADD12C,3.000000*%
%TD*%
%TA.AperFunction,ComponentPad*%
%ADD13O,2.100000X1.000000*%
%TD*%
%TA.AperFunction,ComponentPad*%
%ADD14O,1.600000X1.000000*%
%TD*%
%TA.AperFunction,ViaPad*%
%ADD15C,0.600000*%
%TD*%
%TA.AperFunction,Conductor*%
%ADD16C,0.300000*%
%TD*%
%TA.AperFunction,Conductor*%
%ADD17C,0.500000*%
%TD*%
%TA.AperFunction,Conductor*%
%ADD18C,0.200000*%
%TD*%
G04 APERTURE END LIST*
D10*
%TO.P,H101,1,1*%
%TO.N,GND*%
X97600000Y-50000000D03*
X98302944Y-48302944D03*
X98302944Y-51697056D03*
X100000000Y-47600000D03*
D11*
X100000000Y-50000000D03*
D10*
X100000000Y-52400000D03*
X101697056Y-48302944D03*
X101697056Y-51697056D03*
X102400000Y-50000000D03*
%TD*%
D12*
%TO.P,J304,1,In*%
%TO.N,/CODEC/LINEOUT_L*%
X70000000Y-78000000D03*
%TO.P,J304,2,Ext*%
%TO.N,GND*%
X66875000Y-74875000D03*
X66875000Y-81125000D03*
X73125000Y-74875000D03*
X73125000Y-81125000D03*
%TD*%
D13*
%TO.P,J401,S1,SHIELD*%
%TO.N,unconnected-(J401-SHIELD-PadS1)*%
X96870000Y-69320000D03*
D14*
X101050000Y-69320000D03*
D13*
X96870000Y-60680000D03*
D14*
X101050000Y-60680000D03*
%TD*%
D10*
%TO.P,H104,1,1*%
%TO.N,GND*%
X17600000Y-50000000D03*
X18302944Y-48302944D03*
X18302944Y-51697056D03*
X20000000Y-47600000D03*
D11*
X20000000Y-50000000D03*
D10*
X20000000Y-52400000D03*
X21697056Y-48302944D03*
X21697056Y-51697056D03*
X22400000Y-50000000D03*
%TD*%
%TO.P,H103,1,1*%
%TO.N,GND*%
X17600000Y-80000000D03*
X18302944Y-78302944D03*
X18302944Y-81697056D03*
X20000000Y-77600000D03*
D11*
X20000000Y-80000000D03*
D10*
X20000000Y-82400000D03*
X21697056Y-78302944D03*
X21697056Y-81697056D03*
X22400000Y-80000000D03*
%TD*%
D12*
%TO.P,J302,1,In*%
%TO.N,/CODEC/LINEIN_L*%
X30000000Y-78000000D03*
%TO.P,J302,2,Ext*%
%TO.N,GND*%
X26875000Y-74875000D03*
X26875000Y-81125000D03*
X33125000Y-74875000D03*
X33125000Y-81125000D03*
%TD*%
%TO.P,J303,1,In*%
%TO.N,/CODEC/MIC*%
X30000000Y-58000000D03*
%TO.P,J303,2,Ext*%
%TO.N,GND*%
X26875000Y-54875000D03*
X26875000Y-61125000D03*
X33125000Y-54875000D03*
X33125000Y-61125000D03*
%TD*%
%TO.P,J301,1,In*%
%TO.N,/CODEC/LINEIN_R*%
X50000000Y-78000000D03*
%TO.P,J301,2,Ext*%
%TO.N,GND*%
X46875000Y-74875000D03*
X46875000Y-81125000D03*
X53125000Y-74875000D03*
X53125000Y-81125000D03*
%TD*%
%TO.P,J305,1,In*%
%TO.N,/CODEC/LINEOUT_R*%
X90000000Y-78000000D03*
%TO.P,J305,2,Ext*%
%TO.N,GND*%
X86875000Y-74875000D03*
X86875000Y-81125000D03*
X93125000Y-74875000D03*
X93125000Y-81125000D03*
%TD*%
D10*
%TO.P,H102,1,1*%
%TO.N,GND*%
X97600000Y-80000000D03*
X98302944Y-78302944D03*
X98302944Y-81697056D03*
X100000000Y-77600000D03*
D11*
X100000000Y-80000000D03*
D10*
X100000000Y-82400000D03*
X101697056Y-78302944D03*
X101697056Y-81697056D03*
X102400000Y-80000000D03*
%TD*%
D15*
%TO.N,/STM32/nRST*%
X75600000Y-57700000D03*
X66550000Y-66000000D03*
X78700000Y-54600000D03*
X67100000Y-62100000D03*
%TO.N,GND*%
X86000000Y-83200000D03*
X16800000Y-64000000D03*
X36000000Y-83200000D03*
X46000000Y-83200000D03*
X86500000Y-55700000D03*
X88000000Y-83200000D03*
X48900000Y-50000000D03*
X62000000Y-83200000D03*
X70000000Y-46800000D03*
X38000000Y-83200000D03*
X48000000Y-83200000D03*
X76500000Y-65900000D03*
X76000000Y-46800000D03*
X95200000Y-68900000D03*
X95600000Y-55000000D03*
X34000000Y-83200000D03*
X103200000Y-60000000D03*
X40000000Y-83200000D03*
X38000000Y-46800000D03*
X16800000Y-72000000D03*
X84000000Y-46800000D03*
X94000000Y-46800000D03*
X82000000Y-46800000D03*
X44000000Y-83200000D03*
X51400000Y-66600000D03*
X103200000Y-70000000D03*
X80600000Y-66500000D03*
X90000000Y-83200000D03*
X103200000Y-56000000D03*
X94000000Y-83200000D03*
X28000000Y-83200000D03*
X93000000Y-70600000D03*
X64000000Y-46800000D03*
X103200000Y-68000000D03*
X86500000Y-56970000D03*
X51400000Y-67400000D03*
X88100000Y-70500000D03*
X16800000Y-68000000D03*
X59900000Y-57900000D03*
X48200000Y-69700000D03*
X74000000Y-46800000D03*
X82000000Y-83200000D03*
X54000000Y-83200000D03*
X52000000Y-83200000D03*
X75800000Y-63100000D03*
X72000000Y-46800000D03*
X54000000Y-46800000D03*
X96000000Y-46800000D03*
X103200000Y-64000000D03*
X30000000Y-46800000D03*
X94000000Y-54100000D03*
X52000000Y-46800000D03*
X60000000Y-83200000D03*
X50600000Y-67400000D03*
X16800000Y-56000000D03*
X103200000Y-58000000D03*
X61100000Y-56000000D03*
X50900000Y-53000000D03*
X42000000Y-46800000D03*
X32000000Y-46800000D03*
X70200000Y-56900000D03*
X96000000Y-83200000D03*
X65500000Y-60200000D03*
X38000000Y-54600000D03*
X66000000Y-83200000D03*
X36000000Y-46800000D03*
X58000000Y-46800000D03*
X66000000Y-46800000D03*
X40000000Y-46800000D03*
X74000000Y-83200000D03*
X54000000Y-64200000D03*
X16800000Y-70000000D03*
X16800000Y-66000000D03*
X44000000Y-46800000D03*
X69500000Y-53900000D03*
X16800000Y-74000000D03*
X77000000Y-67400000D03*
X36900000Y-50000000D03*
X88000000Y-46800000D03*
X103200000Y-76000000D03*
X70000000Y-83200000D03*
X38900000Y-53000000D03*
X46000000Y-46800000D03*
X64000000Y-83200000D03*
X58000000Y-83200000D03*
X50600000Y-66600000D03*
X26000000Y-83200000D03*
X60000000Y-46800000D03*
X86500000Y-53160000D03*
X50000000Y-83200000D03*
X92000000Y-83200000D03*
X16800000Y-58000000D03*
X76000000Y-83200000D03*
X64500000Y-59700000D03*
X84000000Y-83200000D03*
X80000000Y-46800000D03*
X26000000Y-46800000D03*
X103200000Y-54000000D03*
X103200000Y-72000000D03*
X44000000Y-54600000D03*
X16800000Y-62000000D03*
X32000000Y-83200000D03*
X49200000Y-69800000D03*
X92000000Y-46800000D03*
X42000000Y-83200000D03*
X50000000Y-54600000D03*
X78800000Y-64700000D03*
X103200000Y-66000000D03*
X91000000Y-56100000D03*
X68000000Y-46800000D03*
X50000000Y-46800000D03*
X30000000Y-83200000D03*
X61500000Y-66000000D03*
X78000000Y-46800000D03*
X103200000Y-62000000D03*
X16800000Y-60000000D03*
X48000000Y-46800000D03*
X72000000Y-83200000D03*
X24000000Y-83200000D03*
X86000000Y-46800000D03*
X24000000Y-46800000D03*
X16800000Y-76000000D03*
X34000000Y-46800000D03*
X63400000Y-61600000D03*
X56000000Y-54600000D03*
X28000000Y-46800000D03*
X95600000Y-49000000D03*
X56000000Y-83200000D03*
X88100000Y-68500000D03*
X78000000Y-83200000D03*
X103200000Y-74000000D03*
X16800000Y-54000000D03*
X68800000Y-56100000D03*
X80000000Y-83200000D03*
X74200000Y-63100000D03*
X93000000Y-59400000D03*
X90000000Y-46800000D03*
X53600000Y-69800000D03*
X68000000Y-83200000D03*
X56000000Y-46800000D03*
X89400000Y-65000000D03*
X95200000Y-61100000D03*
X62000000Y-46800000D03*
%TO.N,+3V3*%
X67700000Y-56800000D03*
X90100000Y-50200000D03*
X86500000Y-58200000D03*
X77400000Y-66500000D03*
X92000000Y-50200000D03*
X93100000Y-49900000D03*
X77200000Y-64000000D03*
X78300000Y-62800000D03*
X51600000Y-64200000D03*
%TO.N,+3.3VA*%
X50800000Y-70500000D03*
X74900000Y-65300000D03*
X56000000Y-51400000D03*
X54100000Y-52700000D03*
X74600000Y-66600000D03*
%TO.N,+1V8*%
X44000000Y-51400000D03*
X47500000Y-68100000D03*
X42100000Y-52700000D03*
%TO.N,+5V*%
X50000000Y-51400000D03*
X92450000Y-55000000D03*
X38800000Y-52150000D03*
X93150000Y-54200000D03*
X37100000Y-52200000D03*
X49200000Y-52200000D03*
X50850000Y-52150000D03*
X93200000Y-55800000D03*
X38000000Y-51400000D03*
%TO.N,/POWER/VBUS*%
X94000000Y-65000000D03*
X97550000Y-58000000D03*
X94600000Y-67450000D03*
X94600000Y-62550000D03*
%TO.N,/STM32/VCP_TX*%
X73400000Y-58500000D03*
X77100000Y-53100000D03*
%TO.N,/STM32/I2S_SCLK*%
X75800000Y-62000000D03*
X51200000Y-61200000D03*
%TO.N,/STM32/I2S_LRCLK*%
X75100000Y-61200000D03*
X54100000Y-61200000D03*
%TO.N,/STM32/I2S_DIN*%
X54800000Y-56200000D03*
X74600000Y-60400000D03*
%TO.N,/STM32/I2C_SCL*%
X75800000Y-54700000D03*
X39000000Y-56000000D03*
%TO.N,/STM32/I2C_SDA*%
X71800000Y-57100000D03*
X42000000Y-56000000D03*
%TO.N,/CODEC/LINEIN_L*%
X55900000Y-66100000D03*
%TO.N,/CODEC/MIC*%
X54800000Y-65600000D03*
%TO.N,/CODEC/LINEOUT_L*%
X55450000Y-68150000D03*
%TO.N,/CODEC/LINEOUT_R*%
X53900000Y-68099500D03*
%TD*%
D16*
%TO.N,/STM32/nRST*%
X67100000Y-65450000D02*
X66550000Y-66000000D01*
X75600000Y-57700000D02*
X78700000Y-54600000D01*
X67100000Y-62100000D02*
X67100000Y-65450000D01*
D17*
%TO.N,/POWER/VBUS*%
X94450000Y-60000000D02*
X94600000Y-59850000D01*
X94000000Y-66850000D02*
X94000000Y-65000000D01*
X94600000Y-59850000D02*
X96450000Y-58000000D01*
X94450000Y-61600000D02*
X94450000Y-60000000D01*
X94600000Y-62550000D02*
X94600000Y-61750000D01*
X94500000Y-61650000D02*
X94450000Y-61600000D01*
X94600000Y-67450000D02*
X94000000Y-66850000D01*
X94600000Y-62550000D02*
X94000000Y-63150000D01*
X94600000Y-61750000D02*
X94500000Y-61650000D01*
X94000000Y-63150000D02*
X94000000Y-65000000D01*
X96450000Y-58000000D02*
X97550000Y-58000000D01*
D16*
%TO.N,/STM32/VCP_TX*%
X73400000Y-58500000D02*
X77100000Y-54800000D01*
X77100000Y-54800000D02*
X77100000Y-53100000D01*
%TO.N,/STM32/I2S_SCLK*%
X66714212Y-61400000D02*
X65314212Y-62800000D01*
X69350000Y-62000000D02*
X68750000Y-61400000D01*
X68750000Y-61400000D02*
X66714212Y-61400000D01*
X75800000Y-62000000D02*
X69350000Y-62000000D01*
X65314212Y-62800000D02*
X52800000Y-62800000D01*
X52800000Y-62800000D02*
X51200000Y-61200000D01*
%TO.N,/STM32/I2S_LRCLK*%
X66507106Y-60900000D02*
X65107106Y-62300000D01*
X69500000Y-61200000D02*
X69200000Y-60900000D01*
X69200000Y-60900000D02*
X66507106Y-60900000D01*
X55200000Y-62300000D02*
X54100000Y-61200000D01*
X65107106Y-62300000D02*
X55200000Y-62300000D01*
X75100000Y-61200000D02*
X69500000Y-61200000D01*
%TO.N,/STM32/I2S_DIN*%
X66300000Y-60400000D02*
X65850000Y-60850000D01*
X59450000Y-60850000D02*
X54800000Y-56200000D01*
X74600000Y-60400000D02*
X66300000Y-60400000D01*
X65850000Y-60850000D02*
X59450000Y-60850000D01*
%TO.N,/STM32/I2C_SCL*%
X54800000Y-53800000D02*
X55600000Y-53000000D01*
X39000000Y-56000000D02*
X41200000Y-53800000D01*
X41200000Y-53800000D02*
X54800000Y-53800000D01*
X55600000Y-53000000D02*
X74100000Y-53000000D01*
X74100000Y-53000000D02*
X75800000Y-54700000D01*
%TO.N,/STM32/I2C_SDA*%
X52240381Y-56000000D02*
X52890381Y-55350000D01*
X42000000Y-56000000D02*
X52240381Y-56000000D01*
X70050000Y-55350000D02*
X71800000Y-57100000D01*
X52890381Y-55350000D02*
X70050000Y-55350000D01*
D18*
%TO.N,/CODEC/LINEIN_L*%
X40500000Y-65500000D02*
X38000000Y-68000000D01*
X55900000Y-66100000D02*
X55400000Y-66600000D01*
X54300000Y-66600000D02*
X53200000Y-65500000D01*
X38000000Y-76000000D02*
X36000000Y-78000000D01*
X38000000Y-68000000D02*
X38000000Y-76000000D01*
X53200000Y-65500000D02*
X40500000Y-65500000D01*
X36000000Y-78000000D02*
X30000000Y-78000000D01*
X55400000Y-66600000D02*
X54300000Y-66600000D01*
%TO.N,/CODEC/MIC*%
X54200000Y-65000000D02*
X31000000Y-65000000D01*
X30000000Y-64000000D02*
X30000000Y-58000000D01*
X54800000Y-65600000D02*
X54200000Y-65000000D01*
X31000000Y-65000000D02*
X30000000Y-64000000D01*
%TO.N,/CODEC/LINEOUT_L*%
X65300000Y-78000000D02*
X70000000Y-78000000D01*
X55450000Y-68150000D02*
X65300000Y-78000000D01*
%TO.N,/CODEC/LINEOUT_R*%
X53900000Y-68099500D02*
X54799500Y-67200000D01*
X54799500Y-67200000D02*
X54800000Y-67200000D01*
X54900000Y-67100000D02*
X73100000Y-67100000D01*
X73100000Y-67100000D02*
X84000000Y-78000000D01*
X54800000Y-67200000D02*
X54900000Y-67100000D01*
X84000000Y-78000000D02*
X90000000Y-78000000D01*
%TD*%
%TA.AperFunction,Conductor*%
%TO.N,GND*%
G36*
X100002854Y-46000632D02*
G01*
X100018811Y-46001369D01*
X100173088Y-46008502D01*
X100369795Y-46018166D01*
X100380787Y-46019201D01*
X100562876Y-46044601D01*
X100563781Y-46044732D01*
X100747261Y-46071949D01*
X100757413Y-46073892D01*
X100938614Y-46116510D01*
X100940023Y-46116852D01*
X101117874Y-46161401D01*
X101127091Y-46164096D01*
X101304478Y-46223550D01*
X101306618Y-46224292D01*
X101478220Y-46285692D01*
X101486519Y-46289004D01*
X101657980Y-46364712D01*
X101660909Y-46366051D01*
X101747263Y-46406892D01*
X101825119Y-46443715D01*
X101832411Y-46447465D01*
X101929135Y-46501341D01*
X101996435Y-46538827D01*
X101999810Y-46540777D01*
X102155371Y-46634017D01*
X102161670Y-46638058D01*
X102316699Y-46744256D01*
X102320459Y-46746935D01*
X102466009Y-46854882D01*
X102471305Y-46859040D01*
X102616009Y-46979200D01*
X102619947Y-46982617D01*
X102754206Y-47104303D01*
X102758590Y-47108478D01*
X102891520Y-47241408D01*
X102895698Y-47245795D01*
X103017375Y-47380045D01*
X103020805Y-47383998D01*
X103140951Y-47528684D01*
X103145124Y-47534000D01*
X103234734Y-47654825D01*
X103253041Y-47679509D01*
X103255742Y-47683299D01*
X103361940Y-47838328D01*
X103365999Y-47844656D01*
X103459200Y-48000153D01*
X103461171Y-48003563D01*
X103552525Y-48167573D01*
X103556291Y-48174896D01*
X103633947Y-48339089D01*
X103635286Y-48342018D01*
X103710994Y-48513479D01*
X103714311Y-48521791D01*
X103775666Y-48693265D01*
X103776487Y-48695634D01*
X103835894Y-48872881D01*
X103838606Y-48882157D01*
X103883104Y-49059803D01*
X103883526Y-49061543D01*
X103926101Y-49242562D01*
X103928053Y-49252758D01*
X103955257Y-49436156D01*
X103955410Y-49437218D01*
X103980794Y-49619184D01*
X103981834Y-49630232D01*
X103991512Y-49827238D01*
X103991529Y-49827595D01*
X103999368Y-49997145D01*
X103999500Y-50002872D01*
X103999500Y-79997128D01*
X103999368Y-80002855D01*
X103991529Y-80172404D01*
X103991512Y-80172761D01*
X103981834Y-80369766D01*
X103980794Y-80380814D01*
X103955410Y-80562780D01*
X103955257Y-80563842D01*
X103928053Y-80747240D01*
X103926101Y-80757436D01*
X103883526Y-80938455D01*
X103883104Y-80940195D01*
X103838606Y-81117841D01*
X103835894Y-81127117D01*
X103776487Y-81304364D01*
X103775666Y-81306733D01*
X103714311Y-81478207D01*
X103710994Y-81486519D01*
X103635286Y-81657980D01*
X103633947Y-81660909D01*
X103556291Y-81825102D01*
X103552525Y-81832425D01*
X103461171Y-81996435D01*
X103459200Y-81999845D01*
X103365999Y-82155342D01*
X103361940Y-82161670D01*
X103255742Y-82316699D01*
X103253041Y-82320489D01*
X103145135Y-82465984D01*
X103140935Y-82471334D01*
X103068607Y-82558436D01*
X103030297Y-82604572D01*
X103020851Y-82615947D01*
X103017331Y-82620004D01*
X102895717Y-82754183D01*
X102891520Y-82758590D01*
X102758590Y-82891520D01*
X102754183Y-82895717D01*
X102620004Y-83017331D01*
X102615955Y-83020843D01*
X102573649Y-83055974D01*
X102471334Y-83140935D01*
X102465984Y-83145135D01*
X102320489Y-83253041D01*
X102316699Y-83255742D01*
X102161670Y-83361940D01*
X102155342Y-83365999D01*
X101999845Y-83459200D01*
X101996435Y-83461171D01*
X101832425Y-83552525D01*
X101825102Y-83556291D01*
X101660909Y-83633947D01*
X101657980Y-83635286D01*
X101486519Y-83710994D01*
X101478207Y-83714311D01*
X101306733Y-83775666D01*
X101304364Y-83776487D01*
X101127117Y-83835894D01*
X101117841Y-83838606D01*
X100940195Y-83883104D01*
X100938455Y-83883526D01*
X100757436Y-83926101D01*
X100747240Y-83928053D01*
X100563842Y-83955257D01*
X100562780Y-83955410D01*
X100380814Y-83980794D01*
X100369766Y-83981834D01*
X100172931Y-83991503D01*
X100172575Y-83991520D01*
X100007393Y-83999158D01*
X100002854Y-83999368D01*
X99997128Y-83999500D01*
X20002872Y-83999500D01*
X19997145Y-83999368D01*
X19992305Y-83999144D01*
X19827423Y-83991520D01*
X19827067Y-83991503D01*
X19630232Y-83981834D01*
X19619184Y-83980794D01*
X19437218Y-83955410D01*
X19436156Y-83955257D01*
X19252758Y-83928053D01*
X19242562Y-83926101D01*
X19061543Y-83883526D01*
X19059803Y-83883104D01*
X18882157Y-83838606D01*
X18872881Y-83835894D01*
X18695634Y-83776487D01*
X18693265Y-83775666D01*
X18521791Y-83714311D01*
X18513479Y-83710994D01*
X18342018Y-83635286D01*
X18339089Y-83633947D01*
X18174896Y-83556291D01*
X18167573Y-83552525D01*
X18003563Y-83461171D01*
X18000153Y-83459200D01*
X17948459Y-83428216D01*
X17844645Y-83365992D01*
X17838328Y-83361940D01*
X17683299Y-83255742D01*
X17679509Y-83253041D01*
X17534000Y-83145124D01*
X17528684Y-83140951D01*
X17383998Y-83020805D01*
X17380045Y-83017375D01*
X17245795Y-82895698D01*
X17241408Y-82891520D01*
X17108478Y-82758590D01*
X17104303Y-82754206D01*
X16982617Y-82619947D01*
X16979200Y-82616009D01*
X16950078Y-82580939D01*
X17631192Y-82580939D01*
X17654825Y-82604572D01*
X17939931Y-82835447D01*
X18247593Y-83035246D01*
X18574468Y-83201797D01*
X18916954Y-83333265D01*
X19271316Y-83428216D01*
X19633645Y-83485602D01*
X20000000Y-83504802D01*
X20366354Y-83485602D01*
X20728683Y-83428216D01*
X21083045Y-83333265D01*
X21425531Y-83201797D01*
X21752406Y-83035246D01*
X22060068Y-82835447D01*
X22345173Y-82604573D01*
X22368807Y-82580939D01*
X22288647Y-82500779D01*
X25711350Y-82500779D01*
X25749570Y-82536240D01*
X25972479Y-82688217D01*
X26215542Y-82805270D01*
X26473339Y-82884791D01*
X26740109Y-82925000D01*
X27009891Y-82925000D01*
X27276660Y-82884791D01*
X27534460Y-82805270D01*
X27777519Y-82688219D01*
X28000430Y-82536241D01*
X28038647Y-82500780D01*
X28038648Y-82500780D01*
X28038647Y-82500779D01*
X31961350Y-82500779D01*
X31999570Y-82536240D01*
X32222479Y-82688217D01*
X32465542Y-82805270D01*
X32723339Y-82884791D01*
X32990109Y-82925000D01*
X33259891Y-82925000D01*
X33526660Y-82884791D01*
X33784460Y-82805270D01*
X34027519Y-82688219D01*
X34250430Y-82536241D01*
X34288647Y-82500780D01*
X34288648Y-82500780D01*
X34288647Y-82500779D01*
X45711350Y-82500779D01*
X45749570Y-82536240D01*
X45972479Y-82688217D01*
X46215542Y-82805270D01*
X46473339Y-82884791D01*
X46740109Y-82925000D01*
X47009891Y-82925000D01*
X47276660Y-82884791D01*
X47534460Y-82805270D01*
X47777519Y-82688219D01*
X48000430Y-82536241D01*
X48038647Y-82500780D01*
X48038648Y-82500780D01*
X48038647Y-82500779D01*
X51961350Y-82500779D01*
X51999570Y-82536240D01*
X52222479Y-82688217D01*
X52465542Y-82805270D01*
X52723339Y-82884791D01*
X52990109Y-82925000D01*
X53259891Y-82925000D01*
X53526660Y-82884791D01*
X53784460Y-82805270D01*
X54027519Y-82688219D01*
X54250430Y-82536241D01*
X54288647Y-82500780D01*
X54288648Y-82500780D01*
X54288647Y-82500779D01*
X65711350Y-82500779D01*
X65749570Y-82536240D01*
X65972479Y-82688217D01*
X66215542Y-82805270D01*
X66473339Y-82884791D01*
X66740109Y-82925000D01*
X67009891Y-82925000D01*
X67276660Y-82884791D01*
X67534460Y-82805270D01*
X67777519Y-82688219D01*
X68000430Y-82536241D01*
X68038647Y-82500780D01*
X68038648Y-82500780D01*
X68038647Y-82500779D01*
X71961350Y-82500779D01*
X71999570Y-82536240D01*
X72222479Y-82688217D01*
X72465542Y-82805270D01*
X72723339Y-82884791D01*
X72990109Y-82925000D01*
X73259891Y-82925000D01*
X73526660Y-82884791D01*
X73784460Y-82805270D01*
X74027519Y-82688219D01*
X74250430Y-82536241D01*
X74288647Y-82500780D01*
X74288648Y-82500780D01*
X74288647Y-82500779D01*
X85711350Y-82500779D01*
X85749570Y-82536240D01*
X85972479Y-82688217D01*
X86215542Y-82805270D01*
X86473339Y-82884791D01*
X86740109Y-82925000D01*
X87009891Y-82925000D01*
X87276660Y-82884791D01*
X87534460Y-82805270D01*
X87777519Y-82688219D01*
X88000430Y-82536241D01*
X88038647Y-82500780D01*
X88038648Y-82500780D01*
X88038647Y-82500779D01*
X91961350Y-82500779D01*
X91999570Y-82536240D01*
X92222479Y-82688217D01*
X92465542Y-82805270D01*
X92723339Y-82884791D01*
X92990109Y-82925000D01*
X93259891Y-82925000D01*
X93526660Y-82884791D01*
X93784460Y-82805270D01*
X94027519Y-82688219D01*
X94184870Y-82580939D01*
X97631192Y-82580939D01*
X97654825Y-82604572D01*
X97939931Y-82835447D01*
X98247593Y-83035246D01*
X98574468Y-83201797D01*
X98916954Y-83333265D01*
X99271316Y-83428216D01*
X99633645Y-83485602D01*
X100000000Y-83504802D01*
X100366354Y-83485602D01*
X100728683Y-83428216D01*
X101083045Y-83333265D01*
X101425531Y-83201797D01*
X101752406Y-83035246D01*
X102060068Y-82835447D01*
X102345173Y-82604573D01*
X102368807Y-82580939D01*
X100000000Y-80212132D01*
X97631192Y-82580939D01*
X94184870Y-82580939D01*
X94250430Y-82536241D01*
X94288647Y-82500780D01*
X94288648Y-82500780D01*
X93125000Y-81337132D01*
X91961350Y-82500779D01*
X88038647Y-82500779D01*
X86875000Y-81337132D01*
X85711350Y-82500779D01*
X74288647Y-82500779D01*
X73125000Y-81337132D01*
X71961350Y-82500779D01*
X68038647Y-82500779D01*
X66875000Y-81337132D01*
X65711350Y-82500779D01*
X54288647Y-82500779D01*
X53125000Y-81337132D01*
X51961350Y-82500779D01*
X48038647Y-82500779D01*
X46875000Y-81337132D01*
X45711350Y-82500779D01*
X34288647Y-82500779D01*
X33125000Y-81337132D01*
X31961350Y-82500779D01*
X28038647Y-82500779D01*
X26875000Y-81337132D01*
X25711350Y-82500779D01*
X22288647Y-82500779D01*
X20000000Y-80212132D01*
X17631192Y-82580939D01*
X16950078Y-82580939D01*
X16859040Y-82471305D01*
X16854882Y-82466009D01*
X16746935Y-82320459D01*
X16744256Y-82316699D01*
X16638058Y-82161670D01*
X16634017Y-82155371D01*
X16540777Y-81999810D01*
X16538827Y-81996435D01*
X16489668Y-81908178D01*
X16447465Y-81832411D01*
X16443715Y-81825119D01*
X16406892Y-81747263D01*
X16366051Y-81660909D01*
X16364712Y-81657980D01*
X16289004Y-81486519D01*
X16285692Y-81478220D01*
X16224292Y-81306618D01*
X16223550Y-81304478D01*
X16164096Y-81127091D01*
X16161401Y-81117874D01*
X16116852Y-80940023D01*
X16116510Y-80938614D01*
X16073892Y-80757413D01*
X16071949Y-80747261D01*
X16044732Y-80563781D01*
X16044588Y-80562780D01*
X16019201Y-80380787D01*
X16018166Y-80369795D01*
X16008480Y-80172611D01*
X16000632Y-80002854D01*
X16000566Y-80000000D01*
X16495197Y-80000000D01*
X16514397Y-80366354D01*
X16571783Y-80728683D01*
X16666734Y-81083045D01*
X16798202Y-81425531D01*
X16964753Y-81752406D01*
X17164552Y-82060068D01*
X17395427Y-82345174D01*
X17419060Y-82368807D01*
X19787868Y-80000001D01*
X20212132Y-80000001D01*
X22580938Y-82368806D01*
X22580939Y-82368807D01*
X22604573Y-82345173D01*
X22835447Y-82060068D01*
X23035246Y-81752406D01*
X23201797Y-81425531D01*
X23317160Y-81124999D01*
X25069952Y-81124999D01*
X25090113Y-81394026D01*
X25150146Y-81657049D01*
X25248708Y-81908178D01*
X25383599Y-82141818D01*
X25500038Y-82287828D01*
X25500039Y-82287828D01*
X26662868Y-81125001D01*
X26662868Y-81125000D01*
X27087132Y-81125000D01*
X28249959Y-82287828D01*
X28249960Y-82287827D01*
X28366400Y-82141818D01*
X28501291Y-81908178D01*
X28599853Y-81657049D01*
X28659886Y-81394026D01*
X28680047Y-81125000D01*
X28680047Y-81124999D01*
X31319952Y-81124999D01*
X31340113Y-81394026D01*
X31400146Y-81657049D01*
X31498708Y-81908178D01*
X31633599Y-82141818D01*
X31750038Y-82287828D01*
X31750039Y-82287828D01*
X32912868Y-81125001D01*
X32912868Y-81125000D01*
X32912867Y-81124999D01*
X33337131Y-81124999D01*
X34499959Y-82287828D01*
X34499960Y-82287827D01*
X34616400Y-82141818D01*
X34751291Y-81908178D01*
X34849853Y-81657049D01*
X34909886Y-81394026D01*
X34930047Y-81125000D01*
X45069952Y-81125000D01*
X45090113Y-81394026D01*
X45150146Y-81657049D01*
X45248708Y-81908178D01*
X45383599Y-82141818D01*
X45500038Y-82287828D01*
X45500039Y-82287828D01*
X46662868Y-81125001D01*
X46662868Y-81125000D01*
X47087132Y-81125000D01*
X48249959Y-82287828D01*
X48249960Y-82287827D01*
X48366400Y-82141818D01*
X48501291Y-81908178D01*
X48599853Y-81657049D01*
X48659886Y-81394026D01*
X48680047Y-81125000D01*
X51319952Y-81125000D01*
X51340113Y-81394026D01*
X51400146Y-81657049D01*
X51498708Y-81908178D01*
X51633599Y-82141818D01*
X51750038Y-82287828D01*
X52912868Y-81125001D01*
X52912868Y-81125000D01*
X53337132Y-81125000D01*
X54499959Y-82287828D01*
X54499960Y-82287827D01*
X54616400Y-82141818D01*
X54751291Y-81908178D01*
X54849853Y-81657049D01*
X54909886Y-81394026D01*
X54930047Y-81125000D01*
X65069952Y-81125000D01*
X65090113Y-81394026D01*
X65150146Y-81657049D01*
X65248708Y-81908178D01*
X65383599Y-82141818D01*
X65500038Y-82287828D01*
X65500039Y-82287828D01*
X66662868Y-81125001D01*
X66662868Y-81125000D01*
X67087132Y-81125000D01*
X68249959Y-82287828D01*
X68249960Y-82287827D01*
X68366400Y-82141818D01*
X68501291Y-81908178D01*
X68599853Y-81657049D01*
X68659886Y-81394026D01*
X68680047Y-81125000D01*
X71319952Y-81125000D01*
X71340113Y-81394026D01*
X71400146Y-81657049D01*
X71498708Y-81908178D01*
X71633599Y-82141818D01*
X71750038Y-82287828D01*
X71750039Y-82287828D01*
X72912868Y-81125001D01*
X72912868Y-81125000D01*
X73337132Y-81125000D01*
X74499959Y-82287828D01*
X74499960Y-82287827D01*
X74616400Y-82141818D01*
X74751291Y-81908178D01*
X74849853Y-81657049D01*
X74909886Y-81394026D01*
X74930047Y-81125000D01*
X85069952Y-81125000D01*
X85090113Y-81394026D01*
X85150146Y-81657049D01*
X85248708Y-81908178D01*
X85383599Y-82141818D01*
X85500038Y-82287828D01*
X86662868Y-81125001D01*
X86662868Y-81125000D01*
X87087132Y-81125000D01*
X88249959Y-82287828D01*
X88249960Y-82287827D01*
X88366400Y-82141818D01*
X88501291Y-81908178D01*
X88599853Y-81657049D01*
X88659886Y-81394026D01*
X88680047Y-81125000D01*
X91319952Y-81125000D01*
X91340113Y-81394026D01*
X91400146Y-81657049D01*
X91498708Y-81908178D01*
X91633599Y-82141818D01*
X91750038Y-82287828D01*
X92912867Y-81124999D01*
X93337131Y-81124999D01*
X94499959Y-82287828D01*
X94499960Y-82287827D01*
X94616400Y-82141818D01*
X94751291Y-81908178D01*
X94849853Y-81657049D01*
X94909886Y-81394026D01*
X94930047Y-81125000D01*
X94909886Y-80855973D01*
X94849853Y-80592950D01*
X94751291Y-80341821D01*
X94616401Y-80108181D01*
X94530128Y-80000000D01*
X96495197Y-80000000D01*
X96514397Y-80366354D01*
X96571783Y-80728683D01*
X96666734Y-81083045D01*
X96798202Y-81425531D01*
X96964753Y-81752406D01*
X97164552Y-82060068D01*
X97395427Y-82345174D01*
X97419060Y-82368807D01*
X99787868Y-80000001D01*
X100212132Y-80000001D01*
X102580938Y-82368806D01*
X102580939Y-82368807D01*
X102604573Y-82345173D01*
X102835447Y-82060068D01*
X103035246Y-81752406D01*
X103201797Y-81425531D01*
X103333265Y-81083045D01*
X103428216Y-80728683D01*
X103485602Y-80366354D01*
X103504802Y-80000000D01*
X103485602Y-79633645D01*
X103428216Y-79271316D01*
X103333265Y-78916954D01*
X103201797Y-78574468D01*
X103035246Y-78247594D01*
X102835447Y-77939931D01*
X102604572Y-77654825D01*
X102580939Y-77631192D01*
X102580938Y-77631192D01*
X100212132Y-79999999D01*
X100212132Y-80000001D01*
X99787868Y-80000001D01*
X99787868Y-79999999D01*
X97419060Y-77631191D01*
X97395426Y-77654825D01*
X97164552Y-77939931D01*
X96964753Y-78247594D01*
X96798202Y-78574468D01*
X96666734Y-78916954D01*
X96571783Y-79271316D01*
X96514397Y-79633645D01*
X96495197Y-80000000D01*
X94530128Y-80000000D01*
X94499959Y-79962170D01*
X93337131Y-81124999D01*
X92912867Y-81124999D01*
X91750038Y-79962170D01*
X91633599Y-80108181D01*
X91498708Y-80341821D01*
X91400146Y-80592950D01*
X91340113Y-80855973D01*
X91319952Y-81125000D01*
X88680047Y-81125000D01*
X88659886Y-80855973D01*
X88599853Y-80592950D01*
X88501291Y-80341821D01*
X88366401Y-80108181D01*
X88249959Y-79962170D01*
X87087132Y-81125000D01*
X86662868Y-81125000D01*
X85500038Y-79962170D01*
X85383599Y-80108181D01*
X85248708Y-80341821D01*
X85150146Y-80592950D01*
X85090113Y-80855973D01*
X85069952Y-81125000D01*
X74930047Y-81125000D01*
X74909886Y-80855973D01*
X74849853Y-80592950D01*
X74751291Y-80341821D01*
X74616401Y-80108181D01*
X74499959Y-79962170D01*
X73337132Y-81125000D01*
X72912868Y-81125000D01*
X71750038Y-79962170D01*
X71633599Y-80108181D01*
X71498708Y-80341821D01*
X71400146Y-80592950D01*
X71340113Y-80855973D01*
X71319952Y-81125000D01*
X68680047Y-81125000D01*
X68659886Y-80855973D01*
X68599853Y-80592950D01*
X68501291Y-80341821D01*
X68366401Y-80108181D01*
X68249959Y-79962170D01*
X67087132Y-81125000D01*
X66662868Y-81125000D01*
X65500038Y-79962170D01*
X65383599Y-80108181D01*
X65248708Y-80341821D01*
X65150146Y-80592950D01*
X65090113Y-80855973D01*
X65069952Y-81125000D01*
X54930047Y-81125000D01*
X54909886Y-80855973D01*
X54849853Y-80592950D01*
X54751291Y-80341821D01*
X54616401Y-80108181D01*
X54499959Y-79962170D01*
X53337132Y-81125000D01*
X52912868Y-81125000D01*
X51750038Y-79962170D01*
X51633599Y-80108181D01*
X51498708Y-80341821D01*
X51400146Y-80592950D01*
X51340113Y-80855973D01*
X51319952Y-81125000D01*
X48680047Y-81125000D01*
X48659886Y-80855973D01*
X48599853Y-80592950D01*
X48501291Y-80341821D01*
X48366401Y-80108181D01*
X48249959Y-79962170D01*
X47087132Y-81125000D01*
X46662868Y-81125000D01*
X45500038Y-79962170D01*
X45383599Y-80108181D01*
X45248708Y-80341821D01*
X45150146Y-80592950D01*
X45090113Y-80855973D01*
X45069952Y-81125000D01*
X34930047Y-81125000D01*
X34909886Y-80855973D01*
X34849853Y-80592950D01*
X34751291Y-80341821D01*
X34616401Y-80108181D01*
X34499959Y-79962170D01*
X33337131Y-81124999D01*
X32912867Y-81124999D01*
X31750038Y-79962170D01*
X31633599Y-80108181D01*
X31498708Y-80341821D01*
X31400146Y-80592950D01*
X31340113Y-80855973D01*
X31319952Y-81124999D01*
X28680047Y-81124999D01*
X28659886Y-80855973D01*
X28599853Y-80592950D01*
X28501291Y-80341821D01*
X28366401Y-80108181D01*
X28249959Y-79962170D01*
X27087132Y-81125000D01*
X26662868Y-81125000D01*
X25500038Y-79962170D01*
X25383599Y-80108181D01*
X25248708Y-80341821D01*
X25150146Y-80592950D01*
X25090113Y-80855973D01*
X25069952Y-81124999D01*
X23317160Y-81124999D01*
X23333265Y-81083045D01*
X23428216Y-80728683D01*
X23485602Y-80366354D01*
X23504802Y-80000000D01*
X23491659Y-79749219D01*
X25711350Y-79749219D01*
X26875000Y-80912868D01*
X26875001Y-80912868D01*
X28038648Y-79749219D01*
X28000425Y-79713755D01*
X27777523Y-79561782D01*
X27534460Y-79444729D01*
X27276660Y-79365208D01*
X27009891Y-79325000D01*
X26740109Y-79325000D01*
X26473339Y-79365208D01*
X26215542Y-79444729D01*
X25972479Y-79561782D01*
X25749570Y-79713758D01*
X25711350Y-79749219D01*
X23491659Y-79749219D01*
X23485602Y-79633645D01*
X23428216Y-79271316D01*
X23333265Y-78916954D01*
X23201797Y-78574468D01*
X23035246Y-78247594D01*
X22874456Y-78000000D01*
X28194450Y-78000000D01*
X28214616Y-78269100D01*
X28243045Y-78393653D01*
X28274666Y-78532195D01*
X28373257Y-78783398D01*
X28508185Y-79017102D01*
X28676439Y-79228085D01*
X28874259Y-79411635D01*
X29097226Y-79563651D01*
X29340359Y-79680738D01*
X29598228Y-79760280D01*
X29865071Y-79800500D01*
X30134929Y-79800500D01*
X30401772Y-79760280D01*
X30437631Y-79749219D01*
X31961350Y-79749219D01*
X33125000Y-80912868D01*
X33125001Y-80912868D01*
X34288648Y-79749219D01*
X45711350Y-79749219D01*
X46875000Y-80912868D01*
X46875001Y-80912868D01*
X48038648Y-79749219D01*
X48000425Y-79713755D01*
X47777523Y-79561782D01*
X47534460Y-79444729D01*
X47276660Y-79365208D01*
X47009891Y-79325000D01*
X46740109Y-79325000D01*
X46473339Y-79365208D01*
X46215542Y-79444729D01*
X45972479Y-79561782D01*
X45749570Y-79713758D01*
X45711350Y-79749219D01*
X34288648Y-79749219D01*
X34250425Y-79713755D01*
X34027523Y-79561782D01*
X33784460Y-79444729D01*
X33526660Y-79365208D01*
X33259891Y-79325000D01*
X32990109Y-79325000D01*
X32723339Y-79365208D01*
X32465542Y-79444729D01*
X32222479Y-79561782D01*
X31999570Y-79713758D01*
X31961350Y-79749219D01*
X30437631Y-79749219D01*
X30659641Y-79680738D01*
X30902775Y-79563651D01*
X31125741Y-79411635D01*
X31323561Y-79228085D01*
X31491815Y-79017102D01*
X31626743Y-78783398D01*
X31725334Y-78532195D01*
X31733388Y-78496907D01*
X31757332Y-78447187D01*
X31800477Y-78412780D01*
X31854279Y-78400500D01*
X36063433Y-78400500D01*
X36084499Y-78393655D01*
X36103414Y-78389112D01*
X36125304Y-78385646D01*
X36145042Y-78375587D01*
X36163016Y-78368142D01*
X36184090Y-78361296D01*
X36202021Y-78348267D01*
X36218598Y-78338109D01*
X36238342Y-78328050D01*
X36246674Y-78319717D01*
X36246680Y-78319713D01*
X36566393Y-78000000D01*
X48194450Y-78000000D01*
X48214616Y-78269100D01*
X48243045Y-78393653D01*
X48274666Y-78532195D01*
X48373257Y-78783398D01*
X48508185Y-79017102D01*
X48676439Y-79228085D01*
X48874259Y-79411635D01*
X49097226Y-79563651D01*
X49340359Y-79680738D01*
X49598228Y-79760280D01*
X49865071Y-79800500D01*
X50134929Y-79800500D01*
X50401772Y-79760280D01*
X50437631Y-79749219D01*
X51961350Y-79749219D01*
X53125000Y-80912868D01*
X53125001Y-80912868D01*
X54288648Y-79749219D01*
X65711350Y-79749219D01*
X66875000Y-80912868D01*
X66875001Y-80912868D01*
X68038648Y-79749219D01*
X68000425Y-79713755D01*
X67777523Y-79561782D01*
X67534460Y-79444729D01*
X67276660Y-79365208D01*
X67009891Y-79325000D01*
X66740109Y-79325000D01*
X66473339Y-79365208D01*
X66215542Y-79444729D01*
X65972479Y-79561782D01*
X65749570Y-79713758D01*
X65711350Y-79749219D01*
X54288648Y-79749219D01*
X54250425Y-79713755D01*
X54027523Y-79561782D01*
X53784460Y-79444729D01*
X53526660Y-79365208D01*
X53259891Y-79325000D01*
X52990109Y-79325000D01*
X52723339Y-79365208D01*
X52465542Y-79444729D01*
X52222479Y-79561782D01*
X51999570Y-79713758D01*
X51961350Y-79749219D01*
X50437631Y-79749219D01*
X50659641Y-79680738D01*
X50902775Y-79563651D01*
X51125741Y-79411635D01*
X51323561Y-79228085D01*
X51491815Y-79017102D01*
X51626743Y-78783398D01*
X51725334Y-78532195D01*
X51785383Y-78269103D01*
X51805549Y-78000000D01*
X51785383Y-77730897D01*
X51725334Y-77467805D01*
X51626743Y-77216602D01*
X51491815Y-76982898D01*
X51323561Y-76771915D01*
X51323560Y-76771914D01*
X51125743Y-76588366D01*
X51017250Y-76514397D01*
X50902775Y-76436349D01*
X50659641Y-76319262D01*
X50580097Y-76294726D01*
X50437626Y-76250779D01*
X51961350Y-76250779D01*
X51999570Y-76286240D01*
X52222479Y-76438217D01*
X52465542Y-76555270D01*
X52723339Y-76634791D01*
X52990109Y-76675000D01*
X53259891Y-76675000D01*
X53526660Y-76634791D01*
X53784460Y-76555270D01*
X54027519Y-76438219D01*
X54250430Y-76286241D01*
X54288647Y-76250780D01*
X54288648Y-76250780D01*
X53125000Y-75087132D01*
X51961350Y-76250779D01*
X50437626Y-76250779D01*
X50401771Y-76239719D01*
X50134929Y-76199500D01*
X49865071Y-76199500D01*
X49598228Y-76239719D01*
X49340359Y-76319262D01*
X49097228Y-76436347D01*
X48874257Y-76588366D01*
X48676439Y-76771915D01*
X48508184Y-76982899D01*
X48373257Y-77216601D01*
X48274666Y-77467804D01*
X48214616Y-77730899D01*
X48194450Y-78000000D01*
X36566393Y-78000000D01*
X38315613Y-76250779D01*
X45711350Y-76250779D01*
X45749570Y-76286240D01*
X45972479Y-76438217D01*
X46215542Y-76555270D01*
X46473339Y-76634791D01*
X46740109Y-76675000D01*
X47009891Y-76675000D01*
X47276660Y-76634791D01*
X47534460Y-76555270D01*
X47777519Y-76438219D01*
X48000430Y-76286241D01*
X48038647Y-76250780D01*
X48038648Y-76250780D01*
X46875000Y-75087132D01*
X45711350Y-76250779D01*
X38315613Y-76250779D01*
X38322924Y-76243468D01*
X38322924Y-76243467D01*
X38328050Y-76238342D01*
X38338106Y-76218603D01*
X38348274Y-76202011D01*
X38361296Y-76184090D01*
X38368144Y-76163011D01*
X38375586Y-76145044D01*
X38385646Y-76125304D01*
X38389112Y-76103414D01*
X38393655Y-76084499D01*
X38400500Y-76063433D01*
X38400500Y-74874999D01*
X45069952Y-74874999D01*
X45090113Y-75144026D01*
X45150146Y-75407049D01*
X45248708Y-75658178D01*
X45383599Y-75891818D01*
X45500038Y-76037828D01*
X46662868Y-74875001D01*
X46662868Y-74875000D01*
X47087132Y-74875000D01*
X48249959Y-76037828D01*
X48249960Y-76037827D01*
X48366400Y-75891818D01*
X48501291Y-75658178D01*
X48599853Y-75407049D01*
X48659886Y-75144026D01*
X48680047Y-74874999D01*
X51319952Y-74874999D01*
X51340113Y-75144026D01*
X51400146Y-75407049D01*
X51498708Y-75658178D01*
X51633599Y-75891818D01*
X51750038Y-76037828D01*
X52912868Y-74875001D01*
X52912868Y-74875000D01*
X53337132Y-74875000D01*
X54499959Y-76037828D01*
X54499960Y-76037827D01*
X54616400Y-75891818D01*
X54751291Y-75658178D01*
X54849853Y-75407049D01*
X54909886Y-75144026D01*
X54930047Y-74874999D01*
X54909886Y-74605973D01*
X54849853Y-74342950D01*
X54751291Y-74091821D01*
X54616401Y-73858181D01*
X54499959Y-73712170D01*
X53337132Y-74875000D01*
X52912868Y-74875000D01*
X51750038Y-73712170D01*
X51633599Y-73858181D01*
X51498708Y-74091821D01*
X51400146Y-74342950D01*
X51340113Y-74605973D01*
X51319952Y-74874999D01*
X48680047Y-74874999D01*
X48659886Y-74605973D01*
X48599853Y-74342950D01*
X48501291Y-74091821D01*
X48366401Y-73858181D01*
X48249959Y-73712170D01*
X47087132Y-74875000D01*
X46662868Y-74875000D01*
X45500038Y-73712170D01*
X45383599Y-73858181D01*
X45248708Y-74091821D01*
X45150146Y-74342950D01*
X45090113Y-74605973D01*
X45069952Y-74874999D01*
X38400500Y-74874999D01*
X38400500Y-73499219D01*
X45711350Y-73499219D01*
X46875000Y-74662868D01*
X46875001Y-74662868D01*
X48038648Y-73499219D01*
X51961350Y-73499219D01*
X53125000Y-74662868D01*
X53125001Y-74662868D01*
X54288648Y-73499219D01*
X54250425Y-73463755D01*
X54027523Y-73311782D01*
X53784460Y-73194729D01*
X53526660Y-73115208D01*
X53259891Y-73075000D01*
X52990109Y-73075000D01*
X52723339Y-73115208D01*
X52465542Y-73194729D01*
X52222479Y-73311782D01*
X51999570Y-73463758D01*
X51961350Y-73499219D01*
X48038648Y-73499219D01*
X48000425Y-73463755D01*
X47777523Y-73311782D01*
X47534460Y-73194729D01*
X47276660Y-73115208D01*
X47009891Y-73075000D01*
X46740109Y-73075000D01*
X46473339Y-73115208D01*
X46215542Y-73194729D01*
X45972479Y-73311782D01*
X45749570Y-73463758D01*
X45711350Y-73499219D01*
X38400500Y-73499219D01*
X38400500Y-70500000D01*
X50194317Y-70500000D01*
X50214956Y-70656762D01*
X50275463Y-70802840D01*
X50371717Y-70928282D01*
X50497159Y-71024536D01*
X50643238Y-71085044D01*
X50800000Y-71105682D01*
X50956762Y-71085044D01*
X51102841Y-71024536D01*
X51228282Y-70928282D01*
X51324536Y-70802841D01*
X51385044Y-70656762D01*
X51405682Y-70500000D01*
X51385044Y-70343238D01*
X51324536Y-70197159D01*
X51265714Y-70120500D01*
X51228282Y-70071717D01*
X51102840Y-69975463D01*
X50956762Y-69914956D01*
X50800000Y-69894317D01*
X50643237Y-69914956D01*
X50497159Y-69975463D01*
X50371717Y-70071717D01*
X50275463Y-70197159D01*
X50214956Y-70343237D01*
X50194317Y-70500000D01*
X38400500Y-70500000D01*
X38400500Y-68217255D01*
X38409939Y-68169802D01*
X38436819Y-68129574D01*
X38466394Y-68099999D01*
X46894317Y-68099999D01*
X46914956Y-68256762D01*
X46975463Y-68402840D01*
X47071717Y-68528282D01*
X47157640Y-68594212D01*
X47197159Y-68624536D01*
X47343238Y-68685044D01*
X47500000Y-68705682D01*
X47656762Y-68685044D01*
X47802841Y-68624536D01*
X47928282Y-68528282D01*
X48024536Y-68402841D01*
X48085044Y-68256762D01*
X48105682Y-68100000D01*
X48085044Y-67943238D01*
X48024536Y-67797159D01*
X47997295Y-67761658D01*
X47928282Y-67671717D01*
X47802840Y-67575463D01*
X47656762Y-67514956D01*
X47500000Y-67494317D01*
X47343237Y-67514956D01*
X47197159Y-67575463D01*
X47071717Y-67671717D01*
X46975463Y-67797159D01*
X46914956Y-67943237D01*
X46894317Y-68099999D01*
X38466394Y-68099999D01*
X40629574Y-65936819D01*
X40669802Y-65909939D01*
X40717255Y-65900500D01*
X52982745Y-65900500D01*
X53030198Y-65909939D01*
X53070426Y-65936819D01*
X54047770Y-66914163D01*
X54047775Y-66914167D01*
X54061658Y-66928050D01*
X54081394Y-66938106D01*
X54097982Y-66948271D01*
X54115910Y-66961296D01*
X54136979Y-66968141D01*
X54154959Y-66975589D01*
X54192197Y-66994564D01*
X54191936Y-66995075D01*
X54230928Y-67013049D01*
X54268331Y-67069021D01*
X54270975Y-67136289D01*
X54238082Y-67195024D01*
X53975008Y-67458097D01*
X53942171Y-67481628D01*
X53903513Y-67493355D01*
X53743237Y-67514456D01*
X53597159Y-67574963D01*
X53471717Y-67671217D01*
X53375463Y-67796659D01*
X53314956Y-67942737D01*
X53294317Y-68099500D01*
X53314956Y-68256262D01*
X53375463Y-68402340D01*
X53471717Y-68527782D01*
X53537531Y-68578282D01*
X53597159Y-68624036D01*
X53743238Y-68684544D01*
X53900000Y-68705182D01*
X54056762Y-68684544D01*
X54202841Y-68624036D01*
X54328282Y-68527782D01*
X54424536Y-68402341D01*
X54485044Y-68256262D01*
X54505682Y-68099500D01*
X54505681Y-68099496D01*
X54506144Y-68095984D01*
X54517871Y-68057325D01*
X54541397Y-68024494D01*
X54650976Y-67914915D01*
X54703435Y-67883705D01*
X54764434Y-67881309D01*
X54819184Y-67908308D01*
X54854417Y-67958161D01*
X54861592Y-68018784D01*
X54844317Y-68149999D01*
X54864956Y-68306762D01*
X54925463Y-68452840D01*
X55021717Y-68578282D01*
X55147159Y-68674536D01*
X55293238Y-68735044D01*
X55450000Y-68755682D01*
X55450001Y-68755681D01*
X55453513Y-68756144D01*
X55492172Y-68767871D01*
X55525009Y-68791402D01*
X65047770Y-78314163D01*
X65047775Y-78314167D01*
X65061658Y-78328050D01*
X65081397Y-78338107D01*
X65097982Y-78348271D01*
X65115910Y-78361297D01*
X65136978Y-78368142D01*
X65154955Y-78375588D01*
X65174692Y-78385644D01*
X65174696Y-78385646D01*
X65196585Y-78389112D01*
X65215489Y-78393651D01*
X65236567Y-78400500D01*
X65268481Y-78400500D01*
X65363433Y-78400500D01*
X68145721Y-78400500D01*
X68199523Y-78412780D01*
X68242668Y-78447187D01*
X68266612Y-78496908D01*
X68274665Y-78532194D01*
X68291257Y-78574468D01*
X68373257Y-78783398D01*
X68508185Y-79017102D01*
X68676439Y-79228085D01*
X68874259Y-79411635D01*
X69097226Y-79563651D01*
X69340359Y-79680738D01*
X69598228Y-79760280D01*
X69865071Y-79800500D01*
X70134929Y-79800500D01*
X70401772Y-79760280D01*
X70437631Y-79749219D01*
X71961350Y-79749219D01*
X73125000Y-80912868D01*
X73125001Y-80912868D01*
X74288648Y-79749219D01*
X85711350Y-79749219D01*
X86875000Y-80912868D01*
X86875001Y-80912868D01*
X88038648Y-79749219D01*
X88000425Y-79713755D01*
X87777523Y-79561782D01*
X87534460Y-79444729D01*
X87276660Y-79365208D01*
X87009891Y-79325000D01*
X86740109Y-79325000D01*
X86473339Y-79365208D01*
X86215542Y-79444729D01*
X85972479Y-79561782D01*
X85749570Y-79713758D01*
X85711350Y-79749219D01*
X74288648Y-79749219D01*
X74250425Y-79713755D01*
X74027523Y-79561782D01*
X73784460Y-79444729D01*
X73526660Y-79365208D01*
X73259891Y-79325000D01*
X72990109Y-79325000D01*
X72723339Y-79365208D01*
X72465542Y-79444729D01*
X72222479Y-79561782D01*
X71999570Y-79713758D01*
X71961350Y-79749219D01*
X70437631Y-79749219D01*
X70659641Y-79680738D01*
X70902775Y-79563651D01*
X71125741Y-79411635D01*
X71323561Y-79228085D01*
X71491815Y-79017102D01*
X71626743Y-78783398D01*
X71725334Y-78532195D01*
X71785383Y-78269103D01*
X71805549Y-78000000D01*
X71785383Y-77730897D01*
X71725334Y-77467805D01*
X71626743Y-77216602D01*
X71491815Y-76982898D01*
X71323561Y-76771915D01*
X71323560Y-76771914D01*
X71125743Y-76588366D01*
X71017250Y-76514397D01*
X70902775Y-76436349D01*
X70659641Y-76319262D01*
X70580097Y-76294726D01*
X70437626Y-76250779D01*
X71961350Y-76250779D01*
X71999570Y-76286240D01*
X72222479Y-76438217D01*
X72465542Y-76555270D01*
X72723339Y-76634791D01*
X72990109Y-76675000D01*
X73259891Y-76675000D01*
X73526660Y-76634791D01*
X73784460Y-76555270D01*
X74027519Y-76438219D01*
X74250430Y-76286241D01*
X74288647Y-76250780D01*
X74288648Y-76250780D01*
X73125000Y-75087132D01*
X71961350Y-76250779D01*
X70437626Y-76250779D01*
X70401771Y-76239719D01*
X70134929Y-76199500D01*
X69865071Y-76199500D01*
X69598228Y-76239719D01*
X69340359Y-76319262D01*
X69097228Y-76436347D01*
X68874257Y-76588366D01*
X68676439Y-76771915D01*
X68508184Y-76982899D01*
X68373257Y-77216602D01*
X68274665Y-77467805D01*
X68266612Y-77503092D01*
X68242668Y-77552813D01*
X68199523Y-77587220D01*
X68145721Y-77599500D01*
X65517255Y-77599500D01*
X65469802Y-77590061D01*
X65429574Y-77563181D01*
X64117172Y-76250779D01*
X65711350Y-76250779D01*
X65749570Y-76286240D01*
X65972479Y-76438217D01*
X66215542Y-76555270D01*
X66473339Y-76634791D01*
X66740109Y-76675000D01*
X67009891Y-76675000D01*
X67276660Y-76634791D01*
X67534460Y-76555270D01*
X67777519Y-76438219D01*
X68000430Y-76286241D01*
X68038647Y-76250780D01*
X68038648Y-76250780D01*
X66875000Y-75087132D01*
X65711350Y-76250779D01*
X64117172Y-76250779D01*
X62741392Y-74874999D01*
X65069952Y-74874999D01*
X65090113Y-75144026D01*
X65150146Y-75407049D01*
X65248708Y-75658178D01*
X65383599Y-75891818D01*
X65500038Y-76037828D01*
X66662868Y-74875001D01*
X66662868Y-74875000D01*
X67087132Y-74875000D01*
X68249959Y-76037828D01*
X68249960Y-76037827D01*
X68366400Y-75891818D01*
X68501291Y-75658178D01*
X68599853Y-75407049D01*
X68659886Y-75144026D01*
X68680047Y-74874999D01*
X71319952Y-74874999D01*
X71340113Y-75144026D01*
X71400146Y-75407049D01*
X71498708Y-75658178D01*
X71633599Y-75891818D01*
X71750038Y-76037828D01*
X71750039Y-76037828D01*
X72912868Y-74875001D01*
X72912868Y-74875000D01*
X72912867Y-74874999D01*
X73337131Y-74874999D01*
X74499959Y-76037828D01*
X74499960Y-76037827D01*
X74616400Y-75891818D01*
X74751291Y-75658178D01*
X74849853Y-75407049D01*
X74909886Y-75144026D01*
X74930047Y-74874999D01*
X74909886Y-74605973D01*
X74849853Y-74342950D01*
X74751291Y-74091821D01*
X74616401Y-73858181D01*
X74499959Y-73712170D01*
X73337131Y-74874999D01*
X72912867Y-74874999D01*
X71750038Y-73712170D01*
X71633599Y-73858181D01*
X71498708Y-74091821D01*
X71400146Y-74342950D01*
X71340113Y-74605973D01*
X71319952Y-74874999D01*
X68680047Y-74874999D01*
X68659886Y-74605973D01*
X68599853Y-74342950D01*
X68501291Y-74091821D01*
X68366401Y-73858181D01*
X68249959Y-73712170D01*
X67087132Y-74875000D01*
X66662868Y-74875000D01*
X65500038Y-73712170D01*
X65383599Y-73858181D01*
X65248708Y-74091821D01*
X65150146Y-74342950D01*
X65090113Y-74605973D01*
X65069952Y-74874999D01*
X62741392Y-74874999D01*
X61365612Y-73499219D01*
X65711350Y-73499219D01*
X66875000Y-74662868D01*
X66875001Y-74662868D01*
X68038648Y-73499219D01*
X71961350Y-73499219D01*
X73125000Y-74662868D01*
X73125001Y-74662868D01*
X74288648Y-73499219D01*
X74250425Y-73463755D01*
X74027523Y-73311782D01*
X73784460Y-73194729D01*
X73526660Y-73115208D01*
X73259891Y-73075000D01*
X72990109Y-73075000D01*
X72723339Y-73115208D01*
X72465542Y-73194729D01*
X72222479Y-73311782D01*
X71999570Y-73463758D01*
X71961350Y-73499219D01*
X68038648Y-73499219D01*
X68000425Y-73463755D01*
X67777523Y-73311782D01*
X67534460Y-73194729D01*
X67276660Y-73115208D01*
X67009891Y-73075000D01*
X66740109Y-73075000D01*
X66473339Y-73115208D01*
X66215542Y-73194729D01*
X65972479Y-73311782D01*
X65749570Y-73463758D01*
X65711350Y-73499219D01*
X61365612Y-73499219D01*
X56091402Y-68225009D01*
X56067871Y-68192172D01*
X56056144Y-68153513D01*
X56055681Y-68150001D01*
X56055682Y-68150000D01*
X56035044Y-67993238D01*
X55974536Y-67847159D01*
X55930746Y-67790090D01*
X55868344Y-67708766D01*
X55868545Y-67708611D01*
X55841998Y-67674934D01*
X55831660Y-67614770D01*
X55851283Y-67556964D01*
X55896111Y-67515527D01*
X55955278Y-67500500D01*
X72882745Y-67500500D01*
X72930198Y-67509939D01*
X72970426Y-67536819D01*
X83747770Y-78314163D01*
X83747775Y-78314167D01*
X83761658Y-78328050D01*
X83781388Y-78338103D01*
X83781400Y-78338109D01*
X83797988Y-78348274D01*
X83815911Y-78361296D01*
X83836987Y-78368144D01*
X83854945Y-78375582D01*
X83874696Y-78385646D01*
X83884525Y-78387202D01*
X83896577Y-78389112D01*
X83915497Y-78393654D01*
X83936567Y-78400500D01*
X83968481Y-78400500D01*
X84063433Y-78400500D01*
X88145721Y-78400500D01*
X88199523Y-78412780D01*
X88242668Y-78447187D01*
X88266612Y-78496908D01*
X88274665Y-78532194D01*
X88291257Y-78574468D01*
X88373257Y-78783398D01*
X88508185Y-79017102D01*
X88676439Y-79228085D01*
X88874259Y-79411635D01*
X89097226Y-79563651D01*
X89340359Y-79680738D01*
X89598228Y-79760280D01*
X89865071Y-79800500D01*
X90134929Y-79800500D01*
X90401772Y-79760280D01*
X90437631Y-79749219D01*
X91961350Y-79749219D01*
X93125000Y-80912868D01*
X93125001Y-80912868D01*
X94288648Y-79749219D01*
X94250425Y-79713755D01*
X94027523Y-79561782D01*
X93784460Y-79444729D01*
X93526660Y-79365208D01*
X93259891Y-79325000D01*
X92990109Y-79325000D01*
X92723339Y-79365208D01*
X92465542Y-79444729D01*
X92222479Y-79561782D01*
X91999570Y-79713758D01*
X91961350Y-79749219D01*
X90437631Y-79749219D01*
X90659641Y-79680738D01*
X90902775Y-79563651D01*
X91125741Y-79411635D01*
X91323561Y-79228085D01*
X91491815Y-79017102D01*
X91626743Y-78783398D01*
X91725334Y-78532195D01*
X91785383Y-78269103D01*
X91805549Y-78000000D01*
X91785383Y-77730897D01*
X91725334Y-77467805D01*
X91706203Y-77419060D01*
X97631191Y-77419060D01*
X100000000Y-79787868D01*
X100000001Y-79787868D01*
X102368807Y-77419061D01*
X102345169Y-77395423D01*
X102060068Y-77164552D01*
X101752406Y-76964753D01*
X101425531Y-76798202D01*
X101083045Y-76666734D01*
X100728683Y-76571783D01*
X100366354Y-76514397D01*
X100000000Y-76495197D01*
X99633645Y-76514397D01*
X99271316Y-76571783D01*
X98916954Y-76666734D01*
X98574468Y-76798202D01*
X98247594Y-76964753D01*
X97939931Y-77164552D01*
X97654825Y-77395426D01*
X97631191Y-77419060D01*
X91706203Y-77419060D01*
X91626743Y-77216602D01*
X91491815Y-76982898D01*
X91323561Y-76771915D01*
X91323560Y-76771914D01*
X91125743Y-76588366D01*
X91017250Y-76514397D01*
X90902775Y-76436349D01*
X90659641Y-76319262D01*
X90580097Y-76294726D01*
X90437626Y-76250779D01*
X91961350Y-76250779D01*
X91999570Y-76286240D01*
X92222479Y-76438217D01*
X92465542Y-76555270D01*
X92723339Y-76634791D01*
X92990109Y-76675000D01*
X93259891Y-76675000D01*
X93526660Y-76634791D01*
X93784460Y-76555270D01*
X94027519Y-76438219D01*
X94250430Y-76286241D01*
X94288647Y-76250780D01*
X94288648Y-76250780D01*
X93125000Y-75087132D01*
X91961350Y-76250779D01*
X90437626Y-76250779D01*
X90401771Y-76239719D01*
X90134929Y-76199500D01*
X89865071Y-76199500D01*
X89598228Y-76239719D01*
X89340359Y-76319262D01*
X89097228Y-76436347D01*
X88874257Y-76588366D01*
X88676439Y-76771915D01*
X88508184Y-76982899D01*
X88373257Y-77216602D01*
X88274665Y-77467805D01*
X88266612Y-77503092D01*
X88242668Y-77552813D01*
X88199523Y-77587220D01*
X88145721Y-77599500D01*
X84217255Y-77599500D01*
X84169802Y-77590061D01*
X84129574Y-77563181D01*
X82817172Y-76250779D01*
X85711350Y-76250779D01*
X85749570Y-76286240D01*
X85972479Y-76438217D01*
X86215542Y-76555270D01*
X86473339Y-76634791D01*
X86740109Y-76675000D01*
X87009891Y-76675000D01*
X87276660Y-76634791D01*
X87534460Y-76555270D01*
X87777519Y-76438219D01*
X88000430Y-76286241D01*
X88038647Y-76250780D01*
X88038648Y-76250780D01*
X86875000Y-75087132D01*
X85711350Y-76250779D01*
X82817172Y-76250779D01*
X81441392Y-74874999D01*
X85069952Y-74874999D01*
X85090113Y-75144026D01*
X85150146Y-75407049D01*
X85248708Y-75658178D01*
X85383599Y-75891818D01*
X85500038Y-76037828D01*
X86662868Y-74875001D01*
X86662868Y-74875000D01*
X87087132Y-74875000D01*
X88249959Y-76037828D01*
X88249960Y-76037827D01*
X88366400Y-75891818D01*
X88501291Y-75658178D01*
X88599853Y-75407049D01*
X88659886Y-75144026D01*
X88680047Y-74874999D01*
X91319952Y-74874999D01*
X91340113Y-75144026D01*
X91400146Y-75407049D01*
X91498708Y-75658178D01*
X91633599Y-75891818D01*
X91750038Y-76037828D01*
X92912866Y-74875000D01*
X93337132Y-74875000D01*
X94499959Y-76037828D01*
X94499960Y-76037827D01*
X94616400Y-75891818D01*
X94751291Y-75658178D01*
X94849853Y-75407049D01*
X94909886Y-75144026D01*
X94930047Y-74874999D01*
X94909886Y-74605973D01*
X94849853Y-74342950D01*
X94751291Y-74091821D01*
X94616401Y-73858181D01*
X94499959Y-73712170D01*
X93337132Y-74875000D01*
X92912866Y-74875000D01*
X92912867Y-74874999D01*
X91750038Y-73712170D01*
X91633599Y-73858181D01*
X91498708Y-74091821D01*
X91400146Y-74342950D01*
X91340113Y-74605973D01*
X91319952Y-74874999D01*
X88680047Y-74874999D01*
X88659886Y-74605973D01*
X88599853Y-74342950D01*
X88501291Y-74091821D01*
X88366401Y-73858181D01*
X88249959Y-73712170D01*
X87087132Y-74875000D01*
X86662868Y-74875000D01*
X85500038Y-73712170D01*
X85383599Y-73858181D01*
X85248708Y-74091821D01*
X85150146Y-74342950D01*
X85090113Y-74605973D01*
X85069952Y-74874999D01*
X81441392Y-74874999D01*
X80065612Y-73499219D01*
X85711350Y-73499219D01*
X86875000Y-74662868D01*
X86875001Y-74662868D01*
X88038648Y-73499219D01*
X91961350Y-73499219D01*
X93125000Y-74662868D01*
X93125001Y-74662868D01*
X94288648Y-73499219D01*
X94250425Y-73463755D01*
X94027523Y-73311782D01*
X93784460Y-73194729D01*
X93526660Y-73115208D01*
X93259891Y-73075000D01*
X92990109Y-73075000D01*
X92723339Y-73115208D01*
X92465542Y-73194729D01*
X92222479Y-73311782D01*
X91999570Y-73463758D01*
X91961350Y-73499219D01*
X88038648Y-73499219D01*
X88000425Y-73463755D01*
X87777523Y-73311782D01*
X87534460Y-73194729D01*
X87276660Y-73115208D01*
X87009891Y-73075000D01*
X86740109Y-73075000D01*
X86473339Y-73115208D01*
X86215542Y-73194729D01*
X85972479Y-73311782D01*
X85749570Y-73463758D01*
X85711350Y-73499219D01*
X80065612Y-73499219D01*
X75886394Y-69320000D01*
X95514434Y-69320000D01*
X95534631Y-69499251D01*
X95534631Y-69499253D01*
X95534632Y-69499255D01*
X95594211Y-69669522D01*
X95594212Y-69669523D01*
X95690185Y-69822264D01*
X95817735Y-69949814D01*
X95817737Y-69949815D01*
X95817738Y-69949816D01*
X95970478Y-70045789D01*
X96140745Y-70105368D01*
X96207895Y-70112934D01*
X96275043Y-70120500D01*
X96275046Y-70120500D01*
X97464954Y-70120500D01*
X97464957Y-70120500D01*
X97522511Y-70114014D01*
X97599255Y-70105368D01*
X97769522Y-70045789D01*
X97922262Y-69949816D01*
X98049816Y-69822262D01*
X98145789Y-69669522D01*
X98205368Y-69499255D01*
X98225565Y-69320000D01*
X99944434Y-69320000D01*
X99964631Y-69499251D01*
X99964631Y-69499253D01*
X99964632Y-69499255D01*
X100024211Y-69669522D01*
X100024212Y-69669523D01*
X100120185Y-69822264D01*
X100247735Y-69949814D01*
X100247737Y-69949815D01*
X100247738Y-69949816D01*
X100400478Y-70045789D01*
X100570745Y-70105368D01*
X100637895Y-70112934D01*
X100705043Y-70120500D01*
X100705046Y-70120500D01*
X101394954Y-70120500D01*
X101394957Y-70120500D01*
X101452511Y-70114014D01*
X101529255Y-70105368D01*
X101699522Y-70045789D01*
X101852262Y-69949816D01*
X101979816Y-69822262D01*
X102075789Y-69669522D01*
X102135368Y-69499255D01*
X102155565Y-69320000D01*
X102135368Y-69140745D01*
X102075789Y-68970478D01*
X101979816Y-68817738D01*
X101979815Y-68817737D01*
X101979814Y-68817735D01*
X101852264Y-68690185D01*
X101746988Y-68624036D01*
X101699522Y-68594211D01*
X101529255Y-68534632D01*
X101529253Y-68534631D01*
X101529251Y-68534631D01*
X101394957Y-68519500D01*
X101394954Y-68519500D01*
X100705046Y-68519500D01*
X100705043Y-68519500D01*
X100570748Y-68534631D01*
X100570745Y-68534631D01*
X100570745Y-68534632D01*
X100400478Y-68594211D01*
X100400476Y-68594211D01*
X100400476Y-68594212D01*
X100247735Y-68690185D01*
X100120185Y-68817735D01*
X100024212Y-68970476D01*
X99964631Y-69140748D01*
X99944434Y-69320000D01*
X98225565Y-69320000D01*
X98205368Y-69140745D01*
X98145789Y-68970478D01*
X98049816Y-68817738D01*
X98049815Y-68817737D01*
X98049814Y-68817735D01*
X97922264Y-68690185D01*
X97816988Y-68624036D01*
X97769522Y-68594211D01*
X97751224Y-68587808D01*
X97697068Y-68550326D01*
X97669745Y-68490395D01*
X97676967Y-68424927D01*
X97716696Y-68372392D01*
X97810451Y-68300451D01*
X97902698Y-68180233D01*
X97960687Y-68040236D01*
X97980466Y-67890000D01*
X97960687Y-67739764D01*
X97902698Y-67599767D01*
X97810451Y-67479549D01*
X97690233Y-67387302D01*
X97690231Y-67387301D01*
X97550235Y-67329312D01*
X97437721Y-67314500D01*
X97437720Y-67314500D01*
X97362280Y-67314500D01*
X97362279Y-67314500D01*
X97249764Y-67329312D01*
X97109768Y-67387301D01*
X96989549Y-67479549D01*
X96897301Y-67599768D01*
X96839312Y-67739764D01*
X96819533Y-67890000D01*
X96839312Y-68040235D01*
X96884779Y-68150000D01*
X96897302Y-68180233D01*
X96956025Y-68256762D01*
X96999487Y-68313402D01*
X96998588Y-68314091D01*
X97023006Y-68345063D01*
X97033345Y-68405227D01*
X97013723Y-68463034D01*
X96968895Y-68504473D01*
X96909727Y-68519500D01*
X96275043Y-68519500D01*
X96140748Y-68534631D01*
X96140745Y-68534631D01*
X96140745Y-68534632D01*
X95970478Y-68594211D01*
X95970476Y-68594211D01*
X95970476Y-68594212D01*
X95817735Y-68690185D01*
X95690185Y-68817735D01*
X95594212Y-68970476D01*
X95534631Y-69140748D01*
X95514434Y-69320000D01*
X75886394Y-69320000D01*
X73354690Y-66788296D01*
X73354675Y-66788283D01*
X73338342Y-66771950D01*
X73338341Y-66771949D01*
X73338339Y-66771947D01*
X73318599Y-66761889D01*
X73302014Y-66751726D01*
X73284090Y-66738704D01*
X73263020Y-66731858D01*
X73245044Y-66724412D01*
X73225302Y-66714353D01*
X73203418Y-66710886D01*
X73184507Y-66706346D01*
X73163435Y-66699500D01*
X73163433Y-66699500D01*
X73131519Y-66699500D01*
X66990116Y-66699500D01*
X66930948Y-66684473D01*
X66886121Y-66643035D01*
X66871512Y-66599999D01*
X73994317Y-66599999D01*
X74014956Y-66756762D01*
X74075463Y-66902840D01*
X74171717Y-67028282D01*
X74251723Y-67089672D01*
X74297159Y-67124536D01*
X74443238Y-67185044D01*
X74600000Y-67205682D01*
X74756762Y-67185044D01*
X74902841Y-67124536D01*
X75028282Y-67028282D01*
X75124536Y-66902841D01*
X75185044Y-66756762D01*
X75205682Y-66600000D01*
X75192517Y-66499999D01*
X76794317Y-66499999D01*
X76814956Y-66656762D01*
X76875463Y-66802840D01*
X76971717Y-66928282D01*
X77097159Y-67024536D01*
X77243238Y-67085044D01*
X77400000Y-67105682D01*
X77556762Y-67085044D01*
X77702841Y-67024536D01*
X77828282Y-66928282D01*
X77924536Y-66802841D01*
X77985044Y-66656762D01*
X78005682Y-66500000D01*
X77985044Y-66343238D01*
X77924536Y-66197159D01*
X77915240Y-66185044D01*
X77828282Y-66071717D01*
X77702840Y-65975463D01*
X77556762Y-65914956D01*
X77400000Y-65894317D01*
X77243237Y-65914956D01*
X77097159Y-65975463D01*
X76971717Y-66071717D01*
X76875463Y-66197159D01*
X76814956Y-66343237D01*
X76794317Y-66499999D01*
X75192517Y-66499999D01*
X75185044Y-66443238D01*
X75124536Y-66297159D01*
X75028282Y-66171718D01*
X74951063Y-66112466D01*
X74914630Y-66067475D01*
X74902592Y-66010845D01*
X74917577Y-65954924D01*
X74956316Y-65911899D01*
X75010364Y-65891152D01*
X75056762Y-65885044D01*
X75202841Y-65824536D01*
X75328282Y-65728282D01*
X75424536Y-65602841D01*
X75485044Y-65456762D01*
X75505682Y-65300000D01*
X75485044Y-65143238D01*
X75425712Y-64999999D01*
X93394317Y-64999999D01*
X93414955Y-65156761D01*
X93440061Y-65217370D01*
X93449500Y-65264823D01*
X93449500Y-66838478D01*
X93449428Y-66842711D01*
X93447237Y-66906826D01*
X93456963Y-66946733D01*
X93459334Y-66959207D01*
X93464930Y-66999922D01*
X93472079Y-67016380D01*
X93478819Y-67036421D01*
X93483067Y-67053853D01*
X93503206Y-67089672D01*
X93508852Y-67101039D01*
X93525219Y-67138719D01*
X93536543Y-67152638D01*
X93548437Y-67170113D01*
X93556831Y-67185043D01*
X93557235Y-67185760D01*
X93586289Y-67214814D01*
X93594796Y-67224240D01*
X93620722Y-67256108D01*
X93635378Y-67266453D01*
X93651552Y-67280077D01*
X94023477Y-67652002D01*
X94050356Y-67692228D01*
X94075463Y-67752840D01*
X94171717Y-67878282D01*
X94289268Y-67968481D01*
X94297159Y-67974536D01*
X94443238Y-68035044D01*
X94600000Y-68055682D01*
X94756762Y-68035044D01*
X94902841Y-67974536D01*
X95028282Y-67878282D01*
X95124536Y-67752841D01*
X95185044Y-67606762D01*
X95205682Y-67450000D01*
X95185044Y-67293238D01*
X95124536Y-67147159D01*
X95089147Y-67101039D01*
X95028282Y-67021717D01*
X94902840Y-66925463D01*
X94842228Y-66900356D01*
X94802002Y-66873477D01*
X94586819Y-66658294D01*
X94559939Y-66618066D01*
X94550500Y-66570613D01*
X94550500Y-65264823D01*
X94559939Y-65217370D01*
X94585044Y-65156761D01*
X94586824Y-65143237D01*
X94605682Y-65000000D01*
X94585044Y-64843238D01*
X94559938Y-64782629D01*
X94550500Y-64735177D01*
X94550500Y-63429387D01*
X94559939Y-63381935D01*
X94586816Y-63341708D01*
X94802007Y-63126516D01*
X94842228Y-63099642D01*
X94902841Y-63074536D01*
X95028282Y-62978282D01*
X95124536Y-62852841D01*
X95185044Y-62706762D01*
X95205682Y-62550000D01*
X95203870Y-62536240D01*
X95185044Y-62393238D01*
X95159939Y-62332630D01*
X95150500Y-62285177D01*
X95150500Y-61761522D01*
X95150572Y-61757289D01*
X95152762Y-61693174D01*
X95143035Y-61653262D01*
X95140665Y-61640794D01*
X95135070Y-61600080D01*
X95127920Y-61583620D01*
X95121180Y-61563578D01*
X95116933Y-61546148D01*
X95116931Y-61546144D01*
X95096796Y-61510333D01*
X95091148Y-61498963D01*
X95074780Y-61461280D01*
X95063458Y-61447364D01*
X95051554Y-61429874D01*
X95042763Y-61414238D01*
X95036819Y-61408294D01*
X95009939Y-61368066D01*
X95000500Y-61320613D01*
X95000500Y-60680000D01*
X95514434Y-60680000D01*
X95534631Y-60859251D01*
X95534631Y-60859253D01*
X95534632Y-60859255D01*
X95594211Y-61029522D01*
X95650978Y-61119867D01*
X95690185Y-61182264D01*
X95817735Y-61309814D01*
X95817737Y-61309815D01*
X95817738Y-61309816D01*
X95970478Y-61405789D01*
X96140745Y-61465368D01*
X96207895Y-61472934D01*
X96275043Y-61480500D01*
X96909727Y-61480500D01*
X96968895Y-61495527D01*
X97013723Y-61536966D01*
X97033345Y-61594773D01*
X97023006Y-61654937D01*
X96998588Y-61685908D01*
X96999487Y-61686598D01*
X96897301Y-61819768D01*
X96839312Y-61959764D01*
X96819533Y-62109999D01*
X96839312Y-62260235D01*
X96897301Y-62400231D01*
X96897302Y-62400233D01*
X96989549Y-62520451D01*
X97109767Y-62612698D01*
X97183497Y-62643238D01*
X97249764Y-62670687D01*
X97362279Y-62685500D01*
X97362280Y-62685500D01*
X97437720Y-62685500D01*
X97437721Y-62685500D01*
X97493978Y-62678093D01*
X97550236Y-62670687D01*
X97690233Y-62612698D01*
X97810451Y-62520451D01*
X97902698Y-62400233D01*
X97960687Y-62260236D01*
X97980466Y-62110000D01*
X97979149Y-62100000D01*
X97960687Y-61959764D01*
X97953842Y-61943238D01*
X97902698Y-61819767D01*
X97810451Y-61699549D01*
X97810449Y-61699547D01*
X97810448Y-61699546D01*
X97716695Y-61627606D01*
X97676966Y-61575071D01*
X97669745Y-61509602D01*
X97697070Y-61449671D01*
X97751227Y-61412190D01*
X97769522Y-61405789D01*
X97922262Y-61309816D01*
X98049816Y-61182262D01*
X98145789Y-61029522D01*
X98205368Y-60859255D01*
X98225565Y-60680000D01*
X99944434Y-60680000D01*
X99964631Y-60859251D01*
X99964631Y-60859253D01*
X99964632Y-60859255D01*
X100024211Y-61029522D01*
X100080978Y-61119867D01*
X100120185Y-61182264D01*
X100247735Y-61309814D01*
X100247737Y-61309815D01*
X100247738Y-61309816D01*
X100400478Y-61405789D01*
X100570745Y-61465368D01*
X100637895Y-61472934D01*
X100705043Y-61480500D01*
X100705046Y-61480500D01*
X101394954Y-61480500D01*
X101394957Y-61480500D01*
X101452511Y-61474014D01*
X101529255Y-61465368D01*
X101699522Y-61405789D01*
X101852262Y-61309816D01*
X101979816Y-61182262D01*
X102075789Y-61029522D01*
X102135368Y-60859255D01*
X102155565Y-60680000D01*
X102135368Y-60500745D01*
X102075789Y-60330478D01*
X101979816Y-60177738D01*
X101979815Y-60177737D01*
X101979814Y-60177735D01*
X101852264Y-60050185D01*
X101737539Y-59978099D01*
X101699522Y-59954211D01*
X101529255Y-59894632D01*
X101529253Y-59894631D01*
X101529251Y-59894631D01*
X101394957Y-59879500D01*
X101394954Y-59879500D01*
X100705046Y-59879500D01*
X100705043Y-59879500D01*
X100570748Y-59894631D01*
X100570745Y-59894631D01*
X100570745Y-59894632D01*
X100400478Y-59954211D01*
X100400476Y-59954211D01*
X100400476Y-59954212D01*
X100247735Y-60050185D01*
X100120185Y-60177735D01*
X100024212Y-60330476D01*
X99964631Y-60500748D01*
X99944434Y-60680000D01*
X98225565Y-60680000D01*
X98205368Y-60500745D01*
X98145789Y-60330478D01*
X98049816Y-60177738D01*
X98049815Y-60177737D01*
X98049814Y-60177735D01*
X97922264Y-60050185D01*
X97807539Y-59978099D01*
X97769522Y-59954211D01*
X97599255Y-59894632D01*
X97599253Y-59894631D01*
X97599251Y-59894631D01*
X97464957Y-59879500D01*
X97464954Y-59879500D01*
X96275046Y-59879500D01*
X96275043Y-59879500D01*
X96140748Y-59894631D01*
X96140745Y-59894631D01*
X96140745Y-59894632D01*
X95970478Y-59954211D01*
X95970476Y-59954211D01*
X95970476Y-59954212D01*
X95817735Y-60050185D01*
X95690185Y-60177735D01*
X95594212Y-60330476D01*
X95534631Y-60500748D01*
X95514434Y-60680000D01*
X95000500Y-60680000D01*
X95000500Y-60279387D01*
X95009939Y-60231934D01*
X95036819Y-60191706D01*
X96641705Y-58586819D01*
X96681933Y-58559939D01*
X96729386Y-58550500D01*
X97285177Y-58550500D01*
X97332629Y-58559938D01*
X97393237Y-58585043D01*
X97393238Y-58585044D01*
X97549999Y-58605682D01*
X97549999Y-58605681D01*
X97550000Y-58605682D01*
X97706762Y-58585044D01*
X97852841Y-58524536D01*
X97978282Y-58428282D01*
X98074536Y-58302841D01*
X98135044Y-58156762D01*
X98155682Y-58000000D01*
X98135044Y-57843238D01*
X98074536Y-57697159D01*
X98011460Y-57614956D01*
X97978282Y-57571717D01*
X97852840Y-57475463D01*
X97706762Y-57414956D01*
X97549999Y-57394317D01*
X97393238Y-57414955D01*
X97332630Y-57440061D01*
X97285177Y-57449500D01*
X96461522Y-57449500D01*
X96457289Y-57449428D01*
X96393173Y-57447237D01*
X96353255Y-57456965D01*
X96340784Y-57459335D01*
X96300078Y-57464930D01*
X96283612Y-57472082D01*
X96263578Y-57478818D01*
X96246150Y-57483065D01*
X96210333Y-57503203D01*
X96198970Y-57508847D01*
X96161277Y-57525220D01*
X96147358Y-57536545D01*
X96129883Y-57548439D01*
X96114239Y-57557235D01*
X96085185Y-57586288D01*
X96075764Y-57594791D01*
X96043891Y-57620722D01*
X96033540Y-57635386D01*
X96019919Y-57651555D01*
X94192788Y-59478686D01*
X94192788Y-59478687D01*
X94184109Y-59487366D01*
X94184106Y-59487368D01*
X94128210Y-59543263D01*
X94068868Y-59602606D01*
X94065825Y-59605547D01*
X94018954Y-59649321D01*
X93997605Y-59684427D01*
X93990466Y-59694916D01*
X93965638Y-59727658D01*
X93959054Y-59744354D01*
X93949654Y-59763280D01*
X93940329Y-59778616D01*
X93929242Y-59818181D01*
X93925197Y-59830207D01*
X93910123Y-59868434D01*
X93908288Y-59886285D01*
X93904342Y-59907048D01*
X93899500Y-59924333D01*
X93899500Y-59965418D01*
X93898850Y-59978099D01*
X93894647Y-60018972D01*
X93897697Y-60036656D01*
X93899500Y-60057725D01*
X93899500Y-61588478D01*
X93899428Y-61592711D01*
X93897237Y-61656826D01*
X93906963Y-61696733D01*
X93909334Y-61709207D01*
X93914930Y-61749922D01*
X93922079Y-61766380D01*
X93928819Y-61786421D01*
X93933067Y-61803853D01*
X93953206Y-61839672D01*
X93958852Y-61851039D01*
X93975220Y-61888720D01*
X93983009Y-61898294D01*
X93986542Y-61902637D01*
X93998437Y-61920116D01*
X94007232Y-61935758D01*
X94013181Y-61941707D01*
X94040061Y-61981935D01*
X94049500Y-62029388D01*
X94049500Y-62270612D01*
X94040061Y-62318065D01*
X94013181Y-62358293D01*
X93618880Y-62752593D01*
X93615837Y-62755534D01*
X93568956Y-62799319D01*
X93547605Y-62834427D01*
X93540466Y-62844916D01*
X93515638Y-62877658D01*
X93509054Y-62894354D01*
X93499654Y-62913280D01*
X93490329Y-62928616D01*
X93479242Y-62968181D01*
X93475197Y-62980207D01*
X93460123Y-63018434D01*
X93458288Y-63036285D01*
X93454342Y-63057048D01*
X93449500Y-63074333D01*
X93449500Y-63115418D01*
X93448850Y-63128099D01*
X93444647Y-63168972D01*
X93447697Y-63186656D01*
X93449500Y-63207725D01*
X93449500Y-64735177D01*
X93440061Y-64782630D01*
X93414955Y-64843238D01*
X93394317Y-64999999D01*
X75425712Y-64999999D01*
X75424536Y-64997159D01*
X75413002Y-64982128D01*
X75328282Y-64871717D01*
X75202840Y-64775463D01*
X75056762Y-64714956D01*
X74899999Y-64694317D01*
X74743237Y-64714956D01*
X74597159Y-64775463D01*
X74471717Y-64871717D01*
X74375463Y-64997159D01*
X74314956Y-65143237D01*
X74294317Y-65300000D01*
X74314956Y-65456762D01*
X74375463Y-65602840D01*
X74447836Y-65697159D01*
X74471718Y-65728282D01*
X74548936Y-65787533D01*
X74585369Y-65832524D01*
X74597407Y-65889153D01*
X74582423Y-65945074D01*
X74543685Y-65988099D01*
X74489636Y-66008847D01*
X74443237Y-66014956D01*
X74297159Y-66075463D01*
X74171717Y-66171717D01*
X74075463Y-66297159D01*
X74014956Y-66443237D01*
X73994317Y-66599999D01*
X66871512Y-66599999D01*
X66866498Y-66585229D01*
X66876836Y-66525064D01*
X66914630Y-66477124D01*
X66978282Y-66428282D01*
X66978282Y-66428281D01*
X67074536Y-66302841D01*
X67135044Y-66156762D01*
X67145424Y-66077913D01*
X67157150Y-66039259D01*
X67180678Y-66006424D01*
X67395749Y-65791353D01*
X67406098Y-65782105D01*
X67433970Y-65759879D01*
X67466191Y-65712618D01*
X67468852Y-65708869D01*
X67502792Y-65662883D01*
X67502792Y-65662881D01*
X67506376Y-65658026D01*
X67508695Y-65653431D01*
X67510470Y-65647675D01*
X67510472Y-65647673D01*
X67527328Y-65593025D01*
X67528758Y-65588675D01*
X67547646Y-65534700D01*
X67547646Y-65534695D01*
X67549637Y-65529006D01*
X67550500Y-65523932D01*
X67550500Y-65460739D01*
X67550587Y-65456102D01*
X67551068Y-65443237D01*
X67552724Y-65398990D01*
X67552723Y-65398989D01*
X67552949Y-65392970D01*
X67550500Y-65374365D01*
X67550500Y-64000000D01*
X76594317Y-64000000D01*
X76614956Y-64156762D01*
X76675463Y-64302840D01*
X76771717Y-64428282D01*
X76868885Y-64502841D01*
X76897159Y-64524536D01*
X77043238Y-64585044D01*
X77200000Y-64605682D01*
X77356762Y-64585044D01*
X77502841Y-64524536D01*
X77628282Y-64428282D01*
X77724536Y-64302841D01*
X77785044Y-64156762D01*
X77805682Y-64000000D01*
X77785044Y-63843238D01*
X77724536Y-63697159D01*
X77645623Y-63594317D01*
X77628282Y-63571717D01*
X77502840Y-63475463D01*
X77356762Y-63414956D01*
X77199999Y-63394317D01*
X77043237Y-63414956D01*
X76897159Y-63475463D01*
X76771717Y-63571717D01*
X76675463Y-63697159D01*
X76614956Y-63843237D01*
X76594317Y-64000000D01*
X67550500Y-64000000D01*
X67550500Y-62799999D01*
X77694317Y-62799999D01*
X77714956Y-62956762D01*
X77775463Y-63102840D01*
X77871717Y-63228282D01*
X77997159Y-63324536D01*
X78143238Y-63385044D01*
X78279361Y-63402964D01*
X78299999Y-63405682D01*
X78299999Y-63405681D01*
X78300000Y-63405682D01*
X78456762Y-63385044D01*
X78602841Y-63324536D01*
X78728282Y-63228282D01*
X78824536Y-63102841D01*
X78885044Y-62956762D01*
X78905682Y-62800000D01*
X78905592Y-62799320D01*
X78893407Y-62706762D01*
X78885044Y-62643238D01*
X78824536Y-62497159D01*
X78788800Y-62450587D01*
X78728282Y-62371717D01*
X78602840Y-62275463D01*
X78456762Y-62214956D01*
X78300000Y-62194317D01*
X78143237Y-62214956D01*
X77997159Y-62275463D01*
X77871717Y-62371717D01*
X77775463Y-62497159D01*
X77714956Y-62643237D01*
X77694317Y-62799999D01*
X67550500Y-62799999D01*
X67550500Y-62541419D01*
X67557081Y-62501560D01*
X67576122Y-62465935D01*
X67624536Y-62402841D01*
X67685044Y-62256762D01*
X67705682Y-62100000D01*
X67691290Y-61990683D01*
X67701847Y-61922096D01*
X67747604Y-61869920D01*
X67814229Y-61850500D01*
X68512034Y-61850500D01*
X68559487Y-61859939D01*
X68599715Y-61886819D01*
X69008630Y-62295733D01*
X69017896Y-62306101D01*
X69037397Y-62330555D01*
X69040121Y-62333970D01*
X69049055Y-62340061D01*
X69087364Y-62366180D01*
X69091141Y-62368860D01*
X69133649Y-62400233D01*
X69141973Y-62406376D01*
X69146568Y-62408695D01*
X69152325Y-62410470D01*
X69152327Y-62410472D01*
X69177351Y-62418190D01*
X69206980Y-62427330D01*
X69211371Y-62428774D01*
X69265301Y-62447646D01*
X69265302Y-62447646D01*
X69270989Y-62449636D01*
X69276073Y-62450500D01*
X69282098Y-62450500D01*
X69339262Y-62450500D01*
X69343899Y-62450587D01*
X69401010Y-62452724D01*
X69401010Y-62452723D01*
X69407029Y-62452949D01*
X69425635Y-62450500D01*
X75358581Y-62450500D01*
X75398440Y-62457081D01*
X75434064Y-62476122D01*
X75497159Y-62524536D01*
X75643238Y-62585044D01*
X75800000Y-62605682D01*
X75956762Y-62585044D01*
X76102841Y-62524536D01*
X76228282Y-62428282D01*
X76324536Y-62302841D01*
X76385044Y-62156762D01*
X76405682Y-62000000D01*
X76385044Y-61843238D01*
X76324536Y-61697159D01*
X76293759Y-61657049D01*
X76228282Y-61571717D01*
X76102840Y-61475463D01*
X75956762Y-61414956D01*
X75805080Y-61394986D01*
X75745779Y-61370422D01*
X75706704Y-61319499D01*
X75698327Y-61255863D01*
X75705682Y-61200000D01*
X75685044Y-61043238D01*
X75624536Y-60897159D01*
X75528282Y-60771717D01*
X75402841Y-60675463D01*
X75269392Y-60620187D01*
X75225422Y-60589399D01*
X75198584Y-60542913D01*
X75193906Y-60489444D01*
X75205682Y-60400000D01*
X75185044Y-60243238D01*
X75124536Y-60097159D01*
X75109107Y-60077051D01*
X75028282Y-59971717D01*
X74902840Y-59875463D01*
X74756762Y-59814956D01*
X74600000Y-59794317D01*
X74443237Y-59814956D01*
X74297161Y-59875462D01*
X74273525Y-59893598D01*
X74234064Y-59923877D01*
X74198440Y-59942919D01*
X74158581Y-59949500D01*
X66332262Y-59949500D01*
X66318378Y-59948720D01*
X66282963Y-59944729D01*
X66226811Y-59955354D01*
X66222241Y-59956131D01*
X66159758Y-59965549D01*
X66154851Y-59967163D01*
X66098985Y-59996690D01*
X66094847Y-59998779D01*
X66037936Y-60026186D01*
X66033712Y-60029183D01*
X65989059Y-60073836D01*
X65985722Y-60077051D01*
X65939394Y-60120038D01*
X65927967Y-60134928D01*
X65699713Y-60363183D01*
X65659488Y-60390061D01*
X65612035Y-60399500D01*
X59687966Y-60399500D01*
X59640513Y-60390061D01*
X59600285Y-60363181D01*
X56037102Y-56799999D01*
X67094317Y-56799999D01*
X67114956Y-56956762D01*
X67175463Y-57102840D01*
X67271717Y-57228282D01*
X67397159Y-57324536D01*
X67543238Y-57385044D01*
X67700000Y-57405682D01*
X67856762Y-57385044D01*
X68002841Y-57324536D01*
X68128282Y-57228282D01*
X68224536Y-57102841D01*
X68285044Y-56956762D01*
X68305682Y-56800000D01*
X68305079Y-56795423D01*
X68295747Y-56724536D01*
X68285044Y-56643238D01*
X68224536Y-56497159D01*
X68189332Y-56451280D01*
X68128282Y-56371717D01*
X68002840Y-56275463D01*
X67856762Y-56214956D01*
X67700000Y-56194317D01*
X67543237Y-56214956D01*
X67397159Y-56275463D01*
X67271717Y-56371717D01*
X67175463Y-56497159D01*
X67114956Y-56643237D01*
X67094317Y-56799999D01*
X56037102Y-56799999D01*
X55430681Y-56193578D01*
X55407150Y-56160740D01*
X55395424Y-56122085D01*
X55385044Y-56043238D01*
X55367134Y-56000000D01*
X55355517Y-55971952D01*
X55346675Y-55912345D01*
X55366976Y-55855609D01*
X55411625Y-55815142D01*
X55470078Y-55800500D01*
X69812034Y-55800500D01*
X69859487Y-55809939D01*
X69899715Y-55836819D01*
X71169317Y-57106420D01*
X71192848Y-57139257D01*
X71204575Y-57177915D01*
X71214956Y-57256761D01*
X71275464Y-57402841D01*
X71371717Y-57528282D01*
X71457778Y-57594318D01*
X71497159Y-57624536D01*
X71643238Y-57685044D01*
X71800000Y-57705682D01*
X71956762Y-57685044D01*
X72102841Y-57624536D01*
X72228282Y-57528282D01*
X72324536Y-57402841D01*
X72385044Y-57256762D01*
X72405682Y-57100000D01*
X72385044Y-56943238D01*
X72324536Y-56797159D01*
X72268811Y-56724536D01*
X72228282Y-56671717D01*
X72102841Y-56575464D01*
X72054088Y-56555270D01*
X71956762Y-56514956D01*
X71925443Y-56510832D01*
X71877915Y-56504575D01*
X71839257Y-56492848D01*
X71806420Y-56469317D01*
X70391368Y-55054265D01*
X70382102Y-55043897D01*
X70359879Y-55016030D01*
X70312608Y-54983800D01*
X70308870Y-54981148D01*
X70306214Y-54979188D01*
X70295437Y-54971233D01*
X70258035Y-54943629D01*
X70253424Y-54941302D01*
X70193049Y-54922679D01*
X70188644Y-54921230D01*
X70185060Y-54919976D01*
X70134699Y-54902354D01*
X70134698Y-54902353D01*
X70129023Y-54900368D01*
X70123914Y-54899500D01*
X70117902Y-54899500D01*
X70060738Y-54899500D01*
X70056101Y-54899413D01*
X69992970Y-54897050D01*
X69974365Y-54899500D01*
X52922643Y-54899500D01*
X52908759Y-54898720D01*
X52873345Y-54894729D01*
X52817163Y-54905358D01*
X52812598Y-54906134D01*
X52750143Y-54915549D01*
X52745224Y-54917167D01*
X52710526Y-54935506D01*
X52689351Y-54946696D01*
X52685225Y-54948780D01*
X52628328Y-54976180D01*
X52624089Y-54979188D01*
X52579427Y-55023849D01*
X52576090Y-55027063D01*
X52529777Y-55070036D01*
X52518349Y-55084926D01*
X52090094Y-55513183D01*
X52049869Y-55540061D01*
X52002416Y-55549500D01*
X42441419Y-55549500D01*
X42401560Y-55542919D01*
X42365935Y-55523877D01*
X42302841Y-55475464D01*
X42302840Y-55475463D01*
X42302838Y-55475462D01*
X42156762Y-55414956D01*
X42000000Y-55394317D01*
X41843237Y-55414956D01*
X41697159Y-55475463D01*
X41571717Y-55571717D01*
X41475463Y-55697159D01*
X41414956Y-55843237D01*
X41394317Y-56000000D01*
X41414956Y-56156762D01*
X41475463Y-56302840D01*
X41571717Y-56428282D01*
X41663985Y-56499081D01*
X41697159Y-56524536D01*
X41843238Y-56585044D01*
X42000000Y-56605682D01*
X42156762Y-56585044D01*
X42302841Y-56524536D01*
X42365935Y-56476122D01*
X42401560Y-56457081D01*
X42441419Y-56450500D01*
X52208119Y-56450500D01*
X52222003Y-56451280D01*
X52257414Y-56455270D01*
X52257414Y-56455269D01*
X52257416Y-56455270D01*
X52313609Y-56444636D01*
X52318107Y-56443872D01*
X52374668Y-56435348D01*
X52374669Y-56435347D01*
X52380649Y-56434446D01*
X52385509Y-56432846D01*
X52390848Y-56430023D01*
X52390853Y-56430023D01*
X52441426Y-56403292D01*
X52445517Y-56401227D01*
X52497023Y-56376425D01*
X52497025Y-56376422D01*
X52502459Y-56373806D01*
X52506652Y-56370831D01*
X52510914Y-56366568D01*
X52510919Y-56366566D01*
X52551382Y-56326101D01*
X52554640Y-56322962D01*
X52596575Y-56284055D01*
X52596576Y-56284053D01*
X52600994Y-56279954D01*
X52612414Y-56265069D01*
X53040665Y-55836818D01*
X53080893Y-55809939D01*
X53128346Y-55800500D01*
X54129922Y-55800500D01*
X54188375Y-55815142D01*
X54233024Y-55855609D01*
X54253325Y-55912345D01*
X54244483Y-55971952D01*
X54214956Y-56043237D01*
X54194317Y-56200000D01*
X54214956Y-56356762D01*
X54275463Y-56502840D01*
X54371717Y-56628282D01*
X54428325Y-56671718D01*
X54497159Y-56724536D01*
X54643238Y-56785044D01*
X54722083Y-56795424D01*
X54760739Y-56807150D01*
X54793577Y-56830681D01*
X59108630Y-61145733D01*
X59117896Y-61156101D01*
X59138760Y-61182264D01*
X59140121Y-61183970D01*
X59163630Y-61199998D01*
X59187364Y-61216180D01*
X59191145Y-61218863D01*
X59241973Y-61256376D01*
X59246568Y-61258695D01*
X59252325Y-61260470D01*
X59252327Y-61260472D01*
X59277351Y-61268190D01*
X59306980Y-61277330D01*
X59311371Y-61278774D01*
X59365301Y-61297646D01*
X59365302Y-61297646D01*
X59370989Y-61299636D01*
X59376073Y-61300500D01*
X59382098Y-61300500D01*
X59439262Y-61300500D01*
X59443899Y-61300587D01*
X59501010Y-61302724D01*
X59501010Y-61302723D01*
X59507029Y-61302949D01*
X59525635Y-61300500D01*
X65170141Y-61300500D01*
X65226436Y-61314015D01*
X65270459Y-61351615D01*
X65292614Y-61405102D01*
X65288072Y-61462818D01*
X65257822Y-61512181D01*
X64956822Y-61813181D01*
X64916594Y-61840061D01*
X64869141Y-61849500D01*
X55437966Y-61849500D01*
X55390513Y-61840061D01*
X55350285Y-61813181D01*
X54730681Y-61193577D01*
X54707150Y-61160739D01*
X54695424Y-61122083D01*
X54685044Y-61043238D01*
X54624536Y-60897159D01*
X54528282Y-60771717D01*
X54402840Y-60675463D01*
X54256762Y-60614956D01*
X54100000Y-60594317D01*
X53943237Y-60614956D01*
X53797159Y-60675463D01*
X53671717Y-60771717D01*
X53575463Y-60897159D01*
X53514956Y-61043237D01*
X53494317Y-61199999D01*
X53514956Y-61356762D01*
X53575463Y-61502840D01*
X53671717Y-61628282D01*
X53764591Y-61699546D01*
X53797159Y-61724536D01*
X53943238Y-61785044D01*
X54022083Y-61795424D01*
X54060739Y-61807150D01*
X54093577Y-61830681D01*
X54292284Y-62029388D01*
X54400716Y-62137819D01*
X54430966Y-62187182D01*
X54435508Y-62244898D01*
X54413353Y-62298385D01*
X54369330Y-62335985D01*
X54313035Y-62349500D01*
X53037965Y-62349500D01*
X52990512Y-62340061D01*
X52950284Y-62313181D01*
X51830681Y-61193578D01*
X51807150Y-61160740D01*
X51795424Y-61122085D01*
X51785044Y-61043238D01*
X51724536Y-60897159D01*
X51628282Y-60771717D01*
X51502840Y-60675463D01*
X51356762Y-60614956D01*
X51200000Y-60594317D01*
X51043237Y-60614956D01*
X50897159Y-60675463D01*
X50771717Y-60771717D01*
X50675463Y-60897159D01*
X50614956Y-61043237D01*
X50594317Y-61199999D01*
X50614956Y-61356762D01*
X50675463Y-61502840D01*
X50771717Y-61628282D01*
X50864591Y-61699546D01*
X50897159Y-61724536D01*
X51043238Y-61785044D01*
X51122083Y-61795424D01*
X51160739Y-61807150D01*
X51193577Y-61830681D01*
X52458630Y-63095733D01*
X52467896Y-63106101D01*
X52490120Y-63133969D01*
X52537364Y-63166180D01*
X52541141Y-63168860D01*
X52586344Y-63202222D01*
X52591973Y-63206376D01*
X52596568Y-63208695D01*
X52602325Y-63210470D01*
X52602327Y-63210472D01*
X52627351Y-63218190D01*
X52656980Y-63227330D01*
X52661371Y-63228774D01*
X52715301Y-63247646D01*
X52715303Y-63247646D01*
X52720990Y-63249636D01*
X52726071Y-63250500D01*
X52732098Y-63250500D01*
X52789246Y-63250500D01*
X52793883Y-63250586D01*
X52851010Y-63252725D01*
X52851010Y-63252724D01*
X52857026Y-63252950D01*
X52875638Y-63250500D01*
X65281950Y-63250500D01*
X65295834Y-63251280D01*
X65331245Y-63255270D01*
X65331245Y-63255269D01*
X65331247Y-63255270D01*
X65387440Y-63244636D01*
X65391938Y-63243872D01*
X65448499Y-63235348D01*
X65448500Y-63235347D01*
X65454480Y-63234446D01*
X65459340Y-63232846D01*
X65464679Y-63230023D01*
X65464684Y-63230023D01*
X65515257Y-63203292D01*
X65519348Y-63201227D01*
X65570854Y-63176425D01*
X65570856Y-63176422D01*
X65576290Y-63173806D01*
X65580483Y-63170831D01*
X65584745Y-63166568D01*
X65584750Y-63166566D01*
X65625213Y-63126101D01*
X65628471Y-63122962D01*
X65670406Y-63084055D01*
X65670407Y-63084053D01*
X65674825Y-63079954D01*
X65686245Y-63065069D01*
X66377757Y-62373556D01*
X66429438Y-62342579D01*
X66489622Y-62339621D01*
X66544095Y-62365381D01*
X66563453Y-62391479D01*
X66565526Y-62389889D01*
X66575463Y-62402839D01*
X66575464Y-62402841D01*
X66623877Y-62465935D01*
X66642919Y-62501560D01*
X66649500Y-62541419D01*
X66649500Y-65212034D01*
X66640061Y-65259488D01*
X66613180Y-65299717D01*
X66543576Y-65369319D01*
X66510740Y-65392848D01*
X66472083Y-65404575D01*
X66393238Y-65414956D01*
X66247158Y-65475464D01*
X66121717Y-65571717D01*
X66025463Y-65697159D01*
X65964956Y-65843237D01*
X65944317Y-66000000D01*
X65964956Y-66156762D01*
X66025463Y-66302840D01*
X66121717Y-66428282D01*
X66185370Y-66477124D01*
X66223164Y-66525064D01*
X66233502Y-66585229D01*
X66213879Y-66643035D01*
X66169052Y-66684473D01*
X66109884Y-66699500D01*
X56448349Y-66699500D01*
X56382869Y-66680801D01*
X56337137Y-66630344D01*
X56324946Y-66563346D01*
X56349973Y-66500014D01*
X56405014Y-66428282D01*
X56424536Y-66402841D01*
X56485044Y-66256762D01*
X56505682Y-66100000D01*
X56485044Y-65943238D01*
X56424536Y-65797159D01*
X56416310Y-65786438D01*
X56328282Y-65671717D01*
X56202840Y-65575463D01*
X56056762Y-65514956D01*
X55900000Y-65494317D01*
X55743237Y-65514956D01*
X55597156Y-65575464D01*
X55590703Y-65580416D01*
X55531402Y-65604977D01*
X55467765Y-65596597D01*
X55416844Y-65557522D01*
X55392282Y-65498223D01*
X55385044Y-65443238D01*
X55324536Y-65297159D01*
X55263312Y-65217370D01*
X55228282Y-65171717D01*
X55102840Y-65075463D01*
X54956762Y-65014956D01*
X54796485Y-64993855D01*
X54757827Y-64982128D01*
X54724990Y-64958597D01*
X54454690Y-64688296D01*
X54454675Y-64688283D01*
X54438342Y-64671950D01*
X54438341Y-64671949D01*
X54438339Y-64671947D01*
X54418599Y-64661889D01*
X54402014Y-64651726D01*
X54384090Y-64638704D01*
X54363020Y-64631858D01*
X54345044Y-64624412D01*
X54325302Y-64614353D01*
X54303418Y-64610886D01*
X54284507Y-64606346D01*
X54263435Y-64599500D01*
X54263433Y-64599500D01*
X54231519Y-64599500D01*
X52270078Y-64599500D01*
X52211625Y-64584858D01*
X52166976Y-64544391D01*
X52146675Y-64487655D01*
X52155517Y-64428048D01*
X52167419Y-64399311D01*
X52185044Y-64356762D01*
X52205682Y-64200000D01*
X52185044Y-64043238D01*
X52124536Y-63897159D01*
X52083161Y-63843238D01*
X52028282Y-63771717D01*
X51902840Y-63675463D01*
X51756762Y-63614956D01*
X51600000Y-63594317D01*
X51443237Y-63614956D01*
X51297159Y-63675463D01*
X51171717Y-63771717D01*
X51075463Y-63897159D01*
X51014956Y-64043237D01*
X50994317Y-64200000D01*
X51014956Y-64356762D01*
X51044483Y-64428048D01*
X51053325Y-64487655D01*
X51033024Y-64544391D01*
X50988375Y-64584858D01*
X50929922Y-64599500D01*
X31217255Y-64599500D01*
X31169802Y-64590061D01*
X31129574Y-64563181D01*
X30436819Y-63870426D01*
X30409939Y-63830198D01*
X30400500Y-63782745D01*
X30400500Y-62500779D01*
X31961350Y-62500779D01*
X31999570Y-62536240D01*
X32222479Y-62688217D01*
X32465542Y-62805270D01*
X32723339Y-62884791D01*
X32990109Y-62925000D01*
X33259891Y-62925000D01*
X33526660Y-62884791D01*
X33784460Y-62805270D01*
X34027519Y-62688219D01*
X34250430Y-62536241D01*
X34288647Y-62500780D01*
X34288648Y-62500780D01*
X33125000Y-61337132D01*
X31961350Y-62500779D01*
X30400500Y-62500779D01*
X30400500Y-61124999D01*
X31319952Y-61124999D01*
X31340113Y-61394026D01*
X31400146Y-61657049D01*
X31498708Y-61908178D01*
X31633599Y-62141818D01*
X31750038Y-62287828D01*
X31750039Y-62287828D01*
X32912868Y-61125001D01*
X32912868Y-61125000D01*
X33337132Y-61125000D01*
X34499959Y-62287828D01*
X34499960Y-62287827D01*
X34616400Y-62141818D01*
X34751291Y-61908178D01*
X34849853Y-61657049D01*
X34909886Y-61394026D01*
X34930047Y-61125000D01*
X34909886Y-60855973D01*
X34849853Y-60592950D01*
X34751291Y-60341821D01*
X34616401Y-60108181D01*
X34499959Y-59962170D01*
X33337132Y-61125000D01*
X32912868Y-61125000D01*
X31750038Y-59962170D01*
X31633599Y-60108181D01*
X31498708Y-60341821D01*
X31400146Y-60592950D01*
X31340113Y-60855973D01*
X31319952Y-61124999D01*
X30400500Y-61124999D01*
X30400500Y-59852188D01*
X30411473Y-59801188D01*
X30442451Y-59759215D01*
X30460274Y-59749219D01*
X31961350Y-59749219D01*
X33125000Y-60912868D01*
X33125001Y-60912868D01*
X34288648Y-59749219D01*
X34250425Y-59713755D01*
X34027523Y-59561782D01*
X33784460Y-59444729D01*
X33526660Y-59365208D01*
X33259891Y-59325000D01*
X32990109Y-59325000D01*
X32723339Y-59365208D01*
X32465542Y-59444729D01*
X32222479Y-59561782D01*
X31999570Y-59713758D01*
X31961350Y-59749219D01*
X30460274Y-59749219D01*
X30487949Y-59733697D01*
X30659641Y-59680738D01*
X30902775Y-59563651D01*
X31125741Y-59411635D01*
X31323561Y-59228085D01*
X31491815Y-59017102D01*
X31626743Y-58783398D01*
X31725334Y-58532195D01*
X31785383Y-58269103D01*
X31805549Y-58000000D01*
X31785383Y-57730897D01*
X31725334Y-57467805D01*
X31626743Y-57216602D01*
X31491815Y-56982898D01*
X31323561Y-56771915D01*
X31272499Y-56724536D01*
X31125743Y-56588366D01*
X31068205Y-56549137D01*
X30902775Y-56436349D01*
X30659641Y-56319262D01*
X30580097Y-56294726D01*
X30437626Y-56250779D01*
X31961350Y-56250779D01*
X31999570Y-56286240D01*
X32222479Y-56438217D01*
X32465542Y-56555270D01*
X32723339Y-56634791D01*
X32990109Y-56675000D01*
X33259891Y-56675000D01*
X33526660Y-56634791D01*
X33784460Y-56555270D01*
X34027519Y-56438219D01*
X34250430Y-56286241D01*
X34288647Y-56250780D01*
X34288648Y-56250779D01*
X33125000Y-55087132D01*
X31961350Y-56250779D01*
X30437626Y-56250779D01*
X30401771Y-56239719D01*
X30134929Y-56199500D01*
X29865071Y-56199500D01*
X29598228Y-56239719D01*
X29340359Y-56319262D01*
X29097228Y-56436347D01*
X28874257Y-56588366D01*
X28676439Y-56771915D01*
X28508184Y-56982899D01*
X28373257Y-57216601D01*
X28274666Y-57467804D01*
X28214616Y-57730899D01*
X28194450Y-57999999D01*
X28214616Y-58269100D01*
X28267317Y-58499999D01*
X28274666Y-58532195D01*
X28373257Y-58783398D01*
X28508185Y-59017102D01*
X28676439Y-59228085D01*
X28874259Y-59411635D01*
X29097226Y-59563651D01*
X29340359Y-59680738D01*
X29512050Y-59733697D01*
X29557549Y-59759215D01*
X29588527Y-59801188D01*
X29599500Y-59852188D01*
X29599500Y-64063435D01*
X29606346Y-64084507D01*
X29610886Y-64103418D01*
X29614353Y-64125302D01*
X29624412Y-64145044D01*
X29631858Y-64163020D01*
X29638704Y-64184090D01*
X29651726Y-64202014D01*
X29661889Y-64218599D01*
X29671947Y-64238339D01*
X29671949Y-64238341D01*
X29671950Y-64238342D01*
X29688283Y-64254675D01*
X29688296Y-64254690D01*
X30747770Y-65314163D01*
X30747775Y-65314167D01*
X30761658Y-65328050D01*
X30781397Y-65338107D01*
X30797982Y-65348271D01*
X30815910Y-65361297D01*
X30836978Y-65368142D01*
X30854955Y-65375588D01*
X30874692Y-65385644D01*
X30874696Y-65385646D01*
X30896585Y-65389112D01*
X30915489Y-65393651D01*
X30936567Y-65400500D01*
X30968481Y-65400500D01*
X31063433Y-65400500D01*
X39733745Y-65400500D01*
X39790040Y-65414015D01*
X39834063Y-65451615D01*
X39856218Y-65505102D01*
X39851676Y-65562818D01*
X39821426Y-65612181D01*
X37694512Y-67739095D01*
X37671949Y-67761657D01*
X37661892Y-67781396D01*
X37651731Y-67797979D01*
X37638702Y-67815913D01*
X37631854Y-67836987D01*
X37624412Y-67854954D01*
X37614353Y-67874697D01*
X37610886Y-67896582D01*
X37606347Y-67915491D01*
X37599500Y-67936567D01*
X37599500Y-75782746D01*
X37590061Y-75830199D01*
X37563181Y-75870427D01*
X35870426Y-77563181D01*
X35830198Y-77590061D01*
X35782745Y-77599500D01*
X31854279Y-77599500D01*
X31800477Y-77587220D01*
X31757332Y-77552813D01*
X31733388Y-77503092D01*
X31725334Y-77467805D01*
X31696926Y-77395423D01*
X31626743Y-77216602D01*
X31491815Y-76982898D01*
X31323561Y-76771915D01*
X31323560Y-76771914D01*
X31125743Y-76588366D01*
X31017250Y-76514397D01*
X30902775Y-76436349D01*
X30659641Y-76319262D01*
X30580097Y-76294726D01*
X30437626Y-76250779D01*
X31961350Y-76250779D01*
X31999570Y-76286240D01*
X32222479Y-76438217D01*
X32465542Y-76555270D01*
X32723339Y-76634791D01*
X32990109Y-76675000D01*
X33259891Y-76675000D01*
X33526660Y-76634791D01*
X33784460Y-76555270D01*
X34027519Y-76438219D01*
X34250430Y-76286241D01*
X34288647Y-76250780D01*
X34288648Y-76250780D01*
X33125000Y-75087132D01*
X31961350Y-76250779D01*
X30437626Y-76250779D01*
X30401771Y-76239719D01*
X30134929Y-76199500D01*
X29865071Y-76199500D01*
X29598228Y-76239719D01*
X29340359Y-76319262D01*
X29097228Y-76436347D01*
X28874257Y-76588366D01*
X28676439Y-76771915D01*
X28508184Y-76982899D01*
X28373257Y-77216601D01*
X28274666Y-77467804D01*
X28214616Y-77730899D01*
X28194450Y-78000000D01*
X22874456Y-78000000D01*
X22835447Y-77939931D01*
X22604572Y-77654825D01*
X22580939Y-77631192D01*
X22580938Y-77631192D01*
X20212132Y-80000000D01*
X20212132Y-80000001D01*
X19787868Y-80000001D01*
X19787868Y-79999999D01*
X17419060Y-77631191D01*
X17395426Y-77654825D01*
X17164552Y-77939931D01*
X16964753Y-78247594D01*
X16798202Y-78574468D01*
X16666734Y-78916954D01*
X16571783Y-79271316D01*
X16514397Y-79633645D01*
X16495197Y-80000000D01*
X16000566Y-80000000D01*
X16000500Y-79997128D01*
X16000500Y-77419060D01*
X17631191Y-77419060D01*
X20000000Y-79787868D01*
X20000001Y-79787868D01*
X22368807Y-77419060D01*
X22345174Y-77395427D01*
X22060068Y-77164552D01*
X21752406Y-76964753D01*
X21425531Y-76798202D01*
X21083045Y-76666734D01*
X20728683Y-76571783D01*
X20366354Y-76514397D01*
X20000000Y-76495197D01*
X19633645Y-76514397D01*
X19271316Y-76571783D01*
X18916954Y-76666734D01*
X18574468Y-76798202D01*
X18247594Y-76964753D01*
X17939931Y-77164552D01*
X17654825Y-77395426D01*
X17631191Y-77419060D01*
X16000500Y-77419060D01*
X16000500Y-76250779D01*
X25711350Y-76250779D01*
X25749570Y-76286240D01*
X25972479Y-76438217D01*
X26215542Y-76555270D01*
X26473339Y-76634791D01*
X26740109Y-76675000D01*
X27009891Y-76675000D01*
X27276660Y-76634791D01*
X27534460Y-76555270D01*
X27777519Y-76438219D01*
X28000430Y-76286241D01*
X28038647Y-76250780D01*
X28038648Y-76250780D01*
X26875000Y-75087132D01*
X25711350Y-76250779D01*
X16000500Y-76250779D01*
X16000500Y-74875000D01*
X25069952Y-74875000D01*
X25090113Y-75144026D01*
X25150146Y-75407049D01*
X25248708Y-75658178D01*
X25383599Y-75891818D01*
X25500038Y-76037828D01*
X26662868Y-74875001D01*
X26662868Y-74875000D01*
X27087132Y-74875000D01*
X28249959Y-76037828D01*
X28249960Y-76037827D01*
X28366400Y-75891818D01*
X28501291Y-75658178D01*
X28599853Y-75407049D01*
X28659886Y-75144026D01*
X28680047Y-74875000D01*
X28680047Y-74874999D01*
X31319952Y-74874999D01*
X31340113Y-75144026D01*
X31400146Y-75407049D01*
X31498708Y-75658178D01*
X31633599Y-75891818D01*
X31750038Y-76037828D01*
X31750039Y-76037828D01*
X32912868Y-74875001D01*
X32912868Y-74875000D01*
X33337132Y-74875000D01*
X34499959Y-76037828D01*
X34499960Y-76037827D01*
X34616400Y-75891818D01*
X34751291Y-75658178D01*
X34849853Y-75407049D01*
X34909886Y-75144026D01*
X34930047Y-74875000D01*
X34909886Y-74605973D01*
X34849853Y-74342950D01*
X34751291Y-74091821D01*
X34616401Y-73858181D01*
X34499959Y-73712170D01*
X33337132Y-74875000D01*
X32912868Y-74875000D01*
X31750038Y-73712170D01*
X31633599Y-73858181D01*
X31498708Y-74091821D01*
X31400146Y-74342950D01*
X31340113Y-74605973D01*
X31319952Y-74874999D01*
X28680047Y-74874999D01*
X28659886Y-74605973D01*
X28599853Y-74342950D01*
X28501291Y-74091821D01*
X28366401Y-73858181D01*
X28249959Y-73712170D01*
X27087132Y-74875000D01*
X26662868Y-74875000D01*
X25500038Y-73712170D01*
X25383599Y-73858181D01*
X25248708Y-74091821D01*
X25150146Y-74342950D01*
X25090113Y-74605973D01*
X25069952Y-74875000D01*
X16000500Y-74875000D01*
X16000500Y-73499219D01*
X25711350Y-73499219D01*
X26875000Y-74662868D01*
X26875001Y-74662868D01*
X28038648Y-73499219D01*
X31961350Y-73499219D01*
X33125000Y-74662868D01*
X33125001Y-74662868D01*
X34288648Y-73499219D01*
X34250425Y-73463755D01*
X34027523Y-73311782D01*
X33784460Y-73194729D01*
X33526660Y-73115208D01*
X33259891Y-73075000D01*
X32990109Y-73075000D01*
X32723339Y-73115208D01*
X32465542Y-73194729D01*
X32222479Y-73311782D01*
X31999570Y-73463758D01*
X31961350Y-73499219D01*
X28038648Y-73499219D01*
X28000425Y-73463755D01*
X27777523Y-73311782D01*
X27534460Y-73194729D01*
X27276660Y-73115208D01*
X27009891Y-73075000D01*
X26740109Y-73075000D01*
X26473339Y-73115208D01*
X26215542Y-73194729D01*
X25972479Y-73311782D01*
X25749570Y-73463758D01*
X25711350Y-73499219D01*
X16000500Y-73499219D01*
X16000500Y-62500779D01*
X25711350Y-62500779D01*
X25749570Y-62536240D01*
X25972479Y-62688217D01*
X26215542Y-62805270D01*
X26473339Y-62884791D01*
X26740109Y-62925000D01*
X27009891Y-62925000D01*
X27276660Y-62884791D01*
X27534460Y-62805270D01*
X27777519Y-62688219D01*
X28000430Y-62536241D01*
X28038647Y-62500780D01*
X28038648Y-62500780D01*
X26875000Y-61337132D01*
X25711350Y-62500779D01*
X16000500Y-62500779D01*
X16000500Y-61124999D01*
X25069952Y-61124999D01*
X25090113Y-61394026D01*
X25150146Y-61657049D01*
X25248708Y-61908178D01*
X25383599Y-62141818D01*
X25500038Y-62287828D01*
X25500039Y-62287828D01*
X26662868Y-61125001D01*
X26662868Y-61125000D01*
X27087132Y-61125000D01*
X28249959Y-62287828D01*
X28249960Y-62287827D01*
X28366400Y-62141818D01*
X28501291Y-61908178D01*
X28599853Y-61657049D01*
X28659886Y-61394026D01*
X28680047Y-61124999D01*
X28659886Y-60855973D01*
X28599853Y-60592950D01*
X28501291Y-60341821D01*
X28366401Y-60108181D01*
X28249959Y-59962170D01*
X27087132Y-61125000D01*
X26662868Y-61125000D01*
X25500038Y-59962170D01*
X25383599Y-60108181D01*
X25248708Y-60341821D01*
X25150146Y-60592950D01*
X25090113Y-60855973D01*
X25069952Y-61124999D01*
X16000500Y-61124999D01*
X16000500Y-59749219D01*
X25711350Y-59749219D01*
X26875000Y-60912868D01*
X26875001Y-60912868D01*
X28038648Y-59749219D01*
X28000425Y-59713755D01*
X27777523Y-59561782D01*
X27534460Y-59444729D01*
X27276660Y-59365208D01*
X27009891Y-59325000D01*
X26740109Y-59325000D01*
X26473339Y-59365208D01*
X26215542Y-59444729D01*
X25972479Y-59561782D01*
X25749570Y-59713758D01*
X25711350Y-59749219D01*
X16000500Y-59749219D01*
X16000500Y-56250779D01*
X25711350Y-56250779D01*
X25749570Y-56286240D01*
X25972479Y-56438217D01*
X26215542Y-56555270D01*
X26473339Y-56634791D01*
X26740109Y-56675000D01*
X27009891Y-56675000D01*
X27276660Y-56634791D01*
X27534460Y-56555270D01*
X27777519Y-56438219D01*
X28000430Y-56286241D01*
X28038647Y-56250780D01*
X28038648Y-56250779D01*
X26875000Y-55087132D01*
X25711350Y-56250779D01*
X16000500Y-56250779D01*
X16000500Y-54874999D01*
X25069952Y-54874999D01*
X25090113Y-55144026D01*
X25150146Y-55407049D01*
X25248708Y-55658178D01*
X25383599Y-55891818D01*
X25500038Y-56037828D01*
X25500039Y-56037828D01*
X26662868Y-54875001D01*
X26662868Y-54875000D01*
X27087132Y-54875000D01*
X28249959Y-56037828D01*
X28249960Y-56037827D01*
X28366400Y-55891818D01*
X28501291Y-55658178D01*
X28599853Y-55407049D01*
X28659886Y-55144026D01*
X28680047Y-54874999D01*
X31319952Y-54874999D01*
X31340113Y-55144026D01*
X31400146Y-55407049D01*
X31498708Y-55658178D01*
X31633599Y-55891818D01*
X31750038Y-56037828D01*
X31750039Y-56037828D01*
X32912868Y-54875001D01*
X32912868Y-54875000D01*
X33337132Y-54875000D01*
X34499959Y-56037828D01*
X34499960Y-56037827D01*
X34530126Y-56000000D01*
X38394317Y-56000000D01*
X38414956Y-56156762D01*
X38475463Y-56302840D01*
X38571717Y-56428282D01*
X38663985Y-56499081D01*
X38697159Y-56524536D01*
X38843238Y-56585044D01*
X39000000Y-56605682D01*
X39156762Y-56585044D01*
X39302841Y-56524536D01*
X39428282Y-56428282D01*
X39524536Y-56302841D01*
X39585044Y-56156762D01*
X39595424Y-56077913D01*
X39607150Y-56039259D01*
X39630678Y-56006424D01*
X41350283Y-54286819D01*
X41390512Y-54259939D01*
X41437965Y-54250500D01*
X54767738Y-54250500D01*
X54781622Y-54251280D01*
X54817033Y-54255270D01*
X54817033Y-54255269D01*
X54817035Y-54255270D01*
X54873228Y-54244636D01*
X54877726Y-54243872D01*
X54934287Y-54235348D01*
X54934288Y-54235347D01*
X54940268Y-54234446D01*
X54945128Y-54232846D01*
X54950467Y-54230023D01*
X54950472Y-54230023D01*
X55001045Y-54203292D01*
X55005136Y-54201227D01*
X55056642Y-54176425D01*
X55056644Y-54176422D01*
X55062078Y-54173806D01*
X55066271Y-54170831D01*
X55070533Y-54166568D01*
X55070538Y-54166566D01*
X55111001Y-54126101D01*
X55114259Y-54122962D01*
X55156194Y-54084055D01*
X55156195Y-54084053D01*
X55160613Y-54079954D01*
X55172033Y-54065069D01*
X55750284Y-53486819D01*
X55790512Y-53459939D01*
X55837965Y-53450500D01*
X73862034Y-53450500D01*
X73909487Y-53459939D01*
X73949715Y-53486819D01*
X75169317Y-54706420D01*
X75192848Y-54739257D01*
X75204575Y-54777915D01*
X75205514Y-54785044D01*
X75214956Y-54856762D01*
X75267046Y-54982519D01*
X75275464Y-55002841D01*
X75371717Y-55128282D01*
X75457778Y-55194318D01*
X75497159Y-55224536D01*
X75643238Y-55285044D01*
X75689629Y-55291151D01*
X75752108Y-55318237D01*
X75790862Y-55374231D01*
X75794204Y-55442247D01*
X75761124Y-55501771D01*
X73393578Y-57869317D01*
X73360741Y-57892848D01*
X73322084Y-57904575D01*
X73243237Y-57914956D01*
X73097158Y-57975464D01*
X72971717Y-58071717D01*
X72875463Y-58197159D01*
X72814956Y-58343237D01*
X72794317Y-58499999D01*
X72814956Y-58656762D01*
X72875463Y-58802840D01*
X72971717Y-58928282D01*
X73087468Y-59017100D01*
X73097159Y-59024536D01*
X73243238Y-59085044D01*
X73400000Y-59105682D01*
X73556762Y-59085044D01*
X73702841Y-59024536D01*
X73828282Y-58928282D01*
X73924536Y-58802841D01*
X73985044Y-58656762D01*
X73995424Y-58577913D01*
X74007150Y-58539259D01*
X74030678Y-58506424D01*
X74798230Y-57738872D01*
X74857751Y-57705794D01*
X74925767Y-57709135D01*
X74981762Y-57747890D01*
X75008848Y-57810369D01*
X75014956Y-57856762D01*
X75075463Y-58002840D01*
X75171717Y-58128282D01*
X75265183Y-58200000D01*
X75297159Y-58224536D01*
X75443238Y-58285044D01*
X75600000Y-58305682D01*
X75756762Y-58285044D01*
X75902841Y-58224536D01*
X75934817Y-58200000D01*
X85894317Y-58200000D01*
X85914956Y-58356762D01*
X85975463Y-58502840D01*
X86071717Y-58628282D01*
X86197159Y-58724536D01*
X86343238Y-58785044D01*
X86500000Y-58805682D01*
X86656762Y-58785044D01*
X86802841Y-58724536D01*
X86928282Y-58628282D01*
X87024536Y-58502841D01*
X87085044Y-58356762D01*
X87105682Y-58200000D01*
X87085044Y-58043238D01*
X87024536Y-57897159D01*
X87003172Y-57869317D01*
X86928282Y-57771717D01*
X86802840Y-57675463D01*
X86656762Y-57614956D01*
X86500000Y-57594317D01*
X86343237Y-57614956D01*
X86197159Y-57675463D01*
X86071717Y-57771717D01*
X85975463Y-57897159D01*
X85914956Y-58043237D01*
X85894317Y-58200000D01*
X75934817Y-58200000D01*
X76028282Y-58128282D01*
X76124536Y-58002841D01*
X76185044Y-57856762D01*
X76195424Y-57777913D01*
X76207150Y-57739259D01*
X76230678Y-57706424D01*
X78706423Y-55230678D01*
X78739258Y-55207149D01*
X78777911Y-55195424D01*
X78856762Y-55185044D01*
X79002841Y-55124536D01*
X79128282Y-55028282D01*
X79149983Y-55000000D01*
X91844317Y-55000000D01*
X91864956Y-55156762D01*
X91925463Y-55302840D01*
X92021717Y-55428282D01*
X92117491Y-55501771D01*
X92147159Y-55524536D01*
X92293238Y-55585044D01*
X92450000Y-55605682D01*
X92462681Y-55604012D01*
X92518721Y-55609531D01*
X92566545Y-55639268D01*
X92596284Y-55687092D01*
X92601804Y-55743136D01*
X92594317Y-55799999D01*
X92614956Y-55956762D01*
X92675463Y-56102840D01*
X92771717Y-56228282D01*
X92868884Y-56302840D01*
X92897159Y-56324536D01*
X93043238Y-56385044D01*
X93200000Y-56405682D01*
X93356762Y-56385044D01*
X93502841Y-56324536D01*
X93628282Y-56228282D01*
X93724536Y-56102841D01*
X93785044Y-55956762D01*
X93805682Y-55800000D01*
X93785044Y-55643238D01*
X93724536Y-55497159D01*
X93661460Y-55414956D01*
X93628282Y-55371717D01*
X93502840Y-55275463D01*
X93356762Y-55214956D01*
X93199998Y-55194317D01*
X93187318Y-55195987D01*
X93131274Y-55190467D01*
X93083452Y-55160728D01*
X93053714Y-55112905D01*
X93048195Y-55056865D01*
X93055682Y-55000000D01*
X93048327Y-54944135D01*
X93056705Y-54880500D01*
X93095779Y-54829576D01*
X93155080Y-54805013D01*
X93306762Y-54785044D01*
X93452841Y-54724536D01*
X93578282Y-54628282D01*
X93674536Y-54502841D01*
X93735044Y-54356762D01*
X93755682Y-54200000D01*
X93735044Y-54043238D01*
X93674536Y-53897159D01*
X93644627Y-53858181D01*
X93578282Y-53771717D01*
X93452840Y-53675463D01*
X93306762Y-53614956D01*
X93150000Y-53594317D01*
X92993237Y-53614956D01*
X92847159Y-53675463D01*
X92721717Y-53771717D01*
X92625463Y-53897159D01*
X92564956Y-54043237D01*
X92544317Y-54200000D01*
X92551672Y-54255862D01*
X92543294Y-54319500D01*
X92504220Y-54370423D01*
X92444919Y-54394986D01*
X92293237Y-54414956D01*
X92147159Y-54475463D01*
X92021717Y-54571717D01*
X91925463Y-54697159D01*
X91864956Y-54843237D01*
X91844317Y-55000000D01*
X79149983Y-55000000D01*
X79224536Y-54902841D01*
X79285044Y-54756762D01*
X79305682Y-54600000D01*
X79285044Y-54443238D01*
X79224536Y-54297159D01*
X79216602Y-54286819D01*
X79128282Y-54171717D01*
X79002840Y-54075463D01*
X78856762Y-54014956D01*
X78700000Y-53994317D01*
X78543237Y-54014956D01*
X78397159Y-54075463D01*
X78271717Y-54171717D01*
X78175464Y-54297158D01*
X78114956Y-54443238D01*
X78104575Y-54522083D01*
X78092848Y-54560740D01*
X78069317Y-54593577D01*
X77762181Y-54900714D01*
X77712818Y-54930964D01*
X77655102Y-54935506D01*
X77601615Y-54913351D01*
X77564015Y-54869328D01*
X77550500Y-54813033D01*
X77550500Y-54810738D01*
X77550587Y-54806101D01*
X77552949Y-54742970D01*
X77550500Y-54724365D01*
X77550500Y-53541419D01*
X77557081Y-53501560D01*
X77576122Y-53465935D01*
X77624536Y-53402841D01*
X77685044Y-53256762D01*
X77705682Y-53100000D01*
X77685044Y-52943238D01*
X77624536Y-52797159D01*
X77568811Y-52724536D01*
X77528282Y-52671717D01*
X77409977Y-52580939D01*
X97631192Y-52580939D01*
X97654825Y-52604572D01*
X97939931Y-52835447D01*
X98247593Y-53035246D01*
X98574468Y-53201797D01*
X98916954Y-53333265D01*
X99271316Y-53428216D01*
X99633645Y-53485602D01*
X99999999Y-53504802D01*
X100366354Y-53485602D01*
X100728683Y-53428216D01*
X101083045Y-53333265D01*
X101425531Y-53201797D01*
X101752406Y-53035246D01*
X102060068Y-52835447D01*
X102345173Y-52604573D01*
X102368807Y-52580939D01*
X100000000Y-50212132D01*
X97631192Y-52580939D01*
X77409977Y-52580939D01*
X77402840Y-52575463D01*
X77256762Y-52514956D01*
X77100000Y-52494317D01*
X76943237Y-52514956D01*
X76797159Y-52575463D01*
X76671717Y-52671717D01*
X76575463Y-52797159D01*
X76514956Y-52943237D01*
X76494317Y-53099999D01*
X76514956Y-53256762D01*
X76575462Y-53402838D01*
X76575463Y-53402840D01*
X76575464Y-53402841D01*
X76623877Y-53465935D01*
X76642919Y-53501560D01*
X76649500Y-53541419D01*
X76649500Y-54562035D01*
X76640060Y-54609490D01*
X76613177Y-54649720D01*
X76601767Y-54661129D01*
X76542243Y-54694206D01*
X76474229Y-54690862D01*
X76418236Y-54652107D01*
X76391151Y-54589629D01*
X76388793Y-54571717D01*
X76385044Y-54543238D01*
X76324536Y-54397159D01*
X76304021Y-54370423D01*
X76228282Y-54271717D01*
X76102841Y-54175464D01*
X75956761Y-54114955D01*
X75877916Y-54104575D01*
X75839258Y-54092848D01*
X75806421Y-54069317D01*
X74441368Y-52704265D01*
X74432102Y-52693897D01*
X74409879Y-52666030D01*
X74362608Y-52633800D01*
X74358870Y-52631148D01*
X74356214Y-52629188D01*
X74322863Y-52604573D01*
X74308035Y-52593629D01*
X74303424Y-52591302D01*
X74243049Y-52572679D01*
X74238644Y-52571230D01*
X74235060Y-52569976D01*
X74184699Y-52552354D01*
X74184698Y-52552353D01*
X74179023Y-52550368D01*
X74173914Y-52549500D01*
X74167902Y-52549500D01*
X74110738Y-52549500D01*
X74106101Y-52549413D01*
X74042970Y-52547050D01*
X74024365Y-52549500D01*
X55632262Y-52549500D01*
X55618379Y-52548720D01*
X55613926Y-52548218D01*
X55582964Y-52544729D01*
X55526784Y-52555358D01*
X55522219Y-52556134D01*
X55459761Y-52565549D01*
X55454834Y-52567170D01*
X55398964Y-52596699D01*
X55394825Y-52598789D01*
X55337949Y-52626179D01*
X55333708Y-52629188D01*
X55289046Y-52673849D01*
X55285709Y-52677063D01*
X55239394Y-52720037D01*
X55227968Y-52734926D01*
X54828091Y-53134805D01*
X54769358Y-53167698D01*
X54702092Y-53165055D01*
X54646120Y-53127656D01*
X54617937Y-53066522D01*
X54625849Y-52999672D01*
X54649225Y-52943237D01*
X54685044Y-52856762D01*
X54705682Y-52700000D01*
X54685044Y-52543238D01*
X54624536Y-52397159D01*
X54602780Y-52368806D01*
X54528282Y-52271717D01*
X54402840Y-52175463D01*
X54256762Y-52114956D01*
X54100000Y-52094317D01*
X53943237Y-52114956D01*
X53797159Y-52175463D01*
X53671717Y-52271717D01*
X53575463Y-52397159D01*
X53514956Y-52543237D01*
X53494317Y-52700000D01*
X53514956Y-52856762D01*
X53575463Y-53002840D01*
X53681656Y-53141234D01*
X53681454Y-53141388D01*
X53708002Y-53175066D01*
X53718340Y-53235230D01*
X53698717Y-53293036D01*
X53653889Y-53334473D01*
X53594722Y-53349500D01*
X42605278Y-53349500D01*
X42546111Y-53334473D01*
X42501283Y-53293036D01*
X42481660Y-53235230D01*
X42491998Y-53175066D01*
X42518545Y-53141388D01*
X42518344Y-53141234D01*
X42554239Y-53094453D01*
X42624536Y-53002841D01*
X42685044Y-52856762D01*
X42705682Y-52700000D01*
X42685044Y-52543238D01*
X42624536Y-52397159D01*
X42602780Y-52368806D01*
X42528282Y-52271717D01*
X42434816Y-52199999D01*
X48594317Y-52199999D01*
X48614956Y-52356762D01*
X48675463Y-52502840D01*
X48771717Y-52628282D01*
X48865183Y-52700000D01*
X48897159Y-52724536D01*
X49043238Y-52785044D01*
X49200000Y-52805682D01*
X49356762Y-52785044D01*
X49502841Y-52724536D01*
X49628282Y-52628282D01*
X49724536Y-52502841D01*
X49785044Y-52356762D01*
X49805682Y-52200000D01*
X49797313Y-52136438D01*
X49802834Y-52080395D01*
X49832572Y-52032572D01*
X49880395Y-52002834D01*
X49936438Y-51997314D01*
X49999999Y-52005682D01*
X49999999Y-52005681D01*
X50000000Y-52005682D01*
X50107745Y-51991497D01*
X50163788Y-51997017D01*
X50211611Y-52026755D01*
X50241349Y-52074577D01*
X50246869Y-52130621D01*
X50244317Y-52149999D01*
X50264956Y-52306762D01*
X50325463Y-52452840D01*
X50421717Y-52578282D01*
X50546264Y-52673849D01*
X50547159Y-52674536D01*
X50693238Y-52735044D01*
X50850000Y-52755682D01*
X51006762Y-52735044D01*
X51152841Y-52674536D01*
X51278282Y-52578282D01*
X51374536Y-52452841D01*
X51435044Y-52306762D01*
X51455682Y-52150000D01*
X51435044Y-51993238D01*
X51374536Y-51847159D01*
X51360051Y-51828282D01*
X51278282Y-51721717D01*
X51152840Y-51625463D01*
X51006762Y-51564956D01*
X50849998Y-51544317D01*
X50742253Y-51558502D01*
X50686209Y-51552982D01*
X50638386Y-51523243D01*
X50608649Y-51475419D01*
X50603130Y-51419379D01*
X50605682Y-51400000D01*
X50605682Y-51399999D01*
X55394317Y-51399999D01*
X55414956Y-51556762D01*
X55475463Y-51702840D01*
X55571717Y-51828282D01*
X55697158Y-51924535D01*
X55697159Y-51924536D01*
X55843238Y-51985044D01*
X56000000Y-52005682D01*
X56156762Y-51985044D01*
X56302841Y-51924536D01*
X56428282Y-51828282D01*
X56524536Y-51702841D01*
X56585044Y-51556762D01*
X56605682Y-51400000D01*
X56605681Y-51399996D01*
X56602964Y-51379361D01*
X56585044Y-51243238D01*
X56524536Y-51097159D01*
X56513706Y-51083045D01*
X56428282Y-50971717D01*
X56302840Y-50875463D01*
X56156762Y-50814956D01*
X56000000Y-50794317D01*
X55843237Y-50814956D01*
X55697159Y-50875463D01*
X55571717Y-50971717D01*
X55475463Y-51097159D01*
X55414956Y-51243237D01*
X55394317Y-51399999D01*
X50605682Y-51399999D01*
X50585044Y-51243238D01*
X50524536Y-51097159D01*
X50513706Y-51083045D01*
X50428282Y-50971717D01*
X50302840Y-50875463D01*
X50156762Y-50814956D01*
X50000000Y-50794317D01*
X49843237Y-50814956D01*
X49697159Y-50875463D01*
X49571717Y-50971717D01*
X49475463Y-51097159D01*
X49414956Y-51243237D01*
X49394317Y-51400000D01*
X49402686Y-51463562D01*
X49397166Y-51519605D01*
X49367428Y-51567428D01*
X49319605Y-51597166D01*
X49263562Y-51602686D01*
X49200000Y-51594317D01*
X49043237Y-51614956D01*
X48897159Y-51675463D01*
X48771717Y-51771717D01*
X48675463Y-51897159D01*
X48614956Y-52043237D01*
X48594317Y-52199999D01*
X42434816Y-52199999D01*
X42402840Y-52175463D01*
X42256762Y-52114956D01*
X42100000Y-52094317D01*
X41943237Y-52114956D01*
X41797159Y-52175463D01*
X41671717Y-52271717D01*
X41575463Y-52397159D01*
X41514956Y-52543237D01*
X41494317Y-52700000D01*
X41514956Y-52856762D01*
X41575463Y-53002840D01*
X41681656Y-53141234D01*
X41681454Y-53141388D01*
X41708002Y-53175066D01*
X41718340Y-53235230D01*
X41698717Y-53293036D01*
X41653889Y-53334473D01*
X41594722Y-53349500D01*
X41232262Y-53349500D01*
X41218379Y-53348720D01*
X41213926Y-53348218D01*
X41182964Y-53344729D01*
X41126784Y-53355358D01*
X41122219Y-53356134D01*
X41059761Y-53365549D01*
X41054834Y-53367170D01*
X40998964Y-53396699D01*
X40994825Y-53398789D01*
X40937949Y-53426179D01*
X40933708Y-53429188D01*
X40889046Y-53473849D01*
X40885709Y-53477063D01*
X40839394Y-53520037D01*
X40827968Y-53534926D01*
X38993578Y-55369317D01*
X38960741Y-55392848D01*
X38922084Y-55404575D01*
X38843237Y-55414956D01*
X38697158Y-55475464D01*
X38571717Y-55571717D01*
X38475463Y-55697159D01*
X38414956Y-55843237D01*
X38394317Y-56000000D01*
X34530126Y-56000000D01*
X34616400Y-55891818D01*
X34751291Y-55658178D01*
X34849853Y-55407049D01*
X34909886Y-55144026D01*
X34930047Y-54874999D01*
X34909886Y-54605973D01*
X34849853Y-54342950D01*
X34751291Y-54091821D01*
X34616401Y-53858181D01*
X34499959Y-53712170D01*
X33337132Y-54875000D01*
X32912868Y-54875000D01*
X31750038Y-53712170D01*
X31633599Y-53858181D01*
X31498708Y-54091821D01*
X31400146Y-54342950D01*
X31340113Y-54605973D01*
X31319952Y-54874999D01*
X28680047Y-54874999D01*
X28659886Y-54605973D01*
X28599853Y-54342950D01*
X28501291Y-54091821D01*
X28366401Y-53858181D01*
X28249959Y-53712170D01*
X27087132Y-54875000D01*
X26662868Y-54875000D01*
X25500038Y-53712170D01*
X25383599Y-53858181D01*
X25248708Y-54091821D01*
X25150146Y-54342950D01*
X25090113Y-54605973D01*
X25069952Y-54874999D01*
X16000500Y-54874999D01*
X16000500Y-52580939D01*
X17631192Y-52580939D01*
X17654825Y-52604572D01*
X17939931Y-52835447D01*
X18247593Y-53035246D01*
X18574468Y-53201797D01*
X18916954Y-53333265D01*
X19271316Y-53428216D01*
X19633645Y-53485602D01*
X20000000Y-53504802D01*
X20106529Y-53499219D01*
X25711350Y-53499219D01*
X26875000Y-54662868D01*
X26875001Y-54662868D01*
X28038648Y-53499219D01*
X31961350Y-53499219D01*
X33125000Y-54662868D01*
X33125001Y-54662868D01*
X34288648Y-53499219D01*
X34250425Y-53463755D01*
X34027523Y-53311782D01*
X33784460Y-53194729D01*
X33526660Y-53115208D01*
X33259891Y-53075000D01*
X32990109Y-53075000D01*
X32723339Y-53115208D01*
X32465542Y-53194729D01*
X32222479Y-53311782D01*
X31999570Y-53463758D01*
X31961350Y-53499219D01*
X28038648Y-53499219D01*
X28000425Y-53463755D01*
X27777523Y-53311782D01*
X27534460Y-53194729D01*
X27276660Y-53115208D01*
X27009891Y-53075000D01*
X26740109Y-53075000D01*
X26473339Y-53115208D01*
X26215542Y-53194729D01*
X25972479Y-53311782D01*
X25749570Y-53463758D01*
X25711350Y-53499219D01*
X20106529Y-53499219D01*
X20366354Y-53485602D01*
X20728683Y-53428216D01*
X21083045Y-53333265D01*
X21425531Y-53201797D01*
X21752406Y-53035246D01*
X22060068Y-52835447D01*
X22345173Y-52604573D01*
X22368807Y-52580939D01*
X20000000Y-50212132D01*
X17631192Y-52580939D01*
X16000500Y-52580939D01*
X16000500Y-50002872D01*
X16000566Y-49999999D01*
X16495197Y-49999999D01*
X16514397Y-50366354D01*
X16571783Y-50728683D01*
X16666734Y-51083045D01*
X16798202Y-51425531D01*
X16964753Y-51752406D01*
X17164552Y-52060068D01*
X17395427Y-52345174D01*
X17419060Y-52368807D01*
X19787868Y-50000001D01*
X20212132Y-50000001D01*
X22580938Y-52368806D01*
X22580939Y-52368807D01*
X22604573Y-52345173D01*
X22722132Y-52200000D01*
X36494317Y-52200000D01*
X36514956Y-52356762D01*
X36575463Y-52502840D01*
X36671717Y-52628282D01*
X36765183Y-52700000D01*
X36797159Y-52724536D01*
X36943238Y-52785044D01*
X37100000Y-52805682D01*
X37256762Y-52785044D01*
X37402841Y-52724536D01*
X37528282Y-52628282D01*
X37624536Y-52502841D01*
X37685044Y-52356762D01*
X37705682Y-52200000D01*
X37695550Y-52123040D01*
X37701070Y-52066997D01*
X37730808Y-52019174D01*
X37778631Y-51989436D01*
X37834675Y-51983916D01*
X37843235Y-51985043D01*
X37843238Y-51985044D01*
X38000000Y-52005682D01*
X38056865Y-51998195D01*
X38112905Y-52003714D01*
X38160728Y-52033452D01*
X38190467Y-52081274D01*
X38195987Y-52137318D01*
X38194317Y-52149998D01*
X38214956Y-52306762D01*
X38275463Y-52452840D01*
X38371717Y-52578282D01*
X38496264Y-52673849D01*
X38497159Y-52674536D01*
X38643238Y-52735044D01*
X38800000Y-52755682D01*
X38956762Y-52735044D01*
X39102841Y-52674536D01*
X39228282Y-52578282D01*
X39324536Y-52452841D01*
X39385044Y-52306762D01*
X39405682Y-52150000D01*
X39385044Y-51993238D01*
X39324536Y-51847159D01*
X39310051Y-51828282D01*
X39228282Y-51721717D01*
X39102840Y-51625463D01*
X38956762Y-51564956D01*
X38799999Y-51544317D01*
X38743136Y-51551804D01*
X38687092Y-51546284D01*
X38639268Y-51516545D01*
X38609531Y-51468721D01*
X38604012Y-51412681D01*
X38605682Y-51400000D01*
X38605682Y-51399999D01*
X43394317Y-51399999D01*
X43414956Y-51556762D01*
X43475463Y-51702840D01*
X43571717Y-51828282D01*
X43697158Y-51924535D01*
X43697159Y-51924536D01*
X43843238Y-51985044D01*
X44000000Y-52005682D01*
X44156762Y-51985044D01*
X44302841Y-51924536D01*
X44428282Y-51828282D01*
X44524536Y-51702841D01*
X44585044Y-51556762D01*
X44605682Y-51400000D01*
X44605681Y-51399996D01*
X44602964Y-51379361D01*
X44585044Y-51243238D01*
X44524536Y-51097159D01*
X44513706Y-51083045D01*
X44428282Y-50971717D01*
X44302840Y-50875463D01*
X44156762Y-50814956D01*
X44000000Y-50794317D01*
X43843237Y-50814956D01*
X43697159Y-50875463D01*
X43571717Y-50971717D01*
X43475463Y-51097159D01*
X43414956Y-51243237D01*
X43394317Y-51399999D01*
X38605682Y-51399999D01*
X38585044Y-51243238D01*
X38524536Y-51097159D01*
X38513706Y-51083045D01*
X38428282Y-50971717D01*
X38302840Y-50875463D01*
X38156762Y-50814956D01*
X38000000Y-50794317D01*
X37843237Y-50814956D01*
X37697159Y-50875463D01*
X37571717Y-50971717D01*
X37475463Y-51097159D01*
X37414956Y-51243237D01*
X37394318Y-51400000D01*
X37404449Y-51476960D01*
X37398929Y-51533003D01*
X37369191Y-51580825D01*
X37321368Y-51610563D01*
X37265325Y-51616083D01*
X37100000Y-51594317D01*
X36943237Y-51614956D01*
X36797159Y-51675463D01*
X36671717Y-51771717D01*
X36575463Y-51897159D01*
X36514956Y-52043237D01*
X36494317Y-52200000D01*
X22722132Y-52200000D01*
X22835447Y-52060068D01*
X23035246Y-51752406D01*
X23201797Y-51425531D01*
X23333265Y-51083045D01*
X23428216Y-50728683D01*
X23485602Y-50366354D01*
X23494320Y-50200000D01*
X89494317Y-50200000D01*
X89514956Y-50356762D01*
X89575463Y-50502840D01*
X89671717Y-50628282D01*
X89797158Y-50724535D01*
X89797159Y-50724536D01*
X89943238Y-50785044D01*
X90100000Y-50805682D01*
X90256762Y-50785044D01*
X90402841Y-50724536D01*
X90528282Y-50628282D01*
X90624536Y-50502841D01*
X90685044Y-50356762D01*
X90705682Y-50200000D01*
X91394317Y-50200000D01*
X91414956Y-50356762D01*
X91475463Y-50502840D01*
X91571717Y-50628282D01*
X91697158Y-50724535D01*
X91697159Y-50724536D01*
X91843238Y-50785044D01*
X92000000Y-50805682D01*
X92156762Y-50785044D01*
X92302841Y-50724536D01*
X92428282Y-50628282D01*
X92524536Y-50502841D01*
X92553057Y-50433983D01*
X92585860Y-50388207D01*
X92635525Y-50361660D01*
X92691810Y-50359818D01*
X92743103Y-50383057D01*
X92797159Y-50424536D01*
X92943238Y-50485044D01*
X93100000Y-50505682D01*
X93256762Y-50485044D01*
X93402841Y-50424536D01*
X93528282Y-50328282D01*
X93624536Y-50202841D01*
X93685044Y-50056762D01*
X93692517Y-49999999D01*
X96495197Y-49999999D01*
X96514397Y-50366354D01*
X96571783Y-50728683D01*
X96666734Y-51083045D01*
X96798202Y-51425531D01*
X96964753Y-51752406D01*
X97164552Y-52060068D01*
X97395427Y-52345174D01*
X97419060Y-52368807D01*
X99787868Y-50000001D01*
X100212132Y-50000001D01*
X102580938Y-52368806D01*
X102580939Y-52368807D01*
X102604573Y-52345173D01*
X102835447Y-52060068D01*
X103035246Y-51752406D01*
X103201797Y-51425531D01*
X103333265Y-51083045D01*
X103428216Y-50728683D01*
X103485602Y-50366354D01*
X103504802Y-49999999D01*
X103485602Y-49633645D01*
X103428216Y-49271316D01*
X103333265Y-48916954D01*
X103201797Y-48574468D01*
X103035246Y-48247594D01*
X102835447Y-47939931D01*
X102604572Y-47654825D01*
X102580939Y-47631192D01*
X102580938Y-47631192D01*
X100212132Y-49999999D01*
X100212132Y-50000001D01*
X99787868Y-50000001D01*
X99787868Y-49999999D01*
X97419060Y-47631191D01*
X97395426Y-47654825D01*
X97164552Y-47939931D01*
X96964753Y-48247594D01*
X96798202Y-48574468D01*
X96666734Y-48916954D01*
X96571783Y-49271316D01*
X96514397Y-49633645D01*
X96495197Y-49999999D01*
X93692517Y-49999999D01*
X93705682Y-49900000D01*
X93685044Y-49743238D01*
X93624536Y-49597159D01*
X93622355Y-49594317D01*
X93528282Y-49471717D01*
X93402840Y-49375463D01*
X93256762Y-49314956D01*
X93100000Y-49294317D01*
X92943237Y-49314956D01*
X92797159Y-49375463D01*
X92671717Y-49471717D01*
X92575464Y-49597157D01*
X92546941Y-49666018D01*
X92514138Y-49711793D01*
X92464473Y-49738339D01*
X92408188Y-49740181D01*
X92356894Y-49716940D01*
X92302840Y-49675463D01*
X92156762Y-49614956D01*
X92000000Y-49594317D01*
X91843237Y-49614956D01*
X91697159Y-49675463D01*
X91571717Y-49771717D01*
X91475463Y-49897159D01*
X91414956Y-50043237D01*
X91394317Y-50200000D01*
X90705682Y-50200000D01*
X90685044Y-50043238D01*
X90624536Y-49897159D01*
X90624535Y-49897158D01*
X90528282Y-49771717D01*
X90402840Y-49675463D01*
X90256762Y-49614956D01*
X90100000Y-49594317D01*
X89943237Y-49614956D01*
X89797159Y-49675463D01*
X89671717Y-49771717D01*
X89575463Y-49897159D01*
X89514956Y-50043237D01*
X89494317Y-50200000D01*
X23494320Y-50200000D01*
X23504802Y-50000000D01*
X23485602Y-49633645D01*
X23428216Y-49271316D01*
X23333265Y-48916954D01*
X23201797Y-48574468D01*
X23035246Y-48247594D01*
X22835447Y-47939931D01*
X22604572Y-47654825D01*
X22580939Y-47631192D01*
X22580938Y-47631192D01*
X20212132Y-50000000D01*
X20212132Y-50000001D01*
X19787868Y-50000001D01*
X19787868Y-49999999D01*
X17419060Y-47631191D01*
X17395426Y-47654825D01*
X17164552Y-47939931D01*
X16964753Y-48247594D01*
X16798202Y-48574468D01*
X16666734Y-48916954D01*
X16571783Y-49271316D01*
X16514397Y-49633645D01*
X16495197Y-49999999D01*
X16000566Y-49999999D01*
X16000632Y-49997146D01*
X16005123Y-49899999D01*
X16008490Y-49827168D01*
X16010421Y-49787868D01*
X16018166Y-49630200D01*
X16019200Y-49619217D01*
X16044611Y-49437054D01*
X16044722Y-49436286D01*
X16071950Y-49252729D01*
X16073890Y-49242595D01*
X16116526Y-49061318D01*
X16116837Y-49060037D01*
X16161405Y-48882111D01*
X16164091Y-48872922D01*
X16223572Y-48695457D01*
X16224270Y-48693442D01*
X16285699Y-48521759D01*
X16288996Y-48513497D01*
X16364713Y-48342015D01*
X16366051Y-48339089D01*
X16443727Y-48174855D01*
X16447452Y-48167612D01*
X16538864Y-48003497D01*
X16540745Y-48000243D01*
X16634036Y-47844598D01*
X16638034Y-47838363D01*
X16744270Y-47683278D01*
X16746899Y-47679590D01*
X16854909Y-47533954D01*
X16859011Y-47528728D01*
X16950079Y-47419060D01*
X17631191Y-47419060D01*
X20000000Y-49787868D01*
X20000001Y-49787868D01*
X22368807Y-47419060D01*
X97631191Y-47419060D01*
X100000000Y-49787868D01*
X100000001Y-49787868D01*
X102368807Y-47419061D01*
X102345169Y-47395423D01*
X102060068Y-47164552D01*
X101752406Y-46964753D01*
X101425531Y-46798202D01*
X101083045Y-46666734D01*
X100728683Y-46571783D01*
X100366354Y-46514397D01*
X100000000Y-46495197D01*
X99633645Y-46514397D01*
X99271316Y-46571783D01*
X98916954Y-46666734D01*
X98574468Y-46798202D01*
X98247594Y-46964753D01*
X97939931Y-47164552D01*
X97654825Y-47395426D01*
X97631191Y-47419060D01*
X22368807Y-47419060D01*
X22345174Y-47395427D01*
X22060068Y-47164552D01*
X21752406Y-46964753D01*
X21425531Y-46798202D01*
X21083045Y-46666734D01*
X20728683Y-46571783D01*
X20366354Y-46514397D01*
X20000000Y-46495197D01*
X19633645Y-46514397D01*
X19271316Y-46571783D01*
X18916954Y-46666734D01*
X18574468Y-46798202D01*
X18247594Y-46964753D01*
X17939931Y-47164552D01*
X17654825Y-47395426D01*
X17631191Y-47419060D01*
X16950079Y-47419060D01*
X16979239Y-47383944D01*
X16982577Y-47380097D01*
X17104340Y-47245752D01*
X17108437Y-47241450D01*
X17241450Y-47108437D01*
X17245752Y-47104340D01*
X17380097Y-46982577D01*
X17383944Y-46979239D01*
X17528728Y-46859011D01*
X17533954Y-46854909D01*
X17679590Y-46746899D01*
X17683278Y-46744270D01*
X17838363Y-46638034D01*
X17844598Y-46634036D01*
X18000243Y-46540745D01*
X18003497Y-46538864D01*
X18167612Y-46447452D01*
X18174855Y-46443727D01*
X18339098Y-46366046D01*
X18342018Y-46364712D01*
X18406007Y-46336458D01*
X18513497Y-46288996D01*
X18521759Y-46285699D01*
X18693442Y-46224270D01*
X18695457Y-46223572D01*
X18872922Y-46164091D01*
X18882111Y-46161405D01*
X19060037Y-46116837D01*
X19061318Y-46116526D01*
X19242595Y-46073890D01*
X19252729Y-46071950D01*
X19436286Y-46044722D01*
X19437054Y-46044611D01*
X19619217Y-46019200D01*
X19630200Y-46018166D01*
X19826898Y-46008502D01*
X19991674Y-46000884D01*
X19997146Y-46000632D01*
X20002872Y-46000500D01*
X99997128Y-46000500D01*
X100002854Y-46000632D01*
G37*
%TD.AperFunction*%
%TD*%
M02*
