%TF.GenerationSoftware,KiCad,Pcbnew,7.0.1*%
%TF.CreationDate,2023-05-30T08:19:09+02:00*%
%TF.ProjectId,test_SGTL5000,74657374-5f53-4475-944c-353030302e6b,rev?*%
%TF.SameCoordinates,Original*%
%TF.FileFunction,Copper,L2,Inr*%
%TF.FilePolarity,Positive*%
%FSLAX46Y46*%
G04 Gerber Fmt 4.6, Leading zero omitted, Abs format (unit mm)*
G04 Created by KiCad (PCBNEW 7.0.1) date 2023-05-30 08:19:09*
%MOMM*%
%LPD*%
G01*
G04 APERTURE LIST*
%TA.AperFunction,ComponentPad*%
%ADD10C,0.800000*%
%TD*%
%TA.AperFunction,ComponentPad*%
%ADD11C,6.400000*%
%TD*%
%TA.AperFunction,ComponentPad*%
%ADD12C,3.000000*%
%TD*%
%TA.AperFunction,ComponentPad*%
%ADD13O,2.100000X1.000000*%
%TD*%
%TA.AperFunction,ComponentPad*%
%ADD14O,1.600000X1.000000*%
%TD*%
%TA.AperFunction,ViaPad*%
%ADD15C,0.600000*%
%TD*%
G04 APERTURE END LIST*
D10*
%TO.N,GND*%
%TO.C,H101*%
X97600000Y-50000000D03*
X98302944Y-48302944D03*
X98302944Y-51697056D03*
X100000000Y-47600000D03*
D11*
X100000000Y-50000000D03*
D10*
X100000000Y-52400000D03*
X101697056Y-48302944D03*
X101697056Y-51697056D03*
X102400000Y-50000000D03*
%TD*%
D12*
%TO.N,/CODEC/LINEOUT_L*%
%TO.C,J304*%
X70000000Y-78000000D03*
%TO.N,GND*%
X66875000Y-74875000D03*
X66875000Y-81125000D03*
X73125000Y-74875000D03*
X73125000Y-81125000D03*
%TD*%
D13*
%TO.N,unconnected-(J401-SHIELD-PadS1)*%
%TO.C,J401*%
X96870000Y-69320000D03*
D14*
X101050000Y-69320000D03*
D13*
X96870000Y-60680000D03*
D14*
X101050000Y-60680000D03*
%TD*%
D10*
%TO.N,GND*%
%TO.C,H104*%
X17600000Y-50000000D03*
X18302944Y-48302944D03*
X18302944Y-51697056D03*
X20000000Y-47600000D03*
D11*
X20000000Y-50000000D03*
D10*
X20000000Y-52400000D03*
X21697056Y-48302944D03*
X21697056Y-51697056D03*
X22400000Y-50000000D03*
%TD*%
%TO.N,GND*%
%TO.C,H103*%
X17600000Y-80000000D03*
X18302944Y-78302944D03*
X18302944Y-81697056D03*
X20000000Y-77600000D03*
D11*
X20000000Y-80000000D03*
D10*
X20000000Y-82400000D03*
X21697056Y-78302944D03*
X21697056Y-81697056D03*
X22400000Y-80000000D03*
%TD*%
D12*
%TO.N,/CODEC/LINEIN_L*%
%TO.C,J302*%
X30000000Y-78000000D03*
%TO.N,GND*%
X26875000Y-74875000D03*
X26875000Y-81125000D03*
X33125000Y-74875000D03*
X33125000Y-81125000D03*
%TD*%
%TO.N,/CODEC/MIC*%
%TO.C,J303*%
X30000000Y-58000000D03*
%TO.N,GND*%
X26875000Y-54875000D03*
X26875000Y-61125000D03*
X33125000Y-54875000D03*
X33125000Y-61125000D03*
%TD*%
%TO.N,/CODEC/LINEIN_R*%
%TO.C,J301*%
X50000000Y-78000000D03*
%TO.N,GND*%
X46875000Y-74875000D03*
X46875000Y-81125000D03*
X53125000Y-74875000D03*
X53125000Y-81125000D03*
%TD*%
%TO.N,/CODEC/LINEOUT_R*%
%TO.C,J305*%
X90000000Y-78000000D03*
%TO.N,GND*%
X86875000Y-74875000D03*
X86875000Y-81125000D03*
X93125000Y-74875000D03*
X93125000Y-81125000D03*
%TD*%
D10*
%TO.N,GND*%
%TO.C,H102*%
X97600000Y-80000000D03*
X98302944Y-78302944D03*
X98302944Y-81697056D03*
X100000000Y-77600000D03*
D11*
X100000000Y-80000000D03*
D10*
X100000000Y-82400000D03*
X101697056Y-78302944D03*
X101697056Y-81697056D03*
X102400000Y-80000000D03*
%TD*%
D15*
%TO.N,/STM32/nRST*%
X75600000Y-57700000D03*
X66550000Y-66000000D03*
X78700000Y-54600000D03*
X67100000Y-62100000D03*
%TO.N,GND*%
X86000000Y-83200000D03*
X16800000Y-64000000D03*
X36000000Y-83200000D03*
X46000000Y-83200000D03*
X86500000Y-55700000D03*
X88000000Y-83200000D03*
X48900000Y-50000000D03*
X62000000Y-83200000D03*
X70000000Y-46800000D03*
X38000000Y-83200000D03*
X48000000Y-83200000D03*
X76500000Y-65900000D03*
X76000000Y-46800000D03*
X95200000Y-68900000D03*
X95600000Y-55000000D03*
X34000000Y-83200000D03*
X103200000Y-60000000D03*
X40000000Y-83200000D03*
X38000000Y-46800000D03*
X16800000Y-72000000D03*
X84000000Y-46800000D03*
X94000000Y-46800000D03*
X82000000Y-46800000D03*
X44000000Y-83200000D03*
X51400000Y-66600000D03*
X103200000Y-70000000D03*
X80600000Y-66500000D03*
X90000000Y-83200000D03*
X103200000Y-56000000D03*
X94000000Y-83200000D03*
X28000000Y-83200000D03*
X93000000Y-70600000D03*
X64000000Y-46800000D03*
X103200000Y-68000000D03*
X86500000Y-56970000D03*
X51400000Y-67400000D03*
X88100000Y-70500000D03*
X16800000Y-68000000D03*
X59900000Y-57900000D03*
X48200000Y-69700000D03*
X74000000Y-46800000D03*
X82000000Y-83200000D03*
X54000000Y-83200000D03*
X52000000Y-83200000D03*
X75800000Y-63100000D03*
X72000000Y-46800000D03*
X54000000Y-46800000D03*
X96000000Y-46800000D03*
X103200000Y-64000000D03*
X30000000Y-46800000D03*
X94000000Y-54100000D03*
X52000000Y-46800000D03*
X60000000Y-83200000D03*
X50600000Y-67400000D03*
X16800000Y-56000000D03*
X103200000Y-58000000D03*
X61100000Y-56000000D03*
X50900000Y-53000000D03*
X42000000Y-46800000D03*
X32000000Y-46800000D03*
X70200000Y-56900000D03*
X96000000Y-83200000D03*
X65500000Y-60200000D03*
X38000000Y-54600000D03*
X66000000Y-83200000D03*
X36000000Y-46800000D03*
X58000000Y-46800000D03*
X66000000Y-46800000D03*
X40000000Y-46800000D03*
X74000000Y-83200000D03*
X54000000Y-64200000D03*
X16800000Y-70000000D03*
X16800000Y-66000000D03*
X44000000Y-46800000D03*
X69500000Y-53900000D03*
X16800000Y-74000000D03*
X77000000Y-67400000D03*
X36900000Y-50000000D03*
X88000000Y-46800000D03*
X103200000Y-76000000D03*
X70000000Y-83200000D03*
X38900000Y-53000000D03*
X46000000Y-46800000D03*
X64000000Y-83200000D03*
X58000000Y-83200000D03*
X50600000Y-66600000D03*
X26000000Y-83200000D03*
X60000000Y-46800000D03*
X86500000Y-53160000D03*
X50000000Y-83200000D03*
X92000000Y-83200000D03*
X16800000Y-58000000D03*
X76000000Y-83200000D03*
X64500000Y-59700000D03*
X84000000Y-83200000D03*
X80000000Y-46800000D03*
X26000000Y-46800000D03*
X103200000Y-54000000D03*
X103200000Y-72000000D03*
X44000000Y-54600000D03*
X16800000Y-62000000D03*
X32000000Y-83200000D03*
X49200000Y-69800000D03*
X92000000Y-46800000D03*
X42000000Y-83200000D03*
X50000000Y-54600000D03*
X78800000Y-64700000D03*
X103200000Y-66000000D03*
X91000000Y-56100000D03*
X68000000Y-46800000D03*
X50000000Y-46800000D03*
X30000000Y-83200000D03*
X61500000Y-66000000D03*
X78000000Y-46800000D03*
X103200000Y-62000000D03*
X16800000Y-60000000D03*
X48000000Y-46800000D03*
X72000000Y-83200000D03*
X24000000Y-83200000D03*
X86000000Y-46800000D03*
X24000000Y-46800000D03*
X16800000Y-76000000D03*
X34000000Y-46800000D03*
X63400000Y-61600000D03*
X56000000Y-54600000D03*
X28000000Y-46800000D03*
X95600000Y-49000000D03*
X56000000Y-83200000D03*
X88100000Y-68500000D03*
X78000000Y-83200000D03*
X103200000Y-74000000D03*
X16800000Y-54000000D03*
X68800000Y-56100000D03*
X80000000Y-83200000D03*
X74200000Y-63100000D03*
X93000000Y-59400000D03*
X90000000Y-46800000D03*
X53600000Y-69800000D03*
X68000000Y-83200000D03*
X56000000Y-46800000D03*
X89400000Y-65000000D03*
X95200000Y-61100000D03*
X62000000Y-46800000D03*
%TO.N,+3V3*%
X67700000Y-56800000D03*
X90100000Y-50200000D03*
X86500000Y-58200000D03*
X77400000Y-66500000D03*
X92000000Y-50200000D03*
X93100000Y-49900000D03*
X77200000Y-64000000D03*
X78300000Y-62800000D03*
X51600000Y-64200000D03*
%TO.N,+3.3VA*%
X50800000Y-70500000D03*
X74900000Y-65300000D03*
X56000000Y-51400000D03*
X54100000Y-52700000D03*
X74600000Y-66600000D03*
%TO.N,+1V8*%
X44000000Y-51400000D03*
X47500000Y-68100000D03*
X42100000Y-52700000D03*
%TO.N,+5V*%
X50000000Y-51400000D03*
X92450000Y-55000000D03*
X38800000Y-52150000D03*
X93150000Y-54200000D03*
X37100000Y-52200000D03*
X49200000Y-52200000D03*
X50850000Y-52150000D03*
X93200000Y-55800000D03*
X38000000Y-51400000D03*
%TO.N,/POWER/VBUS*%
X94000000Y-65000000D03*
X97550000Y-58000000D03*
X94600000Y-67450000D03*
X94600000Y-62550000D03*
%TO.N,/STM32/VCP_TX*%
X73400000Y-58500000D03*
X77100000Y-53100000D03*
%TO.N,/STM32/I2S_SCLK*%
X75800000Y-62000000D03*
X51200000Y-61200000D03*
%TO.N,/STM32/I2S_LRCLK*%
X75100000Y-61200000D03*
X54100000Y-61200000D03*
%TO.N,/STM32/I2S_DIN*%
X54800000Y-56200000D03*
X74600000Y-60400000D03*
%TO.N,/STM32/I2C_SCL*%
X75800000Y-54700000D03*
X39000000Y-56000000D03*
%TO.N,/STM32/I2C_SDA*%
X71800000Y-57100000D03*
X42000000Y-56000000D03*
%TO.N,/CODEC/LINEIN_L*%
X55900000Y-66100000D03*
%TO.N,/CODEC/MIC*%
X54800000Y-65600000D03*
%TO.N,/CODEC/LINEOUT_L*%
X55450000Y-68150000D03*
%TO.N,/CODEC/LINEOUT_R*%
X53900000Y-68099500D03*
%TD*%
%TA.AperFunction,Conductor*%
%TO.N,GND*%
G36*
X100002854Y-46000632D02*
G01*
X100018811Y-46001369D01*
X100173088Y-46008502D01*
X100369795Y-46018166D01*
X100380787Y-46019201D01*
X100562876Y-46044601D01*
X100563781Y-46044732D01*
X100747261Y-46071949D01*
X100757413Y-46073892D01*
X100938614Y-46116510D01*
X100940023Y-46116852D01*
X101117874Y-46161401D01*
X101127091Y-46164096D01*
X101304478Y-46223550D01*
X101306618Y-46224292D01*
X101478220Y-46285692D01*
X101486519Y-46289004D01*
X101657980Y-46364712D01*
X101660909Y-46366051D01*
X101747263Y-46406892D01*
X101825119Y-46443715D01*
X101832411Y-46447465D01*
X101929135Y-46501341D01*
X101996435Y-46538827D01*
X101999810Y-46540777D01*
X102155371Y-46634017D01*
X102161670Y-46638058D01*
X102316699Y-46744256D01*
X102320459Y-46746935D01*
X102466009Y-46854882D01*
X102471305Y-46859040D01*
X102616009Y-46979200D01*
X102619947Y-46982617D01*
X102754206Y-47104303D01*
X102758590Y-47108478D01*
X102891520Y-47241408D01*
X102895698Y-47245795D01*
X103017375Y-47380045D01*
X103020805Y-47383998D01*
X103140951Y-47528684D01*
X103145124Y-47534000D01*
X103253041Y-47679509D01*
X103255742Y-47683299D01*
X103361940Y-47838328D01*
X103365999Y-47844656D01*
X103459200Y-48000153D01*
X103461171Y-48003563D01*
X103552525Y-48167573D01*
X103556291Y-48174896D01*
X103633947Y-48339089D01*
X103635286Y-48342018D01*
X103710994Y-48513479D01*
X103714311Y-48521791D01*
X103775666Y-48693265D01*
X103776487Y-48695634D01*
X103835894Y-48872881D01*
X103838606Y-48882157D01*
X103883104Y-49059803D01*
X103883526Y-49061543D01*
X103926101Y-49242562D01*
X103928053Y-49252758D01*
X103955257Y-49436156D01*
X103955410Y-49437218D01*
X103980794Y-49619184D01*
X103981834Y-49630232D01*
X103991512Y-49827238D01*
X103991529Y-49827595D01*
X103999368Y-49997145D01*
X103999500Y-50002872D01*
X103999500Y-79997128D01*
X103999368Y-80002855D01*
X103991529Y-80172404D01*
X103991512Y-80172761D01*
X103981834Y-80369766D01*
X103980794Y-80380814D01*
X103955410Y-80562780D01*
X103955257Y-80563842D01*
X103928053Y-80747240D01*
X103926101Y-80757436D01*
X103883526Y-80938455D01*
X103883104Y-80940195D01*
X103838606Y-81117841D01*
X103835894Y-81127117D01*
X103776487Y-81304364D01*
X103775666Y-81306733D01*
X103714311Y-81478207D01*
X103710994Y-81486519D01*
X103635286Y-81657980D01*
X103633947Y-81660909D01*
X103556291Y-81825102D01*
X103552525Y-81832425D01*
X103461171Y-81996435D01*
X103459200Y-81999845D01*
X103365999Y-82155342D01*
X103361940Y-82161670D01*
X103255742Y-82316699D01*
X103253041Y-82320489D01*
X103145135Y-82465984D01*
X103140935Y-82471334D01*
X103020851Y-82615947D01*
X103017331Y-82620004D01*
X102895717Y-82754183D01*
X102891520Y-82758590D01*
X102758590Y-82891520D01*
X102754183Y-82895717D01*
X102620004Y-83017331D01*
X102615947Y-83020851D01*
X102471334Y-83140935D01*
X102465984Y-83145135D01*
X102320489Y-83253041D01*
X102316699Y-83255742D01*
X102161670Y-83361940D01*
X102155342Y-83365999D01*
X101999845Y-83459200D01*
X101996435Y-83461171D01*
X101832425Y-83552525D01*
X101825102Y-83556291D01*
X101660909Y-83633947D01*
X101657980Y-83635286D01*
X101486519Y-83710994D01*
X101478207Y-83714311D01*
X101306733Y-83775666D01*
X101304364Y-83776487D01*
X101127117Y-83835894D01*
X101117841Y-83838606D01*
X100940195Y-83883104D01*
X100938455Y-83883526D01*
X100757436Y-83926101D01*
X100747240Y-83928053D01*
X100563842Y-83955257D01*
X100562780Y-83955410D01*
X100380814Y-83980794D01*
X100369766Y-83981834D01*
X100172931Y-83991503D01*
X100172575Y-83991520D01*
X100007393Y-83999158D01*
X100002854Y-83999368D01*
X99997128Y-83999500D01*
X20002872Y-83999500D01*
X19997145Y-83999368D01*
X19992305Y-83999144D01*
X19827423Y-83991520D01*
X19827067Y-83991503D01*
X19630232Y-83981834D01*
X19619184Y-83980794D01*
X19437218Y-83955410D01*
X19436156Y-83955257D01*
X19252758Y-83928053D01*
X19242562Y-83926101D01*
X19061543Y-83883526D01*
X19059803Y-83883104D01*
X18882157Y-83838606D01*
X18872881Y-83835894D01*
X18695634Y-83776487D01*
X18693265Y-83775666D01*
X18521791Y-83714311D01*
X18513479Y-83710994D01*
X18342018Y-83635286D01*
X18339089Y-83633947D01*
X18174896Y-83556291D01*
X18167573Y-83552525D01*
X18003563Y-83461171D01*
X18000153Y-83459200D01*
X17875952Y-83384757D01*
X17844645Y-83365992D01*
X17838328Y-83361940D01*
X17683299Y-83255742D01*
X17679509Y-83253041D01*
X17534000Y-83145124D01*
X17528684Y-83140951D01*
X17383998Y-83020805D01*
X17380045Y-83017375D01*
X17245795Y-82895698D01*
X17241408Y-82891520D01*
X17108478Y-82758590D01*
X17104303Y-82754206D01*
X17075440Y-82722361D01*
X17489770Y-82722361D01*
X17520815Y-82753406D01*
X17822213Y-82997473D01*
X18147456Y-83208690D01*
X18493009Y-83384757D01*
X18855068Y-83523739D01*
X19229674Y-83624114D01*
X19612711Y-83684780D01*
X19999999Y-83705077D01*
X20387288Y-83684780D01*
X20770325Y-83624114D01*
X21144931Y-83523739D01*
X21506990Y-83384757D01*
X21852543Y-83208690D01*
X22177786Y-82997473D01*
X22479184Y-82753407D01*
X22510229Y-82722362D01*
X22510229Y-82722360D01*
X22432440Y-82644571D01*
X25567558Y-82644571D01*
X25567559Y-82644572D01*
X25790954Y-82811804D01*
X26042047Y-82948911D01*
X26310097Y-83048888D01*
X26589642Y-83109699D01*
X26875000Y-83130109D01*
X27160357Y-83109699D01*
X27439902Y-83048888D01*
X27707952Y-82948911D01*
X27959041Y-82811806D01*
X28182440Y-82644571D01*
X31817558Y-82644571D01*
X31817559Y-82644572D01*
X32040954Y-82811804D01*
X32292047Y-82948911D01*
X32560097Y-83048888D01*
X32839642Y-83109699D01*
X33125000Y-83130109D01*
X33410357Y-83109699D01*
X33689902Y-83048888D01*
X33957952Y-82948911D01*
X34209041Y-82811806D01*
X34432440Y-82644571D01*
X45567558Y-82644571D01*
X45567559Y-82644572D01*
X45790954Y-82811804D01*
X46042047Y-82948911D01*
X46310097Y-83048888D01*
X46589642Y-83109699D01*
X46875000Y-83130109D01*
X47160357Y-83109699D01*
X47439902Y-83048888D01*
X47707952Y-82948911D01*
X47959041Y-82811806D01*
X48182440Y-82644571D01*
X51817558Y-82644571D01*
X51817559Y-82644572D01*
X52040954Y-82811804D01*
X52292047Y-82948911D01*
X52560097Y-83048888D01*
X52839642Y-83109699D01*
X53125000Y-83130109D01*
X53410357Y-83109699D01*
X53689902Y-83048888D01*
X53957952Y-82948911D01*
X54209041Y-82811806D01*
X54432440Y-82644571D01*
X65567558Y-82644571D01*
X65567559Y-82644572D01*
X65790954Y-82811804D01*
X66042047Y-82948911D01*
X66310097Y-83048888D01*
X66589642Y-83109699D01*
X66875000Y-83130109D01*
X67160357Y-83109699D01*
X67439902Y-83048888D01*
X67707952Y-82948911D01*
X67959041Y-82811806D01*
X68182440Y-82644571D01*
X71817558Y-82644571D01*
X71817559Y-82644572D01*
X72040954Y-82811804D01*
X72292047Y-82948911D01*
X72560097Y-83048888D01*
X72839642Y-83109699D01*
X73125000Y-83130109D01*
X73410357Y-83109699D01*
X73689902Y-83048888D01*
X73957952Y-82948911D01*
X74209041Y-82811806D01*
X74432440Y-82644571D01*
X85567558Y-82644571D01*
X85567559Y-82644572D01*
X85790954Y-82811804D01*
X86042047Y-82948911D01*
X86310097Y-83048888D01*
X86589642Y-83109699D01*
X86875000Y-83130109D01*
X87160357Y-83109699D01*
X87439902Y-83048888D01*
X87707952Y-82948911D01*
X87959041Y-82811806D01*
X88182440Y-82644571D01*
X91817558Y-82644571D01*
X91817559Y-82644572D01*
X92040954Y-82811804D01*
X92292047Y-82948911D01*
X92560097Y-83048888D01*
X92839642Y-83109699D01*
X93125000Y-83130109D01*
X93410357Y-83109699D01*
X93689902Y-83048888D01*
X93957952Y-82948911D01*
X94209041Y-82811806D01*
X94328525Y-82722361D01*
X97489770Y-82722361D01*
X97520815Y-82753406D01*
X97822213Y-82997473D01*
X98147456Y-83208690D01*
X98493009Y-83384757D01*
X98855068Y-83523739D01*
X99229674Y-83624114D01*
X99612711Y-83684780D01*
X99999999Y-83705077D01*
X100387288Y-83684780D01*
X100770325Y-83624114D01*
X101144931Y-83523739D01*
X101506990Y-83384757D01*
X101852543Y-83208690D01*
X102177786Y-82997473D01*
X102479184Y-82753407D01*
X102510229Y-82722362D01*
X102510229Y-82722360D01*
X100000000Y-80212132D01*
X97489770Y-82722361D01*
X94328525Y-82722361D01*
X94432440Y-82644571D01*
X93125000Y-81337132D01*
X91817558Y-82644571D01*
X88182440Y-82644571D01*
X86875000Y-81337132D01*
X85567558Y-82644571D01*
X74432440Y-82644571D01*
X73125000Y-81337132D01*
X71817558Y-82644571D01*
X68182440Y-82644571D01*
X66875000Y-81337132D01*
X65567558Y-82644571D01*
X54432440Y-82644571D01*
X53125000Y-81337132D01*
X51817558Y-82644571D01*
X48182440Y-82644571D01*
X46875000Y-81337132D01*
X45567558Y-82644571D01*
X34432440Y-82644571D01*
X33125000Y-81337132D01*
X31817558Y-82644571D01*
X28182440Y-82644571D01*
X26875000Y-81337132D01*
X25567558Y-82644571D01*
X22432440Y-82644571D01*
X20000000Y-80212132D01*
X17489770Y-82722361D01*
X17075440Y-82722361D01*
X16982617Y-82619947D01*
X16979200Y-82616009D01*
X16859040Y-82471305D01*
X16854882Y-82466009D01*
X16746935Y-82320459D01*
X16744256Y-82316699D01*
X16638058Y-82161670D01*
X16634017Y-82155371D01*
X16540777Y-81999810D01*
X16538827Y-81996435D01*
X16458679Y-81852543D01*
X16447465Y-81832411D01*
X16443715Y-81825119D01*
X16379763Y-81689902D01*
X16366051Y-81660909D01*
X16364712Y-81657980D01*
X16289004Y-81486519D01*
X16285692Y-81478220D01*
X16224292Y-81306618D01*
X16223550Y-81304478D01*
X16164096Y-81127091D01*
X16161401Y-81117874D01*
X16116852Y-80940023D01*
X16116510Y-80938614D01*
X16073892Y-80757413D01*
X16071949Y-80747261D01*
X16044732Y-80563781D01*
X16044588Y-80562780D01*
X16044214Y-80560097D01*
X16019201Y-80380787D01*
X16018166Y-80369795D01*
X16008480Y-80172611D01*
X16000632Y-80002854D01*
X16000566Y-80000000D01*
X16294922Y-80000000D01*
X16315219Y-80387288D01*
X16375885Y-80770325D01*
X16476260Y-81144931D01*
X16615242Y-81506990D01*
X16791309Y-81852543D01*
X17002526Y-82177786D01*
X17246593Y-82479184D01*
X17277638Y-82510229D01*
X19787868Y-80000001D01*
X19787868Y-80000000D01*
X20212132Y-80000000D01*
X22722360Y-82510229D01*
X22722362Y-82510229D01*
X22753407Y-82479184D01*
X22997473Y-82177786D01*
X23208690Y-81852543D01*
X23384757Y-81506990D01*
X23523739Y-81144931D01*
X23529079Y-81125000D01*
X24869890Y-81125000D01*
X24890300Y-81410357D01*
X24951111Y-81689902D01*
X25051088Y-81957952D01*
X25188195Y-82209045D01*
X25355426Y-82432439D01*
X25355427Y-82432440D01*
X26662868Y-81125001D01*
X26662868Y-81125000D01*
X27087132Y-81125000D01*
X28394571Y-82432440D01*
X28561806Y-82209041D01*
X28698911Y-81957952D01*
X28798888Y-81689902D01*
X28859699Y-81410357D01*
X28880109Y-81125000D01*
X31119890Y-81125000D01*
X31140300Y-81410357D01*
X31201111Y-81689902D01*
X31301088Y-81957952D01*
X31438195Y-82209045D01*
X31605426Y-82432439D01*
X31605427Y-82432440D01*
X32912868Y-81125001D01*
X32912868Y-81125000D01*
X33337132Y-81125000D01*
X34644571Y-82432440D01*
X34811806Y-82209041D01*
X34948911Y-81957952D01*
X35048888Y-81689902D01*
X35109699Y-81410357D01*
X35130109Y-81125000D01*
X44869890Y-81125000D01*
X44890300Y-81410357D01*
X44951111Y-81689902D01*
X45051088Y-81957952D01*
X45188195Y-82209045D01*
X45355426Y-82432439D01*
X45355427Y-82432440D01*
X46662868Y-81125001D01*
X46662868Y-81125000D01*
X47087132Y-81125000D01*
X48394571Y-82432440D01*
X48561806Y-82209041D01*
X48698911Y-81957952D01*
X48798888Y-81689902D01*
X48859699Y-81410357D01*
X48880109Y-81125000D01*
X51119890Y-81125000D01*
X51140300Y-81410357D01*
X51201111Y-81689902D01*
X51301088Y-81957952D01*
X51438195Y-82209045D01*
X51605426Y-82432439D01*
X51605427Y-82432440D01*
X52912868Y-81125000D01*
X53337132Y-81125000D01*
X54644571Y-82432440D01*
X54811806Y-82209041D01*
X54948911Y-81957952D01*
X55048888Y-81689902D01*
X55109699Y-81410357D01*
X55130109Y-81125000D01*
X64869890Y-81125000D01*
X64890300Y-81410357D01*
X64951111Y-81689902D01*
X65051088Y-81957952D01*
X65188195Y-82209045D01*
X65355426Y-82432439D01*
X65355427Y-82432440D01*
X66662868Y-81125001D01*
X66662868Y-81125000D01*
X66662867Y-81124999D01*
X67087131Y-81124999D01*
X68394571Y-82432440D01*
X68561806Y-82209041D01*
X68698911Y-81957952D01*
X68798888Y-81689902D01*
X68859699Y-81410357D01*
X68880109Y-81125000D01*
X71119890Y-81125000D01*
X71140300Y-81410357D01*
X71201111Y-81689902D01*
X71301088Y-81957952D01*
X71438195Y-82209045D01*
X71605426Y-82432439D01*
X71605427Y-82432440D01*
X72912868Y-81125001D01*
X72912868Y-81125000D01*
X73337132Y-81125000D01*
X74644571Y-82432440D01*
X74811806Y-82209041D01*
X74948911Y-81957952D01*
X75048888Y-81689902D01*
X75109699Y-81410357D01*
X75130109Y-81125000D01*
X84869890Y-81125000D01*
X84890300Y-81410357D01*
X84951111Y-81689902D01*
X85051088Y-81957952D01*
X85188195Y-82209045D01*
X85355426Y-82432439D01*
X85355427Y-82432440D01*
X86662868Y-81125001D01*
X86662868Y-81125000D01*
X87087132Y-81125000D01*
X88394571Y-82432440D01*
X88561806Y-82209041D01*
X88698911Y-81957952D01*
X88798888Y-81689902D01*
X88859699Y-81410357D01*
X88880109Y-81125000D01*
X91119890Y-81125000D01*
X91140300Y-81410357D01*
X91201111Y-81689902D01*
X91301088Y-81957952D01*
X91438195Y-82209045D01*
X91605426Y-82432439D01*
X91605427Y-82432440D01*
X92912868Y-81125001D01*
X92912868Y-81124999D01*
X93337131Y-81124999D01*
X94644571Y-82432440D01*
X94811806Y-82209041D01*
X94948911Y-81957952D01*
X95048888Y-81689902D01*
X95109699Y-81410357D01*
X95130109Y-81125000D01*
X95109699Y-80839642D01*
X95048888Y-80560097D01*
X94948911Y-80292047D01*
X94811804Y-80040954D01*
X94781146Y-80000000D01*
X96294922Y-80000000D01*
X96315219Y-80387288D01*
X96375885Y-80770325D01*
X96476260Y-81144931D01*
X96615242Y-81506990D01*
X96791309Y-81852543D01*
X97002526Y-82177786D01*
X97246593Y-82479184D01*
X97277638Y-82510229D01*
X99787868Y-80000001D01*
X100212132Y-80000001D01*
X102722360Y-82510229D01*
X102722362Y-82510229D01*
X102753407Y-82479184D01*
X102997473Y-82177786D01*
X103208690Y-81852543D01*
X103384757Y-81506990D01*
X103523739Y-81144931D01*
X103624114Y-80770325D01*
X103684780Y-80387288D01*
X103705077Y-80000000D01*
X103684780Y-79612711D01*
X103624114Y-79229674D01*
X103523739Y-78855068D01*
X103384757Y-78493009D01*
X103208690Y-78147456D01*
X102997473Y-77822213D01*
X102753406Y-77520815D01*
X102722361Y-77489770D01*
X102722360Y-77489770D01*
X100212132Y-80000000D01*
X100212132Y-80000001D01*
X99787868Y-80000001D01*
X99787868Y-80000000D01*
X97277638Y-77489770D01*
X97246592Y-77520815D01*
X97002526Y-77822213D01*
X96791309Y-78147456D01*
X96615242Y-78493009D01*
X96476260Y-78855068D01*
X96375885Y-79229674D01*
X96315219Y-79612711D01*
X96294922Y-80000000D01*
X94781146Y-80000000D01*
X94644572Y-79817559D01*
X94644571Y-79817558D01*
X93337131Y-81124999D01*
X92912868Y-81124999D01*
X91605426Y-79817558D01*
X91438195Y-80040955D01*
X91301088Y-80292047D01*
X91201111Y-80560097D01*
X91140300Y-80839642D01*
X91119890Y-81125000D01*
X88880109Y-81125000D01*
X88859699Y-80839642D01*
X88798888Y-80560097D01*
X88698911Y-80292047D01*
X88561804Y-80040954D01*
X88394572Y-79817559D01*
X88394571Y-79817558D01*
X87087132Y-81125000D01*
X86662868Y-81125000D01*
X85355426Y-79817558D01*
X85188195Y-80040955D01*
X85051088Y-80292047D01*
X84951111Y-80560097D01*
X84890300Y-80839642D01*
X84869890Y-81125000D01*
X75130109Y-81125000D01*
X75109699Y-80839642D01*
X75048888Y-80560097D01*
X74948911Y-80292047D01*
X74811804Y-80040954D01*
X74644572Y-79817559D01*
X74644571Y-79817558D01*
X73337132Y-81125000D01*
X72912868Y-81125000D01*
X71605426Y-79817558D01*
X71438195Y-80040955D01*
X71301088Y-80292047D01*
X71201111Y-80560097D01*
X71140300Y-80839642D01*
X71119890Y-81125000D01*
X68880109Y-81125000D01*
X68859699Y-80839642D01*
X68798888Y-80560097D01*
X68698911Y-80292047D01*
X68561804Y-80040954D01*
X68394572Y-79817559D01*
X68394571Y-79817558D01*
X67087131Y-81124999D01*
X66662867Y-81124999D01*
X65355426Y-79817558D01*
X65188195Y-80040955D01*
X65051088Y-80292047D01*
X64951111Y-80560097D01*
X64890300Y-80839642D01*
X64869890Y-81125000D01*
X55130109Y-81125000D01*
X55109699Y-80839642D01*
X55048888Y-80560097D01*
X54948911Y-80292047D01*
X54811804Y-80040954D01*
X54644572Y-79817559D01*
X54644571Y-79817558D01*
X53337132Y-81125000D01*
X52912868Y-81125000D01*
X51605426Y-79817558D01*
X51438195Y-80040955D01*
X51301088Y-80292047D01*
X51201111Y-80560097D01*
X51140300Y-80839642D01*
X51119890Y-81125000D01*
X48880109Y-81125000D01*
X48859699Y-80839642D01*
X48798888Y-80560097D01*
X48698911Y-80292047D01*
X48561804Y-80040954D01*
X48394572Y-79817559D01*
X48394571Y-79817558D01*
X47087132Y-81125000D01*
X46662868Y-81125000D01*
X45355426Y-79817558D01*
X45188195Y-80040955D01*
X45051088Y-80292047D01*
X44951111Y-80560097D01*
X44890300Y-80839642D01*
X44869890Y-81125000D01*
X35130109Y-81125000D01*
X35109699Y-80839642D01*
X35048888Y-80560097D01*
X34948911Y-80292047D01*
X34811804Y-80040954D01*
X34644572Y-79817559D01*
X34644571Y-79817558D01*
X33337132Y-81125000D01*
X32912868Y-81125000D01*
X31605426Y-79817558D01*
X31438195Y-80040955D01*
X31301088Y-80292047D01*
X31201111Y-80560097D01*
X31140300Y-80839642D01*
X31119890Y-81125000D01*
X28880109Y-81125000D01*
X28859699Y-80839642D01*
X28798888Y-80560097D01*
X28698911Y-80292047D01*
X28561804Y-80040954D01*
X28394572Y-79817559D01*
X28394571Y-79817558D01*
X27087132Y-81125000D01*
X26662868Y-81125000D01*
X25355426Y-79817558D01*
X25188195Y-80040955D01*
X25051088Y-80292047D01*
X24951111Y-80560097D01*
X24890300Y-80839642D01*
X24869890Y-81125000D01*
X23529079Y-81125000D01*
X23624114Y-80770325D01*
X23684780Y-80387288D01*
X23705077Y-80000000D01*
X23684780Y-79612711D01*
X23683626Y-79605426D01*
X25567558Y-79605426D01*
X26875000Y-80912868D01*
X26875001Y-80912868D01*
X28182440Y-79605427D01*
X28182439Y-79605426D01*
X27959045Y-79438195D01*
X27707952Y-79301088D01*
X27439902Y-79201111D01*
X27160357Y-79140300D01*
X26875000Y-79119890D01*
X26589642Y-79140300D01*
X26310097Y-79201111D01*
X26042047Y-79301088D01*
X25790955Y-79438195D01*
X25567558Y-79605426D01*
X23683626Y-79605426D01*
X23624114Y-79229674D01*
X23523739Y-78855068D01*
X23384757Y-78493009D01*
X23208690Y-78147456D01*
X23112930Y-78000000D01*
X27994389Y-78000000D01*
X28014804Y-78285429D01*
X28075629Y-78565041D01*
X28175634Y-78833163D01*
X28312772Y-79084313D01*
X28339405Y-79119890D01*
X28484261Y-79313395D01*
X28686605Y-79515739D01*
X28816145Y-79612711D01*
X28915686Y-79687227D01*
X29055435Y-79763535D01*
X29166839Y-79824367D01*
X29434954Y-79924369D01*
X29434957Y-79924369D01*
X29434958Y-79924370D01*
X29487217Y-79935738D01*
X29714572Y-79985196D01*
X30000000Y-80005610D01*
X30285428Y-79985196D01*
X30565046Y-79924369D01*
X30833161Y-79824367D01*
X31084315Y-79687226D01*
X31193587Y-79605426D01*
X31817558Y-79605426D01*
X33125000Y-80912868D01*
X33125001Y-80912868D01*
X34432440Y-79605427D01*
X34432439Y-79605426D01*
X45567558Y-79605426D01*
X46875000Y-80912868D01*
X46875001Y-80912868D01*
X48182440Y-79605427D01*
X48182439Y-79605426D01*
X47959045Y-79438195D01*
X47707952Y-79301088D01*
X47439902Y-79201111D01*
X47160357Y-79140300D01*
X46875000Y-79119890D01*
X46589642Y-79140300D01*
X46310097Y-79201111D01*
X46042047Y-79301088D01*
X45790955Y-79438195D01*
X45567558Y-79605426D01*
X34432439Y-79605426D01*
X34209045Y-79438195D01*
X33957952Y-79301088D01*
X33689902Y-79201111D01*
X33410357Y-79140300D01*
X33125000Y-79119890D01*
X32839642Y-79140300D01*
X32560097Y-79201111D01*
X32292047Y-79301088D01*
X32040955Y-79438195D01*
X31817558Y-79605426D01*
X31193587Y-79605426D01*
X31313395Y-79515739D01*
X31515739Y-79313395D01*
X31687226Y-79084315D01*
X31824367Y-78833161D01*
X31924369Y-78565046D01*
X31985196Y-78285428D01*
X32005610Y-78000000D01*
X47994389Y-78000000D01*
X48014804Y-78285429D01*
X48075629Y-78565041D01*
X48175634Y-78833163D01*
X48312772Y-79084313D01*
X48339405Y-79119890D01*
X48484261Y-79313395D01*
X48686605Y-79515739D01*
X48816145Y-79612711D01*
X48915686Y-79687227D01*
X49055435Y-79763535D01*
X49166839Y-79824367D01*
X49434954Y-79924369D01*
X49434957Y-79924369D01*
X49434958Y-79924370D01*
X49487217Y-79935738D01*
X49714572Y-79985196D01*
X50000000Y-80005610D01*
X50285428Y-79985196D01*
X50565046Y-79924369D01*
X50833161Y-79824367D01*
X51084315Y-79687226D01*
X51193587Y-79605426D01*
X51817558Y-79605426D01*
X53125000Y-80912868D01*
X53125001Y-80912868D01*
X54432440Y-79605427D01*
X54432439Y-79605426D01*
X65567558Y-79605426D01*
X66875000Y-80912868D01*
X66875001Y-80912868D01*
X68182440Y-79605427D01*
X68182439Y-79605426D01*
X67959045Y-79438195D01*
X67707952Y-79301088D01*
X67439902Y-79201111D01*
X67160357Y-79140300D01*
X66875000Y-79119890D01*
X66589642Y-79140300D01*
X66310097Y-79201111D01*
X66042047Y-79301088D01*
X65790955Y-79438195D01*
X65567558Y-79605426D01*
X54432439Y-79605426D01*
X54209045Y-79438195D01*
X53957952Y-79301088D01*
X53689902Y-79201111D01*
X53410357Y-79140300D01*
X53125000Y-79119890D01*
X52839642Y-79140300D01*
X52560097Y-79201111D01*
X52292047Y-79301088D01*
X52040955Y-79438195D01*
X51817558Y-79605426D01*
X51193587Y-79605426D01*
X51313395Y-79515739D01*
X51515739Y-79313395D01*
X51687226Y-79084315D01*
X51824367Y-78833161D01*
X51924369Y-78565046D01*
X51985196Y-78285428D01*
X52005610Y-78000000D01*
X67994389Y-78000000D01*
X68014804Y-78285429D01*
X68075629Y-78565041D01*
X68175634Y-78833163D01*
X68312772Y-79084313D01*
X68339405Y-79119890D01*
X68484261Y-79313395D01*
X68686605Y-79515739D01*
X68816145Y-79612711D01*
X68915686Y-79687227D01*
X69055435Y-79763535D01*
X69166839Y-79824367D01*
X69434954Y-79924369D01*
X69434957Y-79924369D01*
X69434958Y-79924370D01*
X69487217Y-79935738D01*
X69714572Y-79985196D01*
X70000000Y-80005610D01*
X70285428Y-79985196D01*
X70565046Y-79924369D01*
X70833161Y-79824367D01*
X71084315Y-79687226D01*
X71193587Y-79605426D01*
X71817558Y-79605426D01*
X73125000Y-80912868D01*
X73125001Y-80912868D01*
X74432440Y-79605427D01*
X74432439Y-79605426D01*
X85567558Y-79605426D01*
X86875000Y-80912868D01*
X86875001Y-80912868D01*
X88182440Y-79605427D01*
X88182439Y-79605426D01*
X87959045Y-79438195D01*
X87707952Y-79301088D01*
X87439902Y-79201111D01*
X87160357Y-79140300D01*
X86875000Y-79119890D01*
X86589642Y-79140300D01*
X86310097Y-79201111D01*
X86042047Y-79301088D01*
X85790955Y-79438195D01*
X85567558Y-79605426D01*
X74432439Y-79605426D01*
X74209045Y-79438195D01*
X73957952Y-79301088D01*
X73689902Y-79201111D01*
X73410357Y-79140300D01*
X73125000Y-79119890D01*
X72839642Y-79140300D01*
X72560097Y-79201111D01*
X72292047Y-79301088D01*
X72040955Y-79438195D01*
X71817558Y-79605426D01*
X71193587Y-79605426D01*
X71313395Y-79515739D01*
X71515739Y-79313395D01*
X71687226Y-79084315D01*
X71824367Y-78833161D01*
X71924369Y-78565046D01*
X71985196Y-78285428D01*
X72005610Y-78000000D01*
X87994389Y-78000000D01*
X88014804Y-78285429D01*
X88075629Y-78565041D01*
X88175634Y-78833163D01*
X88312772Y-79084313D01*
X88339405Y-79119890D01*
X88484261Y-79313395D01*
X88686605Y-79515739D01*
X88816145Y-79612711D01*
X88915686Y-79687227D01*
X89055435Y-79763535D01*
X89166839Y-79824367D01*
X89434954Y-79924369D01*
X89434957Y-79924369D01*
X89434958Y-79924370D01*
X89487217Y-79935738D01*
X89714572Y-79985196D01*
X90000000Y-80005610D01*
X90285428Y-79985196D01*
X90565046Y-79924369D01*
X90833161Y-79824367D01*
X91084315Y-79687226D01*
X91193587Y-79605426D01*
X91817558Y-79605426D01*
X93125000Y-80912868D01*
X93125001Y-80912868D01*
X94432440Y-79605427D01*
X94432439Y-79605426D01*
X94209045Y-79438195D01*
X93957952Y-79301088D01*
X93689902Y-79201111D01*
X93410357Y-79140300D01*
X93125000Y-79119890D01*
X92839642Y-79140300D01*
X92560097Y-79201111D01*
X92292047Y-79301088D01*
X92040955Y-79438195D01*
X91817558Y-79605426D01*
X91193587Y-79605426D01*
X91313395Y-79515739D01*
X91515739Y-79313395D01*
X91687226Y-79084315D01*
X91824367Y-78833161D01*
X91924369Y-78565046D01*
X91985196Y-78285428D01*
X92005610Y-78000000D01*
X91985196Y-77714572D01*
X91924369Y-77434954D01*
X91865693Y-77277638D01*
X97489770Y-77277638D01*
X100000000Y-79787868D01*
X100000001Y-79787868D01*
X102510229Y-77277639D01*
X102479179Y-77246589D01*
X102177786Y-77002526D01*
X101852543Y-76791309D01*
X101506990Y-76615242D01*
X101144931Y-76476260D01*
X100770325Y-76375885D01*
X100387288Y-76315219D01*
X100000000Y-76294922D01*
X99612711Y-76315219D01*
X99229674Y-76375885D01*
X98855068Y-76476260D01*
X98493009Y-76615242D01*
X98147456Y-76791309D01*
X97822213Y-77002526D01*
X97520815Y-77246592D01*
X97489770Y-77277638D01*
X91865693Y-77277638D01*
X91824367Y-77166839D01*
X91687226Y-76915685D01*
X91515739Y-76686605D01*
X91313395Y-76484261D01*
X91193583Y-76394571D01*
X91817558Y-76394571D01*
X91817559Y-76394572D01*
X92040954Y-76561804D01*
X92292047Y-76698911D01*
X92560097Y-76798888D01*
X92839642Y-76859699D01*
X93125000Y-76880109D01*
X93410357Y-76859699D01*
X93689902Y-76798888D01*
X93957952Y-76698911D01*
X94209041Y-76561806D01*
X94432440Y-76394571D01*
X93125000Y-75087132D01*
X91817558Y-76394571D01*
X91193583Y-76394571D01*
X91084313Y-76312772D01*
X90833163Y-76175634D01*
X90833162Y-76175633D01*
X90833161Y-76175633D01*
X90565046Y-76075631D01*
X90565041Y-76075629D01*
X90285429Y-76014804D01*
X90000000Y-75994389D01*
X89714570Y-76014804D01*
X89434958Y-76075629D01*
X89166836Y-76175634D01*
X88915686Y-76312772D01*
X88686602Y-76484263D01*
X88484263Y-76686602D01*
X88312772Y-76915686D01*
X88175634Y-77166836D01*
X88075629Y-77434958D01*
X88014804Y-77714570D01*
X87994389Y-78000000D01*
X72005610Y-78000000D01*
X71985196Y-77714572D01*
X71924369Y-77434954D01*
X71824367Y-77166839D01*
X71687226Y-76915685D01*
X71515739Y-76686605D01*
X71313395Y-76484261D01*
X71193583Y-76394571D01*
X71817558Y-76394571D01*
X71817559Y-76394572D01*
X72040954Y-76561804D01*
X72292047Y-76698911D01*
X72560097Y-76798888D01*
X72839642Y-76859699D01*
X73125000Y-76880109D01*
X73410357Y-76859699D01*
X73689902Y-76798888D01*
X73957952Y-76698911D01*
X74209041Y-76561806D01*
X74432440Y-76394571D01*
X85567558Y-76394571D01*
X85567559Y-76394572D01*
X85790954Y-76561804D01*
X86042047Y-76698911D01*
X86310097Y-76798888D01*
X86589642Y-76859699D01*
X86875000Y-76880109D01*
X87160357Y-76859699D01*
X87439902Y-76798888D01*
X87707952Y-76698911D01*
X87959041Y-76561806D01*
X88182440Y-76394571D01*
X86875000Y-75087132D01*
X85567558Y-76394571D01*
X74432440Y-76394571D01*
X73125000Y-75087132D01*
X71817558Y-76394571D01*
X71193583Y-76394571D01*
X71084313Y-76312772D01*
X70833163Y-76175634D01*
X70833162Y-76175633D01*
X70833161Y-76175633D01*
X70565046Y-76075631D01*
X70565041Y-76075629D01*
X70285429Y-76014804D01*
X70000000Y-75994389D01*
X69714570Y-76014804D01*
X69434958Y-76075629D01*
X69166836Y-76175634D01*
X68915686Y-76312772D01*
X68686602Y-76484263D01*
X68484263Y-76686602D01*
X68312772Y-76915686D01*
X68175634Y-77166836D01*
X68075629Y-77434958D01*
X68014804Y-77714570D01*
X67994389Y-78000000D01*
X52005610Y-78000000D01*
X51985196Y-77714572D01*
X51924369Y-77434954D01*
X51824367Y-77166839D01*
X51687226Y-76915685D01*
X51515739Y-76686605D01*
X51313395Y-76484261D01*
X51193583Y-76394571D01*
X51817558Y-76394571D01*
X51817559Y-76394572D01*
X52040954Y-76561804D01*
X52292047Y-76698911D01*
X52560097Y-76798888D01*
X52839642Y-76859699D01*
X53125000Y-76880109D01*
X53410357Y-76859699D01*
X53689902Y-76798888D01*
X53957952Y-76698911D01*
X54209041Y-76561806D01*
X54432440Y-76394571D01*
X65567558Y-76394571D01*
X65567559Y-76394572D01*
X65790954Y-76561804D01*
X66042047Y-76698911D01*
X66310097Y-76798888D01*
X66589642Y-76859699D01*
X66875000Y-76880109D01*
X67160357Y-76859699D01*
X67439902Y-76798888D01*
X67707952Y-76698911D01*
X67959041Y-76561806D01*
X68182440Y-76394571D01*
X66875000Y-75087132D01*
X65567558Y-76394571D01*
X54432440Y-76394571D01*
X53125000Y-75087132D01*
X51817558Y-76394571D01*
X51193583Y-76394571D01*
X51084313Y-76312772D01*
X50833163Y-76175634D01*
X50833162Y-76175633D01*
X50833161Y-76175633D01*
X50565046Y-76075631D01*
X50565041Y-76075629D01*
X50285429Y-76014804D01*
X50000000Y-75994389D01*
X49714570Y-76014804D01*
X49434958Y-76075629D01*
X49166836Y-76175634D01*
X48915686Y-76312772D01*
X48686602Y-76484263D01*
X48484263Y-76686602D01*
X48312772Y-76915686D01*
X48175634Y-77166836D01*
X48075629Y-77434958D01*
X48014804Y-77714570D01*
X47994389Y-78000000D01*
X32005610Y-78000000D01*
X31985196Y-77714572D01*
X31924369Y-77434954D01*
X31824367Y-77166839D01*
X31687226Y-76915685D01*
X31515739Y-76686605D01*
X31313395Y-76484261D01*
X31193583Y-76394571D01*
X31817558Y-76394571D01*
X31817559Y-76394572D01*
X32040954Y-76561804D01*
X32292047Y-76698911D01*
X32560097Y-76798888D01*
X32839642Y-76859699D01*
X33125000Y-76880109D01*
X33410357Y-76859699D01*
X33689902Y-76798888D01*
X33957952Y-76698911D01*
X34209041Y-76561806D01*
X34432440Y-76394571D01*
X45567558Y-76394571D01*
X45567559Y-76394572D01*
X45790954Y-76561804D01*
X46042047Y-76698911D01*
X46310097Y-76798888D01*
X46589642Y-76859699D01*
X46875000Y-76880109D01*
X47160357Y-76859699D01*
X47439902Y-76798888D01*
X47707952Y-76698911D01*
X47959041Y-76561806D01*
X48182440Y-76394571D01*
X46875000Y-75087132D01*
X45567558Y-76394571D01*
X34432440Y-76394571D01*
X33125000Y-75087132D01*
X31817558Y-76394571D01*
X31193583Y-76394571D01*
X31084313Y-76312772D01*
X30833163Y-76175634D01*
X30833162Y-76175633D01*
X30833161Y-76175633D01*
X30565046Y-76075631D01*
X30565041Y-76075629D01*
X30285429Y-76014804D01*
X30000000Y-75994389D01*
X29714570Y-76014804D01*
X29434958Y-76075629D01*
X29166836Y-76175634D01*
X28915686Y-76312772D01*
X28686602Y-76484263D01*
X28484263Y-76686602D01*
X28312772Y-76915686D01*
X28175634Y-77166836D01*
X28075629Y-77434958D01*
X28014804Y-77714570D01*
X27994389Y-78000000D01*
X23112930Y-78000000D01*
X22997473Y-77822213D01*
X22753406Y-77520815D01*
X22722361Y-77489770D01*
X22722360Y-77489770D01*
X20212132Y-80000000D01*
X19787868Y-80000000D01*
X17277638Y-77489770D01*
X17246592Y-77520815D01*
X17002526Y-77822213D01*
X16791309Y-78147456D01*
X16615242Y-78493009D01*
X16476260Y-78855068D01*
X16375885Y-79229674D01*
X16315219Y-79612711D01*
X16294922Y-80000000D01*
X16000566Y-80000000D01*
X16000500Y-79997128D01*
X16000500Y-77277638D01*
X17489770Y-77277638D01*
X20000000Y-79787868D01*
X20000001Y-79787868D01*
X22510229Y-77277638D01*
X22479184Y-77246593D01*
X22177786Y-77002526D01*
X21852543Y-76791309D01*
X21506990Y-76615242D01*
X21144931Y-76476260D01*
X20840062Y-76394571D01*
X25567558Y-76394571D01*
X25567559Y-76394572D01*
X25790954Y-76561804D01*
X26042047Y-76698911D01*
X26310097Y-76798888D01*
X26589642Y-76859699D01*
X26875000Y-76880109D01*
X27160357Y-76859699D01*
X27439902Y-76798888D01*
X27707952Y-76698911D01*
X27959041Y-76561806D01*
X28182440Y-76394571D01*
X26875000Y-75087132D01*
X25567558Y-76394571D01*
X20840062Y-76394571D01*
X20770325Y-76375885D01*
X20387288Y-76315219D01*
X20000000Y-76294922D01*
X19612711Y-76315219D01*
X19229674Y-76375885D01*
X18855068Y-76476260D01*
X18493009Y-76615242D01*
X18147456Y-76791309D01*
X17822213Y-77002526D01*
X17520815Y-77246592D01*
X17489770Y-77277638D01*
X16000500Y-77277638D01*
X16000500Y-74875000D01*
X24869890Y-74875000D01*
X24890300Y-75160357D01*
X24951111Y-75439902D01*
X25051088Y-75707952D01*
X25188195Y-75959045D01*
X25355426Y-76182439D01*
X25355427Y-76182440D01*
X26662868Y-74875001D01*
X26662868Y-74875000D01*
X27087132Y-74875000D01*
X28394571Y-76182440D01*
X28561806Y-75959041D01*
X28698911Y-75707952D01*
X28798888Y-75439902D01*
X28859699Y-75160357D01*
X28880109Y-74875000D01*
X31119890Y-74875000D01*
X31140300Y-75160357D01*
X31201111Y-75439902D01*
X31301088Y-75707952D01*
X31438195Y-75959045D01*
X31605426Y-76182439D01*
X31605427Y-76182440D01*
X32912868Y-74875001D01*
X32912868Y-74875000D01*
X32912867Y-74874999D01*
X33337131Y-74874999D01*
X34644571Y-76182440D01*
X34811806Y-75959041D01*
X34948911Y-75707952D01*
X35048888Y-75439902D01*
X35109699Y-75160357D01*
X35130109Y-74875000D01*
X44869890Y-74875000D01*
X44890300Y-75160357D01*
X44951111Y-75439902D01*
X45051088Y-75707952D01*
X45188195Y-75959045D01*
X45355426Y-76182439D01*
X45355427Y-76182440D01*
X46662868Y-74875001D01*
X46662868Y-74875000D01*
X47087132Y-74875000D01*
X48394571Y-76182440D01*
X48561806Y-75959041D01*
X48698911Y-75707952D01*
X48798888Y-75439902D01*
X48859699Y-75160357D01*
X48880109Y-74875000D01*
X51119890Y-74875000D01*
X51140300Y-75160357D01*
X51201111Y-75439902D01*
X51301088Y-75707952D01*
X51438195Y-75959045D01*
X51605426Y-76182439D01*
X51605427Y-76182440D01*
X52912868Y-74875000D01*
X52912867Y-74874999D01*
X53337131Y-74874999D01*
X54644571Y-76182440D01*
X54811806Y-75959041D01*
X54948911Y-75707952D01*
X55048888Y-75439902D01*
X55109699Y-75160357D01*
X55130109Y-74875000D01*
X64869890Y-74875000D01*
X64890300Y-75160357D01*
X64951111Y-75439902D01*
X65051088Y-75707952D01*
X65188195Y-75959045D01*
X65355426Y-76182439D01*
X65355427Y-76182440D01*
X66662868Y-74875001D01*
X66662868Y-74875000D01*
X67087132Y-74875000D01*
X68394571Y-76182440D01*
X68561806Y-75959041D01*
X68698911Y-75707952D01*
X68798888Y-75439902D01*
X68859699Y-75160357D01*
X68880109Y-74875000D01*
X71119890Y-74875000D01*
X71140300Y-75160357D01*
X71201111Y-75439902D01*
X71301088Y-75707952D01*
X71438195Y-75959045D01*
X71605426Y-76182439D01*
X71605427Y-76182440D01*
X72912868Y-74875001D01*
X72912868Y-74875000D01*
X73337132Y-74875000D01*
X74644571Y-76182440D01*
X74811806Y-75959041D01*
X74948911Y-75707952D01*
X75048888Y-75439902D01*
X75109699Y-75160357D01*
X75130109Y-74875000D01*
X84869890Y-74875000D01*
X84890300Y-75160357D01*
X84951111Y-75439902D01*
X85051088Y-75707952D01*
X85188195Y-75959045D01*
X85355426Y-76182439D01*
X85355427Y-76182440D01*
X86662868Y-74875001D01*
X86662868Y-74875000D01*
X86662867Y-74874999D01*
X87087131Y-74874999D01*
X88394571Y-76182440D01*
X88561806Y-75959041D01*
X88698911Y-75707952D01*
X88798888Y-75439902D01*
X88859699Y-75160357D01*
X88880109Y-74875000D01*
X91119890Y-74875000D01*
X91140300Y-75160357D01*
X91201111Y-75439902D01*
X91301088Y-75707952D01*
X91438195Y-75959045D01*
X91605426Y-76182439D01*
X91605427Y-76182440D01*
X92912868Y-74875001D01*
X92912868Y-74874999D01*
X93337131Y-74874999D01*
X94644571Y-76182440D01*
X94811806Y-75959041D01*
X94948911Y-75707952D01*
X95048888Y-75439902D01*
X95109699Y-75160357D01*
X95130109Y-74875000D01*
X95109699Y-74589642D01*
X95048888Y-74310097D01*
X94948911Y-74042047D01*
X94811804Y-73790954D01*
X94644572Y-73567559D01*
X94644571Y-73567558D01*
X93337131Y-74874999D01*
X92912868Y-74874999D01*
X91605426Y-73567558D01*
X91438195Y-73790955D01*
X91301088Y-74042047D01*
X91201111Y-74310097D01*
X91140300Y-74589642D01*
X91119890Y-74875000D01*
X88880109Y-74875000D01*
X88859699Y-74589642D01*
X88798888Y-74310097D01*
X88698911Y-74042047D01*
X88561804Y-73790954D01*
X88394572Y-73567559D01*
X88394571Y-73567558D01*
X87087131Y-74874999D01*
X86662867Y-74874999D01*
X85355426Y-73567558D01*
X85188195Y-73790955D01*
X85051088Y-74042047D01*
X84951111Y-74310097D01*
X84890300Y-74589642D01*
X84869890Y-74875000D01*
X75130109Y-74875000D01*
X75109699Y-74589642D01*
X75048888Y-74310097D01*
X74948911Y-74042047D01*
X74811804Y-73790954D01*
X74644572Y-73567559D01*
X74644571Y-73567558D01*
X73337132Y-74875000D01*
X72912868Y-74875000D01*
X71605426Y-73567558D01*
X71438195Y-73790955D01*
X71301088Y-74042047D01*
X71201111Y-74310097D01*
X71140300Y-74589642D01*
X71119890Y-74875000D01*
X68880109Y-74875000D01*
X68859699Y-74589642D01*
X68798888Y-74310097D01*
X68698911Y-74042047D01*
X68561804Y-73790954D01*
X68394572Y-73567559D01*
X68394571Y-73567558D01*
X67087132Y-74875000D01*
X66662868Y-74875000D01*
X65355426Y-73567558D01*
X65188195Y-73790955D01*
X65051088Y-74042047D01*
X64951111Y-74310097D01*
X64890300Y-74589642D01*
X64869890Y-74875000D01*
X55130109Y-74875000D01*
X55109699Y-74589642D01*
X55048888Y-74310097D01*
X54948911Y-74042047D01*
X54811804Y-73790954D01*
X54644572Y-73567559D01*
X54644571Y-73567558D01*
X53337131Y-74874999D01*
X52912867Y-74874999D01*
X51605426Y-73567558D01*
X51438195Y-73790955D01*
X51301088Y-74042047D01*
X51201111Y-74310097D01*
X51140300Y-74589642D01*
X51119890Y-74875000D01*
X48880109Y-74875000D01*
X48859699Y-74589642D01*
X48798888Y-74310097D01*
X48698911Y-74042047D01*
X48561804Y-73790954D01*
X48394572Y-73567559D01*
X48394571Y-73567558D01*
X47087132Y-74875000D01*
X46662868Y-74875000D01*
X45355426Y-73567558D01*
X45188195Y-73790955D01*
X45051088Y-74042047D01*
X44951111Y-74310097D01*
X44890300Y-74589642D01*
X44869890Y-74875000D01*
X35130109Y-74875000D01*
X35109699Y-74589642D01*
X35048888Y-74310097D01*
X34948911Y-74042047D01*
X34811804Y-73790954D01*
X34644572Y-73567559D01*
X34644571Y-73567558D01*
X33337131Y-74874999D01*
X32912867Y-74874999D01*
X31605426Y-73567558D01*
X31438195Y-73790955D01*
X31301088Y-74042047D01*
X31201111Y-74310097D01*
X31140300Y-74589642D01*
X31119890Y-74875000D01*
X28880109Y-74875000D01*
X28859699Y-74589642D01*
X28798888Y-74310097D01*
X28698911Y-74042047D01*
X28561804Y-73790954D01*
X28394572Y-73567559D01*
X28394571Y-73567558D01*
X27087132Y-74875000D01*
X26662868Y-74875000D01*
X25355426Y-73567558D01*
X25188195Y-73790955D01*
X25051088Y-74042047D01*
X24951111Y-74310097D01*
X24890300Y-74589642D01*
X24869890Y-74875000D01*
X16000500Y-74875000D01*
X16000500Y-73355426D01*
X25567558Y-73355426D01*
X26875000Y-74662868D01*
X26875001Y-74662868D01*
X28182440Y-73355427D01*
X28182439Y-73355426D01*
X31817558Y-73355426D01*
X33125000Y-74662868D01*
X33125001Y-74662868D01*
X34432440Y-73355427D01*
X34432439Y-73355426D01*
X45567558Y-73355426D01*
X46875000Y-74662868D01*
X46875001Y-74662868D01*
X48182440Y-73355427D01*
X48182439Y-73355426D01*
X51817558Y-73355426D01*
X53125000Y-74662868D01*
X53125001Y-74662868D01*
X54432440Y-73355427D01*
X54432439Y-73355426D01*
X65567558Y-73355426D01*
X66875000Y-74662868D01*
X66875001Y-74662868D01*
X68182440Y-73355427D01*
X68182439Y-73355426D01*
X71817558Y-73355426D01*
X73125000Y-74662868D01*
X73125001Y-74662868D01*
X74432440Y-73355427D01*
X74432439Y-73355426D01*
X85567558Y-73355426D01*
X86875000Y-74662868D01*
X86875001Y-74662868D01*
X88182440Y-73355427D01*
X88182439Y-73355426D01*
X91817558Y-73355426D01*
X93125000Y-74662868D01*
X93125001Y-74662868D01*
X94432440Y-73355427D01*
X94432439Y-73355426D01*
X94209045Y-73188195D01*
X93957952Y-73051088D01*
X93689902Y-72951111D01*
X93410357Y-72890300D01*
X93125000Y-72869890D01*
X92839642Y-72890300D01*
X92560097Y-72951111D01*
X92292047Y-73051088D01*
X92040955Y-73188195D01*
X91817558Y-73355426D01*
X88182439Y-73355426D01*
X87959045Y-73188195D01*
X87707952Y-73051088D01*
X87439902Y-72951111D01*
X87160357Y-72890300D01*
X86875000Y-72869890D01*
X86589642Y-72890300D01*
X86310097Y-72951111D01*
X86042047Y-73051088D01*
X85790955Y-73188195D01*
X85567558Y-73355426D01*
X74432439Y-73355426D01*
X74209045Y-73188195D01*
X73957952Y-73051088D01*
X73689902Y-72951111D01*
X73410357Y-72890300D01*
X73125000Y-72869890D01*
X72839642Y-72890300D01*
X72560097Y-72951111D01*
X72292047Y-73051088D01*
X72040955Y-73188195D01*
X71817558Y-73355426D01*
X68182439Y-73355426D01*
X67959045Y-73188195D01*
X67707952Y-73051088D01*
X67439902Y-72951111D01*
X67160357Y-72890300D01*
X66875000Y-72869890D01*
X66589642Y-72890300D01*
X66310097Y-72951111D01*
X66042047Y-73051088D01*
X65790955Y-73188195D01*
X65567558Y-73355426D01*
X54432439Y-73355426D01*
X54209045Y-73188195D01*
X53957952Y-73051088D01*
X53689902Y-72951111D01*
X53410357Y-72890300D01*
X53125000Y-72869890D01*
X52839642Y-72890300D01*
X52560097Y-72951111D01*
X52292047Y-73051088D01*
X52040955Y-73188195D01*
X51817558Y-73355426D01*
X48182439Y-73355426D01*
X47959045Y-73188195D01*
X47707952Y-73051088D01*
X47439902Y-72951111D01*
X47160357Y-72890300D01*
X46875000Y-72869890D01*
X46589642Y-72890300D01*
X46310097Y-72951111D01*
X46042047Y-73051088D01*
X45790955Y-73188195D01*
X45567558Y-73355426D01*
X34432439Y-73355426D01*
X34209045Y-73188195D01*
X33957952Y-73051088D01*
X33689902Y-72951111D01*
X33410357Y-72890300D01*
X33125000Y-72869890D01*
X32839642Y-72890300D01*
X32560097Y-72951111D01*
X32292047Y-73051088D01*
X32040955Y-73188195D01*
X31817558Y-73355426D01*
X28182439Y-73355426D01*
X27959045Y-73188195D01*
X27707952Y-73051088D01*
X27439902Y-72951111D01*
X27160357Y-72890300D01*
X26875000Y-72869890D01*
X26589642Y-72890300D01*
X26310097Y-72951111D01*
X26042047Y-73051088D01*
X25790955Y-73188195D01*
X25567558Y-73355426D01*
X16000500Y-73355426D01*
X16000500Y-70500000D01*
X49994434Y-70500000D01*
X50014631Y-70679251D01*
X50014631Y-70679253D01*
X50014632Y-70679255D01*
X50074211Y-70849522D01*
X50074212Y-70849523D01*
X50170185Y-71002264D01*
X50297735Y-71129814D01*
X50297737Y-71129815D01*
X50297738Y-71129816D01*
X50450478Y-71225789D01*
X50620745Y-71285368D01*
X50800000Y-71305565D01*
X50979255Y-71285368D01*
X51149522Y-71225789D01*
X51302262Y-71129816D01*
X51429816Y-71002262D01*
X51525789Y-70849522D01*
X51585368Y-70679255D01*
X51605565Y-70500000D01*
X51585368Y-70320745D01*
X51525789Y-70150478D01*
X51429816Y-69997738D01*
X51429815Y-69997737D01*
X51429814Y-69997735D01*
X51302264Y-69870185D01*
X51239867Y-69830979D01*
X51149522Y-69774211D01*
X50979255Y-69714632D01*
X50979253Y-69714631D01*
X50979251Y-69714631D01*
X50800000Y-69694434D01*
X50620748Y-69714631D01*
X50620745Y-69714631D01*
X50620745Y-69714632D01*
X50450478Y-69774211D01*
X50450476Y-69774211D01*
X50450476Y-69774212D01*
X50297735Y-69870185D01*
X50170185Y-69997735D01*
X50074212Y-70150476D01*
X50014631Y-70320748D01*
X49994434Y-70500000D01*
X16000500Y-70500000D01*
X16000500Y-69370937D01*
X95315630Y-69370937D01*
X95346443Y-69572071D01*
X95417113Y-69762886D01*
X95524745Y-69935568D01*
X95524748Y-69935571D01*
X95664941Y-70083053D01*
X95831951Y-70199295D01*
X96018942Y-70279540D01*
X96218259Y-70320500D01*
X97470740Y-70320500D01*
X97470742Y-70320500D01*
X97622438Y-70305074D01*
X97816588Y-70244159D01*
X97994502Y-70145409D01*
X98148895Y-70012866D01*
X98273448Y-69851958D01*
X98363060Y-69669271D01*
X98414063Y-69472285D01*
X98419203Y-69370937D01*
X99745630Y-69370937D01*
X99776443Y-69572071D01*
X99847113Y-69762886D01*
X99954745Y-69935568D01*
X99954748Y-69935571D01*
X100094941Y-70083053D01*
X100261951Y-70199295D01*
X100448942Y-70279540D01*
X100648259Y-70320500D01*
X101400740Y-70320500D01*
X101400742Y-70320500D01*
X101552438Y-70305074D01*
X101746588Y-70244159D01*
X101924502Y-70145409D01*
X102078895Y-70012866D01*
X102203448Y-69851958D01*
X102293060Y-69669271D01*
X102344063Y-69472285D01*
X102354369Y-69269064D01*
X102323556Y-69067929D01*
X102287557Y-68970729D01*
X102252886Y-68877113D01*
X102145254Y-68704431D01*
X102138803Y-68697644D01*
X102005059Y-68556947D01*
X101838049Y-68440705D01*
X101651058Y-68360460D01*
X101451741Y-68319500D01*
X100699258Y-68319500D01*
X100638579Y-68325670D01*
X100547559Y-68334926D01*
X100353412Y-68395841D01*
X100175500Y-68494589D01*
X100021104Y-68627135D01*
X99896551Y-68788042D01*
X99806940Y-68970727D01*
X99755937Y-69167716D01*
X99745630Y-69370937D01*
X98419203Y-69370937D01*
X98424369Y-69269064D01*
X98393556Y-69067929D01*
X98357557Y-68970729D01*
X98322886Y-68877113D01*
X98215254Y-68704431D01*
X98208803Y-68697644D01*
X98075059Y-68556947D01*
X97908049Y-68440705D01*
X97908048Y-68440704D01*
X97908046Y-68440703D01*
X97900237Y-68437352D01*
X97855136Y-68404270D01*
X97829162Y-68354735D01*
X97827598Y-68298824D01*
X97850762Y-68247916D01*
X97902698Y-68180233D01*
X97960687Y-68040236D01*
X97980466Y-67890000D01*
X97960687Y-67739764D01*
X97902698Y-67599767D01*
X97810451Y-67479549D01*
X97690233Y-67387302D01*
X97685564Y-67385368D01*
X97550235Y-67329312D01*
X97437721Y-67314500D01*
X97437720Y-67314500D01*
X97362280Y-67314500D01*
X97362279Y-67314500D01*
X97249764Y-67329312D01*
X97109768Y-67387301D01*
X96989549Y-67479549D01*
X96897301Y-67599768D01*
X96839312Y-67739764D01*
X96819533Y-67890000D01*
X96839312Y-68040235D01*
X96883970Y-68148047D01*
X96892812Y-68207654D01*
X96872511Y-68264391D01*
X96827862Y-68304858D01*
X96769409Y-68319500D01*
X96269258Y-68319500D01*
X96208579Y-68325670D01*
X96117559Y-68334926D01*
X95923412Y-68395841D01*
X95745500Y-68494589D01*
X95591104Y-68627135D01*
X95466551Y-68788042D01*
X95376940Y-68970727D01*
X95325937Y-69167716D01*
X95315630Y-69370937D01*
X16000500Y-69370937D01*
X16000500Y-68099999D01*
X46694434Y-68099999D01*
X46714631Y-68279251D01*
X46714631Y-68279253D01*
X46714632Y-68279255D01*
X46774211Y-68449522D01*
X46774212Y-68449523D01*
X46870185Y-68602264D01*
X46997735Y-68729814D01*
X46997737Y-68729815D01*
X46997738Y-68729816D01*
X47150478Y-68825789D01*
X47320745Y-68885368D01*
X47455186Y-68900515D01*
X47499999Y-68905565D01*
X47499999Y-68905564D01*
X47500000Y-68905565D01*
X47679255Y-68885368D01*
X47849522Y-68825789D01*
X48002262Y-68729816D01*
X48129816Y-68602262D01*
X48225789Y-68449522D01*
X48285368Y-68279255D01*
X48305565Y-68100000D01*
X48305509Y-68099500D01*
X53094434Y-68099500D01*
X53114631Y-68278751D01*
X53114631Y-68278753D01*
X53114632Y-68278755D01*
X53174211Y-68449022D01*
X53174526Y-68449523D01*
X53270185Y-68601764D01*
X53397735Y-68729314D01*
X53397737Y-68729315D01*
X53397738Y-68729316D01*
X53550478Y-68825289D01*
X53720745Y-68884868D01*
X53900000Y-68905065D01*
X54079255Y-68884868D01*
X54249522Y-68825289D01*
X54402262Y-68729316D01*
X54529816Y-68601762D01*
X54554139Y-68563051D01*
X54599152Y-68520495D01*
X54659133Y-68505022D01*
X54719115Y-68520494D01*
X54764128Y-68563050D01*
X54820184Y-68652263D01*
X54947735Y-68779814D01*
X54947737Y-68779815D01*
X54947738Y-68779816D01*
X55100478Y-68875789D01*
X55270745Y-68935368D01*
X55450000Y-68955565D01*
X55629255Y-68935368D01*
X55799522Y-68875789D01*
X55952262Y-68779816D01*
X56079816Y-68652262D01*
X56175789Y-68499522D01*
X56235368Y-68329255D01*
X56255565Y-68150000D01*
X56235368Y-67970745D01*
X56175789Y-67800478D01*
X56079816Y-67647738D01*
X56079815Y-67647737D01*
X56079814Y-67647735D01*
X55952264Y-67520185D01*
X55872689Y-67470185D01*
X55840565Y-67450000D01*
X93794434Y-67450000D01*
X93814631Y-67629251D01*
X93814631Y-67629253D01*
X93814632Y-67629255D01*
X93874211Y-67799522D01*
X93874812Y-67800478D01*
X93970185Y-67952264D01*
X94097735Y-68079814D01*
X94097737Y-68079815D01*
X94097738Y-68079816D01*
X94250478Y-68175789D01*
X94420745Y-68235368D01*
X94600000Y-68255565D01*
X94779255Y-68235368D01*
X94949522Y-68175789D01*
X95102262Y-68079816D01*
X95229816Y-67952262D01*
X95325789Y-67799522D01*
X95385368Y-67629255D01*
X95405565Y-67450000D01*
X95385368Y-67270745D01*
X95325789Y-67100478D01*
X95229816Y-66947738D01*
X95229815Y-66947737D01*
X95229814Y-66947735D01*
X95102264Y-66820185D01*
X94952030Y-66725787D01*
X94949522Y-66724211D01*
X94779255Y-66664632D01*
X94779253Y-66664631D01*
X94779251Y-66664631D01*
X94600000Y-66644434D01*
X94420748Y-66664631D01*
X94420745Y-66664631D01*
X94420745Y-66664632D01*
X94250478Y-66724211D01*
X94250476Y-66724211D01*
X94250476Y-66724212D01*
X94097735Y-66820185D01*
X93970185Y-66947735D01*
X93874212Y-67100476D01*
X93874211Y-67100478D01*
X93830363Y-67225789D01*
X93814631Y-67270748D01*
X93794434Y-67450000D01*
X55840565Y-67450000D01*
X55799522Y-67424211D01*
X55629255Y-67364632D01*
X55629253Y-67364631D01*
X55629251Y-67364631D01*
X55450000Y-67344434D01*
X55270748Y-67364631D01*
X55270745Y-67364631D01*
X55270745Y-67364632D01*
X55100478Y-67424211D01*
X55100476Y-67424211D01*
X55100476Y-67424212D01*
X54947735Y-67520185D01*
X54820183Y-67647737D01*
X54795858Y-67686450D01*
X54750845Y-67729005D01*
X54690864Y-67744477D01*
X54630883Y-67729004D01*
X54585871Y-67686449D01*
X54529814Y-67597235D01*
X54402264Y-67469685D01*
X54300217Y-67405565D01*
X54249522Y-67373711D01*
X54079255Y-67314132D01*
X54079253Y-67314131D01*
X54079251Y-67314131D01*
X53900000Y-67293934D01*
X53720748Y-67314131D01*
X53720745Y-67314131D01*
X53720745Y-67314132D01*
X53550478Y-67373711D01*
X53550476Y-67373711D01*
X53550476Y-67373712D01*
X53397735Y-67469685D01*
X53270185Y-67597235D01*
X53174212Y-67749976D01*
X53174211Y-67749978D01*
X53125215Y-67890000D01*
X53114631Y-67920248D01*
X53094434Y-68099500D01*
X48305509Y-68099500D01*
X48285368Y-67920745D01*
X48225789Y-67750478D01*
X48129816Y-67597738D01*
X48129815Y-67597737D01*
X48129814Y-67597735D01*
X48002264Y-67470185D01*
X47929096Y-67424211D01*
X47849522Y-67374211D01*
X47679255Y-67314632D01*
X47679253Y-67314631D01*
X47679251Y-67314631D01*
X47500000Y-67294434D01*
X47320748Y-67314631D01*
X47320745Y-67314631D01*
X47320745Y-67314632D01*
X47150478Y-67374211D01*
X47150476Y-67374211D01*
X47150476Y-67374212D01*
X46997735Y-67470185D01*
X46870185Y-67597735D01*
X46774526Y-67749976D01*
X46774211Y-67750478D01*
X46756716Y-67800476D01*
X46714631Y-67920748D01*
X46694434Y-68099999D01*
X16000500Y-68099999D01*
X16000500Y-65599999D01*
X53994434Y-65599999D01*
X54014631Y-65779251D01*
X54014631Y-65779253D01*
X54014632Y-65779255D01*
X54074211Y-65949522D01*
X54122133Y-66025789D01*
X54170185Y-66102264D01*
X54297735Y-66229814D01*
X54297737Y-66229815D01*
X54297738Y-66229816D01*
X54450478Y-66325789D01*
X54620745Y-66385368D01*
X54800000Y-66405565D01*
X54979255Y-66385368D01*
X55015904Y-66372543D01*
X55079907Y-66367746D01*
X55137738Y-66395594D01*
X55166542Y-66437839D01*
X55166778Y-66437692D01*
X55170726Y-66443976D01*
X55173897Y-66448626D01*
X55174209Y-66449519D01*
X55270185Y-66602264D01*
X55397735Y-66729814D01*
X55397737Y-66729815D01*
X55397738Y-66729816D01*
X55550478Y-66825789D01*
X55720745Y-66885368D01*
X55900000Y-66905565D01*
X56079255Y-66885368D01*
X56249522Y-66825789D01*
X56402262Y-66729816D01*
X56529816Y-66602262D01*
X56625789Y-66449522D01*
X56685368Y-66279255D01*
X56705565Y-66100000D01*
X56694298Y-66000000D01*
X65744434Y-66000000D01*
X65764631Y-66179251D01*
X65764631Y-66179253D01*
X65764632Y-66179255D01*
X65824211Y-66349522D01*
X65868965Y-66420748D01*
X65920185Y-66502264D01*
X66047735Y-66629814D01*
X66047737Y-66629815D01*
X66047738Y-66629816D01*
X66200478Y-66725789D01*
X66370745Y-66785368D01*
X66550000Y-66805565D01*
X66729255Y-66785368D01*
X66899522Y-66725789D01*
X67052262Y-66629816D01*
X67082078Y-66600000D01*
X73794434Y-66600000D01*
X73814631Y-66779251D01*
X73814631Y-66779253D01*
X73814632Y-66779255D01*
X73874211Y-66949522D01*
X73874212Y-66949523D01*
X73970185Y-67102264D01*
X74097735Y-67229814D01*
X74097737Y-67229815D01*
X74097738Y-67229816D01*
X74250478Y-67325789D01*
X74420745Y-67385368D01*
X74600000Y-67405565D01*
X74779255Y-67385368D01*
X74949522Y-67325789D01*
X75102262Y-67229816D01*
X75229816Y-67102262D01*
X75325789Y-66949522D01*
X75385368Y-66779255D01*
X75405565Y-66600000D01*
X75394298Y-66499999D01*
X76594434Y-66499999D01*
X76614631Y-66679251D01*
X76614631Y-66679253D01*
X76614632Y-66679255D01*
X76674211Y-66849522D01*
X76674212Y-66849523D01*
X76770185Y-67002264D01*
X76897735Y-67129814D01*
X76897737Y-67129815D01*
X76897738Y-67129816D01*
X77050478Y-67225789D01*
X77220745Y-67285368D01*
X77400000Y-67305565D01*
X77579255Y-67285368D01*
X77749522Y-67225789D01*
X77902262Y-67129816D01*
X78029816Y-67002262D01*
X78125789Y-66849522D01*
X78185368Y-66679255D01*
X78205565Y-66500000D01*
X78185368Y-66320745D01*
X78125789Y-66150478D01*
X78029816Y-65997738D01*
X78029815Y-65997737D01*
X78029814Y-65997735D01*
X77902264Y-65870185D01*
X77823580Y-65820745D01*
X77749522Y-65774211D01*
X77579255Y-65714632D01*
X77579253Y-65714631D01*
X77579251Y-65714631D01*
X77400000Y-65694434D01*
X77220748Y-65714631D01*
X77220745Y-65714631D01*
X77220745Y-65714632D01*
X77050478Y-65774211D01*
X77050476Y-65774211D01*
X77050476Y-65774212D01*
X76897735Y-65870185D01*
X76770185Y-65997735D01*
X76674212Y-66150476D01*
X76674211Y-66150478D01*
X76629151Y-66279251D01*
X76614631Y-66320748D01*
X76594434Y-66499999D01*
X75394298Y-66499999D01*
X75385368Y-66420745D01*
X75325789Y-66250478D01*
X75281037Y-66179255D01*
X75268954Y-66160024D01*
X75250035Y-66098689D01*
X75264318Y-66036111D01*
X75307977Y-65989059D01*
X75338017Y-65970184D01*
X75402262Y-65929816D01*
X75529816Y-65802262D01*
X75625789Y-65649522D01*
X75685368Y-65479255D01*
X75705565Y-65300000D01*
X75685368Y-65120745D01*
X75643117Y-64999999D01*
X93194434Y-64999999D01*
X93214631Y-65179251D01*
X93214631Y-65179253D01*
X93214632Y-65179255D01*
X93274211Y-65349522D01*
X93318965Y-65420748D01*
X93370185Y-65502264D01*
X93497735Y-65629814D01*
X93497737Y-65629815D01*
X93497738Y-65629816D01*
X93650478Y-65725789D01*
X93820745Y-65785368D01*
X94000000Y-65805565D01*
X94179255Y-65785368D01*
X94349522Y-65725789D01*
X94502262Y-65629816D01*
X94629816Y-65502262D01*
X94725789Y-65349522D01*
X94785368Y-65179255D01*
X94805565Y-65000000D01*
X94785368Y-64820745D01*
X94725789Y-64650478D01*
X94629816Y-64497738D01*
X94629815Y-64497737D01*
X94629814Y-64497735D01*
X94502264Y-64370185D01*
X94439867Y-64330978D01*
X94349522Y-64274211D01*
X94179255Y-64214632D01*
X94179253Y-64214631D01*
X94179251Y-64214631D01*
X94000000Y-64194434D01*
X93820748Y-64214631D01*
X93820745Y-64214631D01*
X93820745Y-64214632D01*
X93650478Y-64274211D01*
X93650476Y-64274211D01*
X93650476Y-64274212D01*
X93497735Y-64370185D01*
X93370185Y-64497735D01*
X93274212Y-64650476D01*
X93274211Y-64650478D01*
X93219944Y-64805565D01*
X93214631Y-64820748D01*
X93194434Y-64999999D01*
X75643117Y-64999999D01*
X75625789Y-64950478D01*
X75529816Y-64797738D01*
X75529815Y-64797737D01*
X75529814Y-64797735D01*
X75402264Y-64670185D01*
X75338014Y-64629814D01*
X75249522Y-64574211D01*
X75079255Y-64514632D01*
X75079253Y-64514631D01*
X75079251Y-64514631D01*
X74900000Y-64494434D01*
X74720748Y-64514631D01*
X74720745Y-64514631D01*
X74720745Y-64514632D01*
X74550478Y-64574211D01*
X74550476Y-64574211D01*
X74550476Y-64574212D01*
X74397735Y-64670185D01*
X74270185Y-64797735D01*
X74222132Y-64874212D01*
X74174211Y-64950478D01*
X74114632Y-65120745D01*
X74114631Y-65120748D01*
X74094434Y-65299999D01*
X74114631Y-65479251D01*
X74114631Y-65479253D01*
X74114632Y-65479255D01*
X74174211Y-65649522D01*
X74174812Y-65650478D01*
X74231045Y-65739973D01*
X74249964Y-65801308D01*
X74235682Y-65863886D01*
X74192024Y-65910938D01*
X74097737Y-65970183D01*
X73970185Y-66097735D01*
X73874212Y-66250476D01*
X73874211Y-66250478D01*
X73847859Y-66325787D01*
X73814631Y-66420748D01*
X73794434Y-66600000D01*
X67082078Y-66600000D01*
X67179816Y-66502262D01*
X67275789Y-66349522D01*
X67335368Y-66179255D01*
X67355565Y-66000000D01*
X67335368Y-65820745D01*
X67275789Y-65650478D01*
X67179816Y-65497738D01*
X67179815Y-65497737D01*
X67179814Y-65497735D01*
X67052264Y-65370185D01*
X66984261Y-65327456D01*
X66899522Y-65274211D01*
X66729255Y-65214632D01*
X66729253Y-65214631D01*
X66729251Y-65214631D01*
X66550000Y-65194434D01*
X66370748Y-65214631D01*
X66370745Y-65214631D01*
X66370745Y-65214632D01*
X66200478Y-65274211D01*
X66200476Y-65274211D01*
X66200476Y-65274212D01*
X66047735Y-65370185D01*
X65920185Y-65497735D01*
X65824811Y-65649523D01*
X65824211Y-65650478D01*
X65771099Y-65802264D01*
X65764631Y-65820748D01*
X65744434Y-66000000D01*
X56694298Y-66000000D01*
X56685368Y-65920745D01*
X56625789Y-65750478D01*
X56529816Y-65597738D01*
X56529815Y-65597737D01*
X56529814Y-65597735D01*
X56402264Y-65470185D01*
X56323580Y-65420745D01*
X56249522Y-65374211D01*
X56079255Y-65314632D01*
X56079253Y-65314631D01*
X56079251Y-65314631D01*
X55900000Y-65294434D01*
X55720747Y-65314631D01*
X55684096Y-65327456D01*
X55620088Y-65332252D01*
X55562258Y-65304402D01*
X55533457Y-65262159D01*
X55533222Y-65262308D01*
X55529263Y-65256007D01*
X55526100Y-65251368D01*
X55525789Y-65250478D01*
X55429816Y-65097738D01*
X55429815Y-65097737D01*
X55429814Y-65097735D01*
X55302264Y-64970185D01*
X55231605Y-64925787D01*
X55149522Y-64874211D01*
X54979255Y-64814632D01*
X54979253Y-64814631D01*
X54979251Y-64814631D01*
X54800000Y-64794434D01*
X54620748Y-64814631D01*
X54620745Y-64814631D01*
X54620745Y-64814632D01*
X54450478Y-64874211D01*
X54450476Y-64874211D01*
X54450476Y-64874212D01*
X54297735Y-64970185D01*
X54170185Y-65097735D01*
X54074212Y-65250476D01*
X54074211Y-65250478D01*
X54065906Y-65274212D01*
X54014631Y-65420748D01*
X53994434Y-65599999D01*
X16000500Y-65599999D01*
X16000500Y-64199999D01*
X50794434Y-64199999D01*
X50814631Y-64379251D01*
X50814631Y-64379253D01*
X50814632Y-64379255D01*
X50874211Y-64549522D01*
X50874212Y-64549523D01*
X50970185Y-64702264D01*
X51097735Y-64829814D01*
X51097737Y-64829815D01*
X51097738Y-64829816D01*
X51250478Y-64925789D01*
X51420745Y-64985368D01*
X51600000Y-65005565D01*
X51779255Y-64985368D01*
X51949522Y-64925789D01*
X52102262Y-64829816D01*
X52229816Y-64702262D01*
X52325789Y-64549522D01*
X52385368Y-64379255D01*
X52405565Y-64200000D01*
X52385368Y-64020745D01*
X52378109Y-64000000D01*
X76394434Y-64000000D01*
X76414631Y-64179251D01*
X76414631Y-64179253D01*
X76414632Y-64179255D01*
X76474211Y-64349522D01*
X76492891Y-64379251D01*
X76570185Y-64502264D01*
X76697735Y-64629814D01*
X76697737Y-64629815D01*
X76697738Y-64629816D01*
X76850478Y-64725789D01*
X77020745Y-64785368D01*
X77200000Y-64805565D01*
X77379255Y-64785368D01*
X77549522Y-64725789D01*
X77702262Y-64629816D01*
X77829816Y-64502262D01*
X77925789Y-64349522D01*
X77985368Y-64179255D01*
X78005565Y-64000000D01*
X77985368Y-63820745D01*
X77957668Y-63741585D01*
X77953819Y-63673040D01*
X77987028Y-63612952D01*
X78047116Y-63579741D01*
X78115663Y-63583590D01*
X78120745Y-63585368D01*
X78300000Y-63605565D01*
X78479255Y-63585368D01*
X78649522Y-63525789D01*
X78802262Y-63429816D01*
X78929816Y-63302262D01*
X79025789Y-63149522D01*
X79085368Y-62979255D01*
X79105565Y-62800000D01*
X79085368Y-62620745D01*
X79060613Y-62549999D01*
X93794434Y-62549999D01*
X93814631Y-62729251D01*
X93814631Y-62729253D01*
X93814632Y-62729255D01*
X93874211Y-62899522D01*
X93874212Y-62899523D01*
X93970185Y-63052264D01*
X94097735Y-63179814D01*
X94097737Y-63179815D01*
X94097738Y-63179816D01*
X94250478Y-63275789D01*
X94420745Y-63335368D01*
X94600000Y-63355565D01*
X94779255Y-63335368D01*
X94949522Y-63275789D01*
X95102262Y-63179816D01*
X95229816Y-63052262D01*
X95325789Y-62899522D01*
X95385368Y-62729255D01*
X95405565Y-62550000D01*
X95385368Y-62370745D01*
X95325789Y-62200478D01*
X95229816Y-62047738D01*
X95229815Y-62047737D01*
X95229814Y-62047735D01*
X95102264Y-61920185D01*
X94958439Y-61829814D01*
X94949522Y-61824211D01*
X94779255Y-61764632D01*
X94779253Y-61764631D01*
X94779251Y-61764631D01*
X94600000Y-61744434D01*
X94420748Y-61764631D01*
X94420745Y-61764631D01*
X94420745Y-61764632D01*
X94250478Y-61824211D01*
X94250476Y-61824211D01*
X94250476Y-61824212D01*
X94097735Y-61920185D01*
X93970185Y-62047735D01*
X93887546Y-62179255D01*
X93874211Y-62200478D01*
X93853301Y-62260235D01*
X93814631Y-62370748D01*
X93794434Y-62549999D01*
X79060613Y-62549999D01*
X79025789Y-62450478D01*
X78929816Y-62297738D01*
X78929815Y-62297737D01*
X78929814Y-62297735D01*
X78802264Y-62170185D01*
X78673114Y-62089035D01*
X78649522Y-62074211D01*
X78479255Y-62014632D01*
X78479253Y-62014631D01*
X78479251Y-62014631D01*
X78300000Y-61994434D01*
X78120748Y-62014631D01*
X78120745Y-62014631D01*
X78120745Y-62014632D01*
X77950478Y-62074211D01*
X77950476Y-62074211D01*
X77950476Y-62074212D01*
X77797735Y-62170185D01*
X77670185Y-62297735D01*
X77574811Y-62449523D01*
X77574211Y-62450478D01*
X77521099Y-62602264D01*
X77514631Y-62620748D01*
X77494434Y-62799999D01*
X77514631Y-62979255D01*
X77542330Y-63058412D01*
X77546180Y-63126958D01*
X77512972Y-63187046D01*
X77452886Y-63220257D01*
X77384340Y-63216410D01*
X77379258Y-63214632D01*
X77200000Y-63194434D01*
X77020748Y-63214631D01*
X77020745Y-63214631D01*
X77020745Y-63214632D01*
X76850478Y-63274211D01*
X76850476Y-63274211D01*
X76850476Y-63274212D01*
X76697735Y-63370185D01*
X76570185Y-63497735D01*
X76474212Y-63650476D01*
X76414631Y-63820748D01*
X76394434Y-64000000D01*
X52378109Y-64000000D01*
X52325789Y-63850478D01*
X52229816Y-63697738D01*
X52229815Y-63697737D01*
X52229814Y-63697735D01*
X52102264Y-63570185D01*
X51986960Y-63497735D01*
X51949522Y-63474211D01*
X51779255Y-63414632D01*
X51779253Y-63414631D01*
X51779251Y-63414631D01*
X51600000Y-63394434D01*
X51420748Y-63414631D01*
X51420745Y-63414631D01*
X51420745Y-63414632D01*
X51250478Y-63474211D01*
X51250476Y-63474211D01*
X51250476Y-63474212D01*
X51097735Y-63570185D01*
X50970185Y-63697735D01*
X50874212Y-63850476D01*
X50814631Y-64020748D01*
X50794434Y-64199999D01*
X16000500Y-64199999D01*
X16000500Y-62644571D01*
X25567558Y-62644571D01*
X25567559Y-62644572D01*
X25790954Y-62811804D01*
X26042047Y-62948911D01*
X26310097Y-63048888D01*
X26589642Y-63109699D01*
X26875000Y-63130109D01*
X27160357Y-63109699D01*
X27439902Y-63048888D01*
X27707952Y-62948911D01*
X27959041Y-62811806D01*
X28182440Y-62644571D01*
X31817558Y-62644571D01*
X31817559Y-62644572D01*
X32040954Y-62811804D01*
X32292047Y-62948911D01*
X32560097Y-63048888D01*
X32839642Y-63109699D01*
X33125000Y-63130109D01*
X33410357Y-63109699D01*
X33689902Y-63048888D01*
X33957952Y-62948911D01*
X34209041Y-62811806D01*
X34432440Y-62644571D01*
X33125000Y-61337132D01*
X31817558Y-62644571D01*
X28182440Y-62644571D01*
X26875000Y-61337132D01*
X25567558Y-62644571D01*
X16000500Y-62644571D01*
X16000500Y-61124999D01*
X24869890Y-61124999D01*
X24890300Y-61410357D01*
X24951111Y-61689902D01*
X25051088Y-61957952D01*
X25188195Y-62209045D01*
X25355426Y-62432439D01*
X25355427Y-62432440D01*
X26662868Y-61125001D01*
X26662868Y-61125000D01*
X27087132Y-61125000D01*
X28394571Y-62432440D01*
X28561806Y-62209041D01*
X28698911Y-61957952D01*
X28798888Y-61689902D01*
X28859699Y-61410357D01*
X28880109Y-61124999D01*
X31119890Y-61124999D01*
X31140300Y-61410357D01*
X31201111Y-61689902D01*
X31301088Y-61957952D01*
X31438195Y-62209045D01*
X31605426Y-62432439D01*
X31605427Y-62432440D01*
X32912868Y-61125001D01*
X32912868Y-61125000D01*
X33337132Y-61125000D01*
X34644571Y-62432440D01*
X34811806Y-62209041D01*
X34871347Y-62099999D01*
X66294434Y-62099999D01*
X66314631Y-62279251D01*
X66314631Y-62279253D01*
X66314632Y-62279255D01*
X66374211Y-62449522D01*
X66374812Y-62450478D01*
X66470185Y-62602264D01*
X66597735Y-62729814D01*
X66597737Y-62729815D01*
X66597738Y-62729816D01*
X66750478Y-62825789D01*
X66920745Y-62885368D01*
X67100000Y-62905565D01*
X67279255Y-62885368D01*
X67449522Y-62825789D01*
X67602262Y-62729816D01*
X67729816Y-62602262D01*
X67825789Y-62449522D01*
X67885368Y-62279255D01*
X67905565Y-62100000D01*
X67885368Y-61920745D01*
X67825789Y-61750478D01*
X67729816Y-61597738D01*
X67729815Y-61597737D01*
X67729814Y-61597735D01*
X67602264Y-61470185D01*
X67457543Y-61379251D01*
X67449522Y-61374211D01*
X67279255Y-61314632D01*
X67279253Y-61314631D01*
X67279251Y-61314631D01*
X67100000Y-61294434D01*
X66920748Y-61314631D01*
X66920745Y-61314631D01*
X66920745Y-61314632D01*
X66750478Y-61374211D01*
X66750476Y-61374211D01*
X66750476Y-61374212D01*
X66597735Y-61470185D01*
X66470185Y-61597735D01*
X66378008Y-61744435D01*
X66374211Y-61750478D01*
X66314828Y-61920184D01*
X66314631Y-61920748D01*
X66294434Y-62099999D01*
X34871347Y-62099999D01*
X34948911Y-61957952D01*
X35048888Y-61689902D01*
X35109699Y-61410357D01*
X35124745Y-61199999D01*
X50394434Y-61199999D01*
X50414631Y-61379251D01*
X50414631Y-61379253D01*
X50414632Y-61379255D01*
X50474211Y-61549522D01*
X50504505Y-61597735D01*
X50570185Y-61702264D01*
X50697735Y-61829814D01*
X50697737Y-61829815D01*
X50697738Y-61829816D01*
X50850478Y-61925789D01*
X51020745Y-61985368D01*
X51200000Y-62005565D01*
X51379255Y-61985368D01*
X51549522Y-61925789D01*
X51702262Y-61829816D01*
X51829816Y-61702262D01*
X51925789Y-61549522D01*
X51985368Y-61379255D01*
X52005565Y-61200000D01*
X52005565Y-61199999D01*
X53294434Y-61199999D01*
X53314631Y-61379251D01*
X53314631Y-61379253D01*
X53314632Y-61379255D01*
X53374211Y-61549522D01*
X53404505Y-61597735D01*
X53470185Y-61702264D01*
X53597735Y-61829814D01*
X53597737Y-61829815D01*
X53597738Y-61829816D01*
X53750478Y-61925789D01*
X53920745Y-61985368D01*
X54100000Y-62005565D01*
X54279255Y-61985368D01*
X54449522Y-61925789D01*
X54602262Y-61829816D01*
X54729816Y-61702262D01*
X54825789Y-61549522D01*
X54885368Y-61379255D01*
X54905565Y-61200000D01*
X54885368Y-61020745D01*
X54825789Y-60850478D01*
X54729816Y-60697738D01*
X54729815Y-60697737D01*
X54729814Y-60697735D01*
X54602264Y-60570185D01*
X54461776Y-60481911D01*
X54449522Y-60474211D01*
X54279255Y-60414632D01*
X54279253Y-60414631D01*
X54279251Y-60414631D01*
X54149390Y-60399999D01*
X73794434Y-60399999D01*
X73814631Y-60579251D01*
X73814631Y-60579253D01*
X73814632Y-60579255D01*
X73874211Y-60749522D01*
X73930837Y-60839642D01*
X73970185Y-60902264D01*
X74097737Y-61029816D01*
X74182859Y-61083301D01*
X74238222Y-61118088D01*
X74277243Y-61157108D01*
X74295470Y-61209197D01*
X74314631Y-61379250D01*
X74314631Y-61379251D01*
X74314632Y-61379255D01*
X74374211Y-61549522D01*
X74404505Y-61597735D01*
X74470185Y-61702264D01*
X74597735Y-61829814D01*
X74597737Y-61829815D01*
X74597738Y-61829816D01*
X74742455Y-61920748D01*
X74750480Y-61925790D01*
X74922201Y-61985878D01*
X74978193Y-62025606D01*
X75004466Y-62089035D01*
X75014631Y-62179250D01*
X75014631Y-62179251D01*
X75014632Y-62179255D01*
X75074211Y-62349522D01*
X75087548Y-62370748D01*
X75170185Y-62502264D01*
X75297735Y-62629814D01*
X75297737Y-62629815D01*
X75297738Y-62629816D01*
X75450478Y-62725789D01*
X75620745Y-62785368D01*
X75800000Y-62805565D01*
X75979255Y-62785368D01*
X76149522Y-62725789D01*
X76302262Y-62629816D01*
X76429816Y-62502262D01*
X76525789Y-62349522D01*
X76585368Y-62179255D01*
X76605565Y-62000000D01*
X76585368Y-61820745D01*
X76525789Y-61650478D01*
X76429816Y-61497738D01*
X76429815Y-61497737D01*
X76429814Y-61497735D01*
X76302264Y-61370185D01*
X76149519Y-61274209D01*
X75977798Y-61214121D01*
X75921806Y-61174392D01*
X75895533Y-61110963D01*
X75886390Y-61029816D01*
X75885368Y-61020745D01*
X75825789Y-60850478D01*
X75750676Y-60730937D01*
X95315630Y-60730937D01*
X95346443Y-60932071D01*
X95417113Y-61122886D01*
X95524745Y-61295568D01*
X95524748Y-61295571D01*
X95664941Y-61443053D01*
X95831951Y-61559295D01*
X96018942Y-61639540D01*
X96218259Y-61680500D01*
X96769409Y-61680500D01*
X96827862Y-61695142D01*
X96872511Y-61735609D01*
X96892812Y-61792346D01*
X96883970Y-61851953D01*
X96839312Y-61959764D01*
X96819533Y-62109999D01*
X96839312Y-62260235D01*
X96885089Y-62370748D01*
X96897302Y-62400233D01*
X96989549Y-62520451D01*
X97109767Y-62612698D01*
X97249763Y-62670686D01*
X97249764Y-62670687D01*
X97362279Y-62685500D01*
X97362280Y-62685500D01*
X97437720Y-62685500D01*
X97437721Y-62685500D01*
X97493978Y-62678093D01*
X97550236Y-62670687D01*
X97690233Y-62612698D01*
X97810451Y-62520451D01*
X97902698Y-62400233D01*
X97960687Y-62260236D01*
X97980466Y-62110000D01*
X97979149Y-62100000D01*
X97960687Y-61959764D01*
X97906860Y-61829816D01*
X97902698Y-61819767D01*
X97848507Y-61749144D01*
X97826005Y-61701306D01*
X97825475Y-61648442D01*
X97847014Y-61600161D01*
X97886707Y-61565240D01*
X97899745Y-61558002D01*
X97994502Y-61505409D01*
X98148895Y-61372866D01*
X98273448Y-61211958D01*
X98363060Y-61029271D01*
X98414063Y-60832285D01*
X98419203Y-60730937D01*
X99745630Y-60730937D01*
X99776443Y-60932071D01*
X99847113Y-61122886D01*
X99954745Y-61295568D01*
X99954748Y-61295571D01*
X100094941Y-61443053D01*
X100261951Y-61559295D01*
X100448942Y-61639540D01*
X100648259Y-61680500D01*
X101400740Y-61680500D01*
X101400742Y-61680500D01*
X101552438Y-61665074D01*
X101746588Y-61604159D01*
X101924502Y-61505409D01*
X102078895Y-61372866D01*
X102203448Y-61211958D01*
X102293060Y-61029271D01*
X102344063Y-60832285D01*
X102354369Y-60629064D01*
X102346738Y-60579255D01*
X102323556Y-60427928D01*
X102252886Y-60237113D01*
X102145254Y-60064431D01*
X102131990Y-60050478D01*
X102005059Y-59916947D01*
X101838049Y-59800705D01*
X101651058Y-59720460D01*
X101451741Y-59679500D01*
X100699258Y-59679500D01*
X100638579Y-59685670D01*
X100547559Y-59694926D01*
X100353412Y-59755841D01*
X100175500Y-59854589D01*
X100125238Y-59897738D01*
X100023363Y-59985196D01*
X100021104Y-59987135D01*
X99896551Y-60148042D01*
X99806940Y-60330727D01*
X99781773Y-60427929D01*
X99767797Y-60481911D01*
X99755937Y-60527716D01*
X99745630Y-60730937D01*
X98419203Y-60730937D01*
X98424369Y-60629064D01*
X98416738Y-60579255D01*
X98393556Y-60427928D01*
X98322886Y-60237113D01*
X98215254Y-60064431D01*
X98201990Y-60050478D01*
X98075059Y-59916947D01*
X97908049Y-59800705D01*
X97721058Y-59720460D01*
X97521741Y-59679500D01*
X96269258Y-59679500D01*
X96208579Y-59685670D01*
X96117559Y-59694926D01*
X95923412Y-59755841D01*
X95745500Y-59854589D01*
X95695238Y-59897738D01*
X95593363Y-59985196D01*
X95591104Y-59987135D01*
X95466551Y-60148042D01*
X95376940Y-60330727D01*
X95351773Y-60427929D01*
X95337797Y-60481911D01*
X95325937Y-60527716D01*
X95315630Y-60730937D01*
X75750676Y-60730937D01*
X75729816Y-60697738D01*
X75729815Y-60697737D01*
X75729814Y-60697735D01*
X75602263Y-60570184D01*
X75461777Y-60481911D01*
X75422755Y-60442889D01*
X75404529Y-60390801D01*
X75385368Y-60220748D01*
X75385368Y-60220745D01*
X75325789Y-60050478D01*
X75229816Y-59897738D01*
X75229815Y-59897737D01*
X75229814Y-59897735D01*
X75102264Y-59770185D01*
X75023127Y-59720460D01*
X74949522Y-59674211D01*
X74779255Y-59614632D01*
X74779253Y-59614631D01*
X74779251Y-59614631D01*
X74600000Y-59594434D01*
X74420748Y-59614631D01*
X74420745Y-59614631D01*
X74420745Y-59614632D01*
X74250478Y-59674211D01*
X74250476Y-59674211D01*
X74250476Y-59674212D01*
X74097735Y-59770185D01*
X73970185Y-59897735D01*
X73874212Y-60050476D01*
X73874211Y-60050478D01*
X73869329Y-60064431D01*
X73814631Y-60220748D01*
X73794434Y-60399999D01*
X54149390Y-60399999D01*
X54100000Y-60394434D01*
X53920748Y-60414631D01*
X53920745Y-60414631D01*
X53920745Y-60414632D01*
X53750478Y-60474211D01*
X53750476Y-60474211D01*
X53750476Y-60474212D01*
X53597735Y-60570185D01*
X53470185Y-60697735D01*
X53374212Y-60850476D01*
X53374211Y-60850478D01*
X53314632Y-61020745D01*
X53314631Y-61020748D01*
X53294434Y-61199999D01*
X52005565Y-61199999D01*
X51985368Y-61020745D01*
X51925789Y-60850478D01*
X51829816Y-60697738D01*
X51829815Y-60697737D01*
X51829814Y-60697735D01*
X51702264Y-60570185D01*
X51561776Y-60481911D01*
X51549522Y-60474211D01*
X51379255Y-60414632D01*
X51379253Y-60414631D01*
X51379251Y-60414631D01*
X51200000Y-60394434D01*
X51020748Y-60414631D01*
X51020745Y-60414631D01*
X51020745Y-60414632D01*
X50850478Y-60474211D01*
X50850476Y-60474211D01*
X50850476Y-60474212D01*
X50697735Y-60570185D01*
X50570185Y-60697735D01*
X50474212Y-60850476D01*
X50474211Y-60850478D01*
X50414632Y-61020745D01*
X50414631Y-61020748D01*
X50394434Y-61199999D01*
X35124745Y-61199999D01*
X35130109Y-61124999D01*
X35109699Y-60839642D01*
X35048888Y-60560097D01*
X34948911Y-60292047D01*
X34811804Y-60040954D01*
X34644572Y-59817559D01*
X34644571Y-59817558D01*
X33337132Y-61125000D01*
X32912868Y-61125000D01*
X31605426Y-59817558D01*
X31438195Y-60040955D01*
X31301088Y-60292047D01*
X31201111Y-60560097D01*
X31140300Y-60839642D01*
X31119890Y-61124999D01*
X28880109Y-61124999D01*
X28859699Y-60839642D01*
X28798888Y-60560097D01*
X28698911Y-60292047D01*
X28561804Y-60040954D01*
X28394572Y-59817559D01*
X28394571Y-59817558D01*
X27087132Y-61125000D01*
X26662868Y-61125000D01*
X25355426Y-59817558D01*
X25188195Y-60040955D01*
X25051088Y-60292047D01*
X24951111Y-60560097D01*
X24890300Y-60839642D01*
X24869890Y-61124999D01*
X16000500Y-61124999D01*
X16000500Y-59605426D01*
X25567558Y-59605426D01*
X26875000Y-60912868D01*
X26875001Y-60912868D01*
X28182440Y-59605427D01*
X28182439Y-59605426D01*
X27959045Y-59438195D01*
X27707952Y-59301088D01*
X27439902Y-59201111D01*
X27160357Y-59140300D01*
X26875000Y-59119890D01*
X26589642Y-59140300D01*
X26310097Y-59201111D01*
X26042047Y-59301088D01*
X25790955Y-59438195D01*
X25567558Y-59605426D01*
X16000500Y-59605426D01*
X16000500Y-57999999D01*
X27994389Y-57999999D01*
X28014804Y-58285429D01*
X28075629Y-58565041D01*
X28075631Y-58565046D01*
X28174385Y-58829816D01*
X28175634Y-58833163D01*
X28312772Y-59084313D01*
X28354684Y-59140300D01*
X28484261Y-59313395D01*
X28686605Y-59515739D01*
X28818711Y-59614632D01*
X28915686Y-59687227D01*
X28929786Y-59694926D01*
X29166839Y-59824367D01*
X29434954Y-59924369D01*
X29434957Y-59924369D01*
X29434958Y-59924370D01*
X29487217Y-59935738D01*
X29714572Y-59985196D01*
X30000000Y-60005610D01*
X30285428Y-59985196D01*
X30565046Y-59924369D01*
X30833161Y-59824367D01*
X31084315Y-59687226D01*
X31193587Y-59605426D01*
X31817558Y-59605426D01*
X33125000Y-60912868D01*
X33125001Y-60912868D01*
X34432440Y-59605427D01*
X34432439Y-59605426D01*
X34209045Y-59438195D01*
X33957952Y-59301088D01*
X33689902Y-59201111D01*
X33410357Y-59140300D01*
X33125000Y-59119890D01*
X32839642Y-59140300D01*
X32560097Y-59201111D01*
X32292047Y-59301088D01*
X32040955Y-59438195D01*
X31817558Y-59605426D01*
X31193587Y-59605426D01*
X31313395Y-59515739D01*
X31515739Y-59313395D01*
X31687226Y-59084315D01*
X31824367Y-58833161D01*
X31924369Y-58565046D01*
X31938519Y-58499999D01*
X72594434Y-58499999D01*
X72614631Y-58679251D01*
X72614631Y-58679253D01*
X72614632Y-58679255D01*
X72674211Y-58849522D01*
X72674212Y-58849523D01*
X72770185Y-59002264D01*
X72897735Y-59129814D01*
X72897737Y-59129815D01*
X72897738Y-59129816D01*
X73050478Y-59225789D01*
X73220745Y-59285368D01*
X73400000Y-59305565D01*
X73579255Y-59285368D01*
X73749522Y-59225789D01*
X73902262Y-59129816D01*
X74029816Y-59002262D01*
X74125789Y-58849522D01*
X74185368Y-58679255D01*
X74205565Y-58500000D01*
X74185368Y-58320745D01*
X74125789Y-58150478D01*
X74029816Y-57997738D01*
X74029815Y-57997737D01*
X74029814Y-57997735D01*
X73902264Y-57870185D01*
X73823580Y-57820745D01*
X73749522Y-57774211D01*
X73579255Y-57714632D01*
X73579253Y-57714631D01*
X73579251Y-57714631D01*
X73449390Y-57699999D01*
X74794434Y-57699999D01*
X74814631Y-57879251D01*
X74814631Y-57879253D01*
X74814632Y-57879255D01*
X74874211Y-58049522D01*
X74874212Y-58049523D01*
X74970185Y-58202264D01*
X75097735Y-58329814D01*
X75097737Y-58329815D01*
X75097738Y-58329816D01*
X75250478Y-58425789D01*
X75420745Y-58485368D01*
X75600000Y-58505565D01*
X75779255Y-58485368D01*
X75949522Y-58425789D01*
X76102262Y-58329816D01*
X76229816Y-58202262D01*
X76231238Y-58199999D01*
X85694434Y-58199999D01*
X85714631Y-58379251D01*
X85714631Y-58379253D01*
X85714632Y-58379255D01*
X85774211Y-58549522D01*
X85824662Y-58629814D01*
X85870185Y-58702264D01*
X85997735Y-58829814D01*
X85997737Y-58829815D01*
X85997738Y-58829816D01*
X86150478Y-58925789D01*
X86320745Y-58985368D01*
X86500000Y-59005565D01*
X86679255Y-58985368D01*
X86849522Y-58925789D01*
X87002262Y-58829816D01*
X87129816Y-58702262D01*
X87225789Y-58549522D01*
X87285368Y-58379255D01*
X87305565Y-58200000D01*
X87285368Y-58020745D01*
X87278109Y-58000000D01*
X96744434Y-58000000D01*
X96764631Y-58179251D01*
X96764631Y-58179253D01*
X96764632Y-58179255D01*
X96824211Y-58349522D01*
X96824212Y-58349523D01*
X96920185Y-58502264D01*
X97047735Y-58629814D01*
X97047737Y-58629815D01*
X97047738Y-58629816D01*
X97200478Y-58725789D01*
X97370745Y-58785368D01*
X97550000Y-58805565D01*
X97729255Y-58785368D01*
X97899522Y-58725789D01*
X98052262Y-58629816D01*
X98179816Y-58502262D01*
X98275789Y-58349522D01*
X98335368Y-58179255D01*
X98355565Y-58000000D01*
X98335368Y-57820745D01*
X98275789Y-57650478D01*
X98179816Y-57497738D01*
X98179815Y-57497737D01*
X98179814Y-57497735D01*
X98052264Y-57370185D01*
X97907543Y-57279251D01*
X97899522Y-57274211D01*
X97729255Y-57214632D01*
X97729253Y-57214631D01*
X97729251Y-57214631D01*
X97550000Y-57194434D01*
X97370748Y-57214631D01*
X97370745Y-57214631D01*
X97370745Y-57214632D01*
X97200478Y-57274211D01*
X97200476Y-57274211D01*
X97200476Y-57274212D01*
X97047735Y-57370185D01*
X96920185Y-57497735D01*
X96824212Y-57650476D01*
X96824211Y-57650478D01*
X96780915Y-57774211D01*
X96764631Y-57820748D01*
X96744434Y-58000000D01*
X87278109Y-58000000D01*
X87225789Y-57850478D01*
X87129816Y-57697738D01*
X87129815Y-57697737D01*
X87129814Y-57697735D01*
X87002264Y-57570185D01*
X86886960Y-57497735D01*
X86849522Y-57474211D01*
X86679255Y-57414632D01*
X86679253Y-57414631D01*
X86679251Y-57414631D01*
X86500000Y-57394434D01*
X86320748Y-57414631D01*
X86320745Y-57414631D01*
X86320745Y-57414632D01*
X86150478Y-57474211D01*
X86150476Y-57474211D01*
X86150476Y-57474212D01*
X85997735Y-57570185D01*
X85870185Y-57697735D01*
X85789725Y-57825787D01*
X85774211Y-57850478D01*
X85721891Y-57999999D01*
X85714631Y-58020748D01*
X85694434Y-58199999D01*
X76231238Y-58199999D01*
X76325789Y-58049522D01*
X76385368Y-57879255D01*
X76405565Y-57700000D01*
X76385368Y-57520745D01*
X76325789Y-57350478D01*
X76229816Y-57197738D01*
X76229815Y-57197737D01*
X76229814Y-57197735D01*
X76102264Y-57070185D01*
X76039867Y-57030979D01*
X75949522Y-56974211D01*
X75779255Y-56914632D01*
X75779253Y-56914631D01*
X75779251Y-56914631D01*
X75600000Y-56894434D01*
X75420748Y-56914631D01*
X75420745Y-56914631D01*
X75420745Y-56914632D01*
X75250478Y-56974211D01*
X75250476Y-56974211D01*
X75250476Y-56974212D01*
X75097735Y-57070185D01*
X74970185Y-57197735D01*
X74874212Y-57350476D01*
X74874211Y-57350478D01*
X74814632Y-57520745D01*
X74814631Y-57520748D01*
X74794434Y-57699999D01*
X73449390Y-57699999D01*
X73400000Y-57694434D01*
X73220748Y-57714631D01*
X73220745Y-57714631D01*
X73220745Y-57714632D01*
X73050478Y-57774211D01*
X73050476Y-57774211D01*
X73050476Y-57774212D01*
X72897735Y-57870185D01*
X72770185Y-57997735D01*
X72737645Y-58049523D01*
X72674211Y-58150478D01*
X72626990Y-58285428D01*
X72614631Y-58320748D01*
X72594434Y-58499999D01*
X31938519Y-58499999D01*
X31985196Y-58285428D01*
X32005610Y-58000000D01*
X31985196Y-57714572D01*
X31924369Y-57434954D01*
X31824367Y-57166839D01*
X31763535Y-57055435D01*
X31687227Y-56915686D01*
X31600625Y-56800000D01*
X31515739Y-56686605D01*
X31313395Y-56484261D01*
X31193583Y-56394571D01*
X31817558Y-56394571D01*
X31817559Y-56394572D01*
X32040954Y-56561804D01*
X32292047Y-56698911D01*
X32560097Y-56798888D01*
X32839642Y-56859699D01*
X33125000Y-56880109D01*
X33410357Y-56859699D01*
X33689902Y-56798888D01*
X33957952Y-56698911D01*
X34209041Y-56561806D01*
X34432440Y-56394571D01*
X33125000Y-55087132D01*
X31817558Y-56394571D01*
X31193583Y-56394571D01*
X31133405Y-56349522D01*
X31084313Y-56312772D01*
X30833163Y-56175634D01*
X30833162Y-56175633D01*
X30833161Y-56175633D01*
X30565046Y-56075631D01*
X30565041Y-56075629D01*
X30285429Y-56014804D01*
X30000000Y-55994389D01*
X29714570Y-56014804D01*
X29434958Y-56075629D01*
X29166836Y-56175634D01*
X28915686Y-56312772D01*
X28686602Y-56484263D01*
X28484263Y-56686602D01*
X28312772Y-56915686D01*
X28175634Y-57166836D01*
X28075629Y-57434958D01*
X28014804Y-57714570D01*
X27994389Y-57999999D01*
X16000500Y-57999999D01*
X16000500Y-56394571D01*
X25567558Y-56394571D01*
X25567559Y-56394572D01*
X25790954Y-56561804D01*
X26042047Y-56698911D01*
X26310097Y-56798888D01*
X26589642Y-56859699D01*
X26875000Y-56880109D01*
X27160357Y-56859699D01*
X27439902Y-56798888D01*
X27707952Y-56698911D01*
X27959041Y-56561806D01*
X28182440Y-56394571D01*
X26875000Y-55087132D01*
X25567558Y-56394571D01*
X16000500Y-56394571D01*
X16000500Y-54875000D01*
X24869890Y-54875000D01*
X24890300Y-55160357D01*
X24951111Y-55439902D01*
X25051088Y-55707952D01*
X25188195Y-55959045D01*
X25355426Y-56182439D01*
X25355427Y-56182440D01*
X26662868Y-54875001D01*
X26662868Y-54875000D01*
X27087132Y-54875000D01*
X28394571Y-56182440D01*
X28561806Y-55959041D01*
X28698911Y-55707952D01*
X28798888Y-55439902D01*
X28859699Y-55160357D01*
X28880109Y-54875000D01*
X31119890Y-54875000D01*
X31140300Y-55160357D01*
X31201111Y-55439902D01*
X31301088Y-55707952D01*
X31438195Y-55959045D01*
X31605426Y-56182439D01*
X31605427Y-56182440D01*
X32912868Y-54875001D01*
X32912868Y-54875000D01*
X33337132Y-54875000D01*
X34644571Y-56182440D01*
X34781144Y-56000000D01*
X38194434Y-56000000D01*
X38214631Y-56179251D01*
X38214631Y-56179253D01*
X38214632Y-56179255D01*
X38274211Y-56349522D01*
X38274212Y-56349523D01*
X38370185Y-56502264D01*
X38497735Y-56629814D01*
X38497737Y-56629815D01*
X38497738Y-56629816D01*
X38650478Y-56725789D01*
X38820745Y-56785368D01*
X39000000Y-56805565D01*
X39179255Y-56785368D01*
X39349522Y-56725789D01*
X39502262Y-56629816D01*
X39629816Y-56502262D01*
X39725789Y-56349522D01*
X39785368Y-56179255D01*
X39805565Y-56000000D01*
X39805565Y-55999999D01*
X41194434Y-55999999D01*
X41214631Y-56179251D01*
X41214631Y-56179253D01*
X41214632Y-56179255D01*
X41274211Y-56349522D01*
X41274212Y-56349523D01*
X41370185Y-56502264D01*
X41497735Y-56629814D01*
X41497737Y-56629815D01*
X41497738Y-56629816D01*
X41650478Y-56725789D01*
X41820745Y-56785368D01*
X42000000Y-56805565D01*
X42179255Y-56785368D01*
X42349522Y-56725789D01*
X42502262Y-56629816D01*
X42629816Y-56502262D01*
X42725789Y-56349522D01*
X42778109Y-56199999D01*
X53994434Y-56199999D01*
X54014631Y-56379251D01*
X54014631Y-56379253D01*
X54014632Y-56379255D01*
X54074211Y-56549522D01*
X54118965Y-56620748D01*
X54170185Y-56702264D01*
X54297735Y-56829814D01*
X54297737Y-56829815D01*
X54297738Y-56829816D01*
X54450478Y-56925789D01*
X54620745Y-56985368D01*
X54755186Y-57000515D01*
X54799999Y-57005565D01*
X54799999Y-57005564D01*
X54800000Y-57005565D01*
X54979255Y-56985368D01*
X55149522Y-56925789D01*
X55302262Y-56829816D01*
X55332078Y-56800000D01*
X66894434Y-56800000D01*
X66914631Y-56979251D01*
X66914631Y-56979253D01*
X66914632Y-56979255D01*
X66974211Y-57149522D01*
X66974212Y-57149523D01*
X67070185Y-57302264D01*
X67197735Y-57429814D01*
X67197737Y-57429815D01*
X67197738Y-57429816D01*
X67350478Y-57525789D01*
X67520745Y-57585368D01*
X67655186Y-57600515D01*
X67699999Y-57605565D01*
X67699999Y-57605564D01*
X67700000Y-57605565D01*
X67879255Y-57585368D01*
X68049522Y-57525789D01*
X68202262Y-57429816D01*
X68329816Y-57302262D01*
X68425789Y-57149522D01*
X68443118Y-57099999D01*
X70994434Y-57099999D01*
X71014631Y-57279251D01*
X71014631Y-57279253D01*
X71014632Y-57279255D01*
X71074211Y-57449522D01*
X71118965Y-57520748D01*
X71170185Y-57602264D01*
X71297735Y-57729814D01*
X71297737Y-57729815D01*
X71297738Y-57729816D01*
X71450478Y-57825789D01*
X71620745Y-57885368D01*
X71800000Y-57905565D01*
X71979255Y-57885368D01*
X72149522Y-57825789D01*
X72302262Y-57729816D01*
X72429816Y-57602262D01*
X72525789Y-57449522D01*
X72585368Y-57279255D01*
X72605565Y-57100000D01*
X72585368Y-56920745D01*
X72525789Y-56750478D01*
X72429816Y-56597738D01*
X72429815Y-56597737D01*
X72429814Y-56597735D01*
X72302264Y-56470185D01*
X72181926Y-56394572D01*
X72149522Y-56374211D01*
X71979255Y-56314632D01*
X71979253Y-56314631D01*
X71979251Y-56314631D01*
X71800000Y-56294434D01*
X71620748Y-56314631D01*
X71620745Y-56314631D01*
X71620745Y-56314632D01*
X71450478Y-56374211D01*
X71450476Y-56374211D01*
X71450476Y-56374212D01*
X71297735Y-56470185D01*
X71170185Y-56597735D01*
X71089725Y-56725787D01*
X71074211Y-56750478D01*
X71035993Y-56859699D01*
X71014631Y-56920748D01*
X70994434Y-57099999D01*
X68443118Y-57099999D01*
X68485368Y-56979255D01*
X68505565Y-56800000D01*
X68485368Y-56620745D01*
X68425789Y-56450478D01*
X68329816Y-56297738D01*
X68329815Y-56297737D01*
X68329814Y-56297735D01*
X68202264Y-56170185D01*
X68139867Y-56130979D01*
X68049522Y-56074211D01*
X67879255Y-56014632D01*
X67879253Y-56014631D01*
X67879251Y-56014631D01*
X67700000Y-55994434D01*
X67520748Y-56014631D01*
X67520745Y-56014631D01*
X67520745Y-56014632D01*
X67350478Y-56074211D01*
X67350476Y-56074211D01*
X67350476Y-56074212D01*
X67197735Y-56170185D01*
X67070185Y-56297735D01*
X66974212Y-56450476D01*
X66974211Y-56450478D01*
X66919944Y-56605565D01*
X66914631Y-56620748D01*
X66894434Y-56800000D01*
X55332078Y-56800000D01*
X55429816Y-56702262D01*
X55525789Y-56549522D01*
X55585368Y-56379255D01*
X55605565Y-56200000D01*
X55603586Y-56182440D01*
X55585368Y-56020748D01*
X55585368Y-56020745D01*
X55525789Y-55850478D01*
X55429816Y-55697738D01*
X55429815Y-55697737D01*
X55429814Y-55697735D01*
X55302264Y-55570185D01*
X55239867Y-55530979D01*
X55149522Y-55474211D01*
X54979255Y-55414632D01*
X54979253Y-55414631D01*
X54979251Y-55414631D01*
X54799999Y-55394434D01*
X54620748Y-55414631D01*
X54620745Y-55414631D01*
X54620745Y-55414632D01*
X54450478Y-55474211D01*
X54450476Y-55474211D01*
X54450476Y-55474212D01*
X54297735Y-55570185D01*
X54170185Y-55697735D01*
X54074212Y-55850476D01*
X54014631Y-56020748D01*
X53994434Y-56199999D01*
X42778109Y-56199999D01*
X42785368Y-56179255D01*
X42805565Y-56000000D01*
X42785368Y-55820745D01*
X42725789Y-55650478D01*
X42629816Y-55497738D01*
X42629815Y-55497737D01*
X42629814Y-55497735D01*
X42502264Y-55370185D01*
X42386960Y-55297735D01*
X42349522Y-55274211D01*
X42179255Y-55214632D01*
X42179253Y-55214631D01*
X42179251Y-55214631D01*
X42000000Y-55194434D01*
X41820748Y-55214631D01*
X41820745Y-55214631D01*
X41820745Y-55214632D01*
X41650478Y-55274211D01*
X41650476Y-55274211D01*
X41650476Y-55274212D01*
X41497735Y-55370185D01*
X41370185Y-55497735D01*
X41274212Y-55650476D01*
X41214631Y-55820748D01*
X41194434Y-55999999D01*
X39805565Y-55999999D01*
X39785368Y-55820745D01*
X39725789Y-55650478D01*
X39629816Y-55497738D01*
X39629815Y-55497737D01*
X39629814Y-55497735D01*
X39502264Y-55370185D01*
X39386960Y-55297735D01*
X39349522Y-55274211D01*
X39179255Y-55214632D01*
X39179253Y-55214631D01*
X39179251Y-55214631D01*
X39000000Y-55194434D01*
X38820748Y-55214631D01*
X38820745Y-55214631D01*
X38820745Y-55214632D01*
X38650478Y-55274211D01*
X38650476Y-55274211D01*
X38650476Y-55274212D01*
X38497735Y-55370185D01*
X38370185Y-55497735D01*
X38274212Y-55650476D01*
X38214631Y-55820748D01*
X38194434Y-56000000D01*
X34781144Y-56000000D01*
X34811806Y-55959041D01*
X34948911Y-55707952D01*
X35048888Y-55439902D01*
X35109699Y-55160357D01*
X35130109Y-54875000D01*
X35117592Y-54700000D01*
X74994434Y-54700000D01*
X75014631Y-54879251D01*
X75014631Y-54879253D01*
X75014632Y-54879255D01*
X75074211Y-55049522D01*
X75074212Y-55049523D01*
X75170185Y-55202264D01*
X75297735Y-55329814D01*
X75297737Y-55329815D01*
X75297738Y-55329816D01*
X75450478Y-55425789D01*
X75620745Y-55485368D01*
X75800000Y-55505565D01*
X75979255Y-55485368D01*
X76149522Y-55425789D01*
X76302262Y-55329816D01*
X76429816Y-55202262D01*
X76525789Y-55049522D01*
X76585368Y-54879255D01*
X76605565Y-54700000D01*
X76594298Y-54600000D01*
X77894434Y-54600000D01*
X77914631Y-54779251D01*
X77914631Y-54779253D01*
X77914632Y-54779255D01*
X77974211Y-54949522D01*
X78006360Y-55000686D01*
X78070185Y-55102264D01*
X78197735Y-55229814D01*
X78197737Y-55229815D01*
X78197738Y-55229816D01*
X78350478Y-55325789D01*
X78520745Y-55385368D01*
X78655186Y-55400515D01*
X78699999Y-55405565D01*
X78699999Y-55405564D01*
X78700000Y-55405565D01*
X78879255Y-55385368D01*
X79049522Y-55325789D01*
X79202262Y-55229816D01*
X79329816Y-55102262D01*
X79394072Y-54999999D01*
X91644434Y-54999999D01*
X91664631Y-55179251D01*
X91664631Y-55179253D01*
X91664632Y-55179255D01*
X91724211Y-55349522D01*
X91746735Y-55385368D01*
X91820185Y-55502264D01*
X91947735Y-55629814D01*
X91947737Y-55629815D01*
X91947738Y-55629816D01*
X92100478Y-55725789D01*
X92270745Y-55785368D01*
X92296092Y-55788223D01*
X92348176Y-55806448D01*
X92387199Y-55845470D01*
X92405426Y-55897558D01*
X92414631Y-55979251D01*
X92414631Y-55979253D01*
X92414632Y-55979255D01*
X92474211Y-56149522D01*
X92530979Y-56239867D01*
X92570185Y-56302264D01*
X92697735Y-56429814D01*
X92697737Y-56429815D01*
X92697738Y-56429816D01*
X92850478Y-56525789D01*
X93020745Y-56585368D01*
X93200000Y-56605565D01*
X93379255Y-56585368D01*
X93549522Y-56525789D01*
X93702262Y-56429816D01*
X93829816Y-56302262D01*
X93925789Y-56149522D01*
X93985368Y-55979255D01*
X94005565Y-55800000D01*
X93985368Y-55620745D01*
X93925789Y-55450478D01*
X93829816Y-55297738D01*
X93829815Y-55297737D01*
X93829814Y-55297735D01*
X93702263Y-55170184D01*
X93573512Y-55089285D01*
X93530956Y-55044272D01*
X93515484Y-54984291D01*
X93530957Y-54924309D01*
X93573512Y-54879297D01*
X93652262Y-54829816D01*
X93779816Y-54702262D01*
X93875789Y-54549522D01*
X93935368Y-54379255D01*
X93955565Y-54200000D01*
X93935368Y-54020745D01*
X93875789Y-53850478D01*
X93779816Y-53697738D01*
X93779815Y-53697737D01*
X93779814Y-53697735D01*
X93652264Y-53570185D01*
X93578345Y-53523739D01*
X93499522Y-53474211D01*
X93329255Y-53414632D01*
X93329253Y-53414631D01*
X93329251Y-53414631D01*
X93150000Y-53394434D01*
X92970748Y-53414631D01*
X92970745Y-53414631D01*
X92970745Y-53414632D01*
X92800478Y-53474211D01*
X92800476Y-53474211D01*
X92800476Y-53474212D01*
X92647735Y-53570185D01*
X92520185Y-53697735D01*
X92439725Y-53825787D01*
X92424211Y-53850478D01*
X92404936Y-53905565D01*
X92364631Y-54020749D01*
X92354466Y-54110964D01*
X92328193Y-54174393D01*
X92272201Y-54214121D01*
X92100480Y-54274209D01*
X91947735Y-54370185D01*
X91820185Y-54497735D01*
X91755928Y-54600000D01*
X91724211Y-54650478D01*
X91679151Y-54779251D01*
X91664631Y-54820748D01*
X91644434Y-54999999D01*
X79394072Y-54999999D01*
X79425789Y-54949522D01*
X79485368Y-54779255D01*
X79505565Y-54600000D01*
X79485368Y-54420745D01*
X79425789Y-54250478D01*
X79329816Y-54097738D01*
X79329815Y-54097737D01*
X79329814Y-54097735D01*
X79202264Y-53970185D01*
X79139867Y-53930979D01*
X79049522Y-53874211D01*
X78879255Y-53814632D01*
X78879253Y-53814631D01*
X78879251Y-53814631D01*
X78700000Y-53794434D01*
X78520748Y-53814631D01*
X78520745Y-53814631D01*
X78520745Y-53814632D01*
X78350478Y-53874211D01*
X78350476Y-53874211D01*
X78350476Y-53874212D01*
X78197735Y-53970185D01*
X78070185Y-54097735D01*
X77974212Y-54250476D01*
X77974211Y-54250478D01*
X77932324Y-54370184D01*
X77914631Y-54420748D01*
X77894434Y-54600000D01*
X76594298Y-54600000D01*
X76585368Y-54520745D01*
X76525789Y-54350478D01*
X76429816Y-54197738D01*
X76429815Y-54197737D01*
X76429814Y-54197735D01*
X76302264Y-54070185D01*
X76223580Y-54020745D01*
X76149522Y-53974211D01*
X75979255Y-53914632D01*
X75979253Y-53914631D01*
X75979251Y-53914631D01*
X75800000Y-53894434D01*
X75620748Y-53914631D01*
X75620745Y-53914631D01*
X75620745Y-53914632D01*
X75450478Y-53974211D01*
X75450476Y-53974211D01*
X75450476Y-53974212D01*
X75297735Y-54070185D01*
X75170185Y-54197735D01*
X75099584Y-54310097D01*
X75074211Y-54350478D01*
X75014632Y-54520745D01*
X75014631Y-54520748D01*
X74994434Y-54700000D01*
X35117592Y-54700000D01*
X35109699Y-54589642D01*
X35048888Y-54310097D01*
X34948911Y-54042047D01*
X34811804Y-53790954D01*
X34644572Y-53567559D01*
X34644571Y-53567558D01*
X33337132Y-54875000D01*
X32912868Y-54875000D01*
X31605426Y-53567558D01*
X31438195Y-53790955D01*
X31301088Y-54042047D01*
X31201111Y-54310097D01*
X31140300Y-54589642D01*
X31119890Y-54875000D01*
X28880109Y-54875000D01*
X28859699Y-54589642D01*
X28798888Y-54310097D01*
X28698911Y-54042047D01*
X28561804Y-53790954D01*
X28394572Y-53567559D01*
X28394571Y-53567558D01*
X27087132Y-54875000D01*
X26662868Y-54875000D01*
X25355426Y-53567558D01*
X25188195Y-53790955D01*
X25051088Y-54042047D01*
X24951111Y-54310097D01*
X24890300Y-54589642D01*
X24869890Y-54875000D01*
X16000500Y-54875000D01*
X16000500Y-52722361D01*
X17489770Y-52722361D01*
X17520815Y-52753406D01*
X17822213Y-52997473D01*
X18147456Y-53208690D01*
X18493009Y-53384757D01*
X18855068Y-53523739D01*
X19229674Y-53624114D01*
X19612711Y-53684780D01*
X20000000Y-53705077D01*
X20387288Y-53684780D01*
X20770325Y-53624114D01*
X21144931Y-53523739D01*
X21506990Y-53384757D01*
X21564556Y-53355426D01*
X25567558Y-53355426D01*
X26875000Y-54662868D01*
X26875001Y-54662868D01*
X28182440Y-53355427D01*
X28182439Y-53355426D01*
X31817558Y-53355426D01*
X33125000Y-54662868D01*
X33125001Y-54662868D01*
X34432440Y-53355427D01*
X34432439Y-53355426D01*
X34209045Y-53188195D01*
X33957952Y-53051088D01*
X33689902Y-52951111D01*
X33410357Y-52890300D01*
X33125000Y-52869890D01*
X32839642Y-52890300D01*
X32560097Y-52951111D01*
X32292047Y-53051088D01*
X32040955Y-53188195D01*
X31817558Y-53355426D01*
X28182439Y-53355426D01*
X27959045Y-53188195D01*
X27707952Y-53051088D01*
X27439902Y-52951111D01*
X27160357Y-52890300D01*
X26875000Y-52869890D01*
X26589642Y-52890300D01*
X26310097Y-52951111D01*
X26042047Y-53051088D01*
X25790955Y-53188195D01*
X25567558Y-53355426D01*
X21564556Y-53355426D01*
X21852543Y-53208690D01*
X22177786Y-52997473D01*
X22479184Y-52753407D01*
X22510229Y-52722362D01*
X22510229Y-52722360D01*
X20000000Y-50212132D01*
X17489770Y-52722361D01*
X16000500Y-52722361D01*
X16000500Y-50002872D01*
X16000566Y-50000000D01*
X16294922Y-50000000D01*
X16315219Y-50387288D01*
X16375885Y-50770325D01*
X16476260Y-51144931D01*
X16615242Y-51506990D01*
X16791309Y-51852543D01*
X17002526Y-52177786D01*
X17246593Y-52479184D01*
X17277638Y-52510229D01*
X19787868Y-50000001D01*
X19787868Y-50000000D01*
X20212132Y-50000000D01*
X22722360Y-52510229D01*
X22722362Y-52510229D01*
X22753407Y-52479184D01*
X22979485Y-52199999D01*
X36294434Y-52199999D01*
X36314631Y-52379251D01*
X36314631Y-52379253D01*
X36314632Y-52379255D01*
X36374211Y-52549522D01*
X36374212Y-52549523D01*
X36470185Y-52702264D01*
X36597735Y-52829814D01*
X36597737Y-52829815D01*
X36597738Y-52829816D01*
X36750478Y-52925789D01*
X36920745Y-52985368D01*
X37100000Y-53005565D01*
X37279255Y-52985368D01*
X37449522Y-52925789D01*
X37602262Y-52829816D01*
X37729816Y-52702262D01*
X37825789Y-52549522D01*
X37841706Y-52504030D01*
X37875085Y-52453463D01*
X37928444Y-52424747D01*
X37989039Y-52424744D01*
X38042400Y-52453455D01*
X38065523Y-52488480D01*
X38066778Y-52487692D01*
X38074210Y-52499521D01*
X38074211Y-52499522D01*
X38105628Y-52549522D01*
X38170185Y-52652264D01*
X38297735Y-52779814D01*
X38297737Y-52779815D01*
X38297738Y-52779816D01*
X38450478Y-52875789D01*
X38620745Y-52935368D01*
X38800000Y-52955565D01*
X38979255Y-52935368D01*
X39149522Y-52875789D01*
X39302262Y-52779816D01*
X39382078Y-52700000D01*
X41294434Y-52700000D01*
X41314631Y-52879251D01*
X41314631Y-52879253D01*
X41314632Y-52879255D01*
X41374211Y-53049522D01*
X41430978Y-53139867D01*
X41470185Y-53202264D01*
X41597735Y-53329814D01*
X41597737Y-53329815D01*
X41597738Y-53329816D01*
X41750478Y-53425789D01*
X41920745Y-53485368D01*
X42100000Y-53505565D01*
X42279255Y-53485368D01*
X42449522Y-53425789D01*
X42602262Y-53329816D01*
X42729816Y-53202262D01*
X42825789Y-53049522D01*
X42885368Y-52879255D01*
X42905565Y-52700000D01*
X42885368Y-52520745D01*
X42825789Y-52350478D01*
X42729816Y-52197738D01*
X42729815Y-52197737D01*
X42729814Y-52197735D01*
X42602264Y-52070185D01*
X42523580Y-52020745D01*
X42449522Y-51974211D01*
X42279255Y-51914632D01*
X42279253Y-51914631D01*
X42279251Y-51914631D01*
X42100000Y-51894434D01*
X41920748Y-51914631D01*
X41920745Y-51914631D01*
X41920745Y-51914632D01*
X41750478Y-51974211D01*
X41750476Y-51974211D01*
X41750476Y-51974212D01*
X41597735Y-52070185D01*
X41470185Y-52197735D01*
X41387546Y-52329255D01*
X41374211Y-52350478D01*
X41318312Y-52510229D01*
X41314631Y-52520748D01*
X41294434Y-52700000D01*
X39382078Y-52700000D01*
X39429816Y-52652262D01*
X39525789Y-52499522D01*
X39585368Y-52329255D01*
X39605565Y-52150000D01*
X39585368Y-51970745D01*
X39525789Y-51800478D01*
X39429816Y-51647738D01*
X39429815Y-51647737D01*
X39429814Y-51647735D01*
X39302264Y-51520185D01*
X39229096Y-51474211D01*
X39149522Y-51424211D01*
X39080331Y-51400000D01*
X43194434Y-51400000D01*
X43214631Y-51579251D01*
X43214631Y-51579253D01*
X43214632Y-51579255D01*
X43274211Y-51749522D01*
X43274212Y-51749523D01*
X43370185Y-51902264D01*
X43497735Y-52029814D01*
X43497737Y-52029815D01*
X43497738Y-52029816D01*
X43650478Y-52125789D01*
X43820745Y-52185368D01*
X44000000Y-52205565D01*
X44049391Y-52200000D01*
X48394434Y-52200000D01*
X48414631Y-52379251D01*
X48414631Y-52379253D01*
X48414632Y-52379255D01*
X48474211Y-52549522D01*
X48474212Y-52549523D01*
X48570185Y-52702264D01*
X48697735Y-52829814D01*
X48697737Y-52829815D01*
X48697738Y-52829816D01*
X48850478Y-52925789D01*
X49020745Y-52985368D01*
X49200000Y-53005565D01*
X49379255Y-52985368D01*
X49549522Y-52925789D01*
X49702262Y-52829816D01*
X49829816Y-52702262D01*
X49925789Y-52549522D01*
X49925789Y-52549520D01*
X49933222Y-52537692D01*
X49935899Y-52539374D01*
X49962684Y-52501623D01*
X50026114Y-52475348D01*
X50093800Y-52486848D01*
X50144992Y-52532595D01*
X50155628Y-52549522D01*
X50220185Y-52652264D01*
X50347735Y-52779814D01*
X50347737Y-52779815D01*
X50347738Y-52779816D01*
X50500478Y-52875789D01*
X50670745Y-52935368D01*
X50850000Y-52955565D01*
X51029255Y-52935368D01*
X51199522Y-52875789D01*
X51352262Y-52779816D01*
X51432078Y-52700000D01*
X53294434Y-52700000D01*
X53314631Y-52879251D01*
X53314631Y-52879253D01*
X53314632Y-52879255D01*
X53374211Y-53049522D01*
X53430978Y-53139867D01*
X53470185Y-53202264D01*
X53597735Y-53329814D01*
X53597737Y-53329815D01*
X53597738Y-53329816D01*
X53750478Y-53425789D01*
X53920745Y-53485368D01*
X54100000Y-53505565D01*
X54279255Y-53485368D01*
X54449522Y-53425789D01*
X54602262Y-53329816D01*
X54729816Y-53202262D01*
X54794072Y-53100000D01*
X76294434Y-53100000D01*
X76314631Y-53279251D01*
X76314631Y-53279253D01*
X76314632Y-53279255D01*
X76374211Y-53449522D01*
X76374212Y-53449523D01*
X76470185Y-53602264D01*
X76597735Y-53729814D01*
X76597737Y-53729815D01*
X76597738Y-53729816D01*
X76750478Y-53825789D01*
X76920745Y-53885368D01*
X77100000Y-53905565D01*
X77279255Y-53885368D01*
X77449522Y-53825789D01*
X77602262Y-53729816D01*
X77729816Y-53602262D01*
X77825789Y-53449522D01*
X77885368Y-53279255D01*
X77905565Y-53100000D01*
X77885368Y-52920745D01*
X77825789Y-52750478D01*
X77808122Y-52722361D01*
X97489770Y-52722361D01*
X97520815Y-52753406D01*
X97822213Y-52997473D01*
X98147456Y-53208690D01*
X98493009Y-53384757D01*
X98855068Y-53523739D01*
X99229674Y-53624114D01*
X99612711Y-53684780D01*
X100000000Y-53705077D01*
X100387288Y-53684780D01*
X100770325Y-53624114D01*
X101144931Y-53523739D01*
X101506990Y-53384757D01*
X101852543Y-53208690D01*
X102177786Y-52997473D01*
X102479184Y-52753407D01*
X102510229Y-52722362D01*
X102510229Y-52722360D01*
X100000000Y-50212132D01*
X97489770Y-52722361D01*
X77808122Y-52722361D01*
X77729816Y-52597738D01*
X77729815Y-52597737D01*
X77729814Y-52597735D01*
X77602264Y-52470185D01*
X77539867Y-52430979D01*
X77449522Y-52374211D01*
X77279255Y-52314632D01*
X77279253Y-52314631D01*
X77279251Y-52314631D01*
X77100000Y-52294434D01*
X76920748Y-52314631D01*
X76920745Y-52314631D01*
X76920745Y-52314632D01*
X76750478Y-52374211D01*
X76750476Y-52374211D01*
X76750476Y-52374212D01*
X76597735Y-52470185D01*
X76470185Y-52597735D01*
X76391878Y-52722361D01*
X76374211Y-52750478D01*
X76330363Y-52875789D01*
X76314631Y-52920748D01*
X76294434Y-53100000D01*
X54794072Y-53100000D01*
X54825789Y-53049522D01*
X54885368Y-52879255D01*
X54905565Y-52700000D01*
X54885368Y-52520745D01*
X54825789Y-52350478D01*
X54729816Y-52197738D01*
X54729815Y-52197737D01*
X54729814Y-52197735D01*
X54602264Y-52070185D01*
X54523580Y-52020745D01*
X54449522Y-51974211D01*
X54279255Y-51914632D01*
X54279253Y-51914631D01*
X54279251Y-51914631D01*
X54100000Y-51894434D01*
X53920748Y-51914631D01*
X53920745Y-51914631D01*
X53920745Y-51914632D01*
X53750478Y-51974211D01*
X53750476Y-51974211D01*
X53750476Y-51974212D01*
X53597735Y-52070185D01*
X53470185Y-52197735D01*
X53387546Y-52329255D01*
X53374211Y-52350478D01*
X53318312Y-52510229D01*
X53314631Y-52520748D01*
X53294434Y-52700000D01*
X51432078Y-52700000D01*
X51479816Y-52652262D01*
X51575789Y-52499522D01*
X51635368Y-52329255D01*
X51655565Y-52150000D01*
X51635368Y-51970745D01*
X51575789Y-51800478D01*
X51479816Y-51647738D01*
X51479815Y-51647737D01*
X51479814Y-51647735D01*
X51352264Y-51520185D01*
X51279096Y-51474211D01*
X51199522Y-51424211D01*
X51130331Y-51400000D01*
X55194434Y-51400000D01*
X55214631Y-51579251D01*
X55214631Y-51579253D01*
X55214632Y-51579255D01*
X55274211Y-51749522D01*
X55274212Y-51749523D01*
X55370185Y-51902264D01*
X55497735Y-52029814D01*
X55497737Y-52029815D01*
X55497738Y-52029816D01*
X55650478Y-52125789D01*
X55820745Y-52185368D01*
X56000000Y-52205565D01*
X56179255Y-52185368D01*
X56349522Y-52125789D01*
X56502262Y-52029816D01*
X56629816Y-51902262D01*
X56725789Y-51749522D01*
X56785368Y-51579255D01*
X56805565Y-51400000D01*
X56785368Y-51220745D01*
X56725789Y-51050478D01*
X56629816Y-50897738D01*
X56629815Y-50897737D01*
X56629814Y-50897735D01*
X56502264Y-50770185D01*
X56439867Y-50730978D01*
X56349522Y-50674211D01*
X56179255Y-50614632D01*
X56179253Y-50614631D01*
X56179251Y-50614631D01*
X56000000Y-50594434D01*
X55820748Y-50614631D01*
X55820745Y-50614631D01*
X55820745Y-50614632D01*
X55650478Y-50674211D01*
X55650476Y-50674211D01*
X55650476Y-50674212D01*
X55497735Y-50770185D01*
X55370185Y-50897735D01*
X55274212Y-51050476D01*
X55274211Y-51050478D01*
X55214632Y-51220744D01*
X55214631Y-51220748D01*
X55194434Y-51400000D01*
X51130331Y-51400000D01*
X51029255Y-51364632D01*
X51029251Y-51364631D01*
X51029250Y-51364631D01*
X50896916Y-51349720D01*
X50844827Y-51331493D01*
X50805805Y-51292470D01*
X50787580Y-51240384D01*
X50785368Y-51220745D01*
X50725789Y-51050478D01*
X50629816Y-50897738D01*
X50629815Y-50897737D01*
X50629814Y-50897735D01*
X50502264Y-50770185D01*
X50439867Y-50730978D01*
X50349522Y-50674211D01*
X50179255Y-50614632D01*
X50179253Y-50614631D01*
X50179251Y-50614631D01*
X50000000Y-50594434D01*
X49820748Y-50614631D01*
X49820745Y-50614631D01*
X49820745Y-50614632D01*
X49650478Y-50674211D01*
X49650476Y-50674211D01*
X49650476Y-50674212D01*
X49497735Y-50770185D01*
X49370185Y-50897735D01*
X49274212Y-51050476D01*
X49274211Y-51050478D01*
X49214633Y-51220744D01*
X49214631Y-51220749D01*
X49206069Y-51296734D01*
X49187843Y-51348821D01*
X49148821Y-51387843D01*
X49096734Y-51406069D01*
X49020749Y-51414631D01*
X49020746Y-51414631D01*
X49020745Y-51414632D01*
X48850478Y-51474211D01*
X48850476Y-51474211D01*
X48850476Y-51474212D01*
X48697735Y-51570185D01*
X48570185Y-51697735D01*
X48537645Y-51749523D01*
X48474211Y-51850478D01*
X48451763Y-51914631D01*
X48414631Y-52020748D01*
X48394434Y-52200000D01*
X44049391Y-52200000D01*
X44179255Y-52185368D01*
X44349522Y-52125789D01*
X44502262Y-52029816D01*
X44629816Y-51902262D01*
X44725789Y-51749522D01*
X44785368Y-51579255D01*
X44805565Y-51400000D01*
X44785368Y-51220745D01*
X44725789Y-51050478D01*
X44629816Y-50897738D01*
X44629815Y-50897737D01*
X44629814Y-50897735D01*
X44502264Y-50770185D01*
X44439867Y-50730978D01*
X44349522Y-50674211D01*
X44179255Y-50614632D01*
X44179253Y-50614631D01*
X44179251Y-50614631D01*
X44000000Y-50594434D01*
X43820748Y-50614631D01*
X43820745Y-50614631D01*
X43820745Y-50614632D01*
X43650478Y-50674211D01*
X43650476Y-50674211D01*
X43650476Y-50674212D01*
X43497735Y-50770185D01*
X43370185Y-50897735D01*
X43274212Y-51050476D01*
X43274211Y-51050478D01*
X43214632Y-51220744D01*
X43214631Y-51220748D01*
X43194434Y-51400000D01*
X39080331Y-51400000D01*
X38979255Y-51364632D01*
X38979253Y-51364631D01*
X38979251Y-51364631D01*
X38897558Y-51355426D01*
X38845470Y-51337199D01*
X38806448Y-51298176D01*
X38788223Y-51246092D01*
X38785368Y-51220745D01*
X38725789Y-51050478D01*
X38629816Y-50897738D01*
X38629815Y-50897737D01*
X38629814Y-50897735D01*
X38502264Y-50770185D01*
X38439867Y-50730978D01*
X38349522Y-50674211D01*
X38179255Y-50614632D01*
X38179253Y-50614631D01*
X38179251Y-50614631D01*
X38000000Y-50594434D01*
X37820748Y-50614631D01*
X37820745Y-50614631D01*
X37820745Y-50614632D01*
X37650478Y-50674211D01*
X37650476Y-50674211D01*
X37650476Y-50674212D01*
X37497735Y-50770185D01*
X37370185Y-50897735D01*
X37274212Y-51050476D01*
X37274211Y-51050478D01*
X37214632Y-51220744D01*
X37214631Y-51220748D01*
X37207355Y-51285322D01*
X37189128Y-51337410D01*
X37150107Y-51376431D01*
X37098019Y-51394657D01*
X36920749Y-51414631D01*
X36920746Y-51414631D01*
X36920745Y-51414632D01*
X36750478Y-51474211D01*
X36750476Y-51474211D01*
X36750476Y-51474212D01*
X36597735Y-51570185D01*
X36470185Y-51697735D01*
X36437645Y-51749523D01*
X36374211Y-51850478D01*
X36351763Y-51914631D01*
X36314631Y-52020748D01*
X36294434Y-52199999D01*
X22979485Y-52199999D01*
X22997473Y-52177786D01*
X23208690Y-51852543D01*
X23384757Y-51506990D01*
X23523739Y-51144931D01*
X23624114Y-50770325D01*
X23684780Y-50387288D01*
X23694595Y-50200000D01*
X89294434Y-50200000D01*
X89314631Y-50379251D01*
X89314631Y-50379253D01*
X89314632Y-50379255D01*
X89374211Y-50549522D01*
X89374212Y-50549523D01*
X89470185Y-50702264D01*
X89597735Y-50829814D01*
X89597737Y-50829815D01*
X89597738Y-50829816D01*
X89750478Y-50925789D01*
X89920745Y-50985368D01*
X90055186Y-51000515D01*
X90099999Y-51005565D01*
X90099999Y-51005564D01*
X90100000Y-51005565D01*
X90279255Y-50985368D01*
X90449522Y-50925789D01*
X90602262Y-50829816D01*
X90729816Y-50702262D01*
X90825789Y-50549522D01*
X90885368Y-50379255D01*
X90905565Y-50200000D01*
X91194434Y-50200000D01*
X91214631Y-50379251D01*
X91214631Y-50379253D01*
X91214632Y-50379255D01*
X91274211Y-50549522D01*
X91274212Y-50549523D01*
X91370185Y-50702264D01*
X91497735Y-50829814D01*
X91497737Y-50829815D01*
X91497738Y-50829816D01*
X91650478Y-50925789D01*
X91820745Y-50985368D01*
X91955186Y-51000515D01*
X91999999Y-51005565D01*
X91999999Y-51005564D01*
X92000000Y-51005565D01*
X92179255Y-50985368D01*
X92349522Y-50925789D01*
X92502262Y-50829816D01*
X92629816Y-50702262D01*
X92638343Y-50688690D01*
X92677363Y-50649670D01*
X92729452Y-50631442D01*
X92784292Y-50637621D01*
X92920744Y-50685368D01*
X93099999Y-50705565D01*
X93099999Y-50705564D01*
X93100000Y-50705565D01*
X93279255Y-50685368D01*
X93449522Y-50625789D01*
X93602262Y-50529816D01*
X93729816Y-50402262D01*
X93825789Y-50249522D01*
X93885368Y-50079255D01*
X93894298Y-49999999D01*
X96294922Y-49999999D01*
X96315219Y-50387288D01*
X96375885Y-50770325D01*
X96476260Y-51144931D01*
X96615242Y-51506990D01*
X96791309Y-51852543D01*
X97002526Y-52177786D01*
X97246593Y-52479184D01*
X97277638Y-52510229D01*
X99787868Y-50000001D01*
X100212132Y-50000001D01*
X102722360Y-52510229D01*
X102722362Y-52510229D01*
X102753407Y-52479184D01*
X102997473Y-52177786D01*
X103208690Y-51852543D01*
X103384757Y-51506990D01*
X103523739Y-51144931D01*
X103624114Y-50770325D01*
X103684780Y-50387288D01*
X103705077Y-49999999D01*
X103684780Y-49612711D01*
X103624114Y-49229674D01*
X103523739Y-48855068D01*
X103384757Y-48493009D01*
X103208690Y-48147456D01*
X102997473Y-47822213D01*
X102753406Y-47520815D01*
X102722361Y-47489770D01*
X102722360Y-47489770D01*
X100212132Y-50000000D01*
X100212132Y-50000001D01*
X99787868Y-50000001D01*
X99787868Y-50000000D01*
X97277638Y-47489770D01*
X97246592Y-47520815D01*
X97002526Y-47822213D01*
X96791309Y-48147456D01*
X96615242Y-48493009D01*
X96476260Y-48855068D01*
X96375885Y-49229674D01*
X96315219Y-49612711D01*
X96294922Y-49999999D01*
X93894298Y-49999999D01*
X93905565Y-49900000D01*
X93885368Y-49720745D01*
X93825789Y-49550478D01*
X93729816Y-49397738D01*
X93729815Y-49397737D01*
X93729814Y-49397735D01*
X93602264Y-49270185D01*
X93537791Y-49229674D01*
X93449522Y-49174211D01*
X93279255Y-49114632D01*
X93279253Y-49114631D01*
X93279251Y-49114631D01*
X93100000Y-49094434D01*
X92920748Y-49114631D01*
X92920745Y-49114631D01*
X92920745Y-49114632D01*
X92750478Y-49174211D01*
X92750476Y-49174211D01*
X92750476Y-49174212D01*
X92597738Y-49270183D01*
X92470181Y-49397741D01*
X92461653Y-49411313D01*
X92422631Y-49450333D01*
X92370544Y-49468557D01*
X92315708Y-49462379D01*
X92179255Y-49414632D01*
X92179254Y-49414631D01*
X92179252Y-49414631D01*
X92000000Y-49394434D01*
X91820748Y-49414631D01*
X91820745Y-49414631D01*
X91820745Y-49414632D01*
X91650478Y-49474211D01*
X91650476Y-49474211D01*
X91650476Y-49474212D01*
X91497735Y-49570185D01*
X91370185Y-49697735D01*
X91274212Y-49850476D01*
X91214631Y-50020748D01*
X91194434Y-50200000D01*
X90905565Y-50200000D01*
X90885368Y-50020745D01*
X90825789Y-49850478D01*
X90729816Y-49697738D01*
X90729815Y-49697737D01*
X90729814Y-49697735D01*
X90602264Y-49570185D01*
X90539867Y-49530978D01*
X90449522Y-49474211D01*
X90279255Y-49414632D01*
X90279253Y-49414631D01*
X90279251Y-49414631D01*
X90100000Y-49394434D01*
X89920748Y-49414631D01*
X89920745Y-49414631D01*
X89920745Y-49414632D01*
X89750478Y-49474211D01*
X89750476Y-49474211D01*
X89750476Y-49474212D01*
X89597735Y-49570185D01*
X89470185Y-49697735D01*
X89374212Y-49850476D01*
X89314631Y-50020748D01*
X89294434Y-50200000D01*
X23694595Y-50200000D01*
X23705077Y-49999999D01*
X23684780Y-49612711D01*
X23624114Y-49229674D01*
X23523739Y-48855068D01*
X23384757Y-48493009D01*
X23208690Y-48147456D01*
X22997473Y-47822213D01*
X22753406Y-47520815D01*
X22722361Y-47489770D01*
X22722360Y-47489770D01*
X20212132Y-50000000D01*
X19787868Y-50000000D01*
X17277638Y-47489770D01*
X17246592Y-47520815D01*
X17002526Y-47822213D01*
X16791309Y-48147456D01*
X16615242Y-48493009D01*
X16476260Y-48855068D01*
X16375885Y-49229674D01*
X16315219Y-49612711D01*
X16294922Y-50000000D01*
X16000566Y-50000000D01*
X16000632Y-49997146D01*
X16005123Y-49899999D01*
X16008490Y-49827168D01*
X16010421Y-49787868D01*
X16018166Y-49630200D01*
X16019200Y-49619217D01*
X16044611Y-49437054D01*
X16044722Y-49436286D01*
X16071950Y-49252729D01*
X16073890Y-49242595D01*
X16116526Y-49061318D01*
X16116837Y-49060037D01*
X16161405Y-48882111D01*
X16164091Y-48872922D01*
X16223572Y-48695457D01*
X16224270Y-48693442D01*
X16285699Y-48521759D01*
X16288996Y-48513497D01*
X16364713Y-48342015D01*
X16366051Y-48339089D01*
X16443727Y-48174855D01*
X16447452Y-48167612D01*
X16538864Y-48003497D01*
X16540745Y-48000243D01*
X16634036Y-47844598D01*
X16638034Y-47838363D01*
X16744270Y-47683278D01*
X16746899Y-47679590D01*
X16854909Y-47533954D01*
X16859011Y-47528728D01*
X16979239Y-47383944D01*
X16982577Y-47380097D01*
X17075440Y-47277638D01*
X17489770Y-47277638D01*
X20000000Y-49787868D01*
X20000001Y-49787868D01*
X22510229Y-47277638D01*
X97489770Y-47277638D01*
X100000000Y-49787868D01*
X100000001Y-49787868D01*
X102510229Y-47277639D01*
X102479179Y-47246589D01*
X102177786Y-47002526D01*
X101852543Y-46791309D01*
X101506990Y-46615242D01*
X101144931Y-46476260D01*
X100770325Y-46375885D01*
X100387288Y-46315219D01*
X100000000Y-46294922D01*
X99612711Y-46315219D01*
X99229674Y-46375885D01*
X98855068Y-46476260D01*
X98493009Y-46615242D01*
X98147456Y-46791309D01*
X97822213Y-47002526D01*
X97520815Y-47246592D01*
X97489770Y-47277638D01*
X22510229Y-47277638D01*
X22479184Y-47246593D01*
X22177786Y-47002526D01*
X21852543Y-46791309D01*
X21506990Y-46615242D01*
X21144931Y-46476260D01*
X20770325Y-46375885D01*
X20387288Y-46315219D01*
X20000000Y-46294922D01*
X19612711Y-46315219D01*
X19229674Y-46375885D01*
X18855068Y-46476260D01*
X18493009Y-46615242D01*
X18147456Y-46791309D01*
X17822213Y-47002526D01*
X17520815Y-47246592D01*
X17489770Y-47277638D01*
X17075440Y-47277638D01*
X17104340Y-47245752D01*
X17108437Y-47241450D01*
X17241450Y-47108437D01*
X17245752Y-47104340D01*
X17380097Y-46982577D01*
X17383944Y-46979239D01*
X17528728Y-46859011D01*
X17533954Y-46854909D01*
X17679590Y-46746899D01*
X17683278Y-46744270D01*
X17838363Y-46638034D01*
X17844598Y-46634036D01*
X18000243Y-46540745D01*
X18003497Y-46538864D01*
X18167612Y-46447452D01*
X18174855Y-46443727D01*
X18339098Y-46366046D01*
X18342018Y-46364712D01*
X18406007Y-46336458D01*
X18513497Y-46288996D01*
X18521759Y-46285699D01*
X18693442Y-46224270D01*
X18695457Y-46223572D01*
X18872922Y-46164091D01*
X18882111Y-46161405D01*
X19060037Y-46116837D01*
X19061318Y-46116526D01*
X19242595Y-46073890D01*
X19252729Y-46071950D01*
X19436286Y-46044722D01*
X19437054Y-46044611D01*
X19619217Y-46019200D01*
X19630200Y-46018166D01*
X19826898Y-46008502D01*
X19991674Y-46000884D01*
X19997146Y-46000632D01*
X20002872Y-46000500D01*
X99997128Y-46000500D01*
X100002854Y-46000632D01*
G37*
%TD.AperFunction*%
%TD*%
M02*
