M48
; DRILL file {KiCad 7.0.1} date Tue 30 May 2023 08:19:06 CEST
; FORMAT={-:-/ absolute / inch / decimal}
; #@! TF.CreationDate,2023-05-30T08:19:06+02:00
; #@! TF.GenerationSoftware,Kicad,Pcbnew,7.0.1
; #@! TF.FileFunction,Plated,1,4,PTH
FMAT,2
INCH
; #@! TA.AperFunction,Plated,PTH,ViaDrill
T1C0.0118
; #@! TA.AperFunction,Plated,PTH,ComponentDrill
T2C0.0197
; #@! TA.AperFunction,Plated,PTH,ComponentDrill
T3C0.0236
; #@! TA.AperFunction,Plated,PTH,ComponentDrill
T4C0.0500
; #@! TA.AperFunction,Plated,PTH,ComponentDrill
T5C0.0600
; #@! TA.AperFunction,Plated,PTH,ComponentDrill
T6C0.1260
%
G90
G05
T1
X0.6614Y-2.126
X0.6614Y-2.2047
X0.6614Y-2.2835
X0.6614Y-2.3622
X0.6614Y-2.4409
X0.6614Y-2.5197
X0.6614Y-2.5984
X0.6614Y-2.6772
X0.6614Y-2.7559
X0.6614Y-2.8346
X0.6614Y-2.9134
X0.6614Y-2.9921
X0.9449Y-1.8425
X0.9449Y-3.2756
X1.0236Y-1.8425
X1.0236Y-3.2756
X1.1024Y-1.8425
X1.1024Y-3.2756
X1.1811Y-1.8425
X1.1811Y-3.2756
X1.2598Y-1.8425
X1.2598Y-3.2756
X1.3386Y-1.8425
X1.3386Y-3.2756
X1.4173Y-1.8425
X1.4173Y-3.2756
X1.4528Y-1.9685
X1.4606Y-2.0551
X1.4961Y-1.8425
X1.4961Y-2.0236
X1.4961Y-2.1496
X1.4961Y-3.2756
X1.5276Y-2.0531
X1.5315Y-2.0866
X1.5354Y-2.2047
X1.5748Y-1.8425
X1.5748Y-3.2756
X1.6535Y-1.8425
X1.6535Y-2.2047
X1.6535Y-3.2756
X1.6575Y-2.0748
X1.7323Y-1.8425
X1.7323Y-2.0236
X1.7323Y-2.1496
X1.7323Y-3.2756
X1.811Y-1.8425
X1.811Y-3.2756
X1.8701Y-2.6811
X1.8898Y-1.8425
X1.8898Y-3.2756
X1.8976Y-2.7441
X1.9252Y-1.9685
X1.937Y-2.0551
X1.937Y-2.748
X1.9685Y-1.8425
X1.9685Y-2.0236
X1.9685Y-2.1496
X1.9685Y-3.2756
X1.9921Y-2.622
X1.9921Y-2.6535
X2.0Y-2.7756
X2.002Y-2.0531
X2.0039Y-2.0866
X2.0157Y-2.4094
X2.0236Y-2.622
X2.0236Y-2.6535
X2.0315Y-2.5276
X2.0472Y-1.8425
X2.0472Y-3.2756
X2.1102Y-2.748
X2.122Y-2.6811
X2.126Y-1.8425
X2.126Y-2.5276
X2.126Y-3.2756
X2.1299Y-2.0748
X2.1299Y-2.4094
X2.1575Y-2.2126
X2.1575Y-2.5827
X2.1831Y-2.6831
X2.2008Y-2.6024
X2.2047Y-1.8425
X2.2047Y-2.0236
X2.2047Y-2.1496
X2.2047Y-3.2756
X2.2835Y-1.8425
X2.2835Y-3.2756
X2.3583Y-2.2795
X2.3622Y-1.8425
X2.3622Y-3.2756
X2.4055Y-2.2047
X2.4213Y-2.5984
X2.4409Y-1.8425
X2.4409Y-3.2756
X2.4961Y-2.4252
X2.5197Y-1.8425
X2.5197Y-3.2756
X2.5394Y-2.3504
X2.5787Y-2.3701
X2.5984Y-1.8425
X2.5984Y-3.2756
X2.6201Y-2.5984
X2.6417Y-2.4449
X2.6654Y-2.2362
X2.6772Y-1.8425
X2.6772Y-3.2756
X2.7087Y-2.2087
X2.7362Y-2.122
X2.7559Y-1.8425
X2.7559Y-3.2756
X2.7638Y-2.2402
X2.8268Y-2.248
X2.8346Y-1.8425
X2.8346Y-3.2756
X2.8898Y-2.3031
X2.9134Y-1.8425
X2.9134Y-3.2756
X2.9213Y-2.4843
X2.937Y-2.378
X2.937Y-2.622
X2.9488Y-2.5709
X2.9567Y-2.4094
X2.9764Y-2.2717
X2.9843Y-2.1535
X2.9843Y-2.4409
X2.9843Y-2.4843
X2.9921Y-1.8425
X2.9921Y-3.2756
X3.0118Y-2.5945
X3.0315Y-2.6535
X3.0354Y-2.0906
X3.0394Y-2.5197
X3.0472Y-2.6181
X3.0709Y-1.8425
X3.0709Y-3.2756
X3.0827Y-2.4724
X3.0984Y-2.1496
X3.1024Y-2.5472
X3.1496Y-1.8425
X3.1496Y-3.2756
X3.1732Y-2.6181
X3.2283Y-1.8425
X3.2283Y-3.2756
X3.3071Y-1.8425
X3.3071Y-3.2756
X3.3858Y-1.8425
X3.3858Y-3.2756
X3.4055Y-2.0929
X3.4055Y-2.1929
X3.4055Y-2.2429
X3.4055Y-2.2913
X3.4646Y-1.8425
X3.4646Y-3.2756
X3.4685Y-2.6969
X3.4685Y-2.7756
X3.5197Y-2.5591
X3.5433Y-1.8425
X3.5433Y-3.2756
X3.5472Y-1.9764
X3.5827Y-2.2087
X3.622Y-1.8425
X3.622Y-1.9764
X3.622Y-3.2756
X3.6398Y-2.1654
X3.6614Y-2.3386
X3.6614Y-2.7795
X3.6654Y-1.9646
X3.6673Y-2.1339
X3.6693Y-2.1969
X3.7008Y-1.8425
X3.7008Y-2.1299
X3.7008Y-2.5591
X3.7008Y-3.2756
X3.7244Y-2.4626
X3.7244Y-2.6555
X3.748Y-2.4055
X3.748Y-2.7126
X3.7638Y-1.9291
X3.7638Y-2.1654
X3.7795Y-1.8425
X3.7795Y-3.2756
X3.8406Y-2.2835
X4.063Y-2.126
X4.063Y-2.2047
X4.063Y-2.2835
X4.063Y-2.3622
X4.063Y-2.4409
X4.063Y-2.5197
X4.063Y-2.5984
X4.063Y-2.6772
X4.063Y-2.7559
X4.063Y-2.8346
X4.063Y-2.9134
X4.063Y-2.9921
T2
X0.6929Y-1.9685
X0.6929Y-3.1496
X0.7206Y-1.9017
X0.7206Y-2.0353
X0.7206Y-3.0828
X0.7206Y-3.2164
X0.7874Y-1.874
X0.7874Y-2.063
X0.7874Y-3.0551
X0.7874Y-3.2441
X0.8542Y-1.9017
X0.8542Y-2.0353
X0.8542Y-3.0828
X0.8542Y-3.2164
X0.8819Y-1.9685
X0.8819Y-3.1496
X3.8425Y-1.9685
X3.8425Y-3.1496
X3.8702Y-1.9017
X3.8702Y-2.0353
X3.8702Y-3.0828
X3.8702Y-3.2164
X3.937Y-1.874
X3.937Y-2.063
X3.937Y-3.0551
X3.937Y-3.2441
X4.0038Y-1.9017
X4.0038Y-2.0353
X4.0038Y-3.0828
X4.0038Y-3.2164
X4.0315Y-1.9685
X4.0315Y-3.1496
T4
X1.1811Y-2.2835
X1.1811Y-3.0709
X1.9685Y-3.0709
X2.7559Y-3.0709
X3.5433Y-3.0709
T5
X1.0581Y-2.1604
X1.0581Y-2.4065
X1.0581Y-2.9478
X1.0581Y-3.1939
X1.3041Y-2.1604
X1.3041Y-2.4065
X1.3041Y-2.9478
X1.3041Y-3.1939
X1.8455Y-2.9478
X1.8455Y-3.1939
X2.0915Y-2.9478
X2.0915Y-3.1939
X2.6329Y-2.9478
X2.6329Y-3.1939
X2.8789Y-2.9478
X2.8789Y-3.1939
X3.4203Y-2.9478
X3.4203Y-3.1939
X3.6663Y-2.9478
X3.6663Y-3.1939
T6
X0.7874Y-1.9685
X0.7874Y-3.1496
X3.937Y-1.9685
X3.937Y-3.1496
T3
G00X3.7921Y-2.389
M15
G01X3.8354Y-2.389
M16
G05
G00X3.7921Y-2.7291
M15
G01X3.8354Y-2.7291
M16
G05
G00X3.9665Y-2.389
M15
G01X3.9902Y-2.389
M16
G05
G00X3.9665Y-2.7291
M15
G01X3.9902Y-2.7291
M16
G05
T0
M30
