%TF.GenerationSoftware,KiCad,Pcbnew,7.0.1*%
%TF.CreationDate,2023-05-30T08:19:09+02:00*%
%TF.ProjectId,test_SGTL5000,74657374-5f53-4475-944c-353030302e6b,rev?*%
%TF.SameCoordinates,Original*%
%TF.FileFunction,Soldermask,Top*%
%TF.FilePolarity,Negative*%
%FSLAX46Y46*%
G04 Gerber Fmt 4.6, Leading zero omitted, Abs format (unit mm)*
G04 Created by KiCad (PCBNEW 7.0.1) date 2023-05-30 08:19:09*
%MOMM*%
%LPD*%
G01*
G04 APERTURE LIST*
G04 Aperture macros list*
%AMRoundRect*
0 Rectangle with rounded corners*
0 $1 Rounding radius*
0 $2 $3 $4 $5 $6 $7 $8 $9 X,Y pos of 4 corners*
0 Add a 4 corners polygon primitive as box body*
4,1,4,$2,$3,$4,$5,$6,$7,$8,$9,$2,$3,0*
0 Add four circle primitives for the rounded corners*
1,1,$1+$1,$2,$3*
1,1,$1+$1,$4,$5*
1,1,$1+$1,$6,$7*
1,1,$1+$1,$8,$9*
0 Add four rect primitives between the rounded corners*
20,1,$1+$1,$2,$3,$4,$5,0*
20,1,$1+$1,$4,$5,$6,$7,0*
20,1,$1+$1,$6,$7,$8,$9,0*
20,1,$1+$1,$8,$9,$2,$3,0*%
G04 Aperture macros list end*
%ADD10C,1.500000*%
%ADD11RoundRect,0.050000X0.050000X-0.375000X0.050000X0.375000X-0.050000X0.375000X-0.050000X-0.375000X0*%
%ADD12RoundRect,0.050000X0.375000X-0.050000X0.375000X0.050000X-0.375000X0.050000X-0.375000X-0.050000X0*%
%ADD13R,1.650000X1.650000*%
%ADD14RoundRect,0.200000X-0.275000X0.200000X-0.275000X-0.200000X0.275000X-0.200000X0.275000X0.200000X0*%
%ADD15RoundRect,0.218750X0.256250X-0.218750X0.256250X0.218750X-0.256250X0.218750X-0.256250X-0.218750X0*%
%ADD16RoundRect,0.225000X-0.250000X0.225000X-0.250000X-0.225000X0.250000X-0.225000X0.250000X0.225000X0*%
%ADD17RoundRect,0.250000X-0.375000X-0.625000X0.375000X-0.625000X0.375000X0.625000X-0.375000X0.625000X0*%
%ADD18C,0.800000*%
%ADD19C,6.400000*%
%ADD20RoundRect,0.150000X-0.512500X-0.150000X0.512500X-0.150000X0.512500X0.150000X-0.512500X0.150000X0*%
%ADD21RoundRect,0.200000X0.275000X-0.200000X0.275000X0.200000X-0.275000X0.200000X-0.275000X-0.200000X0*%
%ADD22RoundRect,0.140000X-0.140000X-0.170000X0.140000X-0.170000X0.140000X0.170000X-0.140000X0.170000X0*%
%ADD23RoundRect,0.218750X0.218750X0.256250X-0.218750X0.256250X-0.218750X-0.256250X0.218750X-0.256250X0*%
%ADD24RoundRect,0.140000X-0.170000X0.140000X-0.170000X-0.140000X0.170000X-0.140000X0.170000X0.140000X0*%
%ADD25RoundRect,0.218750X0.218750X0.381250X-0.218750X0.381250X-0.218750X-0.381250X0.218750X-0.381250X0*%
%ADD26RoundRect,0.225000X-0.225000X-0.250000X0.225000X-0.250000X0.225000X0.250000X-0.225000X0.250000X0*%
%ADD27RoundRect,0.200000X0.200000X0.275000X-0.200000X0.275000X-0.200000X-0.275000X0.200000X-0.275000X0*%
%ADD28C,3.000000*%
%ADD29RoundRect,0.140000X0.140000X0.170000X-0.140000X0.170000X-0.140000X-0.170000X0.140000X-0.170000X0*%
%ADD30RoundRect,0.200000X-0.200000X-0.275000X0.200000X-0.275000X0.200000X0.275000X-0.200000X0.275000X0*%
%ADD31C,0.650000*%
%ADD32R,1.450000X0.600000*%
%ADD33R,1.450000X0.300000*%
%ADD34O,2.100000X1.000000*%
%ADD35O,1.600000X1.000000*%
%ADD36RoundRect,0.150000X0.150000X-0.512500X0.150000X0.512500X-0.150000X0.512500X-0.150000X-0.512500X0*%
%ADD37R,2.400000X0.740000*%
%ADD38R,1.300000X1.000000*%
%ADD39RoundRect,0.218750X-0.218750X-0.256250X0.218750X-0.256250X0.218750X0.256250X-0.218750X0.256250X0*%
%ADD40RoundRect,0.125000X-0.625000X-0.125000X0.625000X-0.125000X0.625000X0.125000X-0.625000X0.125000X0*%
%ADD41RoundRect,0.125000X-0.125000X-0.625000X0.125000X-0.625000X0.125000X0.625000X-0.125000X0.625000X0*%
%ADD42R,0.900000X1.700000*%
%ADD43RoundRect,0.135000X0.135000X0.185000X-0.135000X0.185000X-0.135000X-0.185000X0.135000X-0.185000X0*%
G04 APERTURE END LIST*
D10*
%TO.C,TP105*%
X47000000Y-59000000D03*
%TD*%
%TO.C,TP502*%
X91000000Y-48000000D03*
%TD*%
D11*
%TO.C,U301*%
X50200000Y-68450000D03*
X50600000Y-68450000D03*
X51000000Y-68450000D03*
X51400000Y-68450000D03*
X51800000Y-68450000D03*
D12*
X52450000Y-67800000D03*
X52450000Y-67400000D03*
X52450000Y-67000000D03*
X52450000Y-66600000D03*
X52450000Y-66200000D03*
D11*
X51800000Y-65550000D03*
X51400000Y-65550000D03*
X51000000Y-65550000D03*
X50600000Y-65550000D03*
X50200000Y-65550000D03*
D12*
X49550000Y-66200000D03*
X49550000Y-66600000D03*
X49550000Y-67000000D03*
X49550000Y-67400000D03*
X49550000Y-67800000D03*
D13*
X51000000Y-67000000D03*
%TD*%
D14*
%TO.C,JP105*%
X47000000Y-61175000D03*
X47000000Y-62825000D03*
%TD*%
%TO.C,JP102*%
X50000000Y-61175000D03*
X50000000Y-62825000D03*
%TD*%
D15*
%TO.C,D502*%
X91000000Y-51787500D03*
X91000000Y-50212500D03*
%TD*%
D14*
%TO.C,R402*%
X93000000Y-68175000D03*
X93000000Y-69825000D03*
%TD*%
D16*
%TO.C,C506*%
X44000000Y-52225000D03*
X44000000Y-53775000D03*
%TD*%
D17*
%TO.C,F501*%
X98600000Y-58000000D03*
X101400000Y-58000000D03*
%TD*%
D18*
%TO.C,H101*%
X97600000Y-50000000D03*
X98302944Y-48302944D03*
X98302944Y-51697056D03*
X100000000Y-47600000D03*
D19*
X100000000Y-50000000D03*
D18*
X100000000Y-52400000D03*
X101697056Y-48302944D03*
X101697056Y-51697056D03*
X102400000Y-50000000D03*
%TD*%
D20*
%TO.C,U401*%
X90562500Y-64050000D03*
X90562500Y-65000000D03*
X90562500Y-65950000D03*
X92837500Y-65950000D03*
X92837500Y-65000000D03*
X92837500Y-64050000D03*
%TD*%
D21*
%TO.C,R401*%
X93000000Y-61825000D03*
X93000000Y-60175000D03*
%TD*%
D22*
%TO.C,C207*%
X74920000Y-65900000D03*
X75880000Y-65900000D03*
%TD*%
D10*
%TO.C,TP102*%
X50000000Y-59000000D03*
%TD*%
D20*
%TO.C,U501*%
X51862500Y-52050000D03*
X51862500Y-53000000D03*
X51862500Y-53950000D03*
X54137500Y-53950000D03*
X54137500Y-52050000D03*
%TD*%
D23*
%TO.C,D202*%
X83787500Y-70500000D03*
X82212500Y-70500000D03*
%TD*%
D24*
%TO.C,C303*%
X48200000Y-68120000D03*
X48200000Y-69080000D03*
%TD*%
D14*
%TO.C,R502*%
X91000000Y-53675000D03*
X91000000Y-55325000D03*
%TD*%
D25*
%TO.C,FB501*%
X101062500Y-55000000D03*
X98937500Y-55000000D03*
%TD*%
D10*
%TO.C,TP501*%
X57000000Y-50000000D03*
%TD*%
D26*
%TO.C,C204*%
X78225000Y-66500000D03*
X79775000Y-66500000D03*
%TD*%
D14*
%TO.C,JP101*%
X56000000Y-61175000D03*
X56000000Y-62825000D03*
%TD*%
D20*
%TO.C,U503*%
X39862500Y-52050000D03*
X39862500Y-53000000D03*
X39862500Y-53950000D03*
X42137500Y-53950000D03*
X42137500Y-52050000D03*
%TD*%
D10*
%TO.C,TP104*%
X44000000Y-59000000D03*
%TD*%
D27*
%TO.C,R501*%
X51325000Y-50000000D03*
X49675000Y-50000000D03*
%TD*%
D16*
%TO.C,C501*%
X50000000Y-52225000D03*
X50000000Y-53775000D03*
%TD*%
D26*
%TO.C,C208*%
X74625000Y-67400000D03*
X76175000Y-67400000D03*
%TD*%
D28*
%TO.C,J304*%
X70000000Y-78000000D03*
X66875000Y-74875000D03*
X66875000Y-81125000D03*
X73125000Y-74875000D03*
X73125000Y-81125000D03*
%TD*%
D29*
%TO.C,C203*%
X62680000Y-61600000D03*
X61720000Y-61600000D03*
%TD*%
D30*
%TO.C,R203*%
X65175000Y-58800000D03*
X66825000Y-58800000D03*
%TD*%
D26*
%TO.C,C502*%
X93225000Y-55000000D03*
X94775000Y-55000000D03*
%TD*%
D22*
%TO.C,C206*%
X77220000Y-64700000D03*
X78180000Y-64700000D03*
%TD*%
D31*
%TO.C,J401*%
X97400000Y-67890000D03*
X97400000Y-62110000D03*
D32*
X95955000Y-68250000D03*
X95955000Y-67450000D03*
D33*
X95955000Y-66250000D03*
X95955000Y-65250000D03*
X95955000Y-64750000D03*
X95955000Y-63750000D03*
D32*
X95955000Y-62550000D03*
X95955000Y-61750000D03*
X95955000Y-61750000D03*
X95955000Y-62550000D03*
D33*
X95955000Y-63250000D03*
X95955000Y-64250000D03*
X95955000Y-65750000D03*
X95955000Y-66750000D03*
D32*
X95955000Y-67450000D03*
X95955000Y-68250000D03*
D34*
X96870000Y-69320000D03*
D35*
X101050000Y-69320000D03*
D34*
X96870000Y-60680000D03*
D35*
X101050000Y-60680000D03*
%TD*%
D10*
%TO.C,TP106*%
X38000000Y-59000000D03*
%TD*%
D36*
%TO.C,U502*%
X93050000Y-53137500D03*
X94000000Y-53137500D03*
X94950000Y-53137500D03*
X94950000Y-50862500D03*
X93050000Y-50862500D03*
%TD*%
D37*
%TO.C,J201*%
X84950000Y-59510000D03*
X81050000Y-59510000D03*
X84950000Y-58240000D03*
X81050000Y-58240000D03*
X84950000Y-56970000D03*
X81050000Y-56970000D03*
X84950000Y-55700000D03*
X81050000Y-55700000D03*
X84950000Y-54430000D03*
X81050000Y-54430000D03*
X84950000Y-53160000D03*
X81050000Y-53160000D03*
X84950000Y-51890000D03*
X81050000Y-51890000D03*
%TD*%
D10*
%TO.C,TP107*%
X41000000Y-59000000D03*
%TD*%
D14*
%TO.C,JP103*%
X53000000Y-61175000D03*
X53000000Y-62825000D03*
%TD*%
D23*
%TO.C,D201*%
X83787500Y-68500000D03*
X82212500Y-68500000D03*
%TD*%
D30*
%TO.C,R201*%
X85675000Y-68500000D03*
X87325000Y-68500000D03*
%TD*%
D38*
%TO.C,Y201*%
X61100000Y-59700000D03*
X63300000Y-59700000D03*
X63300000Y-57900000D03*
X61100000Y-57900000D03*
%TD*%
D14*
%TO.C,JP104*%
X44000000Y-61175000D03*
X44000000Y-62825000D03*
%TD*%
D18*
%TO.C,H104*%
X17600000Y-50000000D03*
X18302944Y-48302944D03*
X18302944Y-51697056D03*
X20000000Y-47600000D03*
D19*
X20000000Y-50000000D03*
D18*
X20000000Y-52400000D03*
X21697056Y-48302944D03*
X21697056Y-51697056D03*
X22400000Y-50000000D03*
%TD*%
D22*
%TO.C,C302*%
X52320000Y-64200000D03*
X53280000Y-64200000D03*
%TD*%
D29*
%TO.C,C201*%
X67080000Y-60200000D03*
X66120000Y-60200000D03*
%TD*%
D39*
%TO.C,D503*%
X41212500Y-50000000D03*
X42787500Y-50000000D03*
%TD*%
D18*
%TO.C,H103*%
X17600000Y-80000000D03*
X18302944Y-78302944D03*
X18302944Y-81697056D03*
X20000000Y-77600000D03*
D19*
X20000000Y-80000000D03*
D18*
X20000000Y-82400000D03*
X21697056Y-78302944D03*
X21697056Y-81697056D03*
X22400000Y-80000000D03*
%TD*%
D22*
%TO.C,C202*%
X61720000Y-56000000D03*
X62680000Y-56000000D03*
%TD*%
D28*
%TO.C,J302*%
X30000000Y-78000000D03*
X26875000Y-74875000D03*
X26875000Y-81125000D03*
X33125000Y-74875000D03*
X33125000Y-81125000D03*
%TD*%
%TO.C,J303*%
X30000000Y-58000000D03*
X26875000Y-54875000D03*
X26875000Y-61125000D03*
X33125000Y-54875000D03*
X33125000Y-61125000D03*
%TD*%
D40*
%TO.C,U201*%
X68825000Y-57200000D03*
X68825000Y-58000000D03*
X68825000Y-58800000D03*
X68825000Y-59600000D03*
X68825000Y-60400000D03*
X68825000Y-61200000D03*
X68825000Y-62000000D03*
X68825000Y-62800000D03*
D41*
X70200000Y-64175000D03*
X71000000Y-64175000D03*
X71800000Y-64175000D03*
X72600000Y-64175000D03*
X73400000Y-64175000D03*
X74200000Y-64175000D03*
X75000000Y-64175000D03*
X75800000Y-64175000D03*
D40*
X77175000Y-62800000D03*
X77175000Y-62000000D03*
X77175000Y-61200000D03*
X77175000Y-60400000D03*
X77175000Y-59600000D03*
X77175000Y-58800000D03*
X77175000Y-58000000D03*
X77175000Y-57200000D03*
D41*
X75800000Y-55825000D03*
X75000000Y-55825000D03*
X74200000Y-55825000D03*
X73400000Y-55825000D03*
X72600000Y-55825000D03*
X71800000Y-55825000D03*
X71000000Y-55825000D03*
X70200000Y-55825000D03*
%TD*%
D16*
%TO.C,C504*%
X56000000Y-52225000D03*
X56000000Y-53775000D03*
%TD*%
D42*
%TO.C,SW201*%
X62300000Y-66000000D03*
X65700000Y-66000000D03*
%TD*%
D16*
%TO.C,C503*%
X38000000Y-52225000D03*
X38000000Y-53775000D03*
%TD*%
D14*
%TO.C,JP107*%
X41000000Y-61175000D03*
X41000000Y-62825000D03*
%TD*%
D10*
%TO.C,TP101*%
X56000000Y-59000000D03*
%TD*%
D26*
%TO.C,C505*%
X93225000Y-49000000D03*
X94775000Y-49000000D03*
%TD*%
D29*
%TO.C,C304*%
X50780000Y-69800000D03*
X49820000Y-69800000D03*
%TD*%
D22*
%TO.C,C205*%
X67820000Y-55300000D03*
X68780000Y-55300000D03*
%TD*%
D14*
%TO.C,JP106*%
X38000000Y-61175000D03*
X38000000Y-62825000D03*
%TD*%
D28*
%TO.C,J301*%
X50000000Y-78000000D03*
X46875000Y-74875000D03*
X46875000Y-81125000D03*
X53125000Y-74875000D03*
X53125000Y-81125000D03*
%TD*%
D27*
%TO.C,R503*%
X39325000Y-50000000D03*
X37675000Y-50000000D03*
%TD*%
D10*
%TO.C,TP503*%
X45000000Y-50000000D03*
%TD*%
D30*
%TO.C,R202*%
X85675000Y-70500000D03*
X87325000Y-70500000D03*
%TD*%
D28*
%TO.C,J305*%
X90000000Y-78000000D03*
X86875000Y-74875000D03*
X86875000Y-81125000D03*
X93125000Y-74875000D03*
X93125000Y-81125000D03*
%TD*%
D18*
%TO.C,H102*%
X97600000Y-80000000D03*
X98302944Y-78302944D03*
X98302944Y-81697056D03*
X100000000Y-77600000D03*
D19*
X100000000Y-80000000D03*
D18*
X100000000Y-82400000D03*
X101697056Y-78302944D03*
X101697056Y-81697056D03*
X102400000Y-80000000D03*
%TD*%
D22*
%TO.C,C301*%
X52020000Y-69800000D03*
X52980000Y-69800000D03*
%TD*%
D43*
%TO.C,R204*%
X71110000Y-53900000D03*
X70090000Y-53900000D03*
%TD*%
D39*
%TO.C,D501*%
X53212500Y-50000000D03*
X54787500Y-50000000D03*
%TD*%
D10*
%TO.C,TP103*%
X53000000Y-59000000D03*
%TD*%
M02*
