%TF.GenerationSoftware,KiCad,Pcbnew,7.0.1*%
%TF.CreationDate,2023-05-30T08:19:09+02:00*%
%TF.ProjectId,test_SGTL5000,74657374-5f53-4475-944c-353030302e6b,rev?*%
%TF.SameCoordinates,Original*%
%TF.FileFunction,Copper,L3,Inr*%
%TF.FilePolarity,Positive*%
%FSLAX46Y46*%
G04 Gerber Fmt 4.6, Leading zero omitted, Abs format (unit mm)*
G04 Created by KiCad (PCBNEW 7.0.1) date 2023-05-30 08:19:09*
%MOMM*%
%LPD*%
G01*
G04 APERTURE LIST*
%TA.AperFunction,ComponentPad*%
%ADD10C,0.800000*%
%TD*%
%TA.AperFunction,ComponentPad*%
%ADD11C,6.400000*%
%TD*%
%TA.AperFunction,ComponentPad*%
%ADD12C,3.000000*%
%TD*%
%TA.AperFunction,ComponentPad*%
%ADD13O,2.100000X1.000000*%
%TD*%
%TA.AperFunction,ComponentPad*%
%ADD14O,1.600000X1.000000*%
%TD*%
%TA.AperFunction,ViaPad*%
%ADD15C,0.600000*%
%TD*%
%TA.AperFunction,Conductor*%
%ADD16C,0.500000*%
%TD*%
G04 APERTURE END LIST*
D10*
%TO.N,GND*%
%TO.C,H101*%
X97600000Y-50000000D03*
X98302944Y-48302944D03*
X98302944Y-51697056D03*
X100000000Y-47600000D03*
D11*
X100000000Y-50000000D03*
D10*
X100000000Y-52400000D03*
X101697056Y-48302944D03*
X101697056Y-51697056D03*
X102400000Y-50000000D03*
%TD*%
D12*
%TO.N,/CODEC/LINEOUT_L*%
%TO.C,J304*%
X70000000Y-78000000D03*
%TO.N,GND*%
X66875000Y-74875000D03*
X66875000Y-81125000D03*
X73125000Y-74875000D03*
X73125000Y-81125000D03*
%TD*%
D13*
%TO.N,unconnected-(J401-SHIELD-PadS1)*%
%TO.C,J401*%
X96870000Y-69320000D03*
D14*
X101050000Y-69320000D03*
D13*
X96870000Y-60680000D03*
D14*
X101050000Y-60680000D03*
%TD*%
D10*
%TO.N,GND*%
%TO.C,H104*%
X17600000Y-50000000D03*
X18302944Y-48302944D03*
X18302944Y-51697056D03*
X20000000Y-47600000D03*
D11*
X20000000Y-50000000D03*
D10*
X20000000Y-52400000D03*
X21697056Y-48302944D03*
X21697056Y-51697056D03*
X22400000Y-50000000D03*
%TD*%
%TO.N,GND*%
%TO.C,H103*%
X17600000Y-80000000D03*
X18302944Y-78302944D03*
X18302944Y-81697056D03*
X20000000Y-77600000D03*
D11*
X20000000Y-80000000D03*
D10*
X20000000Y-82400000D03*
X21697056Y-78302944D03*
X21697056Y-81697056D03*
X22400000Y-80000000D03*
%TD*%
D12*
%TO.N,/CODEC/LINEIN_L*%
%TO.C,J302*%
X30000000Y-78000000D03*
%TO.N,GND*%
X26875000Y-74875000D03*
X26875000Y-81125000D03*
X33125000Y-74875000D03*
X33125000Y-81125000D03*
%TD*%
%TO.N,/CODEC/MIC*%
%TO.C,J303*%
X30000000Y-58000000D03*
%TO.N,GND*%
X26875000Y-54875000D03*
X26875000Y-61125000D03*
X33125000Y-54875000D03*
X33125000Y-61125000D03*
%TD*%
%TO.N,/CODEC/LINEIN_R*%
%TO.C,J301*%
X50000000Y-78000000D03*
%TO.N,GND*%
X46875000Y-74875000D03*
X46875000Y-81125000D03*
X53125000Y-74875000D03*
X53125000Y-81125000D03*
%TD*%
%TO.N,/CODEC/LINEOUT_R*%
%TO.C,J305*%
X90000000Y-78000000D03*
%TO.N,GND*%
X86875000Y-74875000D03*
X86875000Y-81125000D03*
X93125000Y-74875000D03*
X93125000Y-81125000D03*
%TD*%
D10*
%TO.N,GND*%
%TO.C,H102*%
X97600000Y-80000000D03*
X98302944Y-78302944D03*
X98302944Y-81697056D03*
X100000000Y-77600000D03*
D11*
X100000000Y-80000000D03*
D10*
X100000000Y-82400000D03*
X101697056Y-78302944D03*
X101697056Y-81697056D03*
X102400000Y-80000000D03*
%TD*%
D15*
%TO.N,/STM32/nRST*%
X75600000Y-57700000D03*
X66550000Y-66000000D03*
X78700000Y-54600000D03*
X67100000Y-62100000D03*
%TO.N,GND*%
X86000000Y-83200000D03*
X16800000Y-64000000D03*
X36000000Y-83200000D03*
X46000000Y-83200000D03*
X86500000Y-55700000D03*
X88000000Y-83200000D03*
X48900000Y-50000000D03*
X62000000Y-83200000D03*
X70000000Y-46800000D03*
X38000000Y-83200000D03*
X48000000Y-83200000D03*
X76500000Y-65900000D03*
X76000000Y-46800000D03*
X95200000Y-68900000D03*
X95600000Y-55000000D03*
X34000000Y-83200000D03*
X103200000Y-60000000D03*
X40000000Y-83200000D03*
X38000000Y-46800000D03*
X16800000Y-72000000D03*
X84000000Y-46800000D03*
X94000000Y-46800000D03*
X82000000Y-46800000D03*
X44000000Y-83200000D03*
X51400000Y-66600000D03*
X103200000Y-70000000D03*
X80600000Y-66500000D03*
X90000000Y-83200000D03*
X103200000Y-56000000D03*
X94000000Y-83200000D03*
X28000000Y-83200000D03*
X93000000Y-70600000D03*
X64000000Y-46800000D03*
X103200000Y-68000000D03*
X86500000Y-56970000D03*
X51400000Y-67400000D03*
X88100000Y-70500000D03*
X16800000Y-68000000D03*
X59900000Y-57900000D03*
X48200000Y-69700000D03*
X74000000Y-46800000D03*
X82000000Y-83200000D03*
X54000000Y-83200000D03*
X52000000Y-83200000D03*
X75800000Y-63100000D03*
X72000000Y-46800000D03*
X54000000Y-46800000D03*
X96000000Y-46800000D03*
X103200000Y-64000000D03*
X30000000Y-46800000D03*
X94000000Y-54100000D03*
X52000000Y-46800000D03*
X60000000Y-83200000D03*
X50600000Y-67400000D03*
X16800000Y-56000000D03*
X103200000Y-58000000D03*
X61100000Y-56000000D03*
X50900000Y-53000000D03*
X42000000Y-46800000D03*
X32000000Y-46800000D03*
X70200000Y-56900000D03*
X96000000Y-83200000D03*
X65500000Y-60200000D03*
X38000000Y-54600000D03*
X66000000Y-83200000D03*
X36000000Y-46800000D03*
X58000000Y-46800000D03*
X66000000Y-46800000D03*
X40000000Y-46800000D03*
X74000000Y-83200000D03*
X54000000Y-64200000D03*
X16800000Y-70000000D03*
X16800000Y-66000000D03*
X44000000Y-46800000D03*
X69500000Y-53900000D03*
X16800000Y-74000000D03*
X77000000Y-67400000D03*
X36900000Y-50000000D03*
X88000000Y-46800000D03*
X103200000Y-76000000D03*
X70000000Y-83200000D03*
X38900000Y-53000000D03*
X46000000Y-46800000D03*
X64000000Y-83200000D03*
X58000000Y-83200000D03*
X50600000Y-66600000D03*
X26000000Y-83200000D03*
X60000000Y-46800000D03*
X86500000Y-53160000D03*
X50000000Y-83200000D03*
X92000000Y-83200000D03*
X16800000Y-58000000D03*
X76000000Y-83200000D03*
X64500000Y-59700000D03*
X84000000Y-83200000D03*
X80000000Y-46800000D03*
X26000000Y-46800000D03*
X103200000Y-54000000D03*
X103200000Y-72000000D03*
X44000000Y-54600000D03*
X16800000Y-62000000D03*
X32000000Y-83200000D03*
X49200000Y-69800000D03*
X92000000Y-46800000D03*
X42000000Y-83200000D03*
X50000000Y-54600000D03*
X78800000Y-64700000D03*
X103200000Y-66000000D03*
X91000000Y-56100000D03*
X68000000Y-46800000D03*
X50000000Y-46800000D03*
X30000000Y-83200000D03*
X61500000Y-66000000D03*
X78000000Y-46800000D03*
X103200000Y-62000000D03*
X16800000Y-60000000D03*
X48000000Y-46800000D03*
X72000000Y-83200000D03*
X24000000Y-83200000D03*
X86000000Y-46800000D03*
X24000000Y-46800000D03*
X16800000Y-76000000D03*
X34000000Y-46800000D03*
X63400000Y-61600000D03*
X56000000Y-54600000D03*
X28000000Y-46800000D03*
X95600000Y-49000000D03*
X56000000Y-83200000D03*
X88100000Y-68500000D03*
X78000000Y-83200000D03*
X103200000Y-74000000D03*
X16800000Y-54000000D03*
X68800000Y-56100000D03*
X80000000Y-83200000D03*
X74200000Y-63100000D03*
X93000000Y-59400000D03*
X90000000Y-46800000D03*
X53600000Y-69800000D03*
X68000000Y-83200000D03*
X56000000Y-46800000D03*
X89400000Y-65000000D03*
X95200000Y-61100000D03*
X62000000Y-46800000D03*
%TO.N,+3V3*%
X67700000Y-56800000D03*
X90100000Y-50200000D03*
X86500000Y-58200000D03*
X77400000Y-66500000D03*
X92000000Y-50200000D03*
X93100000Y-49900000D03*
X77200000Y-64000000D03*
X78300000Y-62800000D03*
X51600000Y-64200000D03*
%TO.N,+3.3VA*%
X50800000Y-70500000D03*
X74900000Y-65300000D03*
X56000000Y-51400000D03*
X54100000Y-52700000D03*
X74600000Y-66600000D03*
%TO.N,+1V8*%
X44000000Y-51400000D03*
X47500000Y-68100000D03*
X42100000Y-52700000D03*
%TO.N,+5V*%
X50000000Y-51400000D03*
X92450000Y-55000000D03*
X38800000Y-52150000D03*
X93150000Y-54200000D03*
X37100000Y-52200000D03*
X49200000Y-52200000D03*
X50850000Y-52150000D03*
X93200000Y-55800000D03*
X38000000Y-51400000D03*
%TO.N,/POWER/VBUS*%
X94000000Y-65000000D03*
X97550000Y-58000000D03*
X94600000Y-67450000D03*
X94600000Y-62550000D03*
%TO.N,/STM32/VCP_TX*%
X73400000Y-58500000D03*
X77100000Y-53100000D03*
%TO.N,/STM32/I2S_SCLK*%
X75800000Y-62000000D03*
X51200000Y-61200000D03*
%TO.N,/STM32/I2S_LRCLK*%
X75100000Y-61200000D03*
X54100000Y-61200000D03*
%TO.N,/STM32/I2S_DIN*%
X54800000Y-56200000D03*
X74600000Y-60400000D03*
%TO.N,/STM32/I2C_SCL*%
X75800000Y-54700000D03*
X39000000Y-56000000D03*
%TO.N,/STM32/I2C_SDA*%
X71800000Y-57100000D03*
X42000000Y-56000000D03*
%TO.N,/CODEC/LINEIN_L*%
X55900000Y-66100000D03*
%TO.N,/CODEC/MIC*%
X54800000Y-65600000D03*
%TO.N,/CODEC/LINEOUT_L*%
X55450000Y-68150000D03*
%TO.N,/CODEC/LINEOUT_R*%
X53900000Y-68099500D03*
%TD*%
D16*
%TO.N,+5V*%
X92450000Y-55000000D02*
X92450000Y-54900000D01*
X93200000Y-55800000D02*
X93200000Y-55750000D01*
%TD*%
%TA.AperFunction,Conductor*%
%TO.N,+5V*%
G36*
X37802381Y-46018773D02*
G01*
X37848076Y-46068205D01*
X37861209Y-46134229D01*
X37837909Y-46197386D01*
X37785043Y-46239061D01*
X37697159Y-46275463D01*
X37571717Y-46371717D01*
X37475463Y-46497159D01*
X37414956Y-46643237D01*
X37394317Y-46800000D01*
X37414956Y-46956762D01*
X37475463Y-47102840D01*
X37571717Y-47228282D01*
X37594541Y-47245795D01*
X37697159Y-47324536D01*
X37843238Y-47385044D01*
X38000000Y-47405682D01*
X38156762Y-47385044D01*
X38302841Y-47324536D01*
X38428282Y-47228282D01*
X38524536Y-47102841D01*
X38585044Y-46956762D01*
X38605682Y-46800000D01*
X38585044Y-46643238D01*
X38524536Y-46497159D01*
X38455272Y-46406892D01*
X38428282Y-46371717D01*
X38302840Y-46275463D01*
X38214957Y-46239061D01*
X38162091Y-46197386D01*
X38138791Y-46134229D01*
X38151924Y-46068205D01*
X38197619Y-46018773D01*
X38262409Y-46000500D01*
X39737591Y-46000500D01*
X39802381Y-46018773D01*
X39848076Y-46068205D01*
X39861209Y-46134229D01*
X39837909Y-46197386D01*
X39785043Y-46239061D01*
X39697159Y-46275463D01*
X39571717Y-46371717D01*
X39475463Y-46497159D01*
X39414956Y-46643237D01*
X39394317Y-46800000D01*
X39414956Y-46956762D01*
X39475463Y-47102840D01*
X39571717Y-47228282D01*
X39594541Y-47245795D01*
X39697159Y-47324536D01*
X39843238Y-47385044D01*
X40000000Y-47405682D01*
X40156762Y-47385044D01*
X40302841Y-47324536D01*
X40428282Y-47228282D01*
X40524536Y-47102841D01*
X40585044Y-46956762D01*
X40605682Y-46800000D01*
X40585044Y-46643238D01*
X40524536Y-46497159D01*
X40455272Y-46406892D01*
X40428282Y-46371717D01*
X40302840Y-46275463D01*
X40214957Y-46239061D01*
X40162091Y-46197386D01*
X40138791Y-46134229D01*
X40151924Y-46068205D01*
X40197619Y-46018773D01*
X40262409Y-46000500D01*
X41737591Y-46000500D01*
X41802381Y-46018773D01*
X41848076Y-46068205D01*
X41861209Y-46134229D01*
X41837909Y-46197386D01*
X41785043Y-46239061D01*
X41697159Y-46275463D01*
X41571717Y-46371717D01*
X41475463Y-46497159D01*
X41414956Y-46643237D01*
X41394317Y-46800000D01*
X41414956Y-46956762D01*
X41475463Y-47102840D01*
X41571717Y-47228282D01*
X41594541Y-47245795D01*
X41697159Y-47324536D01*
X41843238Y-47385044D01*
X42000000Y-47405682D01*
X42156762Y-47385044D01*
X42302841Y-47324536D01*
X42428282Y-47228282D01*
X42524536Y-47102841D01*
X42585044Y-46956762D01*
X42605682Y-46800000D01*
X42585044Y-46643238D01*
X42524536Y-46497159D01*
X42455272Y-46406892D01*
X42428282Y-46371717D01*
X42302840Y-46275463D01*
X42214957Y-46239061D01*
X42162091Y-46197386D01*
X42138791Y-46134229D01*
X42151924Y-46068205D01*
X42197619Y-46018773D01*
X42262409Y-46000500D01*
X43737591Y-46000500D01*
X43802381Y-46018773D01*
X43848076Y-46068205D01*
X43861209Y-46134229D01*
X43837909Y-46197386D01*
X43785043Y-46239061D01*
X43697159Y-46275463D01*
X43571717Y-46371717D01*
X43475463Y-46497159D01*
X43414956Y-46643237D01*
X43394317Y-46800000D01*
X43414956Y-46956762D01*
X43475463Y-47102840D01*
X43571717Y-47228282D01*
X43594541Y-47245795D01*
X43697159Y-47324536D01*
X43843238Y-47385044D01*
X44000000Y-47405682D01*
X44156762Y-47385044D01*
X44302841Y-47324536D01*
X44428282Y-47228282D01*
X44524536Y-47102841D01*
X44585044Y-46956762D01*
X44605682Y-46800000D01*
X44585044Y-46643238D01*
X44524536Y-46497159D01*
X44455272Y-46406892D01*
X44428282Y-46371717D01*
X44302840Y-46275463D01*
X44214957Y-46239061D01*
X44162091Y-46197386D01*
X44138791Y-46134229D01*
X44151924Y-46068205D01*
X44197619Y-46018773D01*
X44262409Y-46000500D01*
X45737591Y-46000500D01*
X45802381Y-46018773D01*
X45848076Y-46068205D01*
X45861209Y-46134229D01*
X45837909Y-46197386D01*
X45785043Y-46239061D01*
X45697159Y-46275463D01*
X45571717Y-46371717D01*
X45475463Y-46497159D01*
X45414956Y-46643237D01*
X45394317Y-46800000D01*
X45414956Y-46956762D01*
X45475463Y-47102840D01*
X45571717Y-47228282D01*
X45594541Y-47245795D01*
X45697159Y-47324536D01*
X45843238Y-47385044D01*
X46000000Y-47405682D01*
X46156762Y-47385044D01*
X46302841Y-47324536D01*
X46428282Y-47228282D01*
X46524536Y-47102841D01*
X46585044Y-46956762D01*
X46605682Y-46800000D01*
X46585044Y-46643238D01*
X46524536Y-46497159D01*
X46455272Y-46406892D01*
X46428282Y-46371717D01*
X46302840Y-46275463D01*
X46214957Y-46239061D01*
X46162091Y-46197386D01*
X46138791Y-46134229D01*
X46151924Y-46068205D01*
X46197619Y-46018773D01*
X46262409Y-46000500D01*
X47737591Y-46000500D01*
X47802381Y-46018773D01*
X47848076Y-46068205D01*
X47861209Y-46134229D01*
X47837909Y-46197386D01*
X47785043Y-46239061D01*
X47697159Y-46275463D01*
X47571717Y-46371717D01*
X47475463Y-46497159D01*
X47414956Y-46643237D01*
X47394317Y-46800000D01*
X47414956Y-46956762D01*
X47475463Y-47102840D01*
X47571717Y-47228282D01*
X47594541Y-47245795D01*
X47697159Y-47324536D01*
X47843238Y-47385044D01*
X48000000Y-47405682D01*
X48156762Y-47385044D01*
X48302841Y-47324536D01*
X48428282Y-47228282D01*
X48524536Y-47102841D01*
X48585044Y-46956762D01*
X48605682Y-46800000D01*
X48585044Y-46643238D01*
X48524536Y-46497159D01*
X48455272Y-46406892D01*
X48428282Y-46371717D01*
X48302840Y-46275463D01*
X48214957Y-46239061D01*
X48162091Y-46197386D01*
X48138791Y-46134229D01*
X48151924Y-46068205D01*
X48197619Y-46018773D01*
X48262409Y-46000500D01*
X49737591Y-46000500D01*
X49802381Y-46018773D01*
X49848076Y-46068205D01*
X49861209Y-46134229D01*
X49837909Y-46197386D01*
X49785043Y-46239061D01*
X49697159Y-46275463D01*
X49571717Y-46371717D01*
X49475463Y-46497159D01*
X49414956Y-46643237D01*
X49394317Y-46800000D01*
X49414956Y-46956762D01*
X49475463Y-47102840D01*
X49571717Y-47228282D01*
X49594541Y-47245795D01*
X49697159Y-47324536D01*
X49843238Y-47385044D01*
X50000000Y-47405682D01*
X50156762Y-47385044D01*
X50302841Y-47324536D01*
X50428282Y-47228282D01*
X50524536Y-47102841D01*
X50585044Y-46956762D01*
X50605682Y-46800000D01*
X50585044Y-46643238D01*
X50524536Y-46497159D01*
X50455272Y-46406892D01*
X50428282Y-46371717D01*
X50302840Y-46275463D01*
X50214957Y-46239061D01*
X50162091Y-46197386D01*
X50138791Y-46134229D01*
X50151924Y-46068205D01*
X50197619Y-46018773D01*
X50262409Y-46000500D01*
X51737591Y-46000500D01*
X51802381Y-46018773D01*
X51848076Y-46068205D01*
X51861209Y-46134229D01*
X51837909Y-46197386D01*
X51785043Y-46239061D01*
X51697159Y-46275463D01*
X51571717Y-46371717D01*
X51475463Y-46497159D01*
X51414956Y-46643237D01*
X51394317Y-46800000D01*
X51414956Y-46956762D01*
X51475463Y-47102840D01*
X51571717Y-47228282D01*
X51594541Y-47245795D01*
X51697159Y-47324536D01*
X51843238Y-47385044D01*
X52000000Y-47405682D01*
X52156762Y-47385044D01*
X52302841Y-47324536D01*
X52428282Y-47228282D01*
X52524536Y-47102841D01*
X52585044Y-46956762D01*
X52605682Y-46800000D01*
X52585044Y-46643238D01*
X52524536Y-46497159D01*
X52455272Y-46406892D01*
X52428282Y-46371717D01*
X52302840Y-46275463D01*
X52214957Y-46239061D01*
X52162091Y-46197386D01*
X52138791Y-46134229D01*
X52151924Y-46068205D01*
X52197619Y-46018773D01*
X52262409Y-46000500D01*
X53737591Y-46000500D01*
X53802381Y-46018773D01*
X53848076Y-46068205D01*
X53861209Y-46134229D01*
X53837909Y-46197386D01*
X53785043Y-46239061D01*
X53697159Y-46275463D01*
X53571717Y-46371717D01*
X53475463Y-46497159D01*
X53414956Y-46643237D01*
X53394317Y-46800000D01*
X53414956Y-46956762D01*
X53475463Y-47102840D01*
X53571717Y-47228282D01*
X53594541Y-47245795D01*
X53697159Y-47324536D01*
X53843238Y-47385044D01*
X54000000Y-47405682D01*
X54156762Y-47385044D01*
X54302841Y-47324536D01*
X54428282Y-47228282D01*
X54524536Y-47102841D01*
X54585044Y-46956762D01*
X54605682Y-46800000D01*
X54585044Y-46643238D01*
X54524536Y-46497159D01*
X54455272Y-46406892D01*
X54428282Y-46371717D01*
X54302840Y-46275463D01*
X54214957Y-46239061D01*
X54162091Y-46197386D01*
X54138791Y-46134229D01*
X54151924Y-46068205D01*
X54197619Y-46018773D01*
X54262409Y-46000500D01*
X55737591Y-46000500D01*
X55802381Y-46018773D01*
X55848076Y-46068205D01*
X55861209Y-46134229D01*
X55837909Y-46197386D01*
X55785043Y-46239061D01*
X55697159Y-46275463D01*
X55571717Y-46371717D01*
X55475463Y-46497159D01*
X55414956Y-46643237D01*
X55394317Y-46800000D01*
X55414956Y-46956762D01*
X55475463Y-47102840D01*
X55571717Y-47228282D01*
X55594541Y-47245795D01*
X55697159Y-47324536D01*
X55843238Y-47385044D01*
X56000000Y-47405682D01*
X56156762Y-47385044D01*
X56302841Y-47324536D01*
X56428282Y-47228282D01*
X56524536Y-47102841D01*
X56585044Y-46956762D01*
X56605682Y-46800000D01*
X56585044Y-46643238D01*
X56524536Y-46497159D01*
X56455272Y-46406892D01*
X56428282Y-46371717D01*
X56302840Y-46275463D01*
X56214957Y-46239061D01*
X56162091Y-46197386D01*
X56138791Y-46134229D01*
X56151924Y-46068205D01*
X56197619Y-46018773D01*
X56262409Y-46000500D01*
X57737591Y-46000500D01*
X57802381Y-46018773D01*
X57848076Y-46068205D01*
X57861209Y-46134229D01*
X57837909Y-46197386D01*
X57785043Y-46239061D01*
X57697159Y-46275463D01*
X57571717Y-46371717D01*
X57475463Y-46497159D01*
X57414956Y-46643237D01*
X57394317Y-46800000D01*
X57414956Y-46956762D01*
X57475463Y-47102840D01*
X57571717Y-47228282D01*
X57594541Y-47245795D01*
X57697159Y-47324536D01*
X57843238Y-47385044D01*
X58000000Y-47405682D01*
X58156762Y-47385044D01*
X58302841Y-47324536D01*
X58428282Y-47228282D01*
X58524536Y-47102841D01*
X58585044Y-46956762D01*
X58605682Y-46800000D01*
X58585044Y-46643238D01*
X58524536Y-46497159D01*
X58455272Y-46406892D01*
X58428282Y-46371717D01*
X58302840Y-46275463D01*
X58214957Y-46239061D01*
X58162091Y-46197386D01*
X58138791Y-46134229D01*
X58151924Y-46068205D01*
X58197619Y-46018773D01*
X58262409Y-46000500D01*
X59737591Y-46000500D01*
X59802381Y-46018773D01*
X59848076Y-46068205D01*
X59861209Y-46134229D01*
X59837909Y-46197386D01*
X59785043Y-46239061D01*
X59697159Y-46275463D01*
X59571717Y-46371717D01*
X59475463Y-46497159D01*
X59414956Y-46643237D01*
X59394317Y-46800000D01*
X59414956Y-46956762D01*
X59475463Y-47102840D01*
X59571717Y-47228282D01*
X59594541Y-47245795D01*
X59697159Y-47324536D01*
X59843238Y-47385044D01*
X60000000Y-47405682D01*
X60156762Y-47385044D01*
X60302841Y-47324536D01*
X60428282Y-47228282D01*
X60524536Y-47102841D01*
X60585044Y-46956762D01*
X60605682Y-46800000D01*
X60585044Y-46643238D01*
X60524536Y-46497159D01*
X60455272Y-46406892D01*
X60428282Y-46371717D01*
X60302840Y-46275463D01*
X60214957Y-46239061D01*
X60162091Y-46197386D01*
X60138791Y-46134229D01*
X60151924Y-46068205D01*
X60197619Y-46018773D01*
X60262409Y-46000500D01*
X61737591Y-46000500D01*
X61802381Y-46018773D01*
X61848076Y-46068205D01*
X61861209Y-46134229D01*
X61837909Y-46197386D01*
X61785043Y-46239061D01*
X61697159Y-46275463D01*
X61571717Y-46371717D01*
X61475463Y-46497159D01*
X61414956Y-46643237D01*
X61394317Y-46799999D01*
X61414956Y-46956762D01*
X61475463Y-47102840D01*
X61571717Y-47228282D01*
X61594541Y-47245795D01*
X61697159Y-47324536D01*
X61843238Y-47385044D01*
X62000000Y-47405682D01*
X62156762Y-47385044D01*
X62302841Y-47324536D01*
X62428282Y-47228282D01*
X62524536Y-47102841D01*
X62585044Y-46956762D01*
X62605682Y-46800000D01*
X62585044Y-46643238D01*
X62524536Y-46497159D01*
X62455272Y-46406892D01*
X62428282Y-46371717D01*
X62302840Y-46275463D01*
X62214957Y-46239061D01*
X62162091Y-46197386D01*
X62138791Y-46134229D01*
X62151924Y-46068205D01*
X62197619Y-46018773D01*
X62262409Y-46000500D01*
X63737591Y-46000500D01*
X63802381Y-46018773D01*
X63848076Y-46068205D01*
X63861209Y-46134229D01*
X63837909Y-46197386D01*
X63785043Y-46239061D01*
X63697159Y-46275463D01*
X63571717Y-46371717D01*
X63475463Y-46497159D01*
X63414956Y-46643237D01*
X63394317Y-46799999D01*
X63414956Y-46956762D01*
X63475463Y-47102840D01*
X63571717Y-47228282D01*
X63594541Y-47245795D01*
X63697159Y-47324536D01*
X63843238Y-47385044D01*
X64000000Y-47405682D01*
X64156762Y-47385044D01*
X64302841Y-47324536D01*
X64428282Y-47228282D01*
X64524536Y-47102841D01*
X64585044Y-46956762D01*
X64605682Y-46800000D01*
X64585044Y-46643238D01*
X64524536Y-46497159D01*
X64455272Y-46406892D01*
X64428282Y-46371717D01*
X64302840Y-46275463D01*
X64214957Y-46239061D01*
X64162091Y-46197386D01*
X64138791Y-46134229D01*
X64151924Y-46068205D01*
X64197619Y-46018773D01*
X64262409Y-46000500D01*
X65737591Y-46000500D01*
X65802381Y-46018773D01*
X65848076Y-46068205D01*
X65861209Y-46134229D01*
X65837909Y-46197386D01*
X65785043Y-46239061D01*
X65697159Y-46275463D01*
X65571717Y-46371717D01*
X65475463Y-46497159D01*
X65414956Y-46643237D01*
X65394317Y-46799999D01*
X65414956Y-46956762D01*
X65475463Y-47102840D01*
X65571717Y-47228282D01*
X65594541Y-47245795D01*
X65697159Y-47324536D01*
X65843238Y-47385044D01*
X66000000Y-47405682D01*
X66156762Y-47385044D01*
X66302841Y-47324536D01*
X66428282Y-47228282D01*
X66524536Y-47102841D01*
X66585044Y-46956762D01*
X66605682Y-46800000D01*
X66585044Y-46643238D01*
X66524536Y-46497159D01*
X66455272Y-46406892D01*
X66428282Y-46371717D01*
X66302840Y-46275463D01*
X66214957Y-46239061D01*
X66162091Y-46197386D01*
X66138791Y-46134229D01*
X66151924Y-46068205D01*
X66197619Y-46018773D01*
X66262409Y-46000500D01*
X67737591Y-46000500D01*
X67802381Y-46018773D01*
X67848076Y-46068205D01*
X67861209Y-46134229D01*
X67837909Y-46197386D01*
X67785043Y-46239061D01*
X67697159Y-46275463D01*
X67571717Y-46371717D01*
X67475463Y-46497159D01*
X67414956Y-46643237D01*
X67394317Y-46799999D01*
X67414956Y-46956762D01*
X67475463Y-47102840D01*
X67571717Y-47228282D01*
X67594541Y-47245795D01*
X67697159Y-47324536D01*
X67843238Y-47385044D01*
X68000000Y-47405682D01*
X68156762Y-47385044D01*
X68302841Y-47324536D01*
X68428282Y-47228282D01*
X68524536Y-47102841D01*
X68585044Y-46956762D01*
X68605682Y-46800000D01*
X68585044Y-46643238D01*
X68524536Y-46497159D01*
X68455272Y-46406892D01*
X68428282Y-46371717D01*
X68302840Y-46275463D01*
X68214957Y-46239061D01*
X68162091Y-46197386D01*
X68138791Y-46134229D01*
X68151924Y-46068205D01*
X68197619Y-46018773D01*
X68262409Y-46000500D01*
X69737591Y-46000500D01*
X69802381Y-46018773D01*
X69848076Y-46068205D01*
X69861209Y-46134229D01*
X69837909Y-46197386D01*
X69785043Y-46239061D01*
X69697159Y-46275463D01*
X69571717Y-46371717D01*
X69475463Y-46497159D01*
X69414956Y-46643237D01*
X69394317Y-46799999D01*
X69414956Y-46956762D01*
X69475463Y-47102840D01*
X69571717Y-47228282D01*
X69594541Y-47245795D01*
X69697159Y-47324536D01*
X69843238Y-47385044D01*
X70000000Y-47405682D01*
X70156762Y-47385044D01*
X70302841Y-47324536D01*
X70428282Y-47228282D01*
X70524536Y-47102841D01*
X70585044Y-46956762D01*
X70605682Y-46800000D01*
X70585044Y-46643238D01*
X70524536Y-46497159D01*
X70455272Y-46406892D01*
X70428282Y-46371717D01*
X70302840Y-46275463D01*
X70214957Y-46239061D01*
X70162091Y-46197386D01*
X70138791Y-46134229D01*
X70151924Y-46068205D01*
X70197619Y-46018773D01*
X70262409Y-46000500D01*
X71737591Y-46000500D01*
X71802381Y-46018773D01*
X71848076Y-46068205D01*
X71861209Y-46134229D01*
X71837909Y-46197386D01*
X71785043Y-46239061D01*
X71697159Y-46275463D01*
X71571717Y-46371717D01*
X71475463Y-46497159D01*
X71414956Y-46643237D01*
X71394317Y-46799999D01*
X71414956Y-46956762D01*
X71475463Y-47102840D01*
X71571717Y-47228282D01*
X71594541Y-47245795D01*
X71697159Y-47324536D01*
X71843238Y-47385044D01*
X72000000Y-47405682D01*
X72156762Y-47385044D01*
X72302841Y-47324536D01*
X72428282Y-47228282D01*
X72524536Y-47102841D01*
X72585044Y-46956762D01*
X72605682Y-46800000D01*
X72585044Y-46643238D01*
X72524536Y-46497159D01*
X72455272Y-46406892D01*
X72428282Y-46371717D01*
X72302840Y-46275463D01*
X72214957Y-46239061D01*
X72162091Y-46197386D01*
X72138791Y-46134229D01*
X72151924Y-46068205D01*
X72197619Y-46018773D01*
X72262409Y-46000500D01*
X73737591Y-46000500D01*
X73802381Y-46018773D01*
X73848076Y-46068205D01*
X73861209Y-46134229D01*
X73837909Y-46197386D01*
X73785043Y-46239061D01*
X73697159Y-46275463D01*
X73571717Y-46371717D01*
X73475463Y-46497159D01*
X73414956Y-46643237D01*
X73394317Y-46800000D01*
X73414956Y-46956762D01*
X73475463Y-47102840D01*
X73571717Y-47228282D01*
X73594541Y-47245795D01*
X73697159Y-47324536D01*
X73843238Y-47385044D01*
X74000000Y-47405682D01*
X74156762Y-47385044D01*
X74302841Y-47324536D01*
X74428282Y-47228282D01*
X74524536Y-47102841D01*
X74585044Y-46956762D01*
X74605682Y-46800000D01*
X74585044Y-46643238D01*
X74524536Y-46497159D01*
X74455272Y-46406892D01*
X74428282Y-46371717D01*
X74302840Y-46275463D01*
X74214957Y-46239061D01*
X74162091Y-46197386D01*
X74138791Y-46134229D01*
X74151924Y-46068205D01*
X74197619Y-46018773D01*
X74262409Y-46000500D01*
X75737591Y-46000500D01*
X75802381Y-46018773D01*
X75848076Y-46068205D01*
X75861209Y-46134229D01*
X75837909Y-46197386D01*
X75785043Y-46239061D01*
X75697159Y-46275463D01*
X75571717Y-46371717D01*
X75475463Y-46497159D01*
X75414956Y-46643237D01*
X75394317Y-46800000D01*
X75414956Y-46956762D01*
X75475463Y-47102840D01*
X75571717Y-47228282D01*
X75594541Y-47245795D01*
X75697159Y-47324536D01*
X75843238Y-47385044D01*
X76000000Y-47405682D01*
X76156762Y-47385044D01*
X76302841Y-47324536D01*
X76428282Y-47228282D01*
X76524536Y-47102841D01*
X76585044Y-46956762D01*
X76605682Y-46800000D01*
X76585044Y-46643238D01*
X76524536Y-46497159D01*
X76455272Y-46406892D01*
X76428282Y-46371717D01*
X76302840Y-46275463D01*
X76214957Y-46239061D01*
X76162091Y-46197386D01*
X76138791Y-46134229D01*
X76151924Y-46068205D01*
X76197619Y-46018773D01*
X76262409Y-46000500D01*
X77737591Y-46000500D01*
X77802381Y-46018773D01*
X77848076Y-46068205D01*
X77861209Y-46134229D01*
X77837909Y-46197386D01*
X77785043Y-46239061D01*
X77697159Y-46275463D01*
X77571717Y-46371717D01*
X77475463Y-46497159D01*
X77414956Y-46643237D01*
X77394317Y-46800000D01*
X77414956Y-46956762D01*
X77475463Y-47102840D01*
X77571717Y-47228282D01*
X77594541Y-47245795D01*
X77697159Y-47324536D01*
X77843238Y-47385044D01*
X78000000Y-47405682D01*
X78156762Y-47385044D01*
X78302841Y-47324536D01*
X78428282Y-47228282D01*
X78524536Y-47102841D01*
X78585044Y-46956762D01*
X78605682Y-46800000D01*
X78585044Y-46643238D01*
X78524536Y-46497159D01*
X78455272Y-46406892D01*
X78428282Y-46371717D01*
X78302840Y-46275463D01*
X78214957Y-46239061D01*
X78162091Y-46197386D01*
X78138791Y-46134229D01*
X78151924Y-46068205D01*
X78197619Y-46018773D01*
X78262409Y-46000500D01*
X79737591Y-46000500D01*
X79802381Y-46018773D01*
X79848076Y-46068205D01*
X79861209Y-46134229D01*
X79837909Y-46197386D01*
X79785043Y-46239061D01*
X79697159Y-46275463D01*
X79571717Y-46371717D01*
X79475463Y-46497159D01*
X79414956Y-46643237D01*
X79394317Y-46800000D01*
X79414956Y-46956762D01*
X79475463Y-47102840D01*
X79571717Y-47228282D01*
X79594541Y-47245795D01*
X79697159Y-47324536D01*
X79843238Y-47385044D01*
X80000000Y-47405682D01*
X80156762Y-47385044D01*
X80302841Y-47324536D01*
X80428282Y-47228282D01*
X80524536Y-47102841D01*
X80585044Y-46956762D01*
X80605682Y-46800000D01*
X80585044Y-46643238D01*
X80524536Y-46497159D01*
X80455272Y-46406892D01*
X80428282Y-46371717D01*
X80302840Y-46275463D01*
X80214957Y-46239061D01*
X80162091Y-46197386D01*
X80138791Y-46134229D01*
X80151924Y-46068205D01*
X80197619Y-46018773D01*
X80262409Y-46000500D01*
X81737591Y-46000500D01*
X81802381Y-46018773D01*
X81848076Y-46068205D01*
X81861209Y-46134229D01*
X81837909Y-46197386D01*
X81785043Y-46239061D01*
X81697159Y-46275463D01*
X81571717Y-46371717D01*
X81475463Y-46497159D01*
X81414956Y-46643237D01*
X81394317Y-46800000D01*
X81414956Y-46956762D01*
X81475463Y-47102840D01*
X81571717Y-47228282D01*
X81594541Y-47245795D01*
X81697159Y-47324536D01*
X81843238Y-47385044D01*
X82000000Y-47405682D01*
X82156762Y-47385044D01*
X82302841Y-47324536D01*
X82428282Y-47228282D01*
X82524536Y-47102841D01*
X82585044Y-46956762D01*
X82605682Y-46800000D01*
X82585044Y-46643238D01*
X82524536Y-46497159D01*
X82455272Y-46406892D01*
X82428282Y-46371717D01*
X82302840Y-46275463D01*
X82214957Y-46239061D01*
X82162091Y-46197386D01*
X82138791Y-46134229D01*
X82151924Y-46068205D01*
X82197619Y-46018773D01*
X82262409Y-46000500D01*
X83737591Y-46000500D01*
X83802381Y-46018773D01*
X83848076Y-46068205D01*
X83861209Y-46134229D01*
X83837909Y-46197386D01*
X83785043Y-46239061D01*
X83697159Y-46275463D01*
X83571717Y-46371717D01*
X83475463Y-46497159D01*
X83414956Y-46643237D01*
X83394317Y-46800000D01*
X83414956Y-46956762D01*
X83475463Y-47102840D01*
X83571717Y-47228282D01*
X83594541Y-47245795D01*
X83697159Y-47324536D01*
X83843238Y-47385044D01*
X84000000Y-47405682D01*
X84156762Y-47385044D01*
X84302841Y-47324536D01*
X84428282Y-47228282D01*
X84524536Y-47102841D01*
X84585044Y-46956762D01*
X84605682Y-46800000D01*
X84585044Y-46643238D01*
X84524536Y-46497159D01*
X84455272Y-46406892D01*
X84428282Y-46371717D01*
X84302840Y-46275463D01*
X84214957Y-46239061D01*
X84162091Y-46197386D01*
X84138791Y-46134229D01*
X84151924Y-46068205D01*
X84197619Y-46018773D01*
X84262409Y-46000500D01*
X85737591Y-46000500D01*
X85802381Y-46018773D01*
X85848076Y-46068205D01*
X85861209Y-46134229D01*
X85837909Y-46197386D01*
X85785043Y-46239061D01*
X85697159Y-46275463D01*
X85571717Y-46371717D01*
X85475463Y-46497159D01*
X85414956Y-46643237D01*
X85394317Y-46800000D01*
X85414956Y-46956762D01*
X85475463Y-47102840D01*
X85571717Y-47228282D01*
X85594541Y-47245795D01*
X85697159Y-47324536D01*
X85843238Y-47385044D01*
X86000000Y-47405682D01*
X86156762Y-47385044D01*
X86302841Y-47324536D01*
X86428282Y-47228282D01*
X86524536Y-47102841D01*
X86585044Y-46956762D01*
X86605682Y-46800000D01*
X86585044Y-46643238D01*
X86524536Y-46497159D01*
X86455272Y-46406892D01*
X86428282Y-46371717D01*
X86302840Y-46275463D01*
X86214957Y-46239061D01*
X86162091Y-46197386D01*
X86138791Y-46134229D01*
X86151924Y-46068205D01*
X86197619Y-46018773D01*
X86262409Y-46000500D01*
X87737591Y-46000500D01*
X87802381Y-46018773D01*
X87848076Y-46068205D01*
X87861209Y-46134229D01*
X87837909Y-46197386D01*
X87785043Y-46239061D01*
X87697159Y-46275463D01*
X87571717Y-46371717D01*
X87475463Y-46497159D01*
X87414956Y-46643237D01*
X87394317Y-46800000D01*
X87414956Y-46956762D01*
X87475463Y-47102840D01*
X87571717Y-47228282D01*
X87594541Y-47245795D01*
X87697159Y-47324536D01*
X87843238Y-47385044D01*
X88000000Y-47405682D01*
X88156762Y-47385044D01*
X88302841Y-47324536D01*
X88428282Y-47228282D01*
X88524536Y-47102841D01*
X88585044Y-46956762D01*
X88605682Y-46800000D01*
X88585044Y-46643238D01*
X88524536Y-46497159D01*
X88455272Y-46406892D01*
X88428282Y-46371717D01*
X88302840Y-46275463D01*
X88214957Y-46239061D01*
X88162091Y-46197386D01*
X88138791Y-46134229D01*
X88151924Y-46068205D01*
X88197619Y-46018773D01*
X88262409Y-46000500D01*
X89737591Y-46000500D01*
X89802381Y-46018773D01*
X89848076Y-46068205D01*
X89861209Y-46134229D01*
X89837909Y-46197386D01*
X89785043Y-46239061D01*
X89697159Y-46275463D01*
X89571717Y-46371717D01*
X89475463Y-46497159D01*
X89414956Y-46643237D01*
X89394317Y-46800000D01*
X89414956Y-46956762D01*
X89475463Y-47102840D01*
X89571717Y-47228282D01*
X89594541Y-47245795D01*
X89697159Y-47324536D01*
X89843238Y-47385044D01*
X90000000Y-47405682D01*
X90156762Y-47385044D01*
X90302841Y-47324536D01*
X90428282Y-47228282D01*
X90524536Y-47102841D01*
X90585044Y-46956762D01*
X90605682Y-46800000D01*
X90585044Y-46643238D01*
X90524536Y-46497159D01*
X90455272Y-46406892D01*
X90428282Y-46371717D01*
X90302840Y-46275463D01*
X90214957Y-46239061D01*
X90162091Y-46197386D01*
X90138791Y-46134229D01*
X90151924Y-46068205D01*
X90197619Y-46018773D01*
X90262409Y-46000500D01*
X91737591Y-46000500D01*
X91802381Y-46018773D01*
X91848076Y-46068205D01*
X91861209Y-46134229D01*
X91837909Y-46197386D01*
X91785043Y-46239061D01*
X91697159Y-46275463D01*
X91571717Y-46371717D01*
X91475463Y-46497159D01*
X91414956Y-46643237D01*
X91394317Y-46800000D01*
X91414956Y-46956762D01*
X91475463Y-47102840D01*
X91571717Y-47228282D01*
X91594541Y-47245795D01*
X91697159Y-47324536D01*
X91843238Y-47385044D01*
X92000000Y-47405682D01*
X92156762Y-47385044D01*
X92302841Y-47324536D01*
X92428282Y-47228282D01*
X92524536Y-47102841D01*
X92585044Y-46956762D01*
X92605682Y-46800000D01*
X92585044Y-46643238D01*
X92524536Y-46497159D01*
X92455272Y-46406892D01*
X92428282Y-46371717D01*
X92302840Y-46275463D01*
X92214957Y-46239061D01*
X92162091Y-46197386D01*
X92138791Y-46134229D01*
X92151924Y-46068205D01*
X92197619Y-46018773D01*
X92262409Y-46000500D01*
X93737591Y-46000500D01*
X93802381Y-46018773D01*
X93848076Y-46068205D01*
X93861209Y-46134229D01*
X93837909Y-46197386D01*
X93785043Y-46239061D01*
X93697159Y-46275463D01*
X93571717Y-46371717D01*
X93475463Y-46497159D01*
X93414956Y-46643237D01*
X93394317Y-46800000D01*
X93414956Y-46956762D01*
X93475463Y-47102840D01*
X93571717Y-47228282D01*
X93594541Y-47245795D01*
X93697159Y-47324536D01*
X93843238Y-47385044D01*
X94000000Y-47405682D01*
X94156762Y-47385044D01*
X94302841Y-47324536D01*
X94428282Y-47228282D01*
X94524536Y-47102841D01*
X94585044Y-46956762D01*
X94605682Y-46800000D01*
X94585044Y-46643238D01*
X94524536Y-46497159D01*
X94455272Y-46406892D01*
X94428282Y-46371717D01*
X94302840Y-46275463D01*
X94214957Y-46239061D01*
X94162091Y-46197386D01*
X94138791Y-46134229D01*
X94151924Y-46068205D01*
X94197619Y-46018773D01*
X94262409Y-46000500D01*
X95737591Y-46000500D01*
X95802381Y-46018773D01*
X95848076Y-46068205D01*
X95861209Y-46134229D01*
X95837909Y-46197386D01*
X95785043Y-46239061D01*
X95697159Y-46275463D01*
X95571717Y-46371717D01*
X95475463Y-46497159D01*
X95414956Y-46643237D01*
X95394317Y-46800000D01*
X95414956Y-46956762D01*
X95475463Y-47102840D01*
X95571717Y-47228282D01*
X95594541Y-47245795D01*
X95697159Y-47324536D01*
X95843238Y-47385044D01*
X96000000Y-47405682D01*
X96156762Y-47385044D01*
X96302841Y-47324536D01*
X96428282Y-47228282D01*
X96524536Y-47102841D01*
X96585044Y-46956762D01*
X96605682Y-46800000D01*
X96585044Y-46643238D01*
X96524536Y-46497159D01*
X96455272Y-46406892D01*
X96428282Y-46371717D01*
X96302840Y-46275463D01*
X96214957Y-46239061D01*
X96162091Y-46197386D01*
X96138791Y-46134229D01*
X96151924Y-46068205D01*
X96197619Y-46018773D01*
X96262409Y-46000500D01*
X99997128Y-46000500D01*
X100002854Y-46000632D01*
X100018811Y-46001369D01*
X100173088Y-46008502D01*
X100369795Y-46018166D01*
X100380787Y-46019201D01*
X100562876Y-46044601D01*
X100563781Y-46044732D01*
X100747261Y-46071949D01*
X100757413Y-46073892D01*
X100938614Y-46116510D01*
X100940023Y-46116852D01*
X101117874Y-46161401D01*
X101127091Y-46164096D01*
X101304478Y-46223550D01*
X101306618Y-46224292D01*
X101478220Y-46285692D01*
X101486519Y-46289004D01*
X101657980Y-46364712D01*
X101660909Y-46366051D01*
X101747263Y-46406892D01*
X101825119Y-46443715D01*
X101832411Y-46447465D01*
X101951679Y-46513898D01*
X101996435Y-46538827D01*
X101999810Y-46540777D01*
X102155371Y-46634017D01*
X102161670Y-46638058D01*
X102316699Y-46744256D01*
X102320459Y-46746935D01*
X102466009Y-46854882D01*
X102471305Y-46859040D01*
X102616009Y-46979200D01*
X102619947Y-46982617D01*
X102754206Y-47104303D01*
X102758590Y-47108478D01*
X102891520Y-47241408D01*
X102895698Y-47245795D01*
X103017375Y-47380045D01*
X103020805Y-47383998D01*
X103140951Y-47528684D01*
X103145124Y-47534000D01*
X103253041Y-47679509D01*
X103255742Y-47683299D01*
X103361940Y-47838328D01*
X103365992Y-47844645D01*
X103447509Y-47980648D01*
X103459200Y-48000153D01*
X103461171Y-48003563D01*
X103552525Y-48167573D01*
X103556291Y-48174896D01*
X103633947Y-48339089D01*
X103635286Y-48342018D01*
X103710994Y-48513479D01*
X103714311Y-48521791D01*
X103775666Y-48693265D01*
X103776487Y-48695634D01*
X103835894Y-48872881D01*
X103838606Y-48882157D01*
X103883104Y-49059803D01*
X103883526Y-49061543D01*
X103926101Y-49242562D01*
X103928053Y-49252758D01*
X103955257Y-49436156D01*
X103955410Y-49437218D01*
X103980794Y-49619184D01*
X103981834Y-49630232D01*
X103991512Y-49827238D01*
X103991529Y-49827595D01*
X103999368Y-49997145D01*
X103999500Y-50002872D01*
X103999500Y-53737591D01*
X103981227Y-53802381D01*
X103931795Y-53848076D01*
X103865771Y-53861209D01*
X103802614Y-53837909D01*
X103760939Y-53785043D01*
X103724536Y-53697159D01*
X103628282Y-53571717D01*
X103502840Y-53475463D01*
X103356762Y-53414956D01*
X103200000Y-53394317D01*
X103043237Y-53414956D01*
X102897159Y-53475463D01*
X102771717Y-53571717D01*
X102675463Y-53697159D01*
X102614956Y-53843237D01*
X102594317Y-54000000D01*
X102614956Y-54156762D01*
X102675463Y-54302840D01*
X102771717Y-54428282D01*
X102872588Y-54505682D01*
X102897159Y-54524536D01*
X103043238Y-54585044D01*
X103200000Y-54605682D01*
X103356762Y-54585044D01*
X103502841Y-54524536D01*
X103628282Y-54428282D01*
X103724536Y-54302841D01*
X103760938Y-54214957D01*
X103802614Y-54162091D01*
X103865771Y-54138791D01*
X103931795Y-54151924D01*
X103981227Y-54197619D01*
X103999500Y-54262409D01*
X103999500Y-55737591D01*
X103981227Y-55802381D01*
X103931795Y-55848076D01*
X103865771Y-55861209D01*
X103802614Y-55837909D01*
X103760939Y-55785043D01*
X103724536Y-55697159D01*
X103628282Y-55571717D01*
X103502840Y-55475463D01*
X103356762Y-55414956D01*
X103200000Y-55394317D01*
X103043237Y-55414956D01*
X102897159Y-55475463D01*
X102771717Y-55571717D01*
X102675463Y-55697159D01*
X102614956Y-55843237D01*
X102594317Y-56000000D01*
X102614956Y-56156762D01*
X102675463Y-56302840D01*
X102771717Y-56428282D01*
X102868885Y-56502841D01*
X102897159Y-56524536D01*
X103043238Y-56585044D01*
X103200000Y-56605682D01*
X103356762Y-56585044D01*
X103502841Y-56524536D01*
X103628282Y-56428282D01*
X103724536Y-56302841D01*
X103760938Y-56214957D01*
X103802614Y-56162091D01*
X103865771Y-56138791D01*
X103931795Y-56151924D01*
X103981227Y-56197619D01*
X103999500Y-56262409D01*
X103999500Y-56876000D01*
X103982887Y-56938000D01*
X103937500Y-56983387D01*
X103875500Y-57000000D01*
X91624000Y-57000000D01*
X91562000Y-56983387D01*
X91516613Y-56938000D01*
X91500000Y-56876000D01*
X91500000Y-56476909D01*
X91506581Y-56437049D01*
X91523400Y-56405582D01*
X91524534Y-56402842D01*
X91524536Y-56402841D01*
X91585044Y-56256762D01*
X91605682Y-56100000D01*
X91585044Y-55943238D01*
X91524536Y-55797159D01*
X91524535Y-55797158D01*
X91523400Y-55794417D01*
X91506581Y-55762951D01*
X91500000Y-55723091D01*
X91500000Y-55000000D01*
X94994317Y-55000000D01*
X95014956Y-55156762D01*
X95075463Y-55302840D01*
X95171717Y-55428282D01*
X95257778Y-55494318D01*
X95297159Y-55524536D01*
X95443238Y-55585044D01*
X95600000Y-55605682D01*
X95756762Y-55585044D01*
X95902841Y-55524536D01*
X96028282Y-55428282D01*
X96124536Y-55302841D01*
X96185044Y-55156762D01*
X96205682Y-55000000D01*
X96185044Y-54843238D01*
X96124536Y-54697159D01*
X96068811Y-54624536D01*
X96028282Y-54571717D01*
X95902840Y-54475463D01*
X95756762Y-54414956D01*
X95600000Y-54394317D01*
X95443237Y-54414956D01*
X95297159Y-54475463D01*
X95171717Y-54571717D01*
X95075463Y-54697159D01*
X95014956Y-54843237D01*
X94994317Y-55000000D01*
X91500000Y-55000000D01*
X91500000Y-54099999D01*
X93394317Y-54099999D01*
X93414956Y-54256762D01*
X93475463Y-54402840D01*
X93571717Y-54528282D01*
X93665183Y-54600000D01*
X93697159Y-54624536D01*
X93843238Y-54685044D01*
X94000000Y-54705682D01*
X94156762Y-54685044D01*
X94302841Y-54624536D01*
X94428282Y-54528282D01*
X94524536Y-54402841D01*
X94585044Y-54256762D01*
X94605682Y-54100000D01*
X94585044Y-53943238D01*
X94524536Y-53797159D01*
X94478828Y-53737591D01*
X94428282Y-53671717D01*
X94302840Y-53575463D01*
X94156762Y-53514956D01*
X94000000Y-53494317D01*
X93843237Y-53514956D01*
X93697159Y-53575463D01*
X93571717Y-53671717D01*
X93475463Y-53797159D01*
X93414956Y-53943237D01*
X93394317Y-54099999D01*
X91500000Y-54099999D01*
X91500000Y-53551362D01*
X91509439Y-53503909D01*
X91536319Y-53463681D01*
X92654491Y-52345509D01*
X94000000Y-51000000D01*
X94000000Y-49999999D01*
X96494696Y-49999999D01*
X96513897Y-50366406D01*
X96571293Y-50728788D01*
X96666258Y-51083200D01*
X96797744Y-51425735D01*
X96964320Y-51752656D01*
X97164146Y-52060363D01*
X97279600Y-52202936D01*
X97395051Y-52345506D01*
X97654494Y-52604949D01*
X97736947Y-52671718D01*
X97939636Y-52835853D01*
X98192402Y-53000000D01*
X98247348Y-53035682D01*
X98574264Y-53202255D01*
X98916801Y-53333742D01*
X99271206Y-53428705D01*
X99271209Y-53428705D01*
X99271211Y-53428706D01*
X99633593Y-53486102D01*
X99683373Y-53488710D01*
X100000000Y-53505304D01*
X100331645Y-53487923D01*
X100366406Y-53486102D01*
X100728788Y-53428706D01*
X100728788Y-53428705D01*
X100728794Y-53428705D01*
X101083199Y-53333742D01*
X101425736Y-53202255D01*
X101752652Y-53035682D01*
X102060366Y-52835851D01*
X102345506Y-52604949D01*
X102604949Y-52345506D01*
X102835851Y-52060366D01*
X103035682Y-51752652D01*
X103202255Y-51425736D01*
X103333742Y-51083199D01*
X103428705Y-50728794D01*
X103448204Y-50605682D01*
X103486102Y-50366406D01*
X103492934Y-50236038D01*
X103505304Y-50000000D01*
X103486102Y-49633596D01*
X103485569Y-49630232D01*
X103428706Y-49271211D01*
X103423762Y-49252758D01*
X103333742Y-48916801D01*
X103202255Y-48574264D01*
X103035682Y-48247348D01*
X103016149Y-48217269D01*
X102835853Y-47939636D01*
X102671564Y-47736757D01*
X102604949Y-47654494D01*
X102345506Y-47395051D01*
X102202935Y-47279599D01*
X102060363Y-47164146D01*
X101752656Y-46964320D01*
X101425735Y-46797744D01*
X101083200Y-46666258D01*
X100728788Y-46571293D01*
X100366406Y-46513897D01*
X100000000Y-46494696D01*
X99633593Y-46513897D01*
X99271211Y-46571293D01*
X98916799Y-46666258D01*
X98574264Y-46797744D01*
X98247343Y-46964320D01*
X97939636Y-47164146D01*
X97654490Y-47395054D01*
X97395054Y-47654490D01*
X97164146Y-47939636D01*
X96964320Y-48247343D01*
X96797744Y-48574264D01*
X96666258Y-48916799D01*
X96571293Y-49271211D01*
X96513897Y-49633593D01*
X96494696Y-49999999D01*
X94000000Y-49999999D01*
X94000000Y-48999999D01*
X94994317Y-48999999D01*
X95014956Y-49156762D01*
X95075463Y-49302840D01*
X95171717Y-49428282D01*
X95297159Y-49524536D01*
X95443238Y-49585044D01*
X95600000Y-49605682D01*
X95756762Y-49585044D01*
X95902841Y-49524536D01*
X96028282Y-49428282D01*
X96124536Y-49302841D01*
X96185044Y-49156762D01*
X96205682Y-49000000D01*
X96185044Y-48843238D01*
X96124536Y-48697159D01*
X96030236Y-48574264D01*
X96028282Y-48571717D01*
X95902840Y-48475463D01*
X95756762Y-48414956D01*
X95600000Y-48394317D01*
X95443237Y-48414956D01*
X95297159Y-48475463D01*
X95171717Y-48571717D01*
X95075463Y-48697159D01*
X95014956Y-48843237D01*
X94994317Y-48999999D01*
X94000000Y-48999999D01*
X94000000Y-48000000D01*
X52399999Y-48000000D01*
X51400000Y-48999999D01*
X51400000Y-52375302D01*
X51381301Y-52440782D01*
X51330844Y-52486514D01*
X51263846Y-52498705D01*
X51218334Y-52480720D01*
X51217924Y-52481711D01*
X51056762Y-52414956D01*
X50900000Y-52394317D01*
X50743237Y-52414956D01*
X50597159Y-52475463D01*
X50471717Y-52571717D01*
X50375463Y-52697159D01*
X50314956Y-52843237D01*
X50294317Y-52999999D01*
X50314956Y-53156762D01*
X50375463Y-53302840D01*
X50471717Y-53428282D01*
X50570277Y-53503909D01*
X50597159Y-53524536D01*
X50743238Y-53585044D01*
X50900000Y-53605682D01*
X51056762Y-53585044D01*
X51157919Y-53543143D01*
X51217924Y-53518289D01*
X51218334Y-53519279D01*
X51263846Y-53501295D01*
X51330844Y-53513486D01*
X51381301Y-53559218D01*
X51400000Y-53624698D01*
X51400000Y-53876000D01*
X51383387Y-53938000D01*
X51338000Y-53983387D01*
X51276000Y-54000000D01*
X50051285Y-54000000D01*
X50035101Y-53998939D01*
X50030432Y-53998324D01*
X50000000Y-53994317D01*
X49969567Y-53998324D01*
X49964898Y-53998939D01*
X49948715Y-54000000D01*
X48724000Y-54000000D01*
X48662000Y-53983387D01*
X48616613Y-53938000D01*
X48600000Y-53876000D01*
X48600000Y-50707581D01*
X48619419Y-50640956D01*
X48671595Y-50595199D01*
X48740185Y-50584642D01*
X48899999Y-50605682D01*
X48899999Y-50605681D01*
X48900000Y-50605682D01*
X49056762Y-50585044D01*
X49202841Y-50524536D01*
X49328282Y-50428282D01*
X49424536Y-50302841D01*
X49485044Y-50156762D01*
X49505682Y-50000000D01*
X49485044Y-49843238D01*
X49424536Y-49697159D01*
X49375763Y-49633596D01*
X49328282Y-49571717D01*
X49202840Y-49475463D01*
X49056762Y-49414956D01*
X48899999Y-49394317D01*
X48740185Y-49415358D01*
X48671595Y-49404801D01*
X48619419Y-49359044D01*
X48600000Y-49292419D01*
X48600000Y-49000000D01*
X47600000Y-48000000D01*
X40400000Y-48000000D01*
X40399999Y-48000000D01*
X39400000Y-48999999D01*
X39400000Y-52375302D01*
X39381301Y-52440782D01*
X39330844Y-52486514D01*
X39263846Y-52498705D01*
X39218334Y-52480720D01*
X39217924Y-52481711D01*
X39056762Y-52414956D01*
X38900000Y-52394317D01*
X38743237Y-52414956D01*
X38597159Y-52475463D01*
X38471717Y-52571717D01*
X38375463Y-52697159D01*
X38314956Y-52843237D01*
X38294317Y-53000000D01*
X38314956Y-53156762D01*
X38375463Y-53302840D01*
X38471717Y-53428282D01*
X38570277Y-53503909D01*
X38597159Y-53524536D01*
X38743238Y-53585044D01*
X38900000Y-53605682D01*
X39056762Y-53585044D01*
X39157919Y-53543143D01*
X39217924Y-53518289D01*
X39218334Y-53519279D01*
X39263846Y-53501295D01*
X39330844Y-53513486D01*
X39381301Y-53559218D01*
X39400000Y-53624698D01*
X39400000Y-53876000D01*
X39383387Y-53938000D01*
X39338000Y-53983387D01*
X39276000Y-54000000D01*
X38051285Y-54000000D01*
X38035101Y-53998939D01*
X38030432Y-53998324D01*
X38000000Y-53994317D01*
X37969567Y-53998324D01*
X37964898Y-53998939D01*
X37948715Y-54000000D01*
X36724000Y-54000000D01*
X36662000Y-53983387D01*
X36616613Y-53938000D01*
X36600000Y-53876000D01*
X36600000Y-50707581D01*
X36619419Y-50640956D01*
X36671595Y-50595199D01*
X36740185Y-50584642D01*
X36899999Y-50605682D01*
X36899999Y-50605681D01*
X36900000Y-50605682D01*
X37056762Y-50585044D01*
X37202841Y-50524536D01*
X37328282Y-50428282D01*
X37424536Y-50302841D01*
X37485044Y-50156762D01*
X37505682Y-50000000D01*
X37485044Y-49843238D01*
X37424536Y-49697159D01*
X37375763Y-49633596D01*
X37328282Y-49571717D01*
X37202840Y-49475463D01*
X37056762Y-49414956D01*
X36899999Y-49394317D01*
X36740185Y-49415358D01*
X36671595Y-49404801D01*
X36619419Y-49359044D01*
X36600000Y-49292419D01*
X36600000Y-46851285D01*
X36601061Y-46835099D01*
X36605682Y-46800000D01*
X36601061Y-46764901D01*
X36600000Y-46748715D01*
X36600000Y-46124500D01*
X36616613Y-46062500D01*
X36662000Y-46017113D01*
X36724000Y-46000500D01*
X37737591Y-46000500D01*
X37802381Y-46018773D01*
G37*
%TD.AperFunction*%
%TD*%
%TA.AperFunction,Conductor*%
%TO.N,+3.3VA*%
G36*
X56996091Y-50009439D02*
G01*
X57036319Y-50036319D01*
X57963681Y-50963681D01*
X57990561Y-51003909D01*
X58000000Y-51051362D01*
X58000000Y-62000000D01*
X59000000Y-63000000D01*
X73472408Y-63000000D01*
X73529665Y-63014011D01*
X73573983Y-63052877D01*
X73595347Y-63107815D01*
X73614956Y-63256762D01*
X73675463Y-63402840D01*
X73771717Y-63528282D01*
X73857778Y-63594318D01*
X73897159Y-63624536D01*
X74043238Y-63685044D01*
X74200000Y-63705682D01*
X74356762Y-63685044D01*
X74502841Y-63624536D01*
X74628282Y-63528282D01*
X74715877Y-63414125D01*
X74771840Y-63373091D01*
X74841089Y-63368552D01*
X74901932Y-63401932D01*
X75463681Y-63963681D01*
X75490561Y-64003909D01*
X75500000Y-64051362D01*
X75500000Y-69948638D01*
X75490561Y-69996091D01*
X75463681Y-70036319D01*
X74536319Y-70963681D01*
X74496091Y-70990561D01*
X74448638Y-71000000D01*
X49824000Y-71000000D01*
X49762000Y-70983387D01*
X49716613Y-70938000D01*
X49700000Y-70876000D01*
X49700000Y-70176909D01*
X49706581Y-70137049D01*
X49723400Y-70105582D01*
X49724534Y-70102842D01*
X49724536Y-70102841D01*
X49785044Y-69956762D01*
X49805682Y-69800000D01*
X52994317Y-69800000D01*
X53014956Y-69956762D01*
X53075463Y-70102840D01*
X53171717Y-70228282D01*
X53297158Y-70324535D01*
X53297159Y-70324536D01*
X53443238Y-70385044D01*
X53579360Y-70402964D01*
X53599999Y-70405682D01*
X53599999Y-70405681D01*
X53600000Y-70405682D01*
X53756762Y-70385044D01*
X53902841Y-70324536D01*
X54028282Y-70228282D01*
X54124536Y-70102841D01*
X54185044Y-69956762D01*
X54205682Y-69800000D01*
X54185044Y-69643238D01*
X54124536Y-69497159D01*
X54118736Y-69489600D01*
X54028282Y-69371717D01*
X53902840Y-69275463D01*
X53756762Y-69214956D01*
X53599999Y-69194317D01*
X53443237Y-69214956D01*
X53297159Y-69275463D01*
X53171717Y-69371717D01*
X53075463Y-69497159D01*
X53014956Y-69643237D01*
X52994317Y-69800000D01*
X49805682Y-69800000D01*
X49785044Y-69643238D01*
X49724536Y-69497159D01*
X49724535Y-69497158D01*
X49723400Y-69494417D01*
X49706581Y-69462951D01*
X49700000Y-69423091D01*
X49700000Y-68351362D01*
X49709439Y-68303909D01*
X49736319Y-68263681D01*
X49900500Y-68099500D01*
X53294317Y-68099500D01*
X53314956Y-68256262D01*
X53375463Y-68402340D01*
X53471717Y-68527782D01*
X53537531Y-68578282D01*
X53597159Y-68624036D01*
X53743238Y-68684544D01*
X53900000Y-68705182D01*
X54056762Y-68684544D01*
X54202841Y-68624036D01*
X54328282Y-68527782D01*
X54424536Y-68402341D01*
X54485044Y-68256262D01*
X54499034Y-68150000D01*
X54844317Y-68150000D01*
X54864956Y-68306762D01*
X54925463Y-68452840D01*
X55021717Y-68578282D01*
X55147159Y-68674536D01*
X55293238Y-68735044D01*
X55450000Y-68755682D01*
X55606762Y-68735044D01*
X55752841Y-68674536D01*
X55878282Y-68578282D01*
X55974536Y-68452841D01*
X56035044Y-68306762D01*
X56055682Y-68150000D01*
X56035044Y-67993238D01*
X55974536Y-67847159D01*
X55935786Y-67796659D01*
X55878282Y-67721717D01*
X55752840Y-67625463D01*
X55606762Y-67564956D01*
X55449999Y-67544317D01*
X55293237Y-67564956D01*
X55147159Y-67625463D01*
X55021717Y-67721717D01*
X54925463Y-67847159D01*
X54864956Y-67993237D01*
X54844317Y-68150000D01*
X54499034Y-68150000D01*
X54505682Y-68099500D01*
X54485044Y-67942738D01*
X54424536Y-67796659D01*
X54367032Y-67721718D01*
X54328282Y-67671217D01*
X54202840Y-67574963D01*
X54056762Y-67514456D01*
X53900000Y-67493817D01*
X53743237Y-67514456D01*
X53597159Y-67574963D01*
X53471717Y-67671217D01*
X53375463Y-67796659D01*
X53314956Y-67942737D01*
X53294317Y-68099500D01*
X49900500Y-68099500D01*
X50094825Y-67905174D01*
X50145216Y-67874596D01*
X50204036Y-67870741D01*
X50257991Y-67894481D01*
X50297159Y-67924536D01*
X50443238Y-67985044D01*
X50600000Y-68005682D01*
X50756762Y-67985044D01*
X50902841Y-67924536D01*
X50924513Y-67907905D01*
X50973158Y-67885221D01*
X51026837Y-67885220D01*
X51075486Y-67907906D01*
X51097159Y-67924536D01*
X51243238Y-67985044D01*
X51400000Y-68005682D01*
X51556762Y-67985044D01*
X51702841Y-67924536D01*
X51828282Y-67828282D01*
X51924536Y-67702841D01*
X51985044Y-67556762D01*
X52005682Y-67400000D01*
X51985044Y-67243238D01*
X51924536Y-67097159D01*
X51907905Y-67075485D01*
X51885221Y-67026839D01*
X51885221Y-66973161D01*
X51907906Y-66924513D01*
X51924536Y-66902841D01*
X51985044Y-66756762D01*
X52005682Y-66600000D01*
X51985044Y-66443238D01*
X51924536Y-66297159D01*
X51894481Y-66257990D01*
X51870741Y-66204036D01*
X51874596Y-66145216D01*
X51905174Y-66094825D01*
X52399999Y-65600000D01*
X54194317Y-65600000D01*
X54214956Y-65756762D01*
X54275463Y-65902840D01*
X54371717Y-66028282D01*
X54490709Y-66119587D01*
X54497159Y-66124536D01*
X54643238Y-66185044D01*
X54800000Y-66205682D01*
X54956762Y-66185044D01*
X55102841Y-66124536D01*
X55109290Y-66119587D01*
X55168592Y-66095023D01*
X55232230Y-66103401D01*
X55283153Y-66142475D01*
X55307717Y-66201776D01*
X55314956Y-66256762D01*
X55375463Y-66402840D01*
X55471717Y-66528282D01*
X55565183Y-66600000D01*
X55597159Y-66624536D01*
X55743238Y-66685044D01*
X55900000Y-66705682D01*
X56056762Y-66685044D01*
X56202841Y-66624536D01*
X56328282Y-66528282D01*
X56424536Y-66402841D01*
X56485044Y-66256762D01*
X56505682Y-66100000D01*
X56492517Y-66000000D01*
X60894317Y-66000000D01*
X60914956Y-66156762D01*
X60975463Y-66302840D01*
X61071717Y-66428282D01*
X61197159Y-66524536D01*
X61343238Y-66585044D01*
X61500000Y-66605682D01*
X61656762Y-66585044D01*
X61802841Y-66524536D01*
X61928282Y-66428282D01*
X62024536Y-66302841D01*
X62085044Y-66156762D01*
X62105682Y-66000000D01*
X65944317Y-66000000D01*
X65964956Y-66156762D01*
X66025463Y-66302840D01*
X66121717Y-66428282D01*
X66247159Y-66524536D01*
X66393238Y-66585044D01*
X66550000Y-66605682D01*
X66706762Y-66585044D01*
X66852841Y-66524536D01*
X66978282Y-66428282D01*
X67074536Y-66302841D01*
X67135044Y-66156762D01*
X67155682Y-66000000D01*
X67135044Y-65843238D01*
X67074536Y-65697159D01*
X67074535Y-65697158D01*
X66978282Y-65571717D01*
X66852840Y-65475463D01*
X66706762Y-65414956D01*
X66550000Y-65394317D01*
X66393237Y-65414956D01*
X66247159Y-65475463D01*
X66121717Y-65571717D01*
X66025463Y-65697159D01*
X65964956Y-65843237D01*
X65944317Y-66000000D01*
X62105682Y-66000000D01*
X62085044Y-65843238D01*
X62024536Y-65697159D01*
X62024535Y-65697158D01*
X61928282Y-65571717D01*
X61802840Y-65475463D01*
X61656762Y-65414956D01*
X61500000Y-65394317D01*
X61343237Y-65414956D01*
X61197159Y-65475463D01*
X61071717Y-65571717D01*
X60975463Y-65697159D01*
X60914956Y-65843237D01*
X60894317Y-66000000D01*
X56492517Y-66000000D01*
X56485044Y-65943238D01*
X56424536Y-65797159D01*
X56328282Y-65671717D01*
X56202840Y-65575463D01*
X56056762Y-65514956D01*
X55900000Y-65494317D01*
X55743237Y-65514956D01*
X55597156Y-65575464D01*
X55590703Y-65580416D01*
X55531402Y-65604977D01*
X55467765Y-65596597D01*
X55416844Y-65557522D01*
X55392282Y-65498223D01*
X55385044Y-65443238D01*
X55324536Y-65297159D01*
X55290241Y-65252465D01*
X55228282Y-65171717D01*
X55102840Y-65075463D01*
X54956762Y-65014956D01*
X54800000Y-64994317D01*
X54643237Y-65014956D01*
X54497159Y-65075463D01*
X54371717Y-65171717D01*
X54275463Y-65297159D01*
X54214956Y-65443237D01*
X54194317Y-65600000D01*
X52399999Y-65600000D01*
X53000000Y-65000000D01*
X53000000Y-64200000D01*
X53394317Y-64200000D01*
X53414956Y-64356762D01*
X53475463Y-64502840D01*
X53571717Y-64628282D01*
X53697159Y-64724536D01*
X53843238Y-64785044D01*
X54000000Y-64805682D01*
X54156762Y-64785044D01*
X54302841Y-64724536D01*
X54428282Y-64628282D01*
X54524536Y-64502841D01*
X54585044Y-64356762D01*
X54605682Y-64200000D01*
X54585044Y-64043238D01*
X54524536Y-63897159D01*
X54428282Y-63771717D01*
X54302840Y-63675463D01*
X54156762Y-63614956D01*
X54000000Y-63594317D01*
X53843237Y-63614956D01*
X53697159Y-63675463D01*
X53571717Y-63771717D01*
X53475463Y-63897159D01*
X53414956Y-64043237D01*
X53394317Y-64200000D01*
X53000000Y-64200000D01*
X53000000Y-61199999D01*
X53494317Y-61199999D01*
X53514956Y-61356762D01*
X53575463Y-61502840D01*
X53671717Y-61628282D01*
X53797158Y-61724535D01*
X53797159Y-61724536D01*
X53943238Y-61785044D01*
X54100000Y-61805682D01*
X54256762Y-61785044D01*
X54402841Y-61724536D01*
X54528282Y-61628282D01*
X54624536Y-61502841D01*
X54685044Y-61356762D01*
X54705682Y-61200000D01*
X54685044Y-61043238D01*
X54624536Y-60897159D01*
X54571685Y-60828282D01*
X54528282Y-60771717D01*
X54402840Y-60675463D01*
X54256762Y-60614956D01*
X54100000Y-60594317D01*
X53943237Y-60614956D01*
X53797159Y-60675463D01*
X53671717Y-60771717D01*
X53575463Y-60897159D01*
X53514956Y-61043237D01*
X53494317Y-61199999D01*
X53000000Y-61199999D01*
X53000000Y-56200000D01*
X54194317Y-56200000D01*
X54214956Y-56356762D01*
X54275463Y-56502840D01*
X54371717Y-56628282D01*
X54472588Y-56705682D01*
X54497159Y-56724536D01*
X54643238Y-56785044D01*
X54800000Y-56805682D01*
X54956762Y-56785044D01*
X55102841Y-56724536D01*
X55228282Y-56628282D01*
X55324536Y-56502841D01*
X55385044Y-56356762D01*
X55405682Y-56200000D01*
X55385044Y-56043238D01*
X55324536Y-55897159D01*
X55289290Y-55851225D01*
X55228282Y-55771717D01*
X55102840Y-55675463D01*
X54956762Y-55614956D01*
X54800000Y-55594317D01*
X54643237Y-55614956D01*
X54497159Y-55675463D01*
X54371717Y-55771717D01*
X54275463Y-55897159D01*
X54214956Y-56043237D01*
X54194317Y-56200000D01*
X53000000Y-56200000D01*
X53000000Y-54599999D01*
X55394317Y-54599999D01*
X55414956Y-54756762D01*
X55475463Y-54902840D01*
X55571717Y-55028282D01*
X55697159Y-55124536D01*
X55843238Y-55185044D01*
X56000000Y-55205682D01*
X56156762Y-55185044D01*
X56302841Y-55124536D01*
X56428282Y-55028282D01*
X56524536Y-54902841D01*
X56585044Y-54756762D01*
X56605682Y-54600000D01*
X56585044Y-54443238D01*
X56524536Y-54297159D01*
X56524535Y-54297158D01*
X56428282Y-54171717D01*
X56302840Y-54075463D01*
X56156762Y-54014956D01*
X56000000Y-53994317D01*
X55843237Y-54014956D01*
X55697159Y-54075463D01*
X55571717Y-54171717D01*
X55475463Y-54297159D01*
X55414956Y-54443237D01*
X55394317Y-54599999D01*
X53000000Y-54599999D01*
X53000000Y-51051362D01*
X53009439Y-51003909D01*
X53036319Y-50963681D01*
X53963681Y-50036319D01*
X54003909Y-50009439D01*
X54051362Y-50000000D01*
X56948638Y-50000000D01*
X56996091Y-50009439D01*
G37*
%TD.AperFunction*%
%TD*%
%TA.AperFunction,Conductor*%
%TO.N,+3V3*%
G36*
X23802381Y-46018773D02*
G01*
X23848076Y-46068205D01*
X23861209Y-46134229D01*
X23837909Y-46197386D01*
X23785043Y-46239061D01*
X23697159Y-46275463D01*
X23571717Y-46371717D01*
X23475463Y-46497159D01*
X23414956Y-46643237D01*
X23394317Y-46800000D01*
X23414956Y-46956762D01*
X23475463Y-47102840D01*
X23571717Y-47228282D01*
X23594485Y-47245752D01*
X23697159Y-47324536D01*
X23843238Y-47385044D01*
X24000000Y-47405682D01*
X24156762Y-47385044D01*
X24302841Y-47324536D01*
X24428282Y-47228282D01*
X24524536Y-47102841D01*
X24585044Y-46956762D01*
X24605682Y-46800000D01*
X24585044Y-46643238D01*
X24524536Y-46497159D01*
X24486411Y-46447473D01*
X24428282Y-46371717D01*
X24302840Y-46275463D01*
X24214957Y-46239061D01*
X24162091Y-46197386D01*
X24138791Y-46134229D01*
X24151924Y-46068205D01*
X24197619Y-46018773D01*
X24262409Y-46000500D01*
X25737591Y-46000500D01*
X25802381Y-46018773D01*
X25848076Y-46068205D01*
X25861209Y-46134229D01*
X25837909Y-46197386D01*
X25785043Y-46239061D01*
X25697159Y-46275463D01*
X25571717Y-46371717D01*
X25475463Y-46497159D01*
X25414956Y-46643237D01*
X25394317Y-46800000D01*
X25414956Y-46956762D01*
X25475463Y-47102840D01*
X25571717Y-47228282D01*
X25594485Y-47245752D01*
X25697159Y-47324536D01*
X25843238Y-47385044D01*
X26000000Y-47405682D01*
X26156762Y-47385044D01*
X26302841Y-47324536D01*
X26428282Y-47228282D01*
X26524536Y-47102841D01*
X26585044Y-46956762D01*
X26605682Y-46800000D01*
X26585044Y-46643238D01*
X26524536Y-46497159D01*
X26486411Y-46447473D01*
X26428282Y-46371717D01*
X26302840Y-46275463D01*
X26214957Y-46239061D01*
X26162091Y-46197386D01*
X26138791Y-46134229D01*
X26151924Y-46068205D01*
X26197619Y-46018773D01*
X26262409Y-46000500D01*
X27737591Y-46000500D01*
X27802381Y-46018773D01*
X27848076Y-46068205D01*
X27861209Y-46134229D01*
X27837909Y-46197386D01*
X27785043Y-46239061D01*
X27697159Y-46275463D01*
X27571717Y-46371717D01*
X27475463Y-46497159D01*
X27414956Y-46643237D01*
X27394317Y-46800000D01*
X27414956Y-46956762D01*
X27475463Y-47102840D01*
X27571717Y-47228282D01*
X27594485Y-47245752D01*
X27697159Y-47324536D01*
X27843238Y-47385044D01*
X28000000Y-47405682D01*
X28156762Y-47385044D01*
X28302841Y-47324536D01*
X28428282Y-47228282D01*
X28524536Y-47102841D01*
X28585044Y-46956762D01*
X28605682Y-46800000D01*
X28585044Y-46643238D01*
X28524536Y-46497159D01*
X28486411Y-46447473D01*
X28428282Y-46371717D01*
X28302840Y-46275463D01*
X28214957Y-46239061D01*
X28162091Y-46197386D01*
X28138791Y-46134229D01*
X28151924Y-46068205D01*
X28197619Y-46018773D01*
X28262409Y-46000500D01*
X29737591Y-46000500D01*
X29802381Y-46018773D01*
X29848076Y-46068205D01*
X29861209Y-46134229D01*
X29837909Y-46197386D01*
X29785043Y-46239061D01*
X29697159Y-46275463D01*
X29571717Y-46371717D01*
X29475463Y-46497159D01*
X29414956Y-46643237D01*
X29394317Y-46800000D01*
X29414956Y-46956762D01*
X29475463Y-47102840D01*
X29571717Y-47228282D01*
X29594485Y-47245752D01*
X29697159Y-47324536D01*
X29843238Y-47385044D01*
X30000000Y-47405682D01*
X30156762Y-47385044D01*
X30302841Y-47324536D01*
X30428282Y-47228282D01*
X30524536Y-47102841D01*
X30585044Y-46956762D01*
X30605682Y-46800000D01*
X30585044Y-46643238D01*
X30524536Y-46497159D01*
X30486411Y-46447473D01*
X30428282Y-46371717D01*
X30302840Y-46275463D01*
X30214957Y-46239061D01*
X30162091Y-46197386D01*
X30138791Y-46134229D01*
X30151924Y-46068205D01*
X30197619Y-46018773D01*
X30262409Y-46000500D01*
X31737591Y-46000500D01*
X31802381Y-46018773D01*
X31848076Y-46068205D01*
X31861209Y-46134229D01*
X31837909Y-46197386D01*
X31785043Y-46239061D01*
X31697159Y-46275463D01*
X31571717Y-46371717D01*
X31475463Y-46497159D01*
X31414956Y-46643237D01*
X31394317Y-46800000D01*
X31414956Y-46956762D01*
X31475463Y-47102840D01*
X31571717Y-47228282D01*
X31594485Y-47245752D01*
X31697159Y-47324536D01*
X31843238Y-47385044D01*
X32000000Y-47405682D01*
X32156762Y-47385044D01*
X32302841Y-47324536D01*
X32428282Y-47228282D01*
X32524536Y-47102841D01*
X32585044Y-46956762D01*
X32605682Y-46800000D01*
X32585044Y-46643238D01*
X32524536Y-46497159D01*
X32486411Y-46447473D01*
X32428282Y-46371717D01*
X32302840Y-46275463D01*
X32214957Y-46239061D01*
X32162091Y-46197386D01*
X32138791Y-46134229D01*
X32151924Y-46068205D01*
X32197619Y-46018773D01*
X32262409Y-46000500D01*
X33737591Y-46000500D01*
X33802381Y-46018773D01*
X33848076Y-46068205D01*
X33861209Y-46134229D01*
X33837909Y-46197386D01*
X33785043Y-46239061D01*
X33697159Y-46275463D01*
X33571717Y-46371717D01*
X33475463Y-46497159D01*
X33414956Y-46643237D01*
X33394317Y-46800000D01*
X33414956Y-46956762D01*
X33475463Y-47102840D01*
X33571717Y-47228282D01*
X33594485Y-47245752D01*
X33697159Y-47324536D01*
X33843238Y-47385044D01*
X34000000Y-47405682D01*
X34156762Y-47385044D01*
X34302841Y-47324536D01*
X34428282Y-47228282D01*
X34524536Y-47102841D01*
X34585044Y-46956762D01*
X34605682Y-46800000D01*
X34585044Y-46643238D01*
X34524536Y-46497159D01*
X34486411Y-46447473D01*
X34428282Y-46371717D01*
X34302840Y-46275463D01*
X34214957Y-46239061D01*
X34162091Y-46197386D01*
X34138791Y-46134229D01*
X34151924Y-46068205D01*
X34197619Y-46018773D01*
X34262409Y-46000500D01*
X35737591Y-46000500D01*
X35802381Y-46018773D01*
X35848076Y-46068205D01*
X35861209Y-46134229D01*
X35837909Y-46197386D01*
X35785043Y-46239061D01*
X35697159Y-46275463D01*
X35571717Y-46371717D01*
X35475463Y-46497159D01*
X35414956Y-46643237D01*
X35394317Y-46800000D01*
X35414956Y-46956762D01*
X35475463Y-47102840D01*
X35571717Y-47228282D01*
X35594485Y-47245752D01*
X35697159Y-47324536D01*
X35843238Y-47385044D01*
X36000000Y-47405682D01*
X36154315Y-47385366D01*
X36222905Y-47395923D01*
X36275081Y-47441680D01*
X36294500Y-47508305D01*
X36294500Y-49292422D01*
X36306703Y-49377904D01*
X36326121Y-49444527D01*
X36361763Y-49523189D01*
X36373934Y-49537377D01*
X36399824Y-49586892D01*
X36401348Y-49642746D01*
X36378196Y-49693598D01*
X36375463Y-49697159D01*
X36314956Y-49843237D01*
X36294317Y-50000000D01*
X36314956Y-50156762D01*
X36375462Y-50302838D01*
X36375463Y-50302840D01*
X36375464Y-50302841D01*
X36378194Y-50306399D01*
X36401347Y-50357250D01*
X36399825Y-50413105D01*
X36373936Y-50462620D01*
X36361763Y-50476810D01*
X36326121Y-50555472D01*
X36306703Y-50622095D01*
X36294500Y-50707578D01*
X36294500Y-53876001D01*
X36304909Y-53955066D01*
X36321524Y-54017075D01*
X36352040Y-54090747D01*
X36352041Y-54090749D01*
X36352042Y-54090750D01*
X36370616Y-54114956D01*
X36400596Y-54154026D01*
X36445973Y-54199403D01*
X36445977Y-54199406D01*
X36445979Y-54199408D01*
X36509250Y-54247958D01*
X36509251Y-54247958D01*
X36509252Y-54247959D01*
X36582924Y-54278475D01*
X36582927Y-54278475D01*
X36582930Y-54278477D01*
X36644930Y-54295090D01*
X36703796Y-54302840D01*
X36723999Y-54305500D01*
X36724000Y-54305500D01*
X37291695Y-54305500D01*
X37358320Y-54324919D01*
X37404077Y-54377095D01*
X37414634Y-54445685D01*
X37394317Y-54599999D01*
X37414956Y-54756762D01*
X37475463Y-54902840D01*
X37571717Y-55028282D01*
X37657778Y-55094318D01*
X37697159Y-55124536D01*
X37843238Y-55185044D01*
X38000000Y-55205682D01*
X38156762Y-55185044D01*
X38302841Y-55124536D01*
X38428282Y-55028282D01*
X38524536Y-54902841D01*
X38585044Y-54756762D01*
X38605682Y-54600000D01*
X38585366Y-54445684D01*
X38595923Y-54377095D01*
X38641680Y-54324919D01*
X38708305Y-54305500D01*
X39276001Y-54305500D01*
X39291814Y-54303417D01*
X39355070Y-54295090D01*
X39417070Y-54278477D01*
X39490750Y-54247958D01*
X39554021Y-54199408D01*
X39599408Y-54154021D01*
X39647958Y-54090750D01*
X39678477Y-54017070D01*
X39695090Y-53955070D01*
X39705500Y-53876000D01*
X39705500Y-53624698D01*
X39693757Y-53540810D01*
X39675058Y-53475330D01*
X39640732Y-53397894D01*
X39640731Y-53397893D01*
X39640730Y-53397890D01*
X39586465Y-53332859D01*
X39529607Y-53281326D01*
X39530552Y-53280282D01*
X39493235Y-53235748D01*
X39483452Y-53168849D01*
X39485042Y-53156764D01*
X39485044Y-53156762D01*
X39505682Y-53000000D01*
X39485044Y-52843238D01*
X39485043Y-52843236D01*
X39483452Y-52831150D01*
X39493238Y-52764245D01*
X39530553Y-52719718D01*
X39529607Y-52718674D01*
X39586465Y-52667140D01*
X39640730Y-52602109D01*
X39640730Y-52602107D01*
X39640732Y-52602106D01*
X39675058Y-52524670D01*
X39693757Y-52459190D01*
X39705500Y-52375302D01*
X39705500Y-49177903D01*
X39714939Y-49130450D01*
X39741819Y-49090222D01*
X40490222Y-48341819D01*
X40530450Y-48314939D01*
X40577903Y-48305500D01*
X47422096Y-48305500D01*
X47469549Y-48314939D01*
X47509777Y-48341819D01*
X48258181Y-49090223D01*
X48285061Y-49130451D01*
X48294500Y-49177904D01*
X48294500Y-49292422D01*
X48306703Y-49377904D01*
X48326121Y-49444527D01*
X48361763Y-49523189D01*
X48373934Y-49537377D01*
X48399824Y-49586892D01*
X48401348Y-49642746D01*
X48378196Y-49693598D01*
X48375463Y-49697159D01*
X48314956Y-49843237D01*
X48294317Y-50000000D01*
X48314956Y-50156762D01*
X48375462Y-50302838D01*
X48375463Y-50302840D01*
X48375464Y-50302841D01*
X48378194Y-50306399D01*
X48401347Y-50357250D01*
X48399825Y-50413105D01*
X48373936Y-50462620D01*
X48361763Y-50476810D01*
X48326121Y-50555472D01*
X48306703Y-50622095D01*
X48294500Y-50707578D01*
X48294500Y-53876001D01*
X48304909Y-53955066D01*
X48321524Y-54017075D01*
X48352040Y-54090747D01*
X48352041Y-54090749D01*
X48352042Y-54090750D01*
X48370616Y-54114956D01*
X48400596Y-54154026D01*
X48445973Y-54199403D01*
X48445977Y-54199406D01*
X48445979Y-54199408D01*
X48509250Y-54247958D01*
X48509251Y-54247958D01*
X48509252Y-54247959D01*
X48582924Y-54278475D01*
X48582927Y-54278475D01*
X48582930Y-54278477D01*
X48644930Y-54295090D01*
X48703796Y-54302840D01*
X48723999Y-54305500D01*
X48724000Y-54305500D01*
X49291695Y-54305500D01*
X49358320Y-54324919D01*
X49404077Y-54377095D01*
X49414634Y-54445685D01*
X49394317Y-54599999D01*
X49414956Y-54756762D01*
X49475463Y-54902840D01*
X49571717Y-55028282D01*
X49657778Y-55094318D01*
X49697159Y-55124536D01*
X49843238Y-55185044D01*
X50000000Y-55205682D01*
X50156762Y-55185044D01*
X50302841Y-55124536D01*
X50428282Y-55028282D01*
X50524536Y-54902841D01*
X50585044Y-54756762D01*
X50605682Y-54600000D01*
X50585366Y-54445684D01*
X50595923Y-54377095D01*
X50641680Y-54324919D01*
X50708305Y-54305500D01*
X51276001Y-54305500D01*
X51291814Y-54303417D01*
X51355070Y-54295090D01*
X51417070Y-54278477D01*
X51490750Y-54247958D01*
X51554021Y-54199408D01*
X51599408Y-54154021D01*
X51647958Y-54090750D01*
X51678477Y-54017070D01*
X51695090Y-53955070D01*
X51705500Y-53876000D01*
X51705500Y-53624698D01*
X51693757Y-53540810D01*
X51675058Y-53475330D01*
X51640732Y-53397894D01*
X51640731Y-53397893D01*
X51640730Y-53397890D01*
X51586465Y-53332859D01*
X51529607Y-53281326D01*
X51530552Y-53280282D01*
X51493235Y-53235748D01*
X51483452Y-53168849D01*
X51485042Y-53156764D01*
X51485044Y-53156762D01*
X51505682Y-53000000D01*
X51485044Y-52843238D01*
X51485043Y-52843236D01*
X51483452Y-52831150D01*
X51493238Y-52764245D01*
X51530553Y-52719718D01*
X51529607Y-52718674D01*
X51586465Y-52667140D01*
X51640730Y-52602109D01*
X51640730Y-52602107D01*
X51640732Y-52602106D01*
X51675058Y-52524670D01*
X51693757Y-52459190D01*
X51705500Y-52375302D01*
X51705500Y-49177903D01*
X51714939Y-49130450D01*
X51741819Y-49090222D01*
X52490222Y-48341819D01*
X52530450Y-48314939D01*
X52577903Y-48305500D01*
X93570500Y-48305500D01*
X93632500Y-48322113D01*
X93677887Y-48367500D01*
X93694500Y-48429500D01*
X93694500Y-50822096D01*
X93685061Y-50869549D01*
X93658181Y-50909777D01*
X91320300Y-53247656D01*
X91282308Y-53293950D01*
X91255427Y-53334180D01*
X91227194Y-53386998D01*
X91222388Y-53402841D01*
X91209806Y-53444318D01*
X91200370Y-53491757D01*
X91194500Y-53551362D01*
X91194500Y-55378530D01*
X91175080Y-55445155D01*
X91122904Y-55490912D01*
X91054315Y-55501468D01*
X91035399Y-55498978D01*
X90999999Y-55494317D01*
X90843237Y-55514956D01*
X90697159Y-55575463D01*
X90571717Y-55671717D01*
X90475463Y-55797159D01*
X90414956Y-55943237D01*
X90394317Y-56100000D01*
X90414956Y-56256762D01*
X90475463Y-56402840D01*
X90571717Y-56528282D01*
X90672588Y-56605682D01*
X90697159Y-56624536D01*
X90843238Y-56685044D01*
X90979361Y-56702964D01*
X90999999Y-56705682D01*
X90999999Y-56705681D01*
X91000000Y-56705682D01*
X91054315Y-56698531D01*
X91122904Y-56709088D01*
X91175080Y-56754845D01*
X91194500Y-56821470D01*
X91194500Y-56876001D01*
X91204909Y-56955066D01*
X91221524Y-57017075D01*
X91252040Y-57090747D01*
X91300596Y-57154026D01*
X91345973Y-57199403D01*
X91345977Y-57199406D01*
X91345979Y-57199408D01*
X91409250Y-57247958D01*
X91409251Y-57247958D01*
X91409252Y-57247959D01*
X91482924Y-57278475D01*
X91482927Y-57278475D01*
X91482930Y-57278477D01*
X91544930Y-57295090D01*
X91604232Y-57302897D01*
X91623999Y-57305500D01*
X97103368Y-57305500D01*
X97162536Y-57320527D01*
X97207363Y-57361965D01*
X97226986Y-57419771D01*
X97216647Y-57479936D01*
X97178854Y-57527876D01*
X97121717Y-57571717D01*
X97025463Y-57697159D01*
X96964956Y-57843237D01*
X96944317Y-57999999D01*
X96964956Y-58156762D01*
X97025463Y-58302840D01*
X97121717Y-58428282D01*
X97215183Y-58500000D01*
X97247159Y-58524536D01*
X97393238Y-58585044D01*
X97529360Y-58602964D01*
X97549999Y-58605682D01*
X97549999Y-58605681D01*
X97550000Y-58605682D01*
X97706762Y-58585044D01*
X97852841Y-58524536D01*
X97978282Y-58428282D01*
X98074536Y-58302841D01*
X98135044Y-58156762D01*
X98155682Y-58000000D01*
X98135044Y-57843238D01*
X98074536Y-57697159D01*
X97981324Y-57575682D01*
X97978282Y-57571717D01*
X97921146Y-57527876D01*
X97883353Y-57479936D01*
X97873014Y-57419771D01*
X97892637Y-57361965D01*
X97937464Y-57320527D01*
X97996632Y-57305500D01*
X102753368Y-57305500D01*
X102812536Y-57320527D01*
X102857363Y-57361965D01*
X102876986Y-57419771D01*
X102866647Y-57479936D01*
X102828854Y-57527876D01*
X102771717Y-57571717D01*
X102675463Y-57697159D01*
X102614956Y-57843237D01*
X102594317Y-57999999D01*
X102614956Y-58156762D01*
X102675463Y-58302840D01*
X102771717Y-58428282D01*
X102865183Y-58500000D01*
X102897159Y-58524536D01*
X103043238Y-58585044D01*
X103179360Y-58602964D01*
X103199999Y-58605682D01*
X103199999Y-58605681D01*
X103200000Y-58605682D01*
X103356762Y-58585044D01*
X103502841Y-58524536D01*
X103628282Y-58428282D01*
X103724536Y-58302841D01*
X103760938Y-58214957D01*
X103802614Y-58162091D01*
X103865771Y-58138791D01*
X103931795Y-58151924D01*
X103981227Y-58197619D01*
X103999500Y-58262409D01*
X103999500Y-59737591D01*
X103981227Y-59802381D01*
X103931795Y-59848076D01*
X103865771Y-59861209D01*
X103802614Y-59837909D01*
X103760939Y-59785043D01*
X103724536Y-59697159D01*
X103628282Y-59571717D01*
X103502840Y-59475463D01*
X103356762Y-59414956D01*
X103200000Y-59394317D01*
X103043237Y-59414956D01*
X102897159Y-59475463D01*
X102771717Y-59571717D01*
X102675463Y-59697159D01*
X102614956Y-59843237D01*
X102594317Y-59999999D01*
X102614956Y-60156762D01*
X102675463Y-60302840D01*
X102771717Y-60428282D01*
X102857778Y-60494318D01*
X102897159Y-60524536D01*
X103043238Y-60585044D01*
X103200000Y-60605682D01*
X103356762Y-60585044D01*
X103502841Y-60524536D01*
X103628282Y-60428282D01*
X103724536Y-60302841D01*
X103760938Y-60214957D01*
X103802614Y-60162091D01*
X103865771Y-60138791D01*
X103931795Y-60151924D01*
X103981227Y-60197619D01*
X103999500Y-60262409D01*
X103999500Y-61737591D01*
X103981227Y-61802381D01*
X103931795Y-61848076D01*
X103865771Y-61861209D01*
X103802614Y-61837909D01*
X103760939Y-61785043D01*
X103724536Y-61697159D01*
X103628282Y-61571717D01*
X103502840Y-61475463D01*
X103356762Y-61414956D01*
X103200000Y-61394317D01*
X103043237Y-61414956D01*
X102897159Y-61475463D01*
X102771717Y-61571717D01*
X102675463Y-61697159D01*
X102614956Y-61843237D01*
X102594317Y-62000000D01*
X102614956Y-62156762D01*
X102675463Y-62302840D01*
X102771717Y-62428282D01*
X102857778Y-62494318D01*
X102897159Y-62524536D01*
X103043238Y-62585044D01*
X103200000Y-62605682D01*
X103356762Y-62585044D01*
X103502841Y-62524536D01*
X103628282Y-62428282D01*
X103724536Y-62302841D01*
X103760938Y-62214957D01*
X103802614Y-62162091D01*
X103865771Y-62138791D01*
X103931795Y-62151924D01*
X103981227Y-62197619D01*
X103999500Y-62262409D01*
X103999500Y-63737591D01*
X103981227Y-63802381D01*
X103931795Y-63848076D01*
X103865771Y-63861209D01*
X103802614Y-63837909D01*
X103760939Y-63785043D01*
X103724536Y-63697159D01*
X103628282Y-63571717D01*
X103502840Y-63475463D01*
X103356762Y-63414956D01*
X103199999Y-63394317D01*
X103043237Y-63414956D01*
X102897159Y-63475463D01*
X102771717Y-63571717D01*
X102675463Y-63697159D01*
X102614956Y-63843237D01*
X102594317Y-64000000D01*
X102614956Y-64156762D01*
X102675463Y-64302840D01*
X102771717Y-64428282D01*
X102897159Y-64524536D01*
X103043238Y-64585044D01*
X103200000Y-64605682D01*
X103356762Y-64585044D01*
X103502841Y-64524536D01*
X103628282Y-64428282D01*
X103724536Y-64302841D01*
X103760938Y-64214957D01*
X103802614Y-64162091D01*
X103865771Y-64138791D01*
X103931795Y-64151924D01*
X103981227Y-64197619D01*
X103999500Y-64262409D01*
X103999500Y-65737591D01*
X103981227Y-65802381D01*
X103931795Y-65848076D01*
X103865771Y-65861209D01*
X103802614Y-65837909D01*
X103760939Y-65785043D01*
X103724536Y-65697159D01*
X103628282Y-65571717D01*
X103502840Y-65475463D01*
X103356762Y-65414956D01*
X103200000Y-65394317D01*
X103043237Y-65414956D01*
X102897159Y-65475463D01*
X102771717Y-65571717D01*
X102675463Y-65697159D01*
X102614956Y-65843237D01*
X102594317Y-65999999D01*
X102614956Y-66156762D01*
X102675463Y-66302840D01*
X102771717Y-66428282D01*
X102865183Y-66500000D01*
X102897159Y-66524536D01*
X103043238Y-66585044D01*
X103200000Y-66605682D01*
X103356762Y-66585044D01*
X103502841Y-66524536D01*
X103628282Y-66428282D01*
X103724536Y-66302841D01*
X103753319Y-66233353D01*
X103760939Y-66214957D01*
X103802614Y-66162091D01*
X103865771Y-66138791D01*
X103931795Y-66151924D01*
X103981227Y-66197619D01*
X103999500Y-66262409D01*
X103999500Y-67737591D01*
X103981227Y-67802381D01*
X103931795Y-67848076D01*
X103865771Y-67861209D01*
X103802614Y-67837909D01*
X103760939Y-67785043D01*
X103724536Y-67697159D01*
X103628282Y-67571717D01*
X103502840Y-67475463D01*
X103356762Y-67414956D01*
X103200000Y-67394317D01*
X103043237Y-67414956D01*
X102897159Y-67475463D01*
X102771717Y-67571717D01*
X102675463Y-67697159D01*
X102614956Y-67843237D01*
X102594317Y-68000000D01*
X102614956Y-68156762D01*
X102675463Y-68302840D01*
X102771717Y-68428282D01*
X102828325Y-68471718D01*
X102897159Y-68524536D01*
X103043238Y-68585044D01*
X103179360Y-68602964D01*
X103199999Y-68605682D01*
X103199999Y-68605681D01*
X103200000Y-68605682D01*
X103356762Y-68585044D01*
X103502841Y-68524536D01*
X103628282Y-68428282D01*
X103724536Y-68302841D01*
X103760938Y-68214957D01*
X103802614Y-68162091D01*
X103865771Y-68138791D01*
X103931795Y-68151924D01*
X103981227Y-68197619D01*
X103999500Y-68262409D01*
X103999500Y-69737591D01*
X103981227Y-69802381D01*
X103931795Y-69848076D01*
X103865771Y-69861209D01*
X103802614Y-69837909D01*
X103760939Y-69785043D01*
X103724536Y-69697159D01*
X103628282Y-69571717D01*
X103502840Y-69475463D01*
X103356762Y-69414956D01*
X103199999Y-69394317D01*
X103043237Y-69414956D01*
X102897159Y-69475463D01*
X102771717Y-69571717D01*
X102675463Y-69697159D01*
X102614956Y-69843237D01*
X102594317Y-70000000D01*
X102614956Y-70156762D01*
X102675463Y-70302840D01*
X102771717Y-70428282D01*
X102865183Y-70500000D01*
X102897159Y-70524536D01*
X103043238Y-70585044D01*
X103200000Y-70605682D01*
X103356762Y-70585044D01*
X103502841Y-70524536D01*
X103628282Y-70428282D01*
X103724536Y-70302841D01*
X103760938Y-70214957D01*
X103802614Y-70162091D01*
X103865771Y-70138791D01*
X103931795Y-70151924D01*
X103981227Y-70197619D01*
X103999500Y-70262409D01*
X103999500Y-71737591D01*
X103981227Y-71802381D01*
X103931795Y-71848076D01*
X103865771Y-71861209D01*
X103802614Y-71837909D01*
X103760939Y-71785043D01*
X103724536Y-71697159D01*
X103628282Y-71571717D01*
X103502840Y-71475463D01*
X103356762Y-71414956D01*
X103200000Y-71394317D01*
X103043237Y-71414956D01*
X102897159Y-71475463D01*
X102771717Y-71571717D01*
X102675463Y-71697159D01*
X102614956Y-71843237D01*
X102594317Y-71999999D01*
X102614956Y-72156762D01*
X102675463Y-72302840D01*
X102771717Y-72428282D01*
X102897158Y-72524535D01*
X102897159Y-72524536D01*
X103043238Y-72585044D01*
X103200000Y-72605682D01*
X103356762Y-72585044D01*
X103502841Y-72524536D01*
X103628282Y-72428282D01*
X103724536Y-72302841D01*
X103760938Y-72214957D01*
X103802614Y-72162091D01*
X103865771Y-72138791D01*
X103931795Y-72151924D01*
X103981227Y-72197619D01*
X103999500Y-72262409D01*
X103999500Y-73737591D01*
X103981227Y-73802381D01*
X103931795Y-73848076D01*
X103865771Y-73861209D01*
X103802614Y-73837909D01*
X103760939Y-73785043D01*
X103724536Y-73697159D01*
X103628282Y-73571717D01*
X103502840Y-73475463D01*
X103356762Y-73414956D01*
X103200000Y-73394317D01*
X103043237Y-73414956D01*
X102897159Y-73475463D01*
X102771717Y-73571717D01*
X102675463Y-73697159D01*
X102614956Y-73843237D01*
X102594317Y-73999999D01*
X102614956Y-74156762D01*
X102675463Y-74302840D01*
X102771717Y-74428282D01*
X102897159Y-74524536D01*
X103043238Y-74585044D01*
X103200000Y-74605682D01*
X103356762Y-74585044D01*
X103502841Y-74524536D01*
X103628282Y-74428282D01*
X103724536Y-74302841D01*
X103760938Y-74214957D01*
X103802614Y-74162091D01*
X103865771Y-74138791D01*
X103931795Y-74151924D01*
X103981227Y-74197619D01*
X103999500Y-74262409D01*
X103999500Y-75737591D01*
X103981227Y-75802381D01*
X103931795Y-75848076D01*
X103865771Y-75861209D01*
X103802614Y-75837909D01*
X103760939Y-75785043D01*
X103724536Y-75697159D01*
X103628282Y-75571717D01*
X103502840Y-75475463D01*
X103356762Y-75414956D01*
X103200000Y-75394317D01*
X103043237Y-75414956D01*
X102897159Y-75475463D01*
X102771717Y-75571717D01*
X102675463Y-75697159D01*
X102614956Y-75843237D01*
X102594317Y-76000000D01*
X102614956Y-76156762D01*
X102675463Y-76302840D01*
X102771717Y-76428282D01*
X102883294Y-76513897D01*
X102897159Y-76524536D01*
X103043238Y-76585044D01*
X103200000Y-76605682D01*
X103356762Y-76585044D01*
X103502841Y-76524536D01*
X103628282Y-76428282D01*
X103724536Y-76302841D01*
X103760938Y-76214957D01*
X103802614Y-76162091D01*
X103865771Y-76138791D01*
X103931795Y-76151924D01*
X103981227Y-76197619D01*
X103999500Y-76262409D01*
X103999500Y-79997128D01*
X103999368Y-80002855D01*
X103991529Y-80172404D01*
X103991512Y-80172761D01*
X103981834Y-80369766D01*
X103980794Y-80380814D01*
X103955410Y-80562780D01*
X103955257Y-80563842D01*
X103928053Y-80747240D01*
X103926101Y-80757436D01*
X103883526Y-80938455D01*
X103883104Y-80940195D01*
X103838606Y-81117841D01*
X103835894Y-81127117D01*
X103776487Y-81304364D01*
X103775666Y-81306733D01*
X103714311Y-81478207D01*
X103710994Y-81486519D01*
X103635286Y-81657980D01*
X103633947Y-81660909D01*
X103556291Y-81825102D01*
X103552525Y-81832425D01*
X103461171Y-81996435D01*
X103459200Y-81999845D01*
X103365999Y-82155342D01*
X103361940Y-82161670D01*
X103255742Y-82316699D01*
X103253041Y-82320489D01*
X103145135Y-82465984D01*
X103140935Y-82471334D01*
X103068607Y-82558436D01*
X103023589Y-82612650D01*
X103020851Y-82615947D01*
X103017331Y-82620004D01*
X102895717Y-82754183D01*
X102891520Y-82758590D01*
X102758590Y-82891520D01*
X102754183Y-82895717D01*
X102620004Y-83017331D01*
X102615955Y-83020843D01*
X102588988Y-83043237D01*
X102471334Y-83140935D01*
X102465984Y-83145135D01*
X102320489Y-83253041D01*
X102316699Y-83255742D01*
X102161670Y-83361940D01*
X102155342Y-83365999D01*
X101999845Y-83459200D01*
X101996435Y-83461171D01*
X101832425Y-83552525D01*
X101825102Y-83556291D01*
X101660909Y-83633947D01*
X101657980Y-83635286D01*
X101486519Y-83710994D01*
X101478207Y-83714311D01*
X101306733Y-83775666D01*
X101304364Y-83776487D01*
X101127117Y-83835894D01*
X101117841Y-83838606D01*
X100940195Y-83883104D01*
X100938455Y-83883526D01*
X100757436Y-83926101D01*
X100747240Y-83928053D01*
X100563842Y-83955257D01*
X100562780Y-83955410D01*
X100380814Y-83980794D01*
X100369766Y-83981834D01*
X100172931Y-83991503D01*
X100172575Y-83991520D01*
X100007393Y-83999158D01*
X100002854Y-83999368D01*
X99997128Y-83999500D01*
X96262409Y-83999500D01*
X96197619Y-83981227D01*
X96151924Y-83931795D01*
X96138791Y-83865771D01*
X96162091Y-83802614D01*
X96214957Y-83760939D01*
X96243274Y-83749209D01*
X96302841Y-83724536D01*
X96428282Y-83628282D01*
X96524536Y-83502841D01*
X96585044Y-83356762D01*
X96605682Y-83200000D01*
X96585044Y-83043238D01*
X96524536Y-82897159D01*
X96515405Y-82885259D01*
X96428282Y-82771717D01*
X96302840Y-82675463D01*
X96156762Y-82614956D01*
X96000000Y-82594317D01*
X95843237Y-82614956D01*
X95697159Y-82675463D01*
X95571717Y-82771717D01*
X95475463Y-82897159D01*
X95414956Y-83043237D01*
X95394317Y-83199999D01*
X95414956Y-83356762D01*
X95475463Y-83502840D01*
X95571717Y-83628282D01*
X95697159Y-83724536D01*
X95785043Y-83760939D01*
X95837909Y-83802614D01*
X95861209Y-83865771D01*
X95848076Y-83931795D01*
X95802381Y-83981227D01*
X95737591Y-83999500D01*
X94262409Y-83999500D01*
X94197619Y-83981227D01*
X94151924Y-83931795D01*
X94138791Y-83865771D01*
X94162091Y-83802614D01*
X94214957Y-83760939D01*
X94243274Y-83749209D01*
X94302841Y-83724536D01*
X94428282Y-83628282D01*
X94524536Y-83502841D01*
X94585044Y-83356762D01*
X94605682Y-83200000D01*
X94585044Y-83043238D01*
X94524536Y-82897159D01*
X94515405Y-82885259D01*
X94428282Y-82771717D01*
X94308929Y-82680135D01*
X94274515Y-82639187D01*
X94260550Y-82587554D01*
X94269633Y-82534842D01*
X94300072Y-82490861D01*
X94448561Y-82353085D01*
X94616815Y-82142102D01*
X94751743Y-81908398D01*
X94850334Y-81657195D01*
X94910383Y-81394103D01*
X94930549Y-81125000D01*
X94910383Y-80855897D01*
X94850334Y-80592805D01*
X94751743Y-80341602D01*
X94616815Y-80107898D01*
X94530769Y-80000000D01*
X96494696Y-80000000D01*
X96513897Y-80366406D01*
X96571293Y-80728788D01*
X96666258Y-81083200D01*
X96797744Y-81425735D01*
X96964320Y-81752656D01*
X97164146Y-82060363D01*
X97246183Y-82161670D01*
X97395051Y-82345506D01*
X97654494Y-82604949D01*
X97838811Y-82754206D01*
X97939636Y-82835853D01*
X98224510Y-83020851D01*
X98247348Y-83035682D01*
X98574264Y-83202255D01*
X98916801Y-83333742D01*
X99271206Y-83428705D01*
X99271209Y-83428705D01*
X99271211Y-83428706D01*
X99633593Y-83486102D01*
X99683373Y-83488710D01*
X100000000Y-83505304D01*
X100331645Y-83487923D01*
X100366406Y-83486102D01*
X100728788Y-83428706D01*
X100728788Y-83428705D01*
X100728794Y-83428705D01*
X101083199Y-83333742D01*
X101425736Y-83202255D01*
X101752652Y-83035682D01*
X102060366Y-82835851D01*
X102345506Y-82604949D01*
X102604949Y-82345506D01*
X102835851Y-82060366D01*
X103035682Y-81752652D01*
X103202255Y-81425736D01*
X103333742Y-81083199D01*
X103428705Y-80728794D01*
X103486102Y-80366404D01*
X103505304Y-80000000D01*
X103486102Y-79633596D01*
X103474659Y-79561349D01*
X103428706Y-79271211D01*
X103428705Y-79271206D01*
X103333742Y-78916801D01*
X103202255Y-78574264D01*
X103035682Y-78247348D01*
X103035679Y-78247343D01*
X102835853Y-77939636D01*
X102758883Y-77844587D01*
X102604949Y-77654494D01*
X102345506Y-77395051D01*
X102125139Y-77216601D01*
X102060363Y-77164146D01*
X101752656Y-76964320D01*
X101425735Y-76797744D01*
X101083200Y-76666258D01*
X100728788Y-76571293D01*
X100366406Y-76513897D01*
X100000000Y-76494696D01*
X99633593Y-76513897D01*
X99271211Y-76571293D01*
X98916799Y-76666258D01*
X98574264Y-76797744D01*
X98247343Y-76964320D01*
X97939636Y-77164146D01*
X97654490Y-77395054D01*
X97395054Y-77654490D01*
X97164146Y-77939636D01*
X96964320Y-78247343D01*
X96797744Y-78574264D01*
X96666258Y-78916799D01*
X96571293Y-79271211D01*
X96513897Y-79633593D01*
X96494696Y-80000000D01*
X94530769Y-80000000D01*
X94448561Y-79896915D01*
X94448560Y-79896914D01*
X94250743Y-79713366D01*
X94193205Y-79674137D01*
X94027775Y-79561349D01*
X93784641Y-79444262D01*
X93678867Y-79411635D01*
X93526771Y-79364719D01*
X93259929Y-79324500D01*
X92990071Y-79324500D01*
X92723228Y-79364719D01*
X92465359Y-79444262D01*
X92222228Y-79561347D01*
X91999257Y-79713366D01*
X91801439Y-79896915D01*
X91633184Y-80107899D01*
X91498257Y-80341601D01*
X91399666Y-80592804D01*
X91339616Y-80855899D01*
X91319450Y-81125000D01*
X91339616Y-81394100D01*
X91339617Y-81394103D01*
X91399666Y-81657195D01*
X91498257Y-81908398D01*
X91633185Y-82142102D01*
X91795395Y-82345506D01*
X91801439Y-82353085D01*
X91867758Y-82414620D01*
X91901020Y-82466209D01*
X91905464Y-82527431D01*
X91880001Y-82583283D01*
X91830869Y-82620079D01*
X91697158Y-82675464D01*
X91571717Y-82771717D01*
X91475463Y-82897159D01*
X91414956Y-83043237D01*
X91394317Y-83199999D01*
X91414956Y-83356762D01*
X91475463Y-83502840D01*
X91571717Y-83628282D01*
X91697159Y-83724536D01*
X91785043Y-83760939D01*
X91837909Y-83802614D01*
X91861209Y-83865771D01*
X91848076Y-83931795D01*
X91802381Y-83981227D01*
X91737591Y-83999500D01*
X90262409Y-83999500D01*
X90197619Y-83981227D01*
X90151924Y-83931795D01*
X90138791Y-83865771D01*
X90162091Y-83802614D01*
X90214957Y-83760939D01*
X90243274Y-83749209D01*
X90302841Y-83724536D01*
X90428282Y-83628282D01*
X90524536Y-83502841D01*
X90585044Y-83356762D01*
X90605682Y-83200000D01*
X90585044Y-83043238D01*
X90524536Y-82897159D01*
X90515405Y-82885259D01*
X90428282Y-82771717D01*
X90302840Y-82675463D01*
X90156762Y-82614956D01*
X90000000Y-82594317D01*
X89843237Y-82614956D01*
X89697159Y-82675463D01*
X89571717Y-82771717D01*
X89475463Y-82897159D01*
X89414956Y-83043237D01*
X89394317Y-83199999D01*
X89414956Y-83356762D01*
X89475463Y-83502840D01*
X89571717Y-83628282D01*
X89697159Y-83724536D01*
X89785043Y-83760939D01*
X89837909Y-83802614D01*
X89861209Y-83865771D01*
X89848076Y-83931795D01*
X89802381Y-83981227D01*
X89737591Y-83999500D01*
X88262409Y-83999500D01*
X88197619Y-83981227D01*
X88151924Y-83931795D01*
X88138791Y-83865771D01*
X88162091Y-83802614D01*
X88214957Y-83760939D01*
X88243274Y-83749209D01*
X88302841Y-83724536D01*
X88428282Y-83628282D01*
X88524536Y-83502841D01*
X88585044Y-83356762D01*
X88605682Y-83200000D01*
X88585044Y-83043238D01*
X88524536Y-82897159D01*
X88515405Y-82885259D01*
X88428282Y-82771717D01*
X88302841Y-82675464D01*
X88169130Y-82620079D01*
X88119998Y-82583283D01*
X88094534Y-82527431D01*
X88098979Y-82466208D01*
X88132240Y-82414621D01*
X88198561Y-82353085D01*
X88366815Y-82142102D01*
X88501743Y-81908398D01*
X88600334Y-81657195D01*
X88660383Y-81394103D01*
X88680549Y-81125000D01*
X88660383Y-80855897D01*
X88600334Y-80592805D01*
X88501743Y-80341602D01*
X88366815Y-80107898D01*
X88198561Y-79896915D01*
X88198560Y-79896914D01*
X88000743Y-79713366D01*
X87943205Y-79674137D01*
X87777775Y-79561349D01*
X87534641Y-79444262D01*
X87428867Y-79411635D01*
X87276771Y-79364719D01*
X87009929Y-79324500D01*
X86740071Y-79324500D01*
X86473228Y-79364719D01*
X86215359Y-79444262D01*
X85972228Y-79561347D01*
X85749257Y-79713366D01*
X85551439Y-79896915D01*
X85383184Y-80107899D01*
X85248257Y-80341601D01*
X85149666Y-80592804D01*
X85089616Y-80855899D01*
X85069450Y-81125000D01*
X85089616Y-81394100D01*
X85089617Y-81394103D01*
X85149666Y-81657195D01*
X85248257Y-81908398D01*
X85383185Y-82142102D01*
X85545395Y-82345506D01*
X85551439Y-82353085D01*
X85699926Y-82490861D01*
X85730366Y-82534842D01*
X85739449Y-82587554D01*
X85725484Y-82639187D01*
X85691071Y-82680135D01*
X85571716Y-82771719D01*
X85475463Y-82897159D01*
X85414956Y-83043237D01*
X85394317Y-83199999D01*
X85414956Y-83356762D01*
X85475463Y-83502840D01*
X85571717Y-83628282D01*
X85697159Y-83724536D01*
X85785043Y-83760939D01*
X85837909Y-83802614D01*
X85861209Y-83865771D01*
X85848076Y-83931795D01*
X85802381Y-83981227D01*
X85737591Y-83999500D01*
X84262409Y-83999500D01*
X84197619Y-83981227D01*
X84151924Y-83931795D01*
X84138791Y-83865771D01*
X84162091Y-83802614D01*
X84214957Y-83760939D01*
X84243274Y-83749209D01*
X84302841Y-83724536D01*
X84428282Y-83628282D01*
X84524536Y-83502841D01*
X84585044Y-83356762D01*
X84605682Y-83200000D01*
X84585044Y-83043238D01*
X84524536Y-82897159D01*
X84515405Y-82885259D01*
X84428282Y-82771717D01*
X84302840Y-82675463D01*
X84156762Y-82614956D01*
X84000000Y-82594317D01*
X83843237Y-82614956D01*
X83697159Y-82675463D01*
X83571717Y-82771717D01*
X83475463Y-82897159D01*
X83414956Y-83043237D01*
X83394317Y-83199999D01*
X83414956Y-83356762D01*
X83475463Y-83502840D01*
X83571717Y-83628282D01*
X83697159Y-83724536D01*
X83785043Y-83760939D01*
X83837909Y-83802614D01*
X83861209Y-83865771D01*
X83848076Y-83931795D01*
X83802381Y-83981227D01*
X83737591Y-83999500D01*
X82262409Y-83999500D01*
X82197619Y-83981227D01*
X82151924Y-83931795D01*
X82138791Y-83865771D01*
X82162091Y-83802614D01*
X82214957Y-83760939D01*
X82243274Y-83749209D01*
X82302841Y-83724536D01*
X82428282Y-83628282D01*
X82524536Y-83502841D01*
X82585044Y-83356762D01*
X82605682Y-83200000D01*
X82585044Y-83043238D01*
X82524536Y-82897159D01*
X82515405Y-82885259D01*
X82428282Y-82771717D01*
X82302840Y-82675463D01*
X82156762Y-82614956D01*
X82000000Y-82594317D01*
X81843237Y-82614956D01*
X81697159Y-82675463D01*
X81571717Y-82771717D01*
X81475463Y-82897159D01*
X81414956Y-83043237D01*
X81394317Y-83199999D01*
X81414956Y-83356762D01*
X81475463Y-83502840D01*
X81571717Y-83628282D01*
X81697159Y-83724536D01*
X81785043Y-83760939D01*
X81837909Y-83802614D01*
X81861209Y-83865771D01*
X81848076Y-83931795D01*
X81802381Y-83981227D01*
X81737591Y-83999500D01*
X80262409Y-83999500D01*
X80197619Y-83981227D01*
X80151924Y-83931795D01*
X80138791Y-83865771D01*
X80162091Y-83802614D01*
X80214957Y-83760939D01*
X80243274Y-83749209D01*
X80302841Y-83724536D01*
X80428282Y-83628282D01*
X80524536Y-83502841D01*
X80585044Y-83356762D01*
X80605682Y-83200000D01*
X80585044Y-83043238D01*
X80524536Y-82897159D01*
X80515405Y-82885259D01*
X80428282Y-82771717D01*
X80302840Y-82675463D01*
X80156762Y-82614956D01*
X80000000Y-82594317D01*
X79843237Y-82614956D01*
X79697159Y-82675463D01*
X79571717Y-82771717D01*
X79475463Y-82897159D01*
X79414956Y-83043237D01*
X79394317Y-83199999D01*
X79414956Y-83356762D01*
X79475463Y-83502840D01*
X79571717Y-83628282D01*
X79697159Y-83724536D01*
X79785043Y-83760939D01*
X79837909Y-83802614D01*
X79861209Y-83865771D01*
X79848076Y-83931795D01*
X79802381Y-83981227D01*
X79737591Y-83999500D01*
X78262409Y-83999500D01*
X78197619Y-83981227D01*
X78151924Y-83931795D01*
X78138791Y-83865771D01*
X78162091Y-83802614D01*
X78214957Y-83760939D01*
X78243274Y-83749209D01*
X78302841Y-83724536D01*
X78428282Y-83628282D01*
X78524536Y-83502841D01*
X78585044Y-83356762D01*
X78605682Y-83200000D01*
X78585044Y-83043238D01*
X78524536Y-82897159D01*
X78515405Y-82885259D01*
X78428282Y-82771717D01*
X78302840Y-82675463D01*
X78156762Y-82614956D01*
X78000000Y-82594317D01*
X77843237Y-82614956D01*
X77697159Y-82675463D01*
X77571717Y-82771717D01*
X77475463Y-82897159D01*
X77414956Y-83043237D01*
X77394317Y-83200000D01*
X77414956Y-83356762D01*
X77475463Y-83502840D01*
X77571717Y-83628282D01*
X77697159Y-83724536D01*
X77785043Y-83760939D01*
X77837909Y-83802614D01*
X77861209Y-83865771D01*
X77848076Y-83931795D01*
X77802381Y-83981227D01*
X77737591Y-83999500D01*
X76262409Y-83999500D01*
X76197619Y-83981227D01*
X76151924Y-83931795D01*
X76138791Y-83865771D01*
X76162091Y-83802614D01*
X76214957Y-83760939D01*
X76243274Y-83749209D01*
X76302841Y-83724536D01*
X76428282Y-83628282D01*
X76524536Y-83502841D01*
X76585044Y-83356762D01*
X76605682Y-83200000D01*
X76585044Y-83043238D01*
X76524536Y-82897159D01*
X76515405Y-82885259D01*
X76428282Y-82771717D01*
X76302840Y-82675463D01*
X76156762Y-82614956D01*
X76000000Y-82594317D01*
X75843237Y-82614956D01*
X75697159Y-82675463D01*
X75571717Y-82771717D01*
X75475463Y-82897159D01*
X75414956Y-83043237D01*
X75394317Y-83200000D01*
X75414956Y-83356762D01*
X75475463Y-83502840D01*
X75571717Y-83628282D01*
X75697159Y-83724536D01*
X75785043Y-83760939D01*
X75837909Y-83802614D01*
X75861209Y-83865771D01*
X75848076Y-83931795D01*
X75802381Y-83981227D01*
X75737591Y-83999500D01*
X74262409Y-83999500D01*
X74197619Y-83981227D01*
X74151924Y-83931795D01*
X74138791Y-83865771D01*
X74162091Y-83802614D01*
X74214957Y-83760939D01*
X74243274Y-83749209D01*
X74302841Y-83724536D01*
X74428282Y-83628282D01*
X74524536Y-83502841D01*
X74585044Y-83356762D01*
X74605682Y-83200000D01*
X74585044Y-83043238D01*
X74524536Y-82897159D01*
X74515405Y-82885259D01*
X74428282Y-82771717D01*
X74308929Y-82680135D01*
X74274515Y-82639187D01*
X74260550Y-82587554D01*
X74269633Y-82534842D01*
X74300072Y-82490861D01*
X74448561Y-82353085D01*
X74616815Y-82142102D01*
X74751743Y-81908398D01*
X74850334Y-81657195D01*
X74910383Y-81394103D01*
X74930549Y-81125000D01*
X74910383Y-80855897D01*
X74850334Y-80592805D01*
X74751743Y-80341602D01*
X74616815Y-80107898D01*
X74448561Y-79896915D01*
X74448560Y-79896914D01*
X74250743Y-79713366D01*
X74193205Y-79674137D01*
X74027775Y-79561349D01*
X73784641Y-79444262D01*
X73678867Y-79411635D01*
X73526771Y-79364719D01*
X73259929Y-79324500D01*
X72990071Y-79324500D01*
X72723228Y-79364719D01*
X72465359Y-79444262D01*
X72222228Y-79561347D01*
X71999257Y-79713366D01*
X71801439Y-79896915D01*
X71633184Y-80107899D01*
X71498257Y-80341601D01*
X71399666Y-80592804D01*
X71339616Y-80855899D01*
X71319450Y-81125000D01*
X71339616Y-81394100D01*
X71339617Y-81394103D01*
X71399666Y-81657195D01*
X71498257Y-81908398D01*
X71633185Y-82142102D01*
X71795395Y-82345506D01*
X71801439Y-82353085D01*
X71867758Y-82414620D01*
X71901020Y-82466209D01*
X71905464Y-82527431D01*
X71880001Y-82583283D01*
X71830869Y-82620079D01*
X71697158Y-82675464D01*
X71571717Y-82771717D01*
X71475463Y-82897159D01*
X71414956Y-83043237D01*
X71394317Y-83200000D01*
X71414956Y-83356762D01*
X71475463Y-83502840D01*
X71571717Y-83628282D01*
X71697159Y-83724536D01*
X71785043Y-83760939D01*
X71837909Y-83802614D01*
X71861209Y-83865771D01*
X71848076Y-83931795D01*
X71802381Y-83981227D01*
X71737591Y-83999500D01*
X70262409Y-83999500D01*
X70197619Y-83981227D01*
X70151924Y-83931795D01*
X70138791Y-83865771D01*
X70162091Y-83802614D01*
X70214957Y-83760939D01*
X70243274Y-83749209D01*
X70302841Y-83724536D01*
X70428282Y-83628282D01*
X70524536Y-83502841D01*
X70585044Y-83356762D01*
X70605682Y-83200000D01*
X70585044Y-83043238D01*
X70524536Y-82897159D01*
X70515405Y-82885259D01*
X70428282Y-82771717D01*
X70302840Y-82675463D01*
X70156762Y-82614956D01*
X70000000Y-82594317D01*
X69843237Y-82614956D01*
X69697159Y-82675463D01*
X69571717Y-82771717D01*
X69475463Y-82897159D01*
X69414956Y-83043237D01*
X69394317Y-83200000D01*
X69414956Y-83356762D01*
X69475463Y-83502840D01*
X69571717Y-83628282D01*
X69697159Y-83724536D01*
X69785043Y-83760939D01*
X69837909Y-83802614D01*
X69861209Y-83865771D01*
X69848076Y-83931795D01*
X69802381Y-83981227D01*
X69737591Y-83999500D01*
X68262409Y-83999500D01*
X68197619Y-83981227D01*
X68151924Y-83931795D01*
X68138791Y-83865771D01*
X68162091Y-83802614D01*
X68214957Y-83760939D01*
X68243274Y-83749209D01*
X68302841Y-83724536D01*
X68428282Y-83628282D01*
X68524536Y-83502841D01*
X68585044Y-83356762D01*
X68605682Y-83200000D01*
X68585044Y-83043238D01*
X68524536Y-82897159D01*
X68515405Y-82885259D01*
X68428282Y-82771717D01*
X68302841Y-82675464D01*
X68169130Y-82620079D01*
X68119998Y-82583283D01*
X68094534Y-82527431D01*
X68098979Y-82466208D01*
X68132240Y-82414621D01*
X68198561Y-82353085D01*
X68366815Y-82142102D01*
X68501743Y-81908398D01*
X68600334Y-81657195D01*
X68660383Y-81394103D01*
X68680549Y-81125000D01*
X68660383Y-80855897D01*
X68600334Y-80592805D01*
X68501743Y-80341602D01*
X68366815Y-80107898D01*
X68198561Y-79896915D01*
X68198560Y-79896914D01*
X68000743Y-79713366D01*
X67943205Y-79674137D01*
X67777775Y-79561349D01*
X67534641Y-79444262D01*
X67428867Y-79411635D01*
X67276771Y-79364719D01*
X67009929Y-79324500D01*
X66740071Y-79324500D01*
X66473228Y-79364719D01*
X66215359Y-79444262D01*
X65972228Y-79561347D01*
X65749257Y-79713366D01*
X65551439Y-79896915D01*
X65383184Y-80107899D01*
X65248257Y-80341601D01*
X65149666Y-80592804D01*
X65089616Y-80855899D01*
X65069450Y-81125000D01*
X65089616Y-81394100D01*
X65089617Y-81394103D01*
X65149666Y-81657195D01*
X65248257Y-81908398D01*
X65383185Y-82142102D01*
X65545395Y-82345506D01*
X65551439Y-82353085D01*
X65699926Y-82490861D01*
X65730366Y-82534842D01*
X65739449Y-82587554D01*
X65725484Y-82639187D01*
X65691071Y-82680135D01*
X65571716Y-82771719D01*
X65475463Y-82897159D01*
X65414956Y-83043237D01*
X65394317Y-83200000D01*
X65414956Y-83356762D01*
X65475463Y-83502840D01*
X65571717Y-83628282D01*
X65697159Y-83724536D01*
X65785043Y-83760939D01*
X65837909Y-83802614D01*
X65861209Y-83865771D01*
X65848076Y-83931795D01*
X65802381Y-83981227D01*
X65737591Y-83999500D01*
X64262409Y-83999500D01*
X64197619Y-83981227D01*
X64151924Y-83931795D01*
X64138791Y-83865771D01*
X64162091Y-83802614D01*
X64214957Y-83760939D01*
X64243274Y-83749209D01*
X64302841Y-83724536D01*
X64428282Y-83628282D01*
X64524536Y-83502841D01*
X64585044Y-83356762D01*
X64605682Y-83200000D01*
X64585044Y-83043238D01*
X64524536Y-82897159D01*
X64515405Y-82885259D01*
X64428282Y-82771717D01*
X64302840Y-82675463D01*
X64156762Y-82614956D01*
X64000000Y-82594317D01*
X63843237Y-82614956D01*
X63697159Y-82675463D01*
X63571717Y-82771717D01*
X63475463Y-82897159D01*
X63414956Y-83043237D01*
X63394317Y-83200000D01*
X63414956Y-83356762D01*
X63475463Y-83502840D01*
X63571717Y-83628282D01*
X63697159Y-83724536D01*
X63785043Y-83760939D01*
X63837909Y-83802614D01*
X63861209Y-83865771D01*
X63848076Y-83931795D01*
X63802381Y-83981227D01*
X63737591Y-83999500D01*
X62262409Y-83999500D01*
X62197619Y-83981227D01*
X62151924Y-83931795D01*
X62138791Y-83865771D01*
X62162091Y-83802614D01*
X62214957Y-83760939D01*
X62243274Y-83749209D01*
X62302841Y-83724536D01*
X62428282Y-83628282D01*
X62524536Y-83502841D01*
X62585044Y-83356762D01*
X62605682Y-83200000D01*
X62585044Y-83043238D01*
X62524536Y-82897159D01*
X62515405Y-82885259D01*
X62428282Y-82771717D01*
X62302840Y-82675463D01*
X62156762Y-82614956D01*
X62000000Y-82594317D01*
X61843237Y-82614956D01*
X61697159Y-82675463D01*
X61571717Y-82771717D01*
X61475463Y-82897159D01*
X61414956Y-83043237D01*
X61394317Y-83200000D01*
X61414956Y-83356762D01*
X61475463Y-83502840D01*
X61571717Y-83628282D01*
X61697159Y-83724536D01*
X61785043Y-83760939D01*
X61837909Y-83802614D01*
X61861209Y-83865771D01*
X61848076Y-83931795D01*
X61802381Y-83981227D01*
X61737591Y-83999500D01*
X60262409Y-83999500D01*
X60197619Y-83981227D01*
X60151924Y-83931795D01*
X60138791Y-83865771D01*
X60162091Y-83802614D01*
X60214957Y-83760939D01*
X60243274Y-83749209D01*
X60302841Y-83724536D01*
X60428282Y-83628282D01*
X60524536Y-83502841D01*
X60585044Y-83356762D01*
X60605682Y-83200000D01*
X60585044Y-83043238D01*
X60524536Y-82897159D01*
X60515405Y-82885259D01*
X60428282Y-82771717D01*
X60302840Y-82675463D01*
X60156762Y-82614956D01*
X60000000Y-82594317D01*
X59843237Y-82614956D01*
X59697159Y-82675463D01*
X59571717Y-82771717D01*
X59475463Y-82897159D01*
X59414956Y-83043237D01*
X59394317Y-83200000D01*
X59414956Y-83356762D01*
X59475463Y-83502840D01*
X59571717Y-83628282D01*
X59697159Y-83724536D01*
X59785043Y-83760939D01*
X59837909Y-83802614D01*
X59861209Y-83865771D01*
X59848076Y-83931795D01*
X59802381Y-83981227D01*
X59737591Y-83999500D01*
X58262409Y-83999500D01*
X58197619Y-83981227D01*
X58151924Y-83931795D01*
X58138791Y-83865771D01*
X58162091Y-83802614D01*
X58214957Y-83760939D01*
X58243274Y-83749209D01*
X58302841Y-83724536D01*
X58428282Y-83628282D01*
X58524536Y-83502841D01*
X58585044Y-83356762D01*
X58605682Y-83200000D01*
X58585044Y-83043238D01*
X58524536Y-82897159D01*
X58515405Y-82885259D01*
X58428282Y-82771717D01*
X58302840Y-82675463D01*
X58156762Y-82614956D01*
X58000000Y-82594317D01*
X57843237Y-82614956D01*
X57697159Y-82675463D01*
X57571717Y-82771717D01*
X57475463Y-82897159D01*
X57414956Y-83043237D01*
X57394317Y-83200000D01*
X57414956Y-83356762D01*
X57475463Y-83502840D01*
X57571717Y-83628282D01*
X57697159Y-83724536D01*
X57785043Y-83760939D01*
X57837909Y-83802614D01*
X57861209Y-83865771D01*
X57848076Y-83931795D01*
X57802381Y-83981227D01*
X57737591Y-83999500D01*
X56262409Y-83999500D01*
X56197619Y-83981227D01*
X56151924Y-83931795D01*
X56138791Y-83865771D01*
X56162091Y-83802614D01*
X56214957Y-83760939D01*
X56243274Y-83749209D01*
X56302841Y-83724536D01*
X56428282Y-83628282D01*
X56524536Y-83502841D01*
X56585044Y-83356762D01*
X56605682Y-83200000D01*
X56585044Y-83043238D01*
X56524536Y-82897159D01*
X56515405Y-82885259D01*
X56428282Y-82771717D01*
X56302840Y-82675463D01*
X56156762Y-82614956D01*
X56000000Y-82594317D01*
X55843237Y-82614956D01*
X55697159Y-82675463D01*
X55571717Y-82771717D01*
X55475463Y-82897159D01*
X55414956Y-83043237D01*
X55394317Y-83200000D01*
X55414956Y-83356762D01*
X55475463Y-83502840D01*
X55571717Y-83628282D01*
X55697159Y-83724536D01*
X55785043Y-83760939D01*
X55837909Y-83802614D01*
X55861209Y-83865771D01*
X55848076Y-83931795D01*
X55802381Y-83981227D01*
X55737591Y-83999500D01*
X54262409Y-83999500D01*
X54197619Y-83981227D01*
X54151924Y-83931795D01*
X54138791Y-83865771D01*
X54162091Y-83802614D01*
X54214957Y-83760939D01*
X54243274Y-83749209D01*
X54302841Y-83724536D01*
X54428282Y-83628282D01*
X54524536Y-83502841D01*
X54585044Y-83356762D01*
X54605682Y-83200000D01*
X54585044Y-83043238D01*
X54524536Y-82897159D01*
X54515405Y-82885259D01*
X54428282Y-82771717D01*
X54308929Y-82680135D01*
X54274515Y-82639187D01*
X54260550Y-82587554D01*
X54269633Y-82534842D01*
X54300072Y-82490861D01*
X54448561Y-82353085D01*
X54616815Y-82142102D01*
X54751743Y-81908398D01*
X54850334Y-81657195D01*
X54910383Y-81394103D01*
X54930549Y-81125000D01*
X54910383Y-80855897D01*
X54850334Y-80592805D01*
X54751743Y-80341602D01*
X54616815Y-80107898D01*
X54448561Y-79896915D01*
X54448560Y-79896914D01*
X54250743Y-79713366D01*
X54193205Y-79674137D01*
X54027775Y-79561349D01*
X53784641Y-79444262D01*
X53678867Y-79411635D01*
X53526771Y-79364719D01*
X53259929Y-79324500D01*
X52990071Y-79324500D01*
X52723228Y-79364719D01*
X52465359Y-79444262D01*
X52222228Y-79561347D01*
X51999257Y-79713366D01*
X51801439Y-79896915D01*
X51633184Y-80107899D01*
X51498257Y-80341601D01*
X51399666Y-80592804D01*
X51339616Y-80855899D01*
X51319450Y-81125000D01*
X51339616Y-81394100D01*
X51339617Y-81394103D01*
X51399666Y-81657195D01*
X51498257Y-81908398D01*
X51633185Y-82142102D01*
X51795395Y-82345506D01*
X51801439Y-82353085D01*
X51867758Y-82414620D01*
X51901020Y-82466209D01*
X51905464Y-82527431D01*
X51880001Y-82583283D01*
X51830869Y-82620079D01*
X51697158Y-82675464D01*
X51571717Y-82771717D01*
X51475463Y-82897159D01*
X51414956Y-83043237D01*
X51394317Y-83200000D01*
X51414956Y-83356762D01*
X51475463Y-83502840D01*
X51571717Y-83628282D01*
X51697159Y-83724536D01*
X51785043Y-83760939D01*
X51837909Y-83802614D01*
X51861209Y-83865771D01*
X51848076Y-83931795D01*
X51802381Y-83981227D01*
X51737591Y-83999500D01*
X50262409Y-83999500D01*
X50197619Y-83981227D01*
X50151924Y-83931795D01*
X50138791Y-83865771D01*
X50162091Y-83802614D01*
X50214957Y-83760939D01*
X50243274Y-83749209D01*
X50302841Y-83724536D01*
X50428282Y-83628282D01*
X50524536Y-83502841D01*
X50585044Y-83356762D01*
X50605682Y-83200000D01*
X50585044Y-83043238D01*
X50524536Y-82897159D01*
X50515405Y-82885259D01*
X50428282Y-82771717D01*
X50302840Y-82675463D01*
X50156762Y-82614956D01*
X50000000Y-82594317D01*
X49843237Y-82614956D01*
X49697159Y-82675463D01*
X49571717Y-82771717D01*
X49475463Y-82897159D01*
X49414956Y-83043237D01*
X49394317Y-83200000D01*
X49414956Y-83356762D01*
X49475463Y-83502840D01*
X49571717Y-83628282D01*
X49697159Y-83724536D01*
X49785043Y-83760939D01*
X49837909Y-83802614D01*
X49861209Y-83865771D01*
X49848076Y-83931795D01*
X49802381Y-83981227D01*
X49737591Y-83999500D01*
X48262409Y-83999500D01*
X48197619Y-83981227D01*
X48151924Y-83931795D01*
X48138791Y-83865771D01*
X48162091Y-83802614D01*
X48214957Y-83760939D01*
X48243274Y-83749209D01*
X48302841Y-83724536D01*
X48428282Y-83628282D01*
X48524536Y-83502841D01*
X48585044Y-83356762D01*
X48605682Y-83200000D01*
X48585044Y-83043238D01*
X48524536Y-82897159D01*
X48515405Y-82885259D01*
X48428282Y-82771717D01*
X48302841Y-82675464D01*
X48169130Y-82620079D01*
X48119998Y-82583283D01*
X48094534Y-82527431D01*
X48098979Y-82466208D01*
X48132240Y-82414621D01*
X48198561Y-82353085D01*
X48366815Y-82142102D01*
X48501743Y-81908398D01*
X48600334Y-81657195D01*
X48660383Y-81394103D01*
X48680549Y-81125000D01*
X48660383Y-80855897D01*
X48600334Y-80592805D01*
X48501743Y-80341602D01*
X48366815Y-80107898D01*
X48198561Y-79896915D01*
X48198560Y-79896914D01*
X48000743Y-79713366D01*
X47943205Y-79674137D01*
X47777775Y-79561349D01*
X47534641Y-79444262D01*
X47428867Y-79411635D01*
X47276771Y-79364719D01*
X47009929Y-79324500D01*
X46740071Y-79324500D01*
X46473228Y-79364719D01*
X46215359Y-79444262D01*
X45972228Y-79561347D01*
X45749257Y-79713366D01*
X45551439Y-79896915D01*
X45383184Y-80107899D01*
X45248257Y-80341601D01*
X45149666Y-80592804D01*
X45089616Y-80855899D01*
X45069450Y-81125000D01*
X45089616Y-81394100D01*
X45089617Y-81394103D01*
X45149666Y-81657195D01*
X45248257Y-81908398D01*
X45383185Y-82142102D01*
X45545395Y-82345506D01*
X45551439Y-82353085D01*
X45699926Y-82490861D01*
X45730366Y-82534842D01*
X45739449Y-82587554D01*
X45725484Y-82639187D01*
X45691071Y-82680135D01*
X45571716Y-82771719D01*
X45475463Y-82897159D01*
X45414956Y-83043237D01*
X45394317Y-83200000D01*
X45414956Y-83356762D01*
X45475463Y-83502840D01*
X45571717Y-83628282D01*
X45697159Y-83724536D01*
X45785043Y-83760939D01*
X45837909Y-83802614D01*
X45861209Y-83865771D01*
X45848076Y-83931795D01*
X45802381Y-83981227D01*
X45737591Y-83999500D01*
X44262409Y-83999500D01*
X44197619Y-83981227D01*
X44151924Y-83931795D01*
X44138791Y-83865771D01*
X44162091Y-83802614D01*
X44214957Y-83760939D01*
X44243274Y-83749209D01*
X44302841Y-83724536D01*
X44428282Y-83628282D01*
X44524536Y-83502841D01*
X44585044Y-83356762D01*
X44605682Y-83200000D01*
X44585044Y-83043238D01*
X44524536Y-82897159D01*
X44515405Y-82885259D01*
X44428282Y-82771717D01*
X44302840Y-82675463D01*
X44156762Y-82614956D01*
X44000000Y-82594317D01*
X43843237Y-82614956D01*
X43697159Y-82675463D01*
X43571717Y-82771717D01*
X43475463Y-82897159D01*
X43414956Y-83043237D01*
X43394317Y-83200000D01*
X43414956Y-83356762D01*
X43475463Y-83502840D01*
X43571717Y-83628282D01*
X43697159Y-83724536D01*
X43785043Y-83760939D01*
X43837909Y-83802614D01*
X43861209Y-83865771D01*
X43848076Y-83931795D01*
X43802381Y-83981227D01*
X43737591Y-83999500D01*
X42262409Y-83999500D01*
X42197619Y-83981227D01*
X42151924Y-83931795D01*
X42138791Y-83865771D01*
X42162091Y-83802614D01*
X42214957Y-83760939D01*
X42243274Y-83749209D01*
X42302841Y-83724536D01*
X42428282Y-83628282D01*
X42524536Y-83502841D01*
X42585044Y-83356762D01*
X42605682Y-83200000D01*
X42585044Y-83043238D01*
X42524536Y-82897159D01*
X42515405Y-82885259D01*
X42428282Y-82771717D01*
X42302840Y-82675463D01*
X42156762Y-82614956D01*
X42000000Y-82594317D01*
X41843237Y-82614956D01*
X41697159Y-82675463D01*
X41571717Y-82771717D01*
X41475463Y-82897159D01*
X41414956Y-83043237D01*
X41394317Y-83200000D01*
X41414956Y-83356762D01*
X41475463Y-83502840D01*
X41571717Y-83628282D01*
X41697159Y-83724536D01*
X41785043Y-83760939D01*
X41837909Y-83802614D01*
X41861209Y-83865771D01*
X41848076Y-83931795D01*
X41802381Y-83981227D01*
X41737591Y-83999500D01*
X40262409Y-83999500D01*
X40197619Y-83981227D01*
X40151924Y-83931795D01*
X40138791Y-83865771D01*
X40162091Y-83802614D01*
X40214957Y-83760939D01*
X40243274Y-83749209D01*
X40302841Y-83724536D01*
X40428282Y-83628282D01*
X40524536Y-83502841D01*
X40585044Y-83356762D01*
X40605682Y-83200000D01*
X40585044Y-83043238D01*
X40524536Y-82897159D01*
X40515405Y-82885259D01*
X40428282Y-82771717D01*
X40302840Y-82675463D01*
X40156762Y-82614956D01*
X40000000Y-82594317D01*
X39843237Y-82614956D01*
X39697159Y-82675463D01*
X39571717Y-82771717D01*
X39475463Y-82897159D01*
X39414956Y-83043237D01*
X39394317Y-83200000D01*
X39414956Y-83356762D01*
X39475463Y-83502840D01*
X39571717Y-83628282D01*
X39697159Y-83724536D01*
X39785043Y-83760939D01*
X39837909Y-83802614D01*
X39861209Y-83865771D01*
X39848076Y-83931795D01*
X39802381Y-83981227D01*
X39737591Y-83999500D01*
X38262409Y-83999500D01*
X38197619Y-83981227D01*
X38151924Y-83931795D01*
X38138791Y-83865771D01*
X38162091Y-83802614D01*
X38214957Y-83760939D01*
X38243274Y-83749209D01*
X38302841Y-83724536D01*
X38428282Y-83628282D01*
X38524536Y-83502841D01*
X38585044Y-83356762D01*
X38605682Y-83200000D01*
X38585044Y-83043238D01*
X38524536Y-82897159D01*
X38515405Y-82885259D01*
X38428282Y-82771717D01*
X38302840Y-82675463D01*
X38156762Y-82614956D01*
X38000000Y-82594317D01*
X37843237Y-82614956D01*
X37697159Y-82675463D01*
X37571717Y-82771717D01*
X37475463Y-82897159D01*
X37414956Y-83043237D01*
X37394317Y-83200000D01*
X37414956Y-83356762D01*
X37475463Y-83502840D01*
X37571717Y-83628282D01*
X37697159Y-83724536D01*
X37785043Y-83760939D01*
X37837909Y-83802614D01*
X37861209Y-83865771D01*
X37848076Y-83931795D01*
X37802381Y-83981227D01*
X37737591Y-83999500D01*
X36262409Y-83999500D01*
X36197619Y-83981227D01*
X36151924Y-83931795D01*
X36138791Y-83865771D01*
X36162091Y-83802614D01*
X36214957Y-83760939D01*
X36243274Y-83749209D01*
X36302841Y-83724536D01*
X36428282Y-83628282D01*
X36524536Y-83502841D01*
X36585044Y-83356762D01*
X36605682Y-83200000D01*
X36585044Y-83043238D01*
X36524536Y-82897159D01*
X36515405Y-82885259D01*
X36428282Y-82771717D01*
X36302840Y-82675463D01*
X36156762Y-82614956D01*
X36000000Y-82594317D01*
X35843237Y-82614956D01*
X35697159Y-82675463D01*
X35571717Y-82771717D01*
X35475463Y-82897159D01*
X35414956Y-83043237D01*
X35394317Y-83200000D01*
X35414956Y-83356762D01*
X35475463Y-83502840D01*
X35571717Y-83628282D01*
X35697159Y-83724536D01*
X35785043Y-83760939D01*
X35837909Y-83802614D01*
X35861209Y-83865771D01*
X35848076Y-83931795D01*
X35802381Y-83981227D01*
X35737591Y-83999500D01*
X34262409Y-83999500D01*
X34197619Y-83981227D01*
X34151924Y-83931795D01*
X34138791Y-83865771D01*
X34162091Y-83802614D01*
X34214957Y-83760939D01*
X34243274Y-83749209D01*
X34302841Y-83724536D01*
X34428282Y-83628282D01*
X34524536Y-83502841D01*
X34585044Y-83356762D01*
X34605682Y-83200000D01*
X34585044Y-83043238D01*
X34524536Y-82897159D01*
X34515405Y-82885259D01*
X34428282Y-82771717D01*
X34308929Y-82680135D01*
X34274515Y-82639187D01*
X34260550Y-82587554D01*
X34269633Y-82534842D01*
X34300072Y-82490861D01*
X34448561Y-82353085D01*
X34616815Y-82142102D01*
X34751743Y-81908398D01*
X34850334Y-81657195D01*
X34910383Y-81394103D01*
X34930549Y-81125000D01*
X34910383Y-80855897D01*
X34850334Y-80592805D01*
X34751743Y-80341602D01*
X34616815Y-80107898D01*
X34448561Y-79896915D01*
X34448560Y-79896914D01*
X34250743Y-79713366D01*
X34193205Y-79674137D01*
X34027775Y-79561349D01*
X33784641Y-79444262D01*
X33678867Y-79411635D01*
X33526771Y-79364719D01*
X33259929Y-79324500D01*
X32990071Y-79324500D01*
X32723228Y-79364719D01*
X32465359Y-79444262D01*
X32222228Y-79561347D01*
X31999257Y-79713366D01*
X31801439Y-79896915D01*
X31633184Y-80107899D01*
X31498257Y-80341601D01*
X31399666Y-80592804D01*
X31339616Y-80855899D01*
X31319450Y-81125000D01*
X31339616Y-81394100D01*
X31339617Y-81394103D01*
X31399666Y-81657195D01*
X31498257Y-81908398D01*
X31633185Y-82142102D01*
X31795395Y-82345506D01*
X31801439Y-82353085D01*
X31867758Y-82414620D01*
X31901020Y-82466209D01*
X31905464Y-82527431D01*
X31880001Y-82583283D01*
X31830869Y-82620079D01*
X31697158Y-82675464D01*
X31571717Y-82771717D01*
X31475463Y-82897159D01*
X31414956Y-83043237D01*
X31394317Y-83200000D01*
X31414956Y-83356762D01*
X31475463Y-83502840D01*
X31571717Y-83628282D01*
X31697159Y-83724536D01*
X31785043Y-83760939D01*
X31837909Y-83802614D01*
X31861209Y-83865771D01*
X31848076Y-83931795D01*
X31802381Y-83981227D01*
X31737591Y-83999500D01*
X30262409Y-83999500D01*
X30197619Y-83981227D01*
X30151924Y-83931795D01*
X30138791Y-83865771D01*
X30162091Y-83802614D01*
X30214957Y-83760939D01*
X30243274Y-83749209D01*
X30302841Y-83724536D01*
X30428282Y-83628282D01*
X30524536Y-83502841D01*
X30585044Y-83356762D01*
X30605682Y-83200000D01*
X30585044Y-83043238D01*
X30524536Y-82897159D01*
X30515405Y-82885259D01*
X30428282Y-82771717D01*
X30302840Y-82675463D01*
X30156762Y-82614956D01*
X30000000Y-82594317D01*
X29843237Y-82614956D01*
X29697159Y-82675463D01*
X29571717Y-82771717D01*
X29475463Y-82897159D01*
X29414956Y-83043237D01*
X29394317Y-83200000D01*
X29414956Y-83356762D01*
X29475463Y-83502840D01*
X29571717Y-83628282D01*
X29697159Y-83724536D01*
X29785043Y-83760939D01*
X29837909Y-83802614D01*
X29861209Y-83865771D01*
X29848076Y-83931795D01*
X29802381Y-83981227D01*
X29737591Y-83999500D01*
X28262409Y-83999500D01*
X28197619Y-83981227D01*
X28151924Y-83931795D01*
X28138791Y-83865771D01*
X28162091Y-83802614D01*
X28214957Y-83760939D01*
X28243274Y-83749209D01*
X28302841Y-83724536D01*
X28428282Y-83628282D01*
X28524536Y-83502841D01*
X28585044Y-83356762D01*
X28605682Y-83200000D01*
X28585044Y-83043238D01*
X28524536Y-82897159D01*
X28515405Y-82885259D01*
X28428282Y-82771717D01*
X28302841Y-82675464D01*
X28169130Y-82620079D01*
X28119998Y-82583283D01*
X28094534Y-82527431D01*
X28098979Y-82466208D01*
X28132240Y-82414621D01*
X28198561Y-82353085D01*
X28366815Y-82142102D01*
X28501743Y-81908398D01*
X28600334Y-81657195D01*
X28660383Y-81394103D01*
X28680549Y-81125000D01*
X28660383Y-80855897D01*
X28600334Y-80592805D01*
X28501743Y-80341602D01*
X28366815Y-80107898D01*
X28198561Y-79896915D01*
X28198560Y-79896914D01*
X28000743Y-79713366D01*
X27943205Y-79674137D01*
X27777775Y-79561349D01*
X27534641Y-79444262D01*
X27428867Y-79411635D01*
X27276771Y-79364719D01*
X27009929Y-79324500D01*
X26740071Y-79324500D01*
X26473228Y-79364719D01*
X26215359Y-79444262D01*
X25972228Y-79561347D01*
X25749257Y-79713366D01*
X25551439Y-79896915D01*
X25383184Y-80107899D01*
X25248257Y-80341601D01*
X25149666Y-80592804D01*
X25089616Y-80855899D01*
X25069450Y-81124999D01*
X25089616Y-81394100D01*
X25089617Y-81394103D01*
X25149666Y-81657195D01*
X25248257Y-81908398D01*
X25383185Y-82142102D01*
X25545395Y-82345506D01*
X25551439Y-82353085D01*
X25699926Y-82490861D01*
X25730366Y-82534842D01*
X25739449Y-82587554D01*
X25725484Y-82639187D01*
X25691071Y-82680135D01*
X25571716Y-82771719D01*
X25475463Y-82897159D01*
X25414956Y-83043237D01*
X25394317Y-83200000D01*
X25414956Y-83356762D01*
X25475463Y-83502840D01*
X25571717Y-83628282D01*
X25697159Y-83724536D01*
X25785043Y-83760939D01*
X25837909Y-83802614D01*
X25861209Y-83865771D01*
X25848076Y-83931795D01*
X25802381Y-83981227D01*
X25737591Y-83999500D01*
X24262409Y-83999500D01*
X24197619Y-83981227D01*
X24151924Y-83931795D01*
X24138791Y-83865771D01*
X24162091Y-83802614D01*
X24214957Y-83760939D01*
X24243274Y-83749209D01*
X24302841Y-83724536D01*
X24428282Y-83628282D01*
X24524536Y-83502841D01*
X24585044Y-83356762D01*
X24605682Y-83200000D01*
X24585044Y-83043238D01*
X24524536Y-82897159D01*
X24515405Y-82885259D01*
X24428282Y-82771717D01*
X24302840Y-82675463D01*
X24156762Y-82614956D01*
X24000000Y-82594317D01*
X23843237Y-82614956D01*
X23697159Y-82675463D01*
X23571717Y-82771717D01*
X23475463Y-82897159D01*
X23414956Y-83043237D01*
X23394317Y-83200000D01*
X23414956Y-83356762D01*
X23475463Y-83502840D01*
X23571717Y-83628282D01*
X23697159Y-83724536D01*
X23785043Y-83760939D01*
X23837909Y-83802614D01*
X23861209Y-83865771D01*
X23848076Y-83931795D01*
X23802381Y-83981227D01*
X23737591Y-83999500D01*
X20002872Y-83999500D01*
X19997145Y-83999368D01*
X19992305Y-83999144D01*
X19827423Y-83991520D01*
X19827067Y-83991503D01*
X19630232Y-83981834D01*
X19619184Y-83980794D01*
X19437218Y-83955410D01*
X19436156Y-83955257D01*
X19252758Y-83928053D01*
X19242562Y-83926101D01*
X19061543Y-83883526D01*
X19059803Y-83883104D01*
X18882157Y-83838606D01*
X18872881Y-83835894D01*
X18695634Y-83776487D01*
X18693265Y-83775666D01*
X18521791Y-83714311D01*
X18513479Y-83710994D01*
X18342018Y-83635286D01*
X18339089Y-83633947D01*
X18174896Y-83556291D01*
X18167573Y-83552525D01*
X18003563Y-83461171D01*
X18000153Y-83459200D01*
X17949277Y-83428706D01*
X17844645Y-83365992D01*
X17838328Y-83361940D01*
X17683299Y-83255742D01*
X17679509Y-83253041D01*
X17611032Y-83202255D01*
X17534000Y-83145124D01*
X17528684Y-83140951D01*
X17383998Y-83020805D01*
X17380045Y-83017375D01*
X17245795Y-82895698D01*
X17241408Y-82891520D01*
X17108478Y-82758590D01*
X17104303Y-82754206D01*
X16982617Y-82619947D01*
X16979200Y-82616009D01*
X16859040Y-82471305D01*
X16854882Y-82466009D01*
X16746935Y-82320459D01*
X16744256Y-82316699D01*
X16638058Y-82161670D01*
X16634017Y-82155371D01*
X16540777Y-81999810D01*
X16538827Y-81996435D01*
X16512261Y-81948740D01*
X16447465Y-81832411D01*
X16443715Y-81825119D01*
X16406892Y-81747263D01*
X16366051Y-81660909D01*
X16364712Y-81657980D01*
X16289004Y-81486519D01*
X16285692Y-81478220D01*
X16224292Y-81306618D01*
X16223550Y-81304478D01*
X16164096Y-81127091D01*
X16161401Y-81117874D01*
X16116852Y-80940023D01*
X16116510Y-80938614D01*
X16073892Y-80757413D01*
X16071949Y-80747261D01*
X16044732Y-80563781D01*
X16044588Y-80562780D01*
X16019201Y-80380787D01*
X16018166Y-80369795D01*
X16008480Y-80172611D01*
X16000632Y-80002854D01*
X16000566Y-80000000D01*
X16494696Y-80000000D01*
X16513897Y-80366406D01*
X16571293Y-80728788D01*
X16666258Y-81083200D01*
X16797744Y-81425735D01*
X16964320Y-81752656D01*
X17164146Y-82060363D01*
X17246183Y-82161670D01*
X17395051Y-82345506D01*
X17654494Y-82604949D01*
X17838811Y-82754206D01*
X17939636Y-82835853D01*
X18224510Y-83020851D01*
X18247348Y-83035682D01*
X18574264Y-83202255D01*
X18916801Y-83333742D01*
X19271206Y-83428705D01*
X19271209Y-83428705D01*
X19271211Y-83428706D01*
X19633593Y-83486102D01*
X19683373Y-83488710D01*
X20000000Y-83505304D01*
X20331645Y-83487923D01*
X20366406Y-83486102D01*
X20728788Y-83428706D01*
X20728788Y-83428705D01*
X20728794Y-83428705D01*
X21083199Y-83333742D01*
X21425736Y-83202255D01*
X21752652Y-83035682D01*
X22060366Y-82835851D01*
X22345506Y-82604949D01*
X22604949Y-82345506D01*
X22835851Y-82060366D01*
X23035682Y-81752652D01*
X23202255Y-81425736D01*
X23333742Y-81083199D01*
X23428705Y-80728794D01*
X23486102Y-80366404D01*
X23505304Y-80000000D01*
X23486102Y-79633596D01*
X23474659Y-79561349D01*
X23428706Y-79271211D01*
X23428705Y-79271206D01*
X23333742Y-78916801D01*
X23202255Y-78574264D01*
X23035682Y-78247348D01*
X23035679Y-78247343D01*
X22875054Y-78000000D01*
X28194450Y-78000000D01*
X28214616Y-78269100D01*
X28214617Y-78269103D01*
X28274666Y-78532195D01*
X28373257Y-78783398D01*
X28508185Y-79017102D01*
X28676439Y-79228085D01*
X28874259Y-79411635D01*
X29097226Y-79563651D01*
X29340359Y-79680738D01*
X29598228Y-79760280D01*
X29865071Y-79800500D01*
X30134929Y-79800500D01*
X30401772Y-79760280D01*
X30659641Y-79680738D01*
X30902775Y-79563651D01*
X31125741Y-79411635D01*
X31323561Y-79228085D01*
X31491815Y-79017102D01*
X31626743Y-78783398D01*
X31725334Y-78532195D01*
X31785383Y-78269103D01*
X31805549Y-78000000D01*
X48194450Y-78000000D01*
X48214616Y-78269100D01*
X48214617Y-78269103D01*
X48274666Y-78532195D01*
X48373257Y-78783398D01*
X48508185Y-79017102D01*
X48676439Y-79228085D01*
X48874259Y-79411635D01*
X49097226Y-79563651D01*
X49340359Y-79680738D01*
X49598228Y-79760280D01*
X49865071Y-79800500D01*
X50134929Y-79800500D01*
X50401772Y-79760280D01*
X50659641Y-79680738D01*
X50902775Y-79563651D01*
X51125741Y-79411635D01*
X51323561Y-79228085D01*
X51491815Y-79017102D01*
X51626743Y-78783398D01*
X51725334Y-78532195D01*
X51785383Y-78269103D01*
X51805549Y-78000000D01*
X68194450Y-78000000D01*
X68214616Y-78269100D01*
X68214617Y-78269103D01*
X68274666Y-78532195D01*
X68373257Y-78783398D01*
X68508185Y-79017102D01*
X68676439Y-79228085D01*
X68874259Y-79411635D01*
X69097226Y-79563651D01*
X69340359Y-79680738D01*
X69598228Y-79760280D01*
X69865071Y-79800500D01*
X70134929Y-79800500D01*
X70401772Y-79760280D01*
X70659641Y-79680738D01*
X70902775Y-79563651D01*
X71125741Y-79411635D01*
X71323561Y-79228085D01*
X71491815Y-79017102D01*
X71626743Y-78783398D01*
X71725334Y-78532195D01*
X71785383Y-78269103D01*
X71805549Y-78000000D01*
X88194450Y-78000000D01*
X88214616Y-78269100D01*
X88214617Y-78269103D01*
X88274666Y-78532195D01*
X88373257Y-78783398D01*
X88508185Y-79017102D01*
X88676439Y-79228085D01*
X88874259Y-79411635D01*
X89097226Y-79563651D01*
X89340359Y-79680738D01*
X89598228Y-79760280D01*
X89865071Y-79800500D01*
X90134929Y-79800500D01*
X90401772Y-79760280D01*
X90659641Y-79680738D01*
X90902775Y-79563651D01*
X91125741Y-79411635D01*
X91323561Y-79228085D01*
X91491815Y-79017102D01*
X91626743Y-78783398D01*
X91725334Y-78532195D01*
X91785383Y-78269103D01*
X91805549Y-78000000D01*
X91785383Y-77730897D01*
X91725334Y-77467805D01*
X91626743Y-77216602D01*
X91491815Y-76982898D01*
X91323561Y-76771915D01*
X91323560Y-76771914D01*
X91125743Y-76588366D01*
X91016518Y-76513898D01*
X90902775Y-76436349D01*
X90659641Y-76319262D01*
X90553867Y-76286635D01*
X90401771Y-76239719D01*
X90134929Y-76199500D01*
X89865071Y-76199500D01*
X89598228Y-76239719D01*
X89340359Y-76319262D01*
X89097228Y-76436347D01*
X88874257Y-76588366D01*
X88676439Y-76771915D01*
X88508184Y-76982899D01*
X88373257Y-77216601D01*
X88274666Y-77467804D01*
X88214616Y-77730899D01*
X88194450Y-78000000D01*
X71805549Y-78000000D01*
X71785383Y-77730897D01*
X71725334Y-77467805D01*
X71626743Y-77216602D01*
X71491815Y-76982898D01*
X71323561Y-76771915D01*
X71323560Y-76771914D01*
X71125743Y-76588366D01*
X71016518Y-76513898D01*
X70902775Y-76436349D01*
X70659641Y-76319262D01*
X70553867Y-76286635D01*
X70401771Y-76239719D01*
X70134929Y-76199500D01*
X69865071Y-76199500D01*
X69598228Y-76239719D01*
X69340359Y-76319262D01*
X69097228Y-76436347D01*
X68874257Y-76588366D01*
X68676439Y-76771915D01*
X68508184Y-76982899D01*
X68373257Y-77216601D01*
X68274666Y-77467804D01*
X68214616Y-77730899D01*
X68194450Y-78000000D01*
X51805549Y-78000000D01*
X51785383Y-77730897D01*
X51725334Y-77467805D01*
X51626743Y-77216602D01*
X51491815Y-76982898D01*
X51323561Y-76771915D01*
X51323560Y-76771914D01*
X51125743Y-76588366D01*
X51016518Y-76513898D01*
X50902775Y-76436349D01*
X50659641Y-76319262D01*
X50553867Y-76286635D01*
X50401771Y-76239719D01*
X50134929Y-76199500D01*
X49865071Y-76199500D01*
X49598228Y-76239719D01*
X49340359Y-76319262D01*
X49097228Y-76436347D01*
X48874257Y-76588366D01*
X48676439Y-76771915D01*
X48508184Y-76982899D01*
X48373257Y-77216601D01*
X48274666Y-77467804D01*
X48214616Y-77730899D01*
X48194450Y-78000000D01*
X31805549Y-78000000D01*
X31785383Y-77730897D01*
X31725334Y-77467805D01*
X31626743Y-77216602D01*
X31491815Y-76982898D01*
X31323561Y-76771915D01*
X31323560Y-76771914D01*
X31125743Y-76588366D01*
X31016518Y-76513898D01*
X30902775Y-76436349D01*
X30659641Y-76319262D01*
X30553867Y-76286635D01*
X30401771Y-76239719D01*
X30134929Y-76199500D01*
X29865071Y-76199500D01*
X29598228Y-76239719D01*
X29340359Y-76319262D01*
X29097228Y-76436347D01*
X28874257Y-76588366D01*
X28676439Y-76771915D01*
X28508184Y-76982899D01*
X28373257Y-77216601D01*
X28274666Y-77467804D01*
X28214616Y-77730899D01*
X28194450Y-78000000D01*
X22875054Y-78000000D01*
X22835853Y-77939636D01*
X22758883Y-77844587D01*
X22604949Y-77654494D01*
X22345506Y-77395051D01*
X22125139Y-77216601D01*
X22060363Y-77164146D01*
X21752656Y-76964320D01*
X21425735Y-76797744D01*
X21083200Y-76666258D01*
X20728788Y-76571293D01*
X20366406Y-76513897D01*
X20000000Y-76494696D01*
X19633593Y-76513897D01*
X19271211Y-76571293D01*
X18916799Y-76666258D01*
X18574264Y-76797744D01*
X18247343Y-76964320D01*
X17939636Y-77164146D01*
X17654490Y-77395054D01*
X17395054Y-77654490D01*
X17164146Y-77939636D01*
X16964320Y-78247343D01*
X16797744Y-78574264D01*
X16666258Y-78916799D01*
X16571293Y-79271211D01*
X16513897Y-79633593D01*
X16494696Y-80000000D01*
X16000566Y-80000000D01*
X16000500Y-79997128D01*
X16000500Y-76262409D01*
X16018773Y-76197619D01*
X16068205Y-76151924D01*
X16134229Y-76138791D01*
X16197386Y-76162091D01*
X16239061Y-76214957D01*
X16275463Y-76302840D01*
X16371717Y-76428282D01*
X16483294Y-76513897D01*
X16497159Y-76524536D01*
X16643238Y-76585044D01*
X16800000Y-76605682D01*
X16956762Y-76585044D01*
X17102841Y-76524536D01*
X17228282Y-76428282D01*
X17324536Y-76302841D01*
X17385044Y-76156762D01*
X17405682Y-76000000D01*
X17385044Y-75843238D01*
X17324536Y-75697159D01*
X17294794Y-75658398D01*
X17228282Y-75571717D01*
X17102840Y-75475463D01*
X16956762Y-75414956D01*
X16800000Y-75394317D01*
X16643237Y-75414956D01*
X16497159Y-75475463D01*
X16371717Y-75571717D01*
X16275463Y-75697159D01*
X16239061Y-75785043D01*
X16197386Y-75837909D01*
X16134229Y-75861209D01*
X16068205Y-75848076D01*
X16018773Y-75802381D01*
X16000500Y-75737591D01*
X16000500Y-74875000D01*
X25069450Y-74875000D01*
X25089616Y-75144100D01*
X25089617Y-75144103D01*
X25149666Y-75407195D01*
X25248257Y-75658398D01*
X25383185Y-75892102D01*
X25551439Y-76103085D01*
X25749259Y-76286635D01*
X25972226Y-76438651D01*
X26215359Y-76555738D01*
X26473228Y-76635280D01*
X26740071Y-76675500D01*
X27009929Y-76675500D01*
X27276772Y-76635280D01*
X27534641Y-76555738D01*
X27777775Y-76438651D01*
X28000741Y-76286635D01*
X28198561Y-76103085D01*
X28366815Y-75892102D01*
X28501743Y-75658398D01*
X28600334Y-75407195D01*
X28660383Y-75144103D01*
X28680549Y-74875000D01*
X31319450Y-74875000D01*
X31339616Y-75144100D01*
X31339617Y-75144103D01*
X31399666Y-75407195D01*
X31498257Y-75658398D01*
X31633185Y-75892102D01*
X31801439Y-76103085D01*
X31999259Y-76286635D01*
X32222226Y-76438651D01*
X32465359Y-76555738D01*
X32723228Y-76635280D01*
X32990071Y-76675500D01*
X33259929Y-76675500D01*
X33526772Y-76635280D01*
X33784641Y-76555738D01*
X34027775Y-76438651D01*
X34250741Y-76286635D01*
X34448561Y-76103085D01*
X34616815Y-75892102D01*
X34751743Y-75658398D01*
X34850334Y-75407195D01*
X34910383Y-75144103D01*
X34930549Y-74875000D01*
X45069450Y-74875000D01*
X45089616Y-75144100D01*
X45089617Y-75144103D01*
X45149666Y-75407195D01*
X45248257Y-75658398D01*
X45383185Y-75892102D01*
X45551439Y-76103085D01*
X45749259Y-76286635D01*
X45972226Y-76438651D01*
X46215359Y-76555738D01*
X46473228Y-76635280D01*
X46740071Y-76675500D01*
X47009929Y-76675500D01*
X47276772Y-76635280D01*
X47534641Y-76555738D01*
X47777775Y-76438651D01*
X48000741Y-76286635D01*
X48198561Y-76103085D01*
X48366815Y-75892102D01*
X48501743Y-75658398D01*
X48600334Y-75407195D01*
X48660383Y-75144103D01*
X48680549Y-74875000D01*
X51319450Y-74875000D01*
X51339616Y-75144100D01*
X51339617Y-75144103D01*
X51399666Y-75407195D01*
X51498257Y-75658398D01*
X51633185Y-75892102D01*
X51801439Y-76103085D01*
X51999259Y-76286635D01*
X52222226Y-76438651D01*
X52465359Y-76555738D01*
X52723228Y-76635280D01*
X52990071Y-76675500D01*
X53259929Y-76675500D01*
X53526772Y-76635280D01*
X53784641Y-76555738D01*
X54027775Y-76438651D01*
X54250741Y-76286635D01*
X54448561Y-76103085D01*
X54616815Y-75892102D01*
X54751743Y-75658398D01*
X54850334Y-75407195D01*
X54910383Y-75144103D01*
X54930549Y-74875000D01*
X65069450Y-74875000D01*
X65089616Y-75144100D01*
X65089617Y-75144103D01*
X65149666Y-75407195D01*
X65248257Y-75658398D01*
X65383185Y-75892102D01*
X65551439Y-76103085D01*
X65749259Y-76286635D01*
X65972226Y-76438651D01*
X66215359Y-76555738D01*
X66473228Y-76635280D01*
X66740071Y-76675500D01*
X67009929Y-76675500D01*
X67276772Y-76635280D01*
X67534641Y-76555738D01*
X67777775Y-76438651D01*
X68000741Y-76286635D01*
X68198561Y-76103085D01*
X68366815Y-75892102D01*
X68501743Y-75658398D01*
X68600334Y-75407195D01*
X68660383Y-75144103D01*
X68680549Y-74875000D01*
X71319450Y-74875000D01*
X71339616Y-75144100D01*
X71339617Y-75144103D01*
X71399666Y-75407195D01*
X71498257Y-75658398D01*
X71633185Y-75892102D01*
X71801439Y-76103085D01*
X71999259Y-76286635D01*
X72222226Y-76438651D01*
X72465359Y-76555738D01*
X72723228Y-76635280D01*
X72990071Y-76675500D01*
X73259929Y-76675500D01*
X73526772Y-76635280D01*
X73784641Y-76555738D01*
X74027775Y-76438651D01*
X74250741Y-76286635D01*
X74448561Y-76103085D01*
X74616815Y-75892102D01*
X74751743Y-75658398D01*
X74850334Y-75407195D01*
X74910383Y-75144103D01*
X74930549Y-74875000D01*
X85069450Y-74875000D01*
X85089616Y-75144100D01*
X85089617Y-75144103D01*
X85149666Y-75407195D01*
X85248257Y-75658398D01*
X85383185Y-75892102D01*
X85551439Y-76103085D01*
X85749259Y-76286635D01*
X85972226Y-76438651D01*
X86215359Y-76555738D01*
X86473228Y-76635280D01*
X86740071Y-76675500D01*
X87009929Y-76675500D01*
X87276772Y-76635280D01*
X87534641Y-76555738D01*
X87777775Y-76438651D01*
X88000741Y-76286635D01*
X88198561Y-76103085D01*
X88366815Y-75892102D01*
X88501743Y-75658398D01*
X88600334Y-75407195D01*
X88660383Y-75144103D01*
X88680549Y-74875000D01*
X91319450Y-74875000D01*
X91339616Y-75144100D01*
X91339617Y-75144103D01*
X91399666Y-75407195D01*
X91498257Y-75658398D01*
X91633185Y-75892102D01*
X91801439Y-76103085D01*
X91999259Y-76286635D01*
X92222226Y-76438651D01*
X92465359Y-76555738D01*
X92723228Y-76635280D01*
X92990071Y-76675500D01*
X93259929Y-76675500D01*
X93526772Y-76635280D01*
X93784641Y-76555738D01*
X94027775Y-76438651D01*
X94250741Y-76286635D01*
X94448561Y-76103085D01*
X94616815Y-75892102D01*
X94751743Y-75658398D01*
X94850334Y-75407195D01*
X94910383Y-75144103D01*
X94930549Y-74875000D01*
X94910383Y-74605897D01*
X94850334Y-74342805D01*
X94751743Y-74091602D01*
X94616815Y-73857898D01*
X94448561Y-73646915D01*
X94263780Y-73475463D01*
X94250743Y-73463366D01*
X94179738Y-73414956D01*
X94027775Y-73311349D01*
X93784641Y-73194262D01*
X93705097Y-73169726D01*
X93526771Y-73114719D01*
X93259929Y-73074500D01*
X92990071Y-73074500D01*
X92723228Y-73114719D01*
X92465359Y-73194262D01*
X92222228Y-73311347D01*
X91999257Y-73463366D01*
X91801439Y-73646915D01*
X91633184Y-73857899D01*
X91498257Y-74091601D01*
X91399666Y-74342804D01*
X91339616Y-74605899D01*
X91319450Y-74875000D01*
X88680549Y-74875000D01*
X88660383Y-74605897D01*
X88600334Y-74342805D01*
X88501743Y-74091602D01*
X88366815Y-73857898D01*
X88198561Y-73646915D01*
X88013780Y-73475463D01*
X88000743Y-73463366D01*
X87929738Y-73414956D01*
X87777775Y-73311349D01*
X87534641Y-73194262D01*
X87455097Y-73169726D01*
X87276771Y-73114719D01*
X87009929Y-73074500D01*
X86740071Y-73074500D01*
X86473228Y-73114719D01*
X86215359Y-73194262D01*
X85972228Y-73311347D01*
X85749257Y-73463366D01*
X85551439Y-73646915D01*
X85383184Y-73857899D01*
X85248257Y-74091601D01*
X85149666Y-74342804D01*
X85089616Y-74605899D01*
X85069450Y-74875000D01*
X74930549Y-74875000D01*
X74910383Y-74605897D01*
X74850334Y-74342805D01*
X74751743Y-74091602D01*
X74616815Y-73857898D01*
X74448561Y-73646915D01*
X74263780Y-73475463D01*
X74250743Y-73463366D01*
X74179738Y-73414956D01*
X74027775Y-73311349D01*
X73784641Y-73194262D01*
X73705097Y-73169726D01*
X73526771Y-73114719D01*
X73259929Y-73074500D01*
X72990071Y-73074500D01*
X72723228Y-73114719D01*
X72465359Y-73194262D01*
X72222228Y-73311347D01*
X71999257Y-73463366D01*
X71801439Y-73646915D01*
X71633184Y-73857899D01*
X71498257Y-74091601D01*
X71399666Y-74342804D01*
X71339616Y-74605899D01*
X71319450Y-74875000D01*
X68680549Y-74875000D01*
X68660383Y-74605897D01*
X68600334Y-74342805D01*
X68501743Y-74091602D01*
X68366815Y-73857898D01*
X68198561Y-73646915D01*
X68013780Y-73475463D01*
X68000743Y-73463366D01*
X67929738Y-73414956D01*
X67777775Y-73311349D01*
X67534641Y-73194262D01*
X67455097Y-73169726D01*
X67276771Y-73114719D01*
X67009929Y-73074500D01*
X66740071Y-73074500D01*
X66473228Y-73114719D01*
X66215359Y-73194262D01*
X65972228Y-73311347D01*
X65749257Y-73463366D01*
X65551439Y-73646915D01*
X65383184Y-73857899D01*
X65248257Y-74091601D01*
X65149666Y-74342804D01*
X65089616Y-74605899D01*
X65069450Y-74875000D01*
X54930549Y-74875000D01*
X54910383Y-74605897D01*
X54850334Y-74342805D01*
X54751743Y-74091602D01*
X54616815Y-73857898D01*
X54448561Y-73646915D01*
X54263780Y-73475463D01*
X54250743Y-73463366D01*
X54179738Y-73414956D01*
X54027775Y-73311349D01*
X53784641Y-73194262D01*
X53705097Y-73169726D01*
X53526771Y-73114719D01*
X53259929Y-73074500D01*
X52990071Y-73074500D01*
X52723228Y-73114719D01*
X52465359Y-73194262D01*
X52222228Y-73311347D01*
X51999257Y-73463366D01*
X51801439Y-73646915D01*
X51633184Y-73857899D01*
X51498257Y-74091601D01*
X51399666Y-74342804D01*
X51339616Y-74605899D01*
X51319450Y-74875000D01*
X48680549Y-74875000D01*
X48660383Y-74605897D01*
X48600334Y-74342805D01*
X48501743Y-74091602D01*
X48366815Y-73857898D01*
X48198561Y-73646915D01*
X48013780Y-73475463D01*
X48000743Y-73463366D01*
X47929738Y-73414956D01*
X47777775Y-73311349D01*
X47534641Y-73194262D01*
X47455097Y-73169726D01*
X47276771Y-73114719D01*
X47009929Y-73074500D01*
X46740071Y-73074500D01*
X46473228Y-73114719D01*
X46215359Y-73194262D01*
X45972228Y-73311347D01*
X45749257Y-73463366D01*
X45551439Y-73646915D01*
X45383184Y-73857899D01*
X45248257Y-74091601D01*
X45149666Y-74342804D01*
X45089616Y-74605899D01*
X45069450Y-74875000D01*
X34930549Y-74875000D01*
X34910383Y-74605897D01*
X34850334Y-74342805D01*
X34751743Y-74091602D01*
X34616815Y-73857898D01*
X34448561Y-73646915D01*
X34263780Y-73475463D01*
X34250743Y-73463366D01*
X34179738Y-73414956D01*
X34027775Y-73311349D01*
X33784641Y-73194262D01*
X33705097Y-73169726D01*
X33526771Y-73114719D01*
X33259929Y-73074500D01*
X32990071Y-73074500D01*
X32723228Y-73114719D01*
X32465359Y-73194262D01*
X32222228Y-73311347D01*
X31999257Y-73463366D01*
X31801439Y-73646915D01*
X31633184Y-73857899D01*
X31498257Y-74091601D01*
X31399666Y-74342804D01*
X31339616Y-74605899D01*
X31319450Y-74875000D01*
X28680549Y-74875000D01*
X28660383Y-74605897D01*
X28600334Y-74342805D01*
X28501743Y-74091602D01*
X28366815Y-73857898D01*
X28198561Y-73646915D01*
X28013780Y-73475463D01*
X28000743Y-73463366D01*
X27929738Y-73414956D01*
X27777775Y-73311349D01*
X27534641Y-73194262D01*
X27455097Y-73169726D01*
X27276771Y-73114719D01*
X27009929Y-73074500D01*
X26740071Y-73074500D01*
X26473228Y-73114719D01*
X26215359Y-73194262D01*
X25972228Y-73311347D01*
X25749257Y-73463366D01*
X25551439Y-73646915D01*
X25383184Y-73857899D01*
X25248257Y-74091601D01*
X25149666Y-74342804D01*
X25089616Y-74605899D01*
X25069450Y-74875000D01*
X16000500Y-74875000D01*
X16000500Y-74262409D01*
X16018773Y-74197619D01*
X16068205Y-74151924D01*
X16134229Y-74138791D01*
X16197386Y-74162091D01*
X16239061Y-74214957D01*
X16275463Y-74302840D01*
X16371717Y-74428282D01*
X16497159Y-74524536D01*
X16643238Y-74585044D01*
X16800000Y-74605682D01*
X16956762Y-74585044D01*
X17102841Y-74524536D01*
X17228282Y-74428282D01*
X17324536Y-74302841D01*
X17385044Y-74156762D01*
X17405682Y-74000000D01*
X17385044Y-73843238D01*
X17324536Y-73697159D01*
X17285982Y-73646914D01*
X17228282Y-73571717D01*
X17102840Y-73475463D01*
X16956762Y-73414956D01*
X16800000Y-73394317D01*
X16643237Y-73414956D01*
X16497159Y-73475463D01*
X16371717Y-73571717D01*
X16275463Y-73697159D01*
X16239061Y-73785043D01*
X16197386Y-73837909D01*
X16134229Y-73861209D01*
X16068205Y-73848076D01*
X16018773Y-73802381D01*
X16000500Y-73737591D01*
X16000500Y-72262409D01*
X16018773Y-72197619D01*
X16068205Y-72151924D01*
X16134229Y-72138791D01*
X16197386Y-72162091D01*
X16239061Y-72214957D01*
X16275463Y-72302840D01*
X16371717Y-72428282D01*
X16497158Y-72524535D01*
X16497159Y-72524536D01*
X16643238Y-72585044D01*
X16800000Y-72605682D01*
X16956762Y-72585044D01*
X17102841Y-72524536D01*
X17228282Y-72428282D01*
X17324536Y-72302841D01*
X17385044Y-72156762D01*
X17405682Y-72000000D01*
X17385044Y-71843238D01*
X17324536Y-71697159D01*
X17228282Y-71571717D01*
X17102840Y-71475463D01*
X16956762Y-71414956D01*
X16800000Y-71394317D01*
X16643237Y-71414956D01*
X16497159Y-71475463D01*
X16371717Y-71571717D01*
X16275463Y-71697159D01*
X16239061Y-71785043D01*
X16197386Y-71837909D01*
X16134229Y-71861209D01*
X16068205Y-71848076D01*
X16018773Y-71802381D01*
X16000500Y-71737591D01*
X16000500Y-70262409D01*
X16018773Y-70197619D01*
X16068205Y-70151924D01*
X16134229Y-70138791D01*
X16197386Y-70162091D01*
X16239061Y-70214957D01*
X16275463Y-70302840D01*
X16371717Y-70428282D01*
X16465183Y-70500000D01*
X16497159Y-70524536D01*
X16643238Y-70585044D01*
X16800000Y-70605682D01*
X16956762Y-70585044D01*
X17102841Y-70524536D01*
X17228282Y-70428282D01*
X17324536Y-70302841D01*
X17385044Y-70156762D01*
X17405682Y-70000000D01*
X17385044Y-69843238D01*
X17324536Y-69697159D01*
X17303330Y-69669523D01*
X17228282Y-69571717D01*
X17102840Y-69475463D01*
X16956762Y-69414956D01*
X16799999Y-69394317D01*
X16643237Y-69414956D01*
X16497159Y-69475463D01*
X16371717Y-69571717D01*
X16275463Y-69697159D01*
X16239061Y-69785043D01*
X16197386Y-69837909D01*
X16134229Y-69861209D01*
X16068205Y-69848076D01*
X16018773Y-69802381D01*
X16000500Y-69737591D01*
X16000500Y-68262409D01*
X16018773Y-68197619D01*
X16068205Y-68151924D01*
X16134229Y-68138791D01*
X16197386Y-68162091D01*
X16239061Y-68214957D01*
X16275463Y-68302840D01*
X16371717Y-68428282D01*
X16428325Y-68471718D01*
X16497159Y-68524536D01*
X16643238Y-68585044D01*
X16779360Y-68602964D01*
X16799999Y-68605682D01*
X16799999Y-68605681D01*
X16800000Y-68605682D01*
X16956762Y-68585044D01*
X17102841Y-68524536D01*
X17228282Y-68428282D01*
X17324536Y-68302841D01*
X17385044Y-68156762D01*
X17405682Y-68000000D01*
X17385044Y-67843238D01*
X17324536Y-67697159D01*
X17298397Y-67663094D01*
X17228282Y-67571717D01*
X17102840Y-67475463D01*
X16956762Y-67414956D01*
X16800000Y-67394317D01*
X16643237Y-67414956D01*
X16497159Y-67475463D01*
X16371717Y-67571717D01*
X16275463Y-67697159D01*
X16239061Y-67785043D01*
X16197386Y-67837909D01*
X16134229Y-67861209D01*
X16068205Y-67848076D01*
X16018773Y-67802381D01*
X16000500Y-67737591D01*
X16000500Y-66262409D01*
X16018773Y-66197619D01*
X16068205Y-66151924D01*
X16134229Y-66138791D01*
X16197386Y-66162091D01*
X16239061Y-66214957D01*
X16275463Y-66302840D01*
X16371717Y-66428282D01*
X16465183Y-66500000D01*
X16497159Y-66524536D01*
X16643238Y-66585044D01*
X16800000Y-66605682D01*
X16956762Y-66585044D01*
X17102841Y-66524536D01*
X17228282Y-66428282D01*
X17324536Y-66302841D01*
X17385044Y-66156762D01*
X17405682Y-66000000D01*
X17398920Y-65948638D01*
X40694500Y-65948638D01*
X40700370Y-66008242D01*
X40709806Y-66055681D01*
X40709808Y-66055690D01*
X40709809Y-66055691D01*
X40727194Y-66113002D01*
X40755427Y-66165820D01*
X40782307Y-66206048D01*
X40792930Y-66218992D01*
X40820300Y-66252343D01*
X45747656Y-71179699D01*
X45747660Y-71179702D01*
X45793952Y-71217693D01*
X45834180Y-71244573D01*
X45886998Y-71272806D01*
X45944309Y-71290191D01*
X45944315Y-71290192D01*
X45944318Y-71290193D01*
X45990558Y-71299390D01*
X45991762Y-71299630D01*
X46051362Y-71305500D01*
X49176000Y-71305500D01*
X49176001Y-71305500D01*
X49191813Y-71303418D01*
X49255070Y-71295090D01*
X49317070Y-71278477D01*
X49390750Y-71247958D01*
X49424514Y-71222049D01*
X49473159Y-71199366D01*
X49526836Y-71199365D01*
X49575485Y-71222050D01*
X49609249Y-71247958D01*
X49682924Y-71278475D01*
X49682927Y-71278475D01*
X49682930Y-71278477D01*
X49744930Y-71295090D01*
X49804232Y-71302897D01*
X49823999Y-71305500D01*
X49824000Y-71305500D01*
X74448638Y-71305500D01*
X74508238Y-71299630D01*
X74555691Y-71290191D01*
X74613002Y-71272806D01*
X74665820Y-71244573D01*
X74706048Y-71217693D01*
X74752340Y-71179702D01*
X75432043Y-70499999D01*
X87494317Y-70499999D01*
X87514956Y-70656762D01*
X87575463Y-70802840D01*
X87671717Y-70928282D01*
X87797159Y-71024536D01*
X87943238Y-71085044D01*
X88100000Y-71105682D01*
X88256762Y-71085044D01*
X88402841Y-71024536D01*
X88528282Y-70928282D01*
X88624536Y-70802841D01*
X88685044Y-70656762D01*
X88692517Y-70600000D01*
X92394317Y-70600000D01*
X92414956Y-70756762D01*
X92475463Y-70902840D01*
X92571717Y-71028282D01*
X92672588Y-71105682D01*
X92697159Y-71124536D01*
X92843238Y-71185044D01*
X93000000Y-71205682D01*
X93156762Y-71185044D01*
X93302841Y-71124536D01*
X93428282Y-71028282D01*
X93524536Y-70902841D01*
X93585044Y-70756762D01*
X93605682Y-70600000D01*
X93585044Y-70443238D01*
X93524536Y-70297159D01*
X93524535Y-70297158D01*
X93428282Y-70171717D01*
X93302840Y-70075463D01*
X93156762Y-70014956D01*
X93000000Y-69994317D01*
X92843237Y-70014956D01*
X92697159Y-70075463D01*
X92571717Y-70171717D01*
X92475463Y-70297159D01*
X92414956Y-70443237D01*
X92394317Y-70600000D01*
X88692517Y-70600000D01*
X88705682Y-70500000D01*
X88685044Y-70343238D01*
X88624536Y-70197159D01*
X88528282Y-70071717D01*
X88402840Y-69975463D01*
X88256762Y-69914956D01*
X88100000Y-69894317D01*
X87943237Y-69914956D01*
X87797159Y-69975463D01*
X87671717Y-70071717D01*
X87575463Y-70197159D01*
X87514956Y-70343237D01*
X87494317Y-70499999D01*
X75432043Y-70499999D01*
X75679702Y-70252340D01*
X75717693Y-70206048D01*
X75744573Y-70165820D01*
X75772806Y-70113002D01*
X75790191Y-70055691D01*
X75799630Y-70008238D01*
X75805500Y-69948638D01*
X75805500Y-68500000D01*
X87494317Y-68500000D01*
X87514956Y-68656762D01*
X87575463Y-68802840D01*
X87671717Y-68928282D01*
X87797158Y-69024535D01*
X87797159Y-69024536D01*
X87943238Y-69085044D01*
X88079361Y-69102964D01*
X88099999Y-69105682D01*
X88099999Y-69105681D01*
X88100000Y-69105682D01*
X88256762Y-69085044D01*
X88402841Y-69024536D01*
X88528282Y-68928282D01*
X88549983Y-68900000D01*
X94594317Y-68900000D01*
X94614956Y-69056762D01*
X94675463Y-69202840D01*
X94771717Y-69328282D01*
X94884674Y-69414956D01*
X94897159Y-69424536D01*
X95043238Y-69485044D01*
X95179361Y-69502964D01*
X95199999Y-69505682D01*
X95199999Y-69505681D01*
X95200000Y-69505682D01*
X95356762Y-69485044D01*
X95386597Y-69472685D01*
X95452529Y-69464631D01*
X95513160Y-69491761D01*
X95551090Y-69546291D01*
X95594209Y-69669519D01*
X95690185Y-69822264D01*
X95817735Y-69949814D01*
X95817737Y-69949815D01*
X95817738Y-69949816D01*
X95970478Y-70045789D01*
X96140745Y-70105368D01*
X96207895Y-70112934D01*
X96275043Y-70120500D01*
X96275046Y-70120500D01*
X97464954Y-70120500D01*
X97464957Y-70120500D01*
X97531501Y-70113002D01*
X97599255Y-70105368D01*
X97769522Y-70045789D01*
X97922262Y-69949816D01*
X98049816Y-69822262D01*
X98145789Y-69669522D01*
X98205368Y-69499255D01*
X98225565Y-69320000D01*
X99944434Y-69320000D01*
X99964631Y-69499251D01*
X99964631Y-69499253D01*
X99964632Y-69499255D01*
X100024211Y-69669522D01*
X100066982Y-69737591D01*
X100120185Y-69822264D01*
X100247735Y-69949814D01*
X100247737Y-69949815D01*
X100247738Y-69949816D01*
X100400478Y-70045789D01*
X100570745Y-70105368D01*
X100637895Y-70112934D01*
X100705043Y-70120500D01*
X100705046Y-70120500D01*
X101394954Y-70120500D01*
X101394957Y-70120500D01*
X101461501Y-70113002D01*
X101529255Y-70105368D01*
X101699522Y-70045789D01*
X101852262Y-69949816D01*
X101979816Y-69822262D01*
X102075789Y-69669522D01*
X102135368Y-69499255D01*
X102155565Y-69320000D01*
X102135368Y-69140745D01*
X102075789Y-68970478D01*
X101979816Y-68817738D01*
X101979815Y-68817737D01*
X101979814Y-68817735D01*
X101852264Y-68690185D01*
X101717778Y-68605682D01*
X101699522Y-68594211D01*
X101529255Y-68534632D01*
X101529253Y-68534631D01*
X101529251Y-68534631D01*
X101394957Y-68519500D01*
X101394954Y-68519500D01*
X100705046Y-68519500D01*
X100705043Y-68519500D01*
X100570748Y-68534631D01*
X100570745Y-68534631D01*
X100570745Y-68534632D01*
X100400478Y-68594211D01*
X100400476Y-68594211D01*
X100400476Y-68594212D01*
X100247735Y-68690185D01*
X100120185Y-68817735D01*
X100024212Y-68970476D01*
X100024211Y-68970478D01*
X99994019Y-69056762D01*
X99964631Y-69140748D01*
X99944434Y-69320000D01*
X98225565Y-69320000D01*
X98205368Y-69140745D01*
X98145789Y-68970478D01*
X98049816Y-68817738D01*
X98049815Y-68817737D01*
X98049814Y-68817735D01*
X97922264Y-68690185D01*
X97787778Y-68605682D01*
X97769522Y-68594211D01*
X97751224Y-68587808D01*
X97697068Y-68550326D01*
X97669745Y-68490395D01*
X97676967Y-68424927D01*
X97716696Y-68372392D01*
X97810451Y-68300451D01*
X97902698Y-68180233D01*
X97960687Y-68040236D01*
X97980466Y-67890000D01*
X97960687Y-67739764D01*
X97902698Y-67599767D01*
X97810451Y-67479549D01*
X97690233Y-67387302D01*
X97690231Y-67387301D01*
X97550235Y-67329312D01*
X97437721Y-67314500D01*
X97437720Y-67314500D01*
X97362280Y-67314500D01*
X97362279Y-67314500D01*
X97249764Y-67329312D01*
X97109768Y-67387301D01*
X96989549Y-67479549D01*
X96897301Y-67599768D01*
X96839312Y-67739764D01*
X96819533Y-67890000D01*
X96839312Y-68040235D01*
X96852353Y-68071718D01*
X96897302Y-68180233D01*
X96984843Y-68294318D01*
X96999487Y-68313402D01*
X96998588Y-68314091D01*
X97023006Y-68345063D01*
X97033345Y-68405227D01*
X97013723Y-68463034D01*
X96968895Y-68504473D01*
X96909727Y-68519500D01*
X96275043Y-68519500D01*
X96140748Y-68534631D01*
X96140745Y-68534631D01*
X96140745Y-68534632D01*
X95970478Y-68594211D01*
X95970476Y-68594211D01*
X95970476Y-68594212D01*
X95898624Y-68639360D01*
X95841147Y-68658075D01*
X95781652Y-68647393D01*
X95734276Y-68609852D01*
X95628282Y-68471717D01*
X95502840Y-68375463D01*
X95356762Y-68314956D01*
X95200000Y-68294317D01*
X95043237Y-68314956D01*
X94897159Y-68375463D01*
X94771717Y-68471717D01*
X94675463Y-68597159D01*
X94614956Y-68743237D01*
X94594317Y-68900000D01*
X88549983Y-68900000D01*
X88624536Y-68802841D01*
X88685044Y-68656762D01*
X88705682Y-68500000D01*
X88685044Y-68343238D01*
X88624536Y-68197159D01*
X88611547Y-68180231D01*
X88528282Y-68071717D01*
X88402840Y-67975463D01*
X88256762Y-67914956D01*
X88099999Y-67894317D01*
X87943237Y-67914956D01*
X87797159Y-67975463D01*
X87671717Y-68071717D01*
X87575463Y-68197159D01*
X87514956Y-68343237D01*
X87494317Y-68500000D01*
X75805500Y-68500000D01*
X75805500Y-67400000D01*
X76394317Y-67400000D01*
X76414956Y-67556762D01*
X76475463Y-67702840D01*
X76571717Y-67828282D01*
X76657778Y-67894318D01*
X76697159Y-67924536D01*
X76843238Y-67985044D01*
X77000000Y-68005682D01*
X77156762Y-67985044D01*
X77302841Y-67924536D01*
X77428282Y-67828282D01*
X77524536Y-67702841D01*
X77585044Y-67556762D01*
X77599099Y-67450000D01*
X93994317Y-67450000D01*
X94014956Y-67606762D01*
X94075463Y-67752840D01*
X94171717Y-67878282D01*
X94297159Y-67974536D01*
X94443238Y-68035044D01*
X94600000Y-68055682D01*
X94756762Y-68035044D01*
X94902841Y-67974536D01*
X95028282Y-67878282D01*
X95124536Y-67752841D01*
X95185044Y-67606762D01*
X95205682Y-67450000D01*
X95185044Y-67293238D01*
X95124536Y-67147159D01*
X95032211Y-67026838D01*
X95028282Y-67021717D01*
X94902840Y-66925463D01*
X94756762Y-66864956D01*
X94600000Y-66844317D01*
X94443237Y-66864956D01*
X94297159Y-66925463D01*
X94171717Y-67021717D01*
X94075463Y-67147159D01*
X94014956Y-67293237D01*
X93994317Y-67450000D01*
X77599099Y-67450000D01*
X77605682Y-67400000D01*
X77585044Y-67243238D01*
X77524536Y-67097159D01*
X77468811Y-67024536D01*
X77428282Y-66971717D01*
X77302840Y-66875463D01*
X77156762Y-66814956D01*
X77000000Y-66794317D01*
X76843237Y-66814956D01*
X76697159Y-66875463D01*
X76571717Y-66971717D01*
X76475463Y-67097159D01*
X76414956Y-67243237D01*
X76394317Y-67400000D01*
X75805500Y-67400000D01*
X75805500Y-66346632D01*
X75820527Y-66287464D01*
X75861965Y-66242637D01*
X75919771Y-66223014D01*
X75979936Y-66233353D01*
X76027876Y-66271146D01*
X76071717Y-66328282D01*
X76197158Y-66424535D01*
X76197159Y-66424536D01*
X76343238Y-66485044D01*
X76500000Y-66505682D01*
X76543167Y-66499999D01*
X79994317Y-66499999D01*
X80014956Y-66656762D01*
X80075463Y-66802840D01*
X80171717Y-66928282D01*
X80297159Y-67024536D01*
X80443238Y-67085044D01*
X80600000Y-67105682D01*
X80756762Y-67085044D01*
X80902841Y-67024536D01*
X81028282Y-66928282D01*
X81124536Y-66802841D01*
X81185044Y-66656762D01*
X81205682Y-66500000D01*
X81185044Y-66343238D01*
X81124536Y-66197159D01*
X81028282Y-66071717D01*
X80902840Y-65975463D01*
X80756762Y-65914956D01*
X80600000Y-65894317D01*
X80443237Y-65914956D01*
X80297159Y-65975463D01*
X80171717Y-66071717D01*
X80075463Y-66197159D01*
X80014956Y-66343237D01*
X79994317Y-66499999D01*
X76543167Y-66499999D01*
X76656762Y-66485044D01*
X76802841Y-66424536D01*
X76928282Y-66328282D01*
X77024536Y-66202841D01*
X77085044Y-66056762D01*
X77105682Y-65900000D01*
X77085044Y-65743238D01*
X77024536Y-65597159D01*
X77009057Y-65576986D01*
X76928282Y-65471717D01*
X76802840Y-65375463D01*
X76656762Y-65314956D01*
X76500000Y-65294317D01*
X76343237Y-65314956D01*
X76197159Y-65375463D01*
X76071717Y-65471717D01*
X76027876Y-65528854D01*
X75979936Y-65566647D01*
X75919771Y-65576986D01*
X75861965Y-65557363D01*
X75820527Y-65512536D01*
X75805500Y-65453368D01*
X75805500Y-64700000D01*
X78194317Y-64700000D01*
X78214956Y-64856762D01*
X78275463Y-65002840D01*
X78371717Y-65128282D01*
X78497159Y-65224536D01*
X78643238Y-65285044D01*
X78800000Y-65305682D01*
X78956762Y-65285044D01*
X79102841Y-65224536D01*
X79228282Y-65128282D01*
X79324536Y-65002841D01*
X79325713Y-65000000D01*
X88794317Y-65000000D01*
X88814956Y-65156762D01*
X88875463Y-65302840D01*
X88971717Y-65428282D01*
X89081520Y-65512536D01*
X89097159Y-65524536D01*
X89243238Y-65585044D01*
X89379360Y-65602964D01*
X89399999Y-65605682D01*
X89399999Y-65605681D01*
X89400000Y-65605682D01*
X89556762Y-65585044D01*
X89702841Y-65524536D01*
X89828282Y-65428282D01*
X89924536Y-65302841D01*
X89985044Y-65156762D01*
X90005682Y-65000000D01*
X93394317Y-65000000D01*
X93414956Y-65156762D01*
X93475463Y-65302840D01*
X93571717Y-65428282D01*
X93681520Y-65512536D01*
X93697159Y-65524536D01*
X93843238Y-65585044D01*
X93979360Y-65602964D01*
X93999999Y-65605682D01*
X93999999Y-65605681D01*
X94000000Y-65605682D01*
X94156762Y-65585044D01*
X94302841Y-65524536D01*
X94428282Y-65428282D01*
X94524536Y-65302841D01*
X94585044Y-65156762D01*
X94605682Y-65000000D01*
X94585044Y-64843238D01*
X94524536Y-64697159D01*
X94428282Y-64571717D01*
X94302840Y-64475463D01*
X94156762Y-64414956D01*
X94000000Y-64394317D01*
X93843237Y-64414956D01*
X93697159Y-64475463D01*
X93571717Y-64571717D01*
X93475463Y-64697159D01*
X93414956Y-64843237D01*
X93394317Y-65000000D01*
X90005682Y-65000000D01*
X89985044Y-64843238D01*
X89924536Y-64697159D01*
X89828282Y-64571717D01*
X89702840Y-64475463D01*
X89556762Y-64414956D01*
X89400000Y-64394317D01*
X89243237Y-64414956D01*
X89097159Y-64475463D01*
X88971717Y-64571717D01*
X88875463Y-64697159D01*
X88814956Y-64843237D01*
X88794317Y-65000000D01*
X79325713Y-65000000D01*
X79385044Y-64856762D01*
X79405682Y-64700000D01*
X79385044Y-64543238D01*
X79324536Y-64397159D01*
X79322355Y-64394317D01*
X79228282Y-64271717D01*
X79102840Y-64175463D01*
X78956762Y-64114956D01*
X78800000Y-64094317D01*
X78643237Y-64114956D01*
X78497159Y-64175463D01*
X78371717Y-64271717D01*
X78275463Y-64397159D01*
X78214956Y-64543237D01*
X78194317Y-64700000D01*
X75805500Y-64700000D01*
X75805500Y-64051362D01*
X75800441Y-64000000D01*
X75799630Y-63991762D01*
X75790191Y-63944309D01*
X75772806Y-63886998D01*
X75768505Y-63878953D01*
X75753868Y-63821515D01*
X75767564Y-63763844D01*
X75806464Y-63719119D01*
X75861677Y-63697562D01*
X75956762Y-63685044D01*
X76102841Y-63624536D01*
X76228282Y-63528282D01*
X76324536Y-63402841D01*
X76385044Y-63256762D01*
X76405682Y-63100000D01*
X76385044Y-62943238D01*
X76324536Y-62797159D01*
X76298927Y-62763785D01*
X76228281Y-62671716D01*
X76197861Y-62648374D01*
X76162135Y-62604842D01*
X76149349Y-62550000D01*
X93994317Y-62550000D01*
X94014956Y-62706762D01*
X94075463Y-62852840D01*
X94171717Y-62978282D01*
X94283045Y-63063706D01*
X94297159Y-63074536D01*
X94443238Y-63135044D01*
X94579361Y-63152964D01*
X94599999Y-63155682D01*
X94599999Y-63155681D01*
X94600000Y-63155682D01*
X94756762Y-63135044D01*
X94902841Y-63074536D01*
X95028282Y-62978282D01*
X95124536Y-62852841D01*
X95185044Y-62706762D01*
X95205682Y-62550000D01*
X95185044Y-62393238D01*
X95124536Y-62247159D01*
X95076873Y-62185043D01*
X95028282Y-62121717D01*
X94902840Y-62025463D01*
X94756762Y-61964956D01*
X94599999Y-61944317D01*
X94443237Y-61964956D01*
X94297159Y-62025463D01*
X94171717Y-62121717D01*
X94075463Y-62247159D01*
X94014956Y-62393237D01*
X93994317Y-62550000D01*
X76149349Y-62550000D01*
X76149348Y-62549997D01*
X76162137Y-62495153D01*
X76197862Y-62451623D01*
X76228282Y-62428282D01*
X76324536Y-62302841D01*
X76385044Y-62156762D01*
X76405682Y-62000000D01*
X76385044Y-61843238D01*
X76324536Y-61697159D01*
X76315239Y-61685043D01*
X76228282Y-61571717D01*
X76102840Y-61475463D01*
X75956762Y-61414956D01*
X75805080Y-61394986D01*
X75745779Y-61370422D01*
X75706704Y-61319499D01*
X75698327Y-61255863D01*
X75705682Y-61200000D01*
X75692517Y-61099999D01*
X94594317Y-61099999D01*
X94614956Y-61256762D01*
X94675463Y-61402840D01*
X94771717Y-61528282D01*
X94865183Y-61600000D01*
X94897159Y-61624536D01*
X95043238Y-61685044D01*
X95200000Y-61705682D01*
X95356762Y-61685044D01*
X95502841Y-61624536D01*
X95628282Y-61528282D01*
X95724536Y-61402841D01*
X95724536Y-61402839D01*
X95734275Y-61390148D01*
X95781651Y-61352608D01*
X95841146Y-61341925D01*
X95898622Y-61360640D01*
X95965786Y-61402841D01*
X95970478Y-61405789D01*
X96140745Y-61465368D01*
X96207895Y-61472934D01*
X96275043Y-61480500D01*
X96909727Y-61480500D01*
X96968895Y-61495527D01*
X97013723Y-61536966D01*
X97033345Y-61594773D01*
X97023006Y-61654937D01*
X96998588Y-61685908D01*
X96999487Y-61686598D01*
X96897301Y-61819768D01*
X96839312Y-61959764D01*
X96819533Y-62109999D01*
X96839312Y-62260235D01*
X96897301Y-62400231D01*
X96897302Y-62400233D01*
X96989549Y-62520451D01*
X97109767Y-62612698D01*
X97195896Y-62648374D01*
X97249764Y-62670687D01*
X97362279Y-62685500D01*
X97362280Y-62685500D01*
X97437720Y-62685500D01*
X97437721Y-62685500D01*
X97511391Y-62675801D01*
X97550236Y-62670687D01*
X97690233Y-62612698D01*
X97810451Y-62520451D01*
X97902698Y-62400233D01*
X97960687Y-62260236D01*
X97980466Y-62110000D01*
X97979149Y-62100000D01*
X97960687Y-61959764D01*
X97953841Y-61943237D01*
X97902698Y-61819767D01*
X97810451Y-61699549D01*
X97810449Y-61699547D01*
X97810448Y-61699546D01*
X97716695Y-61627606D01*
X97676966Y-61575071D01*
X97669745Y-61509602D01*
X97697070Y-61449671D01*
X97751227Y-61412190D01*
X97769522Y-61405789D01*
X97922262Y-61309816D01*
X98049816Y-61182262D01*
X98145789Y-61029522D01*
X98205368Y-60859255D01*
X98225565Y-60680000D01*
X99944434Y-60680000D01*
X99964631Y-60859251D01*
X99964631Y-60859253D01*
X99964632Y-60859255D01*
X100024211Y-61029522D01*
X100041530Y-61057085D01*
X100120185Y-61182264D01*
X100247735Y-61309814D01*
X100247737Y-61309815D01*
X100247738Y-61309816D01*
X100400478Y-61405789D01*
X100570745Y-61465368D01*
X100637895Y-61472934D01*
X100705043Y-61480500D01*
X100705046Y-61480500D01*
X101394954Y-61480500D01*
X101394957Y-61480500D01*
X101452511Y-61474014D01*
X101529255Y-61465368D01*
X101699522Y-61405789D01*
X101852262Y-61309816D01*
X101979816Y-61182262D01*
X102075789Y-61029522D01*
X102135368Y-60859255D01*
X102155565Y-60680000D01*
X102135368Y-60500745D01*
X102075789Y-60330478D01*
X101979816Y-60177738D01*
X101979815Y-60177737D01*
X101979814Y-60177735D01*
X101852264Y-60050185D01*
X101789867Y-60010978D01*
X101699522Y-59954211D01*
X101529255Y-59894632D01*
X101529253Y-59894631D01*
X101529251Y-59894631D01*
X101394957Y-59879500D01*
X101394954Y-59879500D01*
X100705046Y-59879500D01*
X100705043Y-59879500D01*
X100570748Y-59894631D01*
X100570745Y-59894631D01*
X100570745Y-59894632D01*
X100400478Y-59954211D01*
X100400476Y-59954211D01*
X100400476Y-59954212D01*
X100247735Y-60050185D01*
X100120185Y-60177735D01*
X100041577Y-60302840D01*
X100024211Y-60330478D01*
X100020319Y-60341601D01*
X99964631Y-60500748D01*
X99944434Y-60680000D01*
X98225565Y-60680000D01*
X98205368Y-60500745D01*
X98145789Y-60330478D01*
X98049816Y-60177738D01*
X98049815Y-60177737D01*
X98049814Y-60177735D01*
X97922264Y-60050185D01*
X97859867Y-60010978D01*
X97769522Y-59954211D01*
X97599255Y-59894632D01*
X97599253Y-59894631D01*
X97599251Y-59894631D01*
X97464957Y-59879500D01*
X97464954Y-59879500D01*
X96275046Y-59879500D01*
X96275043Y-59879500D01*
X96140748Y-59894631D01*
X96140745Y-59894631D01*
X96140745Y-59894632D01*
X95970478Y-59954211D01*
X95970476Y-59954211D01*
X95970476Y-59954212D01*
X95817735Y-60050185D01*
X95690185Y-60177735D01*
X95594209Y-60330480D01*
X95551090Y-60453708D01*
X95513161Y-60508238D01*
X95452530Y-60535368D01*
X95386597Y-60527314D01*
X95356762Y-60514956D01*
X95200000Y-60494317D01*
X95043237Y-60514956D01*
X94897159Y-60575463D01*
X94771717Y-60671717D01*
X94675463Y-60797159D01*
X94614956Y-60943237D01*
X94594317Y-61099999D01*
X75692517Y-61099999D01*
X75685044Y-61043238D01*
X75624536Y-60897159D01*
X75622152Y-60894052D01*
X75528282Y-60771717D01*
X75402841Y-60675463D01*
X75269392Y-60620187D01*
X75225422Y-60589399D01*
X75198584Y-60542913D01*
X75193906Y-60489444D01*
X75205682Y-60400000D01*
X75185044Y-60243238D01*
X75124536Y-60097159D01*
X75083161Y-60043238D01*
X75028282Y-59971717D01*
X74902840Y-59875463D01*
X74756762Y-59814956D01*
X74600000Y-59794317D01*
X74443237Y-59814956D01*
X74297159Y-59875463D01*
X74171717Y-59971717D01*
X74075463Y-60097159D01*
X74014956Y-60243237D01*
X73994317Y-60400000D01*
X74014956Y-60556762D01*
X74075463Y-60702840D01*
X74171717Y-60828282D01*
X74267971Y-60902139D01*
X74297159Y-60924536D01*
X74430607Y-60979812D01*
X74474576Y-61010600D01*
X74501415Y-61057085D01*
X74506093Y-61110558D01*
X74494317Y-61199999D01*
X74514956Y-61356762D01*
X74575463Y-61502840D01*
X74671717Y-61628282D01*
X74764591Y-61699546D01*
X74797159Y-61724536D01*
X74943238Y-61785044D01*
X75085965Y-61803834D01*
X75094918Y-61805013D01*
X75154219Y-61829576D01*
X75193294Y-61880499D01*
X75201672Y-61944137D01*
X75194317Y-61999999D01*
X75214956Y-62156762D01*
X75275463Y-62302840D01*
X75352195Y-62402840D01*
X75371718Y-62428282D01*
X75402135Y-62451622D01*
X75402138Y-62451624D01*
X75437863Y-62495156D01*
X75450651Y-62550000D01*
X75437863Y-62604844D01*
X75402138Y-62648376D01*
X75371716Y-62671719D01*
X75275463Y-62797159D01*
X75214956Y-62943237D01*
X75203994Y-63026498D01*
X75182240Y-63081989D01*
X75137108Y-63120920D01*
X75079025Y-63134295D01*
X75021412Y-63119026D01*
X74988029Y-63100711D01*
X74907213Y-63070294D01*
X74905988Y-63070200D01*
X74901037Y-63069821D01*
X74847720Y-63053115D01*
X74807148Y-63014697D01*
X74787562Y-62962367D01*
X74785044Y-62943238D01*
X74724536Y-62797159D01*
X74724535Y-62797158D01*
X74628282Y-62671717D01*
X74502840Y-62575463D01*
X74356762Y-62514956D01*
X74199999Y-62494317D01*
X74043237Y-62514956D01*
X73897159Y-62575463D01*
X73771718Y-62671717D01*
X73762614Y-62683582D01*
X73722690Y-62717453D01*
X73672347Y-62731829D01*
X73620558Y-62724145D01*
X73602280Y-62717265D01*
X73545022Y-62703254D01*
X73472411Y-62694500D01*
X73472408Y-62694500D01*
X67652186Y-62694500D01*
X67586706Y-62675801D01*
X67540974Y-62625344D01*
X67528783Y-62558346D01*
X67553810Y-62495014D01*
X67605016Y-62428280D01*
X67624536Y-62402841D01*
X67685044Y-62256762D01*
X67705682Y-62100000D01*
X67685044Y-61943238D01*
X67624536Y-61797159D01*
X67615239Y-61785043D01*
X67528282Y-61671717D01*
X67402840Y-61575463D01*
X67256762Y-61514956D01*
X67100000Y-61494317D01*
X66943237Y-61514956D01*
X66797159Y-61575463D01*
X66671717Y-61671717D01*
X66575463Y-61797159D01*
X66514956Y-61943237D01*
X66494317Y-62100000D01*
X66514956Y-62256762D01*
X66575463Y-62402840D01*
X66646190Y-62495014D01*
X66671217Y-62558346D01*
X66659026Y-62625344D01*
X66613294Y-62675801D01*
X66547814Y-62694500D01*
X59177904Y-62694500D01*
X59130451Y-62685061D01*
X59090223Y-62658181D01*
X58341819Y-61909777D01*
X58314939Y-61869549D01*
X58305500Y-61822096D01*
X58305500Y-61599999D01*
X62794317Y-61599999D01*
X62814956Y-61756762D01*
X62875463Y-61902840D01*
X62971717Y-62028282D01*
X63097159Y-62124536D01*
X63243238Y-62185044D01*
X63400000Y-62205682D01*
X63556762Y-62185044D01*
X63702841Y-62124536D01*
X63828282Y-62028282D01*
X63924536Y-61902841D01*
X63985044Y-61756762D01*
X64005682Y-61600000D01*
X63985044Y-61443238D01*
X63924536Y-61297159D01*
X63904585Y-61271158D01*
X63828282Y-61171717D01*
X63702840Y-61075463D01*
X63556762Y-61014956D01*
X63400000Y-60994317D01*
X63243237Y-61014956D01*
X63097159Y-61075463D01*
X62971717Y-61171717D01*
X62875463Y-61297159D01*
X62814956Y-61443237D01*
X62794317Y-61599999D01*
X58305500Y-61599999D01*
X58305500Y-59699999D01*
X63894317Y-59699999D01*
X63914956Y-59856762D01*
X63975463Y-60002840D01*
X64071717Y-60128282D01*
X64136170Y-60177738D01*
X64197159Y-60224536D01*
X64343238Y-60285044D01*
X64500000Y-60305682D01*
X64656762Y-60285044D01*
X64743353Y-60249176D01*
X64798913Y-60240003D01*
X64852802Y-60256350D01*
X64893905Y-60294845D01*
X64913743Y-60347549D01*
X64914956Y-60356762D01*
X64975463Y-60502840D01*
X65071717Y-60628282D01*
X65139118Y-60680000D01*
X65197159Y-60724536D01*
X65343238Y-60785044D01*
X65500000Y-60805682D01*
X65656762Y-60785044D01*
X65802841Y-60724536D01*
X65928282Y-60628282D01*
X66024536Y-60502841D01*
X66085044Y-60356762D01*
X66105682Y-60200000D01*
X66085044Y-60043238D01*
X66024536Y-59897159D01*
X65996951Y-59861209D01*
X65928282Y-59771717D01*
X65802840Y-59675463D01*
X65656762Y-59614956D01*
X65500000Y-59594317D01*
X65361475Y-59612554D01*
X65343238Y-59614956D01*
X65309160Y-59629071D01*
X65256646Y-59650823D01*
X65201084Y-59659995D01*
X65147194Y-59643648D01*
X65106092Y-59605151D01*
X65086256Y-59552446D01*
X65085044Y-59543238D01*
X65025713Y-59400000D01*
X92394317Y-59400000D01*
X92414956Y-59556762D01*
X92475463Y-59702840D01*
X92571717Y-59828282D01*
X92697159Y-59924536D01*
X92843238Y-59985044D01*
X93000000Y-60005682D01*
X93156762Y-59985044D01*
X93302841Y-59924536D01*
X93428282Y-59828282D01*
X93524536Y-59702841D01*
X93585044Y-59556762D01*
X93605682Y-59400000D01*
X93585044Y-59243238D01*
X93524536Y-59097159D01*
X93468811Y-59024536D01*
X93428282Y-58971717D01*
X93302840Y-58875463D01*
X93156762Y-58814956D01*
X93000000Y-58794317D01*
X92843237Y-58814956D01*
X92697159Y-58875463D01*
X92571717Y-58971717D01*
X92475463Y-59097159D01*
X92414956Y-59243237D01*
X92394317Y-59400000D01*
X65025713Y-59400000D01*
X65024536Y-59397159D01*
X64968783Y-59324500D01*
X64928282Y-59271717D01*
X64802840Y-59175463D01*
X64656762Y-59114956D01*
X64500000Y-59094317D01*
X64343237Y-59114956D01*
X64197159Y-59175463D01*
X64071717Y-59271717D01*
X63975463Y-59397159D01*
X63914956Y-59543237D01*
X63894317Y-59699999D01*
X58305500Y-59699999D01*
X58305500Y-57900000D01*
X59294317Y-57900000D01*
X59314956Y-58056762D01*
X59375463Y-58202840D01*
X59471717Y-58328282D01*
X59597158Y-58424535D01*
X59597159Y-58424536D01*
X59743238Y-58485044D01*
X59900000Y-58505682D01*
X59943167Y-58499999D01*
X72794317Y-58499999D01*
X72814956Y-58656762D01*
X72875463Y-58802840D01*
X72971717Y-58928282D01*
X73028325Y-58971718D01*
X73097159Y-59024536D01*
X73243238Y-59085044D01*
X73400000Y-59105682D01*
X73556762Y-59085044D01*
X73702841Y-59024536D01*
X73828282Y-58928282D01*
X73924536Y-58802841D01*
X73985044Y-58656762D01*
X74005682Y-58500000D01*
X73985044Y-58343238D01*
X73924536Y-58197159D01*
X73924535Y-58197158D01*
X73828282Y-58071717D01*
X73702840Y-57975463D01*
X73556762Y-57914956D01*
X73400000Y-57894317D01*
X73243237Y-57914956D01*
X73097159Y-57975463D01*
X72971717Y-58071717D01*
X72875463Y-58197159D01*
X72814956Y-58343237D01*
X72794317Y-58499999D01*
X59943167Y-58499999D01*
X60056762Y-58485044D01*
X60202841Y-58424536D01*
X60328282Y-58328282D01*
X60424536Y-58202841D01*
X60485044Y-58056762D01*
X60505682Y-57900000D01*
X60485044Y-57743238D01*
X60424536Y-57597159D01*
X60408056Y-57575682D01*
X60328282Y-57471717D01*
X60202840Y-57375463D01*
X60056762Y-57314956D01*
X59900000Y-57294317D01*
X59743237Y-57314956D01*
X59597159Y-57375463D01*
X59471717Y-57471717D01*
X59375463Y-57597159D01*
X59314956Y-57743237D01*
X59294317Y-57900000D01*
X58305500Y-57900000D01*
X58305500Y-56899999D01*
X69594317Y-56899999D01*
X69614956Y-57056762D01*
X69675463Y-57202840D01*
X69771717Y-57328282D01*
X69862944Y-57398282D01*
X69897159Y-57424536D01*
X70043238Y-57485044D01*
X70200000Y-57505682D01*
X70356762Y-57485044D01*
X70502841Y-57424536D01*
X70628282Y-57328282D01*
X70724536Y-57202841D01*
X70767134Y-57100000D01*
X71194317Y-57100000D01*
X71214956Y-57256762D01*
X71275463Y-57402840D01*
X71371717Y-57528282D01*
X71497158Y-57624535D01*
X71497159Y-57624536D01*
X71643238Y-57685044D01*
X71800000Y-57705682D01*
X71843159Y-57700000D01*
X74994317Y-57700000D01*
X75014956Y-57856762D01*
X75075463Y-58002840D01*
X75171717Y-58128282D01*
X75262080Y-58197619D01*
X75297159Y-58224536D01*
X75443238Y-58285044D01*
X75600000Y-58305682D01*
X75756762Y-58285044D01*
X75902841Y-58224536D01*
X76028282Y-58128282D01*
X76124536Y-58002841D01*
X76185044Y-57856762D01*
X76205682Y-57700000D01*
X76185044Y-57543238D01*
X76124536Y-57397159D01*
X76071685Y-57328282D01*
X76028282Y-57271717D01*
X75902840Y-57175463D01*
X75756762Y-57114956D01*
X75600000Y-57094317D01*
X75443237Y-57114956D01*
X75297159Y-57175463D01*
X75171717Y-57271717D01*
X75075463Y-57397159D01*
X75014956Y-57543237D01*
X74994317Y-57700000D01*
X71843159Y-57700000D01*
X71956762Y-57685044D01*
X72102841Y-57624536D01*
X72228282Y-57528282D01*
X72324536Y-57402841D01*
X72385044Y-57256762D01*
X72405682Y-57100000D01*
X72388567Y-56969999D01*
X85894317Y-56969999D01*
X85914956Y-57126762D01*
X85975463Y-57272840D01*
X86071717Y-57398282D01*
X86172304Y-57475464D01*
X86197159Y-57494536D01*
X86343238Y-57555044D01*
X86500000Y-57575682D01*
X86656762Y-57555044D01*
X86802841Y-57494536D01*
X86928282Y-57398282D01*
X87024536Y-57272841D01*
X87085044Y-57126762D01*
X87105682Y-56970000D01*
X87085044Y-56813238D01*
X87024536Y-56667159D01*
X86928282Y-56541717D01*
X86789890Y-56435526D01*
X86791151Y-56433881D01*
X86765896Y-56415533D01*
X86739611Y-56363948D01*
X86739611Y-56306052D01*
X86765896Y-56254467D01*
X86791151Y-56236118D01*
X86789890Y-56234474D01*
X86928282Y-56128282D01*
X86949984Y-56099999D01*
X87024536Y-56002841D01*
X87085044Y-55856762D01*
X87105682Y-55700000D01*
X87085044Y-55543238D01*
X87024536Y-55397159D01*
X87010242Y-55378530D01*
X86928282Y-55271717D01*
X86802840Y-55175463D01*
X86656762Y-55114956D01*
X86500000Y-55094317D01*
X86343237Y-55114956D01*
X86197159Y-55175463D01*
X86071717Y-55271717D01*
X85975463Y-55397159D01*
X85914956Y-55543237D01*
X85894317Y-55699999D01*
X85914956Y-55856762D01*
X85975463Y-56002840D01*
X86071717Y-56128282D01*
X86210110Y-56234474D01*
X86208847Y-56236118D01*
X86234106Y-56254471D01*
X86260388Y-56306054D01*
X86260388Y-56363946D01*
X86234106Y-56415529D01*
X86208847Y-56433881D01*
X86210110Y-56435526D01*
X86071717Y-56541717D01*
X85975463Y-56667159D01*
X85914956Y-56813237D01*
X85894317Y-56969999D01*
X72388567Y-56969999D01*
X72385044Y-56943238D01*
X72324536Y-56797159D01*
X72305165Y-56771914D01*
X72228282Y-56671717D01*
X72102840Y-56575463D01*
X71956762Y-56514956D01*
X71800000Y-56494317D01*
X71643237Y-56514956D01*
X71497159Y-56575463D01*
X71371717Y-56671717D01*
X71275463Y-56797159D01*
X71214956Y-56943237D01*
X71194317Y-57100000D01*
X70767134Y-57100000D01*
X70785044Y-57056762D01*
X70805682Y-56900000D01*
X70785044Y-56743238D01*
X70724536Y-56597159D01*
X70645623Y-56494317D01*
X70628282Y-56471717D01*
X70502840Y-56375463D01*
X70356762Y-56314956D01*
X70200000Y-56294317D01*
X70043237Y-56314956D01*
X69897159Y-56375463D01*
X69771717Y-56471717D01*
X69675463Y-56597159D01*
X69614956Y-56743237D01*
X69594317Y-56899999D01*
X58305500Y-56899999D01*
X58305500Y-56000000D01*
X60494317Y-56000000D01*
X60514956Y-56156762D01*
X60575463Y-56302840D01*
X60671717Y-56428282D01*
X60757778Y-56494318D01*
X60797159Y-56524536D01*
X60943238Y-56585044D01*
X61100000Y-56605682D01*
X61256762Y-56585044D01*
X61402841Y-56524536D01*
X61528282Y-56428282D01*
X61624536Y-56302841D01*
X61685044Y-56156762D01*
X61692517Y-56100000D01*
X68194317Y-56100000D01*
X68214956Y-56256762D01*
X68275463Y-56402840D01*
X68371717Y-56528282D01*
X68472588Y-56605682D01*
X68497159Y-56624536D01*
X68643238Y-56685044D01*
X68800000Y-56705682D01*
X68956762Y-56685044D01*
X69102841Y-56624536D01*
X69228282Y-56528282D01*
X69324536Y-56402841D01*
X69385044Y-56256762D01*
X69405682Y-56100000D01*
X69385044Y-55943238D01*
X69324536Y-55797159D01*
X69278828Y-55737591D01*
X69228282Y-55671717D01*
X69102840Y-55575463D01*
X68956762Y-55514956D01*
X68800000Y-55494317D01*
X68643237Y-55514956D01*
X68497159Y-55575463D01*
X68371717Y-55671717D01*
X68275463Y-55797159D01*
X68214956Y-55943237D01*
X68194317Y-56100000D01*
X61692517Y-56100000D01*
X61705682Y-56000000D01*
X61685044Y-55843238D01*
X61624536Y-55697159D01*
X61624535Y-55697158D01*
X61528282Y-55571717D01*
X61402840Y-55475463D01*
X61256762Y-55414956D01*
X61100000Y-55394317D01*
X60943237Y-55414956D01*
X60797159Y-55475463D01*
X60671717Y-55571717D01*
X60575463Y-55697159D01*
X60514956Y-55843237D01*
X60494317Y-56000000D01*
X58305500Y-56000000D01*
X58305500Y-54699999D01*
X75194317Y-54699999D01*
X75214956Y-54856762D01*
X75275463Y-55002840D01*
X75371717Y-55128282D01*
X75472588Y-55205682D01*
X75497159Y-55224536D01*
X75643238Y-55285044D01*
X75800000Y-55305682D01*
X75956762Y-55285044D01*
X76102841Y-55224536D01*
X76228282Y-55128282D01*
X76324536Y-55002841D01*
X76385044Y-54856762D01*
X76405682Y-54700000D01*
X76392517Y-54599999D01*
X78094317Y-54599999D01*
X78114956Y-54756762D01*
X78175463Y-54902840D01*
X78271717Y-55028282D01*
X78357778Y-55094318D01*
X78397159Y-55124536D01*
X78543238Y-55185044D01*
X78700000Y-55205682D01*
X78856762Y-55185044D01*
X79002841Y-55124536D01*
X79128282Y-55028282D01*
X79224536Y-54902841D01*
X79285044Y-54756762D01*
X79305682Y-54600000D01*
X79285044Y-54443238D01*
X79224536Y-54297159D01*
X79210199Y-54278475D01*
X79128282Y-54171717D01*
X79002840Y-54075463D01*
X78856762Y-54014956D01*
X78700000Y-53994317D01*
X78543237Y-54014956D01*
X78397159Y-54075463D01*
X78271717Y-54171717D01*
X78175463Y-54297159D01*
X78114956Y-54443237D01*
X78094317Y-54599999D01*
X76392517Y-54599999D01*
X76385044Y-54543238D01*
X76324536Y-54397159D01*
X76228282Y-54271717D01*
X76102840Y-54175463D01*
X75956762Y-54114956D01*
X75800000Y-54094317D01*
X75643237Y-54114956D01*
X75497159Y-54175463D01*
X75371717Y-54271717D01*
X75275463Y-54397159D01*
X75214956Y-54543237D01*
X75194317Y-54699999D01*
X58305500Y-54699999D01*
X58305500Y-53900000D01*
X68894317Y-53900000D01*
X68914956Y-54056762D01*
X68975463Y-54202840D01*
X69071717Y-54328282D01*
X69197158Y-54424535D01*
X69197159Y-54424536D01*
X69343238Y-54485044D01*
X69500000Y-54505682D01*
X69656762Y-54485044D01*
X69802841Y-54424536D01*
X69928282Y-54328282D01*
X70024536Y-54202841D01*
X70085044Y-54056762D01*
X70105682Y-53900000D01*
X70085044Y-53743238D01*
X70024536Y-53597159D01*
X69928282Y-53471717D01*
X69802840Y-53375463D01*
X69656762Y-53314956D01*
X69500000Y-53294317D01*
X69343237Y-53314956D01*
X69197159Y-53375463D01*
X69071717Y-53471717D01*
X68975463Y-53597159D01*
X68914956Y-53743237D01*
X68894317Y-53900000D01*
X58305500Y-53900000D01*
X58305500Y-53099999D01*
X76494317Y-53099999D01*
X76514956Y-53256762D01*
X76575463Y-53402840D01*
X76671717Y-53528282D01*
X76797158Y-53624535D01*
X76797159Y-53624536D01*
X76943238Y-53685044D01*
X77100000Y-53705682D01*
X77256762Y-53685044D01*
X77402841Y-53624536D01*
X77528282Y-53528282D01*
X77624536Y-53402841D01*
X77685044Y-53256762D01*
X77697783Y-53159999D01*
X85894317Y-53159999D01*
X85914956Y-53316762D01*
X85975463Y-53462840D01*
X86071717Y-53588282D01*
X86118965Y-53624536D01*
X86197159Y-53684536D01*
X86343238Y-53745044D01*
X86500000Y-53765682D01*
X86656762Y-53745044D01*
X86802841Y-53684536D01*
X86928282Y-53588282D01*
X87024536Y-53462841D01*
X87085044Y-53316762D01*
X87105682Y-53160000D01*
X87085044Y-53003238D01*
X87024536Y-52857159D01*
X87013854Y-52843238D01*
X86928282Y-52731717D01*
X86802840Y-52635463D01*
X86656762Y-52574956D01*
X86500000Y-52554317D01*
X86343237Y-52574956D01*
X86197159Y-52635463D01*
X86071717Y-52731717D01*
X85975463Y-52857159D01*
X85914956Y-53003237D01*
X85894317Y-53159999D01*
X77697783Y-53159999D01*
X77705682Y-53100000D01*
X77685044Y-52943238D01*
X77624536Y-52797159D01*
X77596413Y-52760508D01*
X77528282Y-52671717D01*
X77402840Y-52575463D01*
X77256762Y-52514956D01*
X77100000Y-52494317D01*
X76943237Y-52514956D01*
X76797159Y-52575463D01*
X76671717Y-52671717D01*
X76575463Y-52797159D01*
X76514956Y-52943237D01*
X76494317Y-53099999D01*
X58305500Y-53099999D01*
X58305500Y-51051362D01*
X58299630Y-50991762D01*
X58290191Y-50944309D01*
X58272806Y-50886998D01*
X58244573Y-50834180D01*
X58217693Y-50793952D01*
X58179702Y-50747660D01*
X58179699Y-50747656D01*
X57252343Y-49820300D01*
X57206049Y-49782308D01*
X57206048Y-49782307D01*
X57165820Y-49755427D01*
X57113002Y-49727194D01*
X57055691Y-49709809D01*
X57055690Y-49709808D01*
X57055681Y-49709806D01*
X57008242Y-49700370D01*
X56948638Y-49694500D01*
X54051362Y-49694500D01*
X53991757Y-49700370D01*
X53944318Y-49709806D01*
X53920990Y-49716882D01*
X53886998Y-49727194D01*
X53886996Y-49727194D01*
X53886996Y-49727195D01*
X53834181Y-49755426D01*
X53793950Y-49782308D01*
X53747656Y-49820300D01*
X52820300Y-50747656D01*
X52782308Y-50793950D01*
X52755426Y-50834181D01*
X52727195Y-50886996D01*
X52709806Y-50944318D01*
X52700370Y-50991757D01*
X52694500Y-51051362D01*
X52694500Y-64822096D01*
X52685061Y-64869549D01*
X52658181Y-64909777D01*
X52183978Y-65383979D01*
X51689156Y-65878800D01*
X51689152Y-65878804D01*
X51689153Y-65878804D01*
X51668089Y-65905643D01*
X51668088Y-65905644D01*
X51668085Y-65905646D01*
X51643999Y-65936338D01*
X51635341Y-65950606D01*
X51603380Y-65985739D01*
X51560555Y-66006279D01*
X51513150Y-66009213D01*
X51400001Y-65994317D01*
X51243237Y-66014956D01*
X51097159Y-66075463D01*
X51075485Y-66092094D01*
X51026838Y-66114778D01*
X50973162Y-66114778D01*
X50924515Y-66092094D01*
X50902840Y-66075463D01*
X50756762Y-66014956D01*
X50599999Y-65994317D01*
X50443237Y-66014956D01*
X50297159Y-66075463D01*
X50171717Y-66171717D01*
X50075463Y-66297159D01*
X50014956Y-66443237D01*
X49994317Y-66599999D01*
X50014956Y-66756762D01*
X50075463Y-66902840D01*
X50092094Y-66924515D01*
X50114778Y-66973162D01*
X50114778Y-67026838D01*
X50092094Y-67075485D01*
X50075463Y-67097159D01*
X50014956Y-67243237D01*
X49994318Y-67400000D01*
X50009213Y-67513150D01*
X50006279Y-67560555D01*
X49985739Y-67603380D01*
X49950605Y-67635341D01*
X49936340Y-67643998D01*
X49912008Y-67663094D01*
X49878798Y-67689157D01*
X49817181Y-67750775D01*
X49767818Y-67781025D01*
X49710102Y-67785567D01*
X49656615Y-67763412D01*
X49619015Y-67719389D01*
X49605500Y-67663094D01*
X49605500Y-65342096D01*
X49601419Y-65292333D01*
X49601419Y-65292328D01*
X49594837Y-65252465D01*
X49562836Y-65158206D01*
X49543788Y-65122575D01*
X49516726Y-65080609D01*
X46538582Y-61199999D01*
X50594317Y-61199999D01*
X50614956Y-61356762D01*
X50675463Y-61502840D01*
X50771717Y-61628282D01*
X50864591Y-61699546D01*
X50897159Y-61724536D01*
X51043238Y-61785044D01*
X51200000Y-61805682D01*
X51356762Y-61785044D01*
X51502841Y-61724536D01*
X51628282Y-61628282D01*
X51724536Y-61502841D01*
X51785044Y-61356762D01*
X51805682Y-61200000D01*
X51785044Y-61043238D01*
X51724536Y-60897159D01*
X51722152Y-60894052D01*
X51628282Y-60771717D01*
X51502840Y-60675463D01*
X51356762Y-60614956D01*
X51200000Y-60594317D01*
X51043237Y-60614956D01*
X50897159Y-60675463D01*
X50771717Y-60771717D01*
X50675463Y-60897159D01*
X50614956Y-61043237D01*
X50594317Y-61199999D01*
X46538582Y-61199999D01*
X46331129Y-60929681D01*
X46312082Y-60894052D01*
X46305500Y-60854189D01*
X46305500Y-51051362D01*
X46299630Y-50991762D01*
X46290191Y-50944309D01*
X46272806Y-50886998D01*
X46244573Y-50834180D01*
X46217693Y-50793952D01*
X46179702Y-50747660D01*
X46179699Y-50747656D01*
X45252343Y-49820300D01*
X45206049Y-49782308D01*
X45206048Y-49782307D01*
X45165820Y-49755427D01*
X45113002Y-49727194D01*
X45055691Y-49709809D01*
X45055690Y-49709808D01*
X45055681Y-49709806D01*
X45008242Y-49700370D01*
X44948638Y-49694500D01*
X42051362Y-49694500D01*
X41991757Y-49700370D01*
X41944318Y-49709806D01*
X41920990Y-49716882D01*
X41886998Y-49727194D01*
X41886996Y-49727194D01*
X41886996Y-49727195D01*
X41834181Y-49755426D01*
X41793950Y-49782308D01*
X41747656Y-49820300D01*
X40820300Y-50747656D01*
X40782308Y-50793950D01*
X40755426Y-50834181D01*
X40727195Y-50886996D01*
X40709806Y-50944318D01*
X40700370Y-50991757D01*
X40694500Y-51051362D01*
X40694500Y-65948638D01*
X17398920Y-65948638D01*
X17385044Y-65843238D01*
X17324536Y-65697159D01*
X17324535Y-65697158D01*
X17228282Y-65571717D01*
X17102840Y-65475463D01*
X16956762Y-65414956D01*
X16800000Y-65394317D01*
X16643237Y-65414956D01*
X16497159Y-65475463D01*
X16371717Y-65571717D01*
X16275463Y-65697159D01*
X16239061Y-65785043D01*
X16197386Y-65837909D01*
X16134229Y-65861209D01*
X16068205Y-65848076D01*
X16018773Y-65802381D01*
X16000500Y-65737591D01*
X16000500Y-64262409D01*
X16018773Y-64197619D01*
X16068205Y-64151924D01*
X16134229Y-64138791D01*
X16197386Y-64162091D01*
X16239061Y-64214957D01*
X16275463Y-64302840D01*
X16371717Y-64428282D01*
X16497159Y-64524536D01*
X16643238Y-64585044D01*
X16800000Y-64605682D01*
X16956762Y-64585044D01*
X17102841Y-64524536D01*
X17228282Y-64428282D01*
X17324536Y-64302841D01*
X17385044Y-64156762D01*
X17405682Y-64000000D01*
X17385044Y-63843238D01*
X17324536Y-63697159D01*
X17268811Y-63624536D01*
X17228282Y-63571717D01*
X17102840Y-63475463D01*
X16956762Y-63414956D01*
X16800000Y-63394317D01*
X16643237Y-63414956D01*
X16497159Y-63475463D01*
X16371717Y-63571717D01*
X16275463Y-63697159D01*
X16239061Y-63785043D01*
X16197386Y-63837909D01*
X16134229Y-63861209D01*
X16068205Y-63848076D01*
X16018773Y-63802381D01*
X16000500Y-63737591D01*
X16000500Y-62262409D01*
X16018773Y-62197619D01*
X16068205Y-62151924D01*
X16134229Y-62138791D01*
X16197386Y-62162091D01*
X16239061Y-62214957D01*
X16275463Y-62302840D01*
X16371717Y-62428282D01*
X16457778Y-62494318D01*
X16497159Y-62524536D01*
X16643238Y-62585044D01*
X16800000Y-62605682D01*
X16956762Y-62585044D01*
X17102841Y-62524536D01*
X17228282Y-62428282D01*
X17324536Y-62302841D01*
X17385044Y-62156762D01*
X17405682Y-62000000D01*
X17385044Y-61843238D01*
X17324536Y-61697159D01*
X17315239Y-61685043D01*
X17228282Y-61571717D01*
X17102840Y-61475463D01*
X16956762Y-61414956D01*
X16800000Y-61394317D01*
X16643237Y-61414956D01*
X16497159Y-61475463D01*
X16371717Y-61571717D01*
X16275463Y-61697159D01*
X16239061Y-61785043D01*
X16197386Y-61837909D01*
X16134229Y-61861209D01*
X16068205Y-61848076D01*
X16018773Y-61802381D01*
X16000500Y-61737591D01*
X16000500Y-61125000D01*
X25069450Y-61125000D01*
X25089616Y-61394100D01*
X25143067Y-61628282D01*
X25149666Y-61657195D01*
X25248257Y-61908398D01*
X25383185Y-62142102D01*
X25551439Y-62353085D01*
X25749259Y-62536635D01*
X25972226Y-62688651D01*
X26215359Y-62805738D01*
X26473228Y-62885280D01*
X26740071Y-62925500D01*
X27009929Y-62925500D01*
X27276772Y-62885280D01*
X27534641Y-62805738D01*
X27777775Y-62688651D01*
X28000741Y-62536635D01*
X28198561Y-62353085D01*
X28366815Y-62142102D01*
X28501743Y-61908398D01*
X28600334Y-61657195D01*
X28660383Y-61394103D01*
X28680549Y-61125000D01*
X31319450Y-61125000D01*
X31339616Y-61394100D01*
X31393067Y-61628282D01*
X31399666Y-61657195D01*
X31498257Y-61908398D01*
X31633185Y-62142102D01*
X31801439Y-62353085D01*
X31999259Y-62536635D01*
X32222226Y-62688651D01*
X32465359Y-62805738D01*
X32723228Y-62885280D01*
X32990071Y-62925500D01*
X33259929Y-62925500D01*
X33526772Y-62885280D01*
X33784641Y-62805738D01*
X34027775Y-62688651D01*
X34250741Y-62536635D01*
X34448561Y-62353085D01*
X34616815Y-62142102D01*
X34751743Y-61908398D01*
X34850334Y-61657195D01*
X34910383Y-61394103D01*
X34930549Y-61125000D01*
X34910383Y-60855897D01*
X34850334Y-60592805D01*
X34751743Y-60341602D01*
X34616815Y-60107898D01*
X34448561Y-59896915D01*
X34446101Y-59894632D01*
X34250743Y-59713366D01*
X34148485Y-59643648D01*
X34027775Y-59561349D01*
X33784641Y-59444262D01*
X33678867Y-59411635D01*
X33526771Y-59364719D01*
X33259929Y-59324500D01*
X32990071Y-59324500D01*
X32723228Y-59364719D01*
X32465359Y-59444262D01*
X32222228Y-59561347D01*
X31999257Y-59713366D01*
X31801439Y-59896915D01*
X31633184Y-60107899D01*
X31498257Y-60341601D01*
X31399666Y-60592804D01*
X31339616Y-60855899D01*
X31319450Y-61125000D01*
X28680549Y-61125000D01*
X28660383Y-60855897D01*
X28600334Y-60592805D01*
X28501743Y-60341602D01*
X28366815Y-60107898D01*
X28198561Y-59896915D01*
X28196101Y-59894632D01*
X28000743Y-59713366D01*
X27898485Y-59643648D01*
X27777775Y-59561349D01*
X27534641Y-59444262D01*
X27428867Y-59411635D01*
X27276771Y-59364719D01*
X27009929Y-59324500D01*
X26740071Y-59324500D01*
X26473228Y-59364719D01*
X26215359Y-59444262D01*
X25972228Y-59561347D01*
X25749257Y-59713366D01*
X25551439Y-59896915D01*
X25383184Y-60107899D01*
X25248257Y-60341601D01*
X25149666Y-60592804D01*
X25089616Y-60855899D01*
X25069450Y-61125000D01*
X16000500Y-61125000D01*
X16000500Y-60262409D01*
X16018773Y-60197619D01*
X16068205Y-60151924D01*
X16134229Y-60138791D01*
X16197386Y-60162091D01*
X16239061Y-60214957D01*
X16275463Y-60302840D01*
X16371717Y-60428282D01*
X16457778Y-60494318D01*
X16497159Y-60524536D01*
X16643238Y-60585044D01*
X16800000Y-60605682D01*
X16956762Y-60585044D01*
X17102841Y-60524536D01*
X17228282Y-60428282D01*
X17324536Y-60302841D01*
X17385044Y-60156762D01*
X17405682Y-60000000D01*
X17385044Y-59843238D01*
X17324536Y-59697159D01*
X17296019Y-59659995D01*
X17228282Y-59571717D01*
X17102840Y-59475463D01*
X16956762Y-59414956D01*
X16800000Y-59394317D01*
X16643237Y-59414956D01*
X16497159Y-59475463D01*
X16371717Y-59571717D01*
X16275463Y-59697159D01*
X16239061Y-59785043D01*
X16197386Y-59837909D01*
X16134229Y-59861209D01*
X16068205Y-59848076D01*
X16018773Y-59802381D01*
X16000500Y-59737591D01*
X16000500Y-58262409D01*
X16018773Y-58197619D01*
X16068205Y-58151924D01*
X16134229Y-58138791D01*
X16197386Y-58162091D01*
X16239061Y-58214957D01*
X16275463Y-58302840D01*
X16371717Y-58428282D01*
X16465183Y-58500000D01*
X16497159Y-58524536D01*
X16643238Y-58585044D01*
X16800000Y-58605682D01*
X16956762Y-58585044D01*
X17102841Y-58524536D01*
X17228282Y-58428282D01*
X17324536Y-58302841D01*
X17385044Y-58156762D01*
X17405682Y-58000000D01*
X17405682Y-57999999D01*
X28194450Y-57999999D01*
X28214616Y-58269100D01*
X28263904Y-58485043D01*
X28274666Y-58532195D01*
X28373257Y-58783398D01*
X28508185Y-59017102D01*
X28676439Y-59228085D01*
X28874259Y-59411635D01*
X29097226Y-59563651D01*
X29340359Y-59680738D01*
X29598228Y-59760280D01*
X29865071Y-59800500D01*
X30134929Y-59800500D01*
X30401772Y-59760280D01*
X30659641Y-59680738D01*
X30902775Y-59563651D01*
X31125741Y-59411635D01*
X31323561Y-59228085D01*
X31491815Y-59017102D01*
X31626743Y-58783398D01*
X31725334Y-58532195D01*
X31785383Y-58269103D01*
X31805549Y-58000000D01*
X31785383Y-57730897D01*
X31725334Y-57467805D01*
X31626743Y-57216602D01*
X31491815Y-56982898D01*
X31323561Y-56771915D01*
X31292655Y-56743238D01*
X31125743Y-56588366D01*
X31068205Y-56549137D01*
X30902775Y-56436349D01*
X30659641Y-56319262D01*
X30580097Y-56294726D01*
X30401771Y-56239719D01*
X30134929Y-56199500D01*
X29865071Y-56199500D01*
X29598228Y-56239719D01*
X29340359Y-56319262D01*
X29097228Y-56436347D01*
X28874257Y-56588366D01*
X28676439Y-56771915D01*
X28508184Y-56982899D01*
X28373257Y-57216601D01*
X28274666Y-57467804D01*
X28214616Y-57730899D01*
X28194450Y-57999999D01*
X17405682Y-57999999D01*
X17385044Y-57843238D01*
X17324536Y-57697159D01*
X17231324Y-57575682D01*
X17228282Y-57571717D01*
X17102840Y-57475463D01*
X16956762Y-57414956D01*
X16800000Y-57394317D01*
X16643237Y-57414956D01*
X16497159Y-57475463D01*
X16371717Y-57571717D01*
X16275463Y-57697159D01*
X16239061Y-57785043D01*
X16197386Y-57837909D01*
X16134229Y-57861209D01*
X16068205Y-57848076D01*
X16018773Y-57802381D01*
X16000500Y-57737591D01*
X16000500Y-56262409D01*
X16018773Y-56197619D01*
X16068205Y-56151924D01*
X16134229Y-56138791D01*
X16197386Y-56162091D01*
X16239061Y-56214957D01*
X16275463Y-56302840D01*
X16371717Y-56428282D01*
X16457778Y-56494318D01*
X16497159Y-56524536D01*
X16643238Y-56585044D01*
X16800000Y-56605682D01*
X16956762Y-56585044D01*
X17102841Y-56524536D01*
X17228282Y-56428282D01*
X17324536Y-56302841D01*
X17385044Y-56156762D01*
X17405682Y-56000000D01*
X17385044Y-55843238D01*
X17324536Y-55697159D01*
X17324535Y-55697158D01*
X17228282Y-55571717D01*
X17102840Y-55475463D01*
X16956762Y-55414956D01*
X16800000Y-55394317D01*
X16643237Y-55414956D01*
X16497159Y-55475463D01*
X16371717Y-55571717D01*
X16275463Y-55697159D01*
X16239061Y-55785043D01*
X16197386Y-55837909D01*
X16134229Y-55861209D01*
X16068205Y-55848076D01*
X16018773Y-55802381D01*
X16000500Y-55737591D01*
X16000500Y-54875000D01*
X25069450Y-54875000D01*
X25089616Y-55144100D01*
X25121786Y-55285044D01*
X25149666Y-55407195D01*
X25248257Y-55658398D01*
X25383185Y-55892102D01*
X25551439Y-56103085D01*
X25749259Y-56286635D01*
X25972226Y-56438651D01*
X26215359Y-56555738D01*
X26473228Y-56635280D01*
X26740071Y-56675500D01*
X27009929Y-56675500D01*
X27276772Y-56635280D01*
X27534641Y-56555738D01*
X27777775Y-56438651D01*
X28000741Y-56286635D01*
X28198561Y-56103085D01*
X28366815Y-55892102D01*
X28501743Y-55658398D01*
X28600334Y-55407195D01*
X28660383Y-55144103D01*
X28680549Y-54875000D01*
X28680549Y-54874999D01*
X31319450Y-54874999D01*
X31339616Y-55144100D01*
X31371786Y-55285044D01*
X31399666Y-55407195D01*
X31498257Y-55658398D01*
X31633185Y-55892102D01*
X31801439Y-56103085D01*
X31999259Y-56286635D01*
X32222226Y-56438651D01*
X32465359Y-56555738D01*
X32723228Y-56635280D01*
X32990071Y-56675500D01*
X33259929Y-56675500D01*
X33526772Y-56635280D01*
X33784641Y-56555738D01*
X34027775Y-56438651D01*
X34250741Y-56286635D01*
X34448561Y-56103085D01*
X34530769Y-56000000D01*
X38394317Y-56000000D01*
X38414956Y-56156762D01*
X38475463Y-56302840D01*
X38571717Y-56428282D01*
X38657778Y-56494318D01*
X38697159Y-56524536D01*
X38843238Y-56585044D01*
X39000000Y-56605682D01*
X39156762Y-56585044D01*
X39302841Y-56524536D01*
X39428282Y-56428282D01*
X39524536Y-56302841D01*
X39585044Y-56156762D01*
X39605682Y-56000000D01*
X39585044Y-55843238D01*
X39524536Y-55697159D01*
X39524535Y-55697158D01*
X39428282Y-55571717D01*
X39302840Y-55475463D01*
X39156762Y-55414956D01*
X39000000Y-55394317D01*
X38843237Y-55414956D01*
X38697159Y-55475463D01*
X38571717Y-55571717D01*
X38475463Y-55697159D01*
X38414956Y-55843237D01*
X38394317Y-56000000D01*
X34530769Y-56000000D01*
X34616815Y-55892102D01*
X34751743Y-55658398D01*
X34850334Y-55407195D01*
X34910383Y-55144103D01*
X34930549Y-54875000D01*
X34910383Y-54605897D01*
X34850334Y-54342805D01*
X34751743Y-54091602D01*
X34616815Y-53857898D01*
X34448561Y-53646915D01*
X34367517Y-53571717D01*
X34250743Y-53463366D01*
X34154707Y-53397890D01*
X34027775Y-53311349D01*
X33784641Y-53194262D01*
X33702254Y-53168849D01*
X33526771Y-53114719D01*
X33259929Y-53074500D01*
X32990071Y-53074500D01*
X32723228Y-53114719D01*
X32465359Y-53194262D01*
X32222228Y-53311347D01*
X31999257Y-53463366D01*
X31801439Y-53646915D01*
X31633184Y-53857899D01*
X31498257Y-54091601D01*
X31399666Y-54342804D01*
X31339616Y-54605899D01*
X31319450Y-54874999D01*
X28680549Y-54874999D01*
X28660383Y-54605897D01*
X28600334Y-54342805D01*
X28501743Y-54091602D01*
X28366815Y-53857898D01*
X28198561Y-53646915D01*
X28117517Y-53571717D01*
X28000743Y-53463366D01*
X27904707Y-53397890D01*
X27777775Y-53311349D01*
X27534641Y-53194262D01*
X27452254Y-53168849D01*
X27276771Y-53114719D01*
X27009929Y-53074500D01*
X26740071Y-53074500D01*
X26473228Y-53114719D01*
X26215359Y-53194262D01*
X25972228Y-53311347D01*
X25749257Y-53463366D01*
X25551439Y-53646915D01*
X25383184Y-53857899D01*
X25248257Y-54091601D01*
X25149666Y-54342804D01*
X25089616Y-54605899D01*
X25069450Y-54875000D01*
X16000500Y-54875000D01*
X16000500Y-54262409D01*
X16018773Y-54197619D01*
X16068205Y-54151924D01*
X16134229Y-54138791D01*
X16197386Y-54162091D01*
X16239061Y-54214957D01*
X16275463Y-54302840D01*
X16371717Y-54428282D01*
X16472588Y-54505682D01*
X16497159Y-54524536D01*
X16643238Y-54585044D01*
X16800000Y-54605682D01*
X16956762Y-54585044D01*
X17102841Y-54524536D01*
X17228282Y-54428282D01*
X17324536Y-54302841D01*
X17385044Y-54156762D01*
X17405682Y-54000000D01*
X17385044Y-53843238D01*
X17324536Y-53697159D01*
X17285982Y-53646914D01*
X17228282Y-53571717D01*
X17102840Y-53475463D01*
X16956762Y-53414956D01*
X16800000Y-53394317D01*
X16643237Y-53414956D01*
X16497159Y-53475463D01*
X16371717Y-53571717D01*
X16275463Y-53697159D01*
X16239061Y-53785043D01*
X16197386Y-53837909D01*
X16134229Y-53861209D01*
X16068205Y-53848076D01*
X16018773Y-53802381D01*
X16000500Y-53737591D01*
X16000500Y-50002870D01*
X16000566Y-50000000D01*
X16494696Y-50000000D01*
X16513897Y-50366406D01*
X16571293Y-50728788D01*
X16666258Y-51083200D01*
X16797744Y-51425735D01*
X16964320Y-51752656D01*
X17164146Y-52060363D01*
X17279600Y-52202936D01*
X17395051Y-52345506D01*
X17654494Y-52604949D01*
X17731296Y-52667142D01*
X17939636Y-52835853D01*
X18197388Y-53003238D01*
X18247348Y-53035682D01*
X18574264Y-53202255D01*
X18916801Y-53333742D01*
X19271206Y-53428705D01*
X19271209Y-53428705D01*
X19271211Y-53428706D01*
X19633593Y-53486102D01*
X19683373Y-53488710D01*
X20000000Y-53505304D01*
X20331645Y-53487923D01*
X20366406Y-53486102D01*
X20728788Y-53428706D01*
X20728788Y-53428705D01*
X20728794Y-53428705D01*
X21083199Y-53333742D01*
X21425736Y-53202255D01*
X21752652Y-53035682D01*
X22060366Y-52835851D01*
X22345506Y-52604949D01*
X22604949Y-52345506D01*
X22835851Y-52060366D01*
X23035682Y-51752652D01*
X23202255Y-51425736D01*
X23333742Y-51083199D01*
X23428705Y-50728794D01*
X23432065Y-50707578D01*
X23486102Y-50366406D01*
X23489433Y-50302838D01*
X23505304Y-50000000D01*
X23486102Y-49633596D01*
X23485564Y-49630200D01*
X23428706Y-49271211D01*
X23423754Y-49252729D01*
X23333742Y-48916801D01*
X23202255Y-48574264D01*
X23035682Y-48247348D01*
X23035679Y-48247343D01*
X22835853Y-47939636D01*
X22631746Y-47687586D01*
X22604949Y-47654494D01*
X22345506Y-47395051D01*
X22139564Y-47228282D01*
X22060363Y-47164146D01*
X21752656Y-46964320D01*
X21425735Y-46797744D01*
X21083200Y-46666258D01*
X20728788Y-46571293D01*
X20366406Y-46513897D01*
X20000000Y-46494696D01*
X19633593Y-46513897D01*
X19271211Y-46571293D01*
X18916799Y-46666258D01*
X18574264Y-46797744D01*
X18247343Y-46964320D01*
X17939636Y-47164146D01*
X17654490Y-47395054D01*
X17395054Y-47654490D01*
X17164146Y-47939636D01*
X16964320Y-48247343D01*
X16797744Y-48574264D01*
X16666258Y-48916799D01*
X16571293Y-49271211D01*
X16513897Y-49633593D01*
X16494696Y-50000000D01*
X16000566Y-50000000D01*
X16000632Y-49997144D01*
X16001284Y-49983036D01*
X16008489Y-49827186D01*
X16018166Y-49630200D01*
X16019200Y-49619217D01*
X16044611Y-49437054D01*
X16044722Y-49436286D01*
X16071950Y-49252729D01*
X16073890Y-49242595D01*
X16116526Y-49061318D01*
X16116837Y-49060037D01*
X16161405Y-48882111D01*
X16164091Y-48872922D01*
X16223572Y-48695457D01*
X16224270Y-48693442D01*
X16285699Y-48521759D01*
X16288996Y-48513497D01*
X16364713Y-48342015D01*
X16366051Y-48339089D01*
X16377473Y-48314939D01*
X16443727Y-48174855D01*
X16447452Y-48167612D01*
X16538864Y-48003497D01*
X16540745Y-48000243D01*
X16634036Y-47844598D01*
X16638034Y-47838363D01*
X16744270Y-47683278D01*
X16746899Y-47679590D01*
X16854909Y-47533954D01*
X16859011Y-47528728D01*
X16979239Y-47383944D01*
X16982577Y-47380097D01*
X17104340Y-47245752D01*
X17108437Y-47241450D01*
X17241450Y-47108437D01*
X17245752Y-47104340D01*
X17380097Y-46982577D01*
X17383944Y-46979239D01*
X17528728Y-46859011D01*
X17533954Y-46854909D01*
X17679590Y-46746899D01*
X17683278Y-46744270D01*
X17838363Y-46638034D01*
X17844598Y-46634036D01*
X18000243Y-46540745D01*
X18003497Y-46538864D01*
X18167612Y-46447452D01*
X18174855Y-46443727D01*
X18339098Y-46366046D01*
X18342018Y-46364712D01*
X18406007Y-46336458D01*
X18513497Y-46288996D01*
X18521759Y-46285699D01*
X18693442Y-46224270D01*
X18695457Y-46223572D01*
X18872922Y-46164091D01*
X18882111Y-46161405D01*
X19060037Y-46116837D01*
X19061318Y-46116526D01*
X19242595Y-46073890D01*
X19252729Y-46071950D01*
X19436286Y-46044722D01*
X19437054Y-46044611D01*
X19619217Y-46019200D01*
X19630200Y-46018166D01*
X19826898Y-46008502D01*
X19991674Y-46000884D01*
X19997146Y-46000632D01*
X20002872Y-46000500D01*
X23737591Y-46000500D01*
X23802381Y-46018773D01*
G37*
%TD.AperFunction*%
%TD*%
%TA.AperFunction,Conductor*%
%TO.N,+1V8*%
G36*
X44996091Y-50009439D02*
G01*
X45036319Y-50036319D01*
X45963681Y-50963681D01*
X45990561Y-51003909D01*
X46000000Y-51051362D01*
X46000000Y-61000001D01*
X49274370Y-65266603D01*
X49293418Y-65302234D01*
X49300000Y-65342097D01*
X49300000Y-69072408D01*
X49285989Y-69129665D01*
X49247123Y-69173983D01*
X49192185Y-69195346D01*
X49115116Y-69205493D01*
X49043237Y-69214956D01*
X48897159Y-69275463D01*
X48828108Y-69328447D01*
X48768807Y-69353009D01*
X48705170Y-69344631D01*
X48654247Y-69305556D01*
X48628282Y-69271717D01*
X48502840Y-69175463D01*
X48356762Y-69114956D01*
X48199999Y-69094317D01*
X48043237Y-69114956D01*
X47897159Y-69175463D01*
X47771717Y-69271717D01*
X47675463Y-69397159D01*
X47614956Y-69543237D01*
X47594317Y-69699999D01*
X47614956Y-69856762D01*
X47675463Y-70002840D01*
X47771717Y-70128282D01*
X47857941Y-70194443D01*
X47897159Y-70224536D01*
X48043238Y-70285044D01*
X48179361Y-70302964D01*
X48199999Y-70305682D01*
X48199999Y-70305681D01*
X48200000Y-70305682D01*
X48356762Y-70285044D01*
X48502841Y-70224536D01*
X48571891Y-70171552D01*
X48631191Y-70146990D01*
X48694829Y-70155368D01*
X48745752Y-70194443D01*
X48771717Y-70228282D01*
X48872588Y-70305682D01*
X48897159Y-70324536D01*
X49043238Y-70385044D01*
X49192185Y-70404653D01*
X49247123Y-70426017D01*
X49285989Y-70470335D01*
X49300000Y-70527592D01*
X49300000Y-70876000D01*
X49283387Y-70938000D01*
X49238000Y-70983387D01*
X49176000Y-71000000D01*
X46051362Y-71000000D01*
X46003909Y-70990561D01*
X45963681Y-70963681D01*
X41036319Y-66036319D01*
X41009439Y-65996091D01*
X41000000Y-65948638D01*
X41000000Y-56000000D01*
X41394317Y-56000000D01*
X41414956Y-56156762D01*
X41475463Y-56302840D01*
X41571717Y-56428282D01*
X41697158Y-56524535D01*
X41697159Y-56524536D01*
X41843238Y-56585044D01*
X42000000Y-56605682D01*
X42156762Y-56585044D01*
X42302841Y-56524536D01*
X42428282Y-56428282D01*
X42524536Y-56302841D01*
X42585044Y-56156762D01*
X42605682Y-56000000D01*
X42585044Y-55843238D01*
X42524536Y-55697159D01*
X42524535Y-55697158D01*
X42428282Y-55571717D01*
X42302840Y-55475463D01*
X42156762Y-55414956D01*
X42000000Y-55394317D01*
X41843237Y-55414956D01*
X41697159Y-55475463D01*
X41571717Y-55571717D01*
X41475463Y-55697159D01*
X41414956Y-55843237D01*
X41394317Y-56000000D01*
X41000000Y-56000000D01*
X41000000Y-54599999D01*
X43394317Y-54599999D01*
X43414956Y-54756762D01*
X43475463Y-54902840D01*
X43571717Y-55028282D01*
X43697159Y-55124536D01*
X43843238Y-55185044D01*
X44000000Y-55205682D01*
X44156762Y-55185044D01*
X44302841Y-55124536D01*
X44428282Y-55028282D01*
X44524536Y-54902841D01*
X44585044Y-54756762D01*
X44605682Y-54600000D01*
X44585044Y-54443238D01*
X44524536Y-54297159D01*
X44524535Y-54297158D01*
X44428282Y-54171717D01*
X44302840Y-54075463D01*
X44156762Y-54014956D01*
X44000000Y-53994317D01*
X43843237Y-54014956D01*
X43697159Y-54075463D01*
X43571717Y-54171717D01*
X43475463Y-54297159D01*
X43414956Y-54443237D01*
X43394317Y-54599999D01*
X41000000Y-54599999D01*
X41000000Y-51051362D01*
X41009439Y-51003909D01*
X41036319Y-50963681D01*
X41963681Y-50036319D01*
X42003909Y-50009439D01*
X42051362Y-50000000D01*
X44948638Y-50000000D01*
X44996091Y-50009439D01*
G37*
%TD.AperFunction*%
%TD*%
M02*
